<?xml version="1.0" encoding="utf-8"?>
<!-- Generator: Adobe Illustrator 16.0.0, SVG Export Plug-In . SVG Version: 6.00 Build 0)  -->
<!DOCTYPE svg PUBLIC "-//W3C//DTD SVG 1.1//EN" "http://www.w3.org/Graphics/SVG/1.1/DTD/svg11.dtd">
<svg version="1.1" id="Ebene_1" xmlns="http://www.w3.org/2000/svg" xmlns:xlink="http://www.w3.org/1999/xlink" x="0px" y="0px"
	 width="382.527px" height="131.122px" viewBox="0 0 382.527 131.122" enable-background="new 0 0 382.527 131.122"
	 xml:space="preserve">
<g>
	<path fill="#FFFFFF" d="M-0.287,79.842h13.778c10.511,0,16.548,4.402,16.548,13.209c0,4.475-2.201,8.168-6.321,10.654
		c5.397,3.408,7.528,6.248,7.528,12.642c0,10.156-6.818,14.772-17.187,14.772H-0.287V79.842z M9.513,100.155h3.409
		c4.404,0,7.315-2.558,7.315-6.037c0-3.766-2.202-6.179-6.818-6.179H9.513V100.155z M9.513,123.023h4.12
		c5.114,0,7.812-2.983,7.812-7.458c0-4.899-3.409-7.314-8.523-7.314H9.513V123.023z"/>
	<path fill="#FFFFFF" d="M37.777,131.12V79.842h26.846v8.664H47.578v11.79h12.996v8.664H47.578v13.494h17.755v8.667H37.777V131.12z"
		/>
	<path fill="#FFFFFF" d="M101.552,79.842v8.664H90.116v42.613h-9.801V88.506H68.881v-8.664H101.552z"/>
	<path fill="#FFFFFF" d="M138.479,79.842v8.664h-11.436v42.613h-9.801V88.506h-11.435v-8.664H138.479z"/>
</g>
<path fill="#FFFFFF" d="M164.006,104.954l-2.979-7.304h-1.64v7.304h-3.428V87.016h4.968c4.125,0,6.087,1.99,6.087,5.369
	c0,2.235-0.795,3.85-2.708,4.57l3.38,8h-3.68V104.954z M159.387,94.818h1.764c1.515,0,2.436-0.744,2.436-2.483
	c0-1.74-0.921-2.484-2.436-2.484h-1.764V94.818z"/>
<path fill="#FFFFFF" d="M169.049,104.954l4.447-17.938h4.396l4.324,17.938h-3.279l-0.871-3.775h-4.744l-0.969,3.775H169.049z
	 M173.944,98.149h3.402l-1.664-7.255h-0.049L173.944,98.149z"/>
<path fill="#FFFFFF" d="M188.201,87.016v12.547c0,1.713,0.747,2.609,2.41,2.609c1.664,0,2.435-0.896,2.435-2.609V87.016h3.429
	v12.572c0,3.95-2.336,5.616-5.863,5.616c-3.528,0-5.839-1.665-5.839-5.616V87.016H188.201z"/>
<path fill="#FFFFFF" d="M200.446,104.954V87.016h4.796l3.104,11.777h0.05l3.105-11.777h4.795v17.938h-2.931V90.844h-0.051
	l-3.651,14.109h-2.583l-3.651-14.109h-0.051v14.109H200.446z"/>
<path fill="#FFFFFF" d="M227.475,104.954V87.016h8.942v3.033h-5.514v4.124h4.321v3.031h-4.321v7.749H227.475z"/>
<path fill="#FFFFFF" d="M242.625,87.016v12.547c0,1.713,0.747,2.609,2.41,2.609s2.437-0.896,2.437-2.609V87.016h3.427v12.572
	c0,3.95-2.336,5.616-5.863,5.616s-5.838-1.665-5.838-5.616V87.016H242.625z M244.192,82.969v2.83h-2.981v-2.83H244.192z
	 M248.913,82.969v2.83h-2.982v-2.83H248.913z"/>
<path fill="#FFFFFF" d="M262.722,104.954l-2.98-7.304h-1.64v7.304h-3.428V87.016h4.966c4.125,0,6.09,1.99,6.09,5.369
	c0,2.235-0.797,3.85-2.708,4.57l3.38,8h-3.68V104.954z M258.103,94.818h1.764c1.516,0,2.435-0.744,2.435-2.483
	c0-1.74-0.919-2.484-2.435-2.484h-1.764V94.818z"/>
<path fill="#FFFFFF" d="M155.959,112.935h4.769c3.925,0,6.111,1.69,6.262,6.212v5.515c-0.15,4.521-2.337,6.212-6.262,6.212h-4.769
	V112.935z M159.387,127.841h1.191c1.888,0,2.981-0.896,2.981-3.577v-4.721c0-2.533-0.845-3.577-2.981-3.577h-1.191V127.841z"/>
<path fill="#FFFFFF" d="M170.266,130.874v-17.938h9.39v3.032h-5.962v4.124h4.546v3.03h-4.546v4.723h6.21v3.029H170.266
	L170.266,130.874z"/>
<path fill="#FFFFFF" d="M190.76,117.93c-0.571-1.689-1.314-2.412-2.509-2.412c-1.219,0-1.889,0.747-1.889,1.963
	c0,2.709,7.652,2.907,7.652,8.521c0,3.08-2.111,5.119-5.713,5.119c-2.782,0-4.944-1.518-5.865-5.045l3.38-0.719
	c0.397,2.16,1.64,2.931,2.659,2.931c1.191,0,2.11-0.794,2.11-2.137c0-3.378-7.652-3.429-7.652-8.446c0-3.08,1.839-5.019,5.393-5.019
	c3.055,0,4.917,1.813,5.515,4.348L190.76,117.93z"/>
<path fill="#FFFFFF" d="M197.689,130.874v-17.938h3.429v17.938H197.689z"/>
<path fill="#FFFFFF" d="M213.464,129.381c-0.92,1.043-1.913,1.74-3.206,1.74c-3.328,0-5.664-1.59-5.664-6.013v-6.411
	c0-4.42,2.336-6.011,5.664-6.011c3.504,0,5.391,2.013,5.516,6.086h-3.428c0-2.311-0.844-3.055-2.088-3.055
	c-1.364,0-2.233,0.546-2.233,2.533v7.304c0,1.987,0.869,2.535,2.233,2.535c1.293,0,2.088-0.943,2.088-2.484v-1.094h-2.409v-2.832
	h5.84v9.193h-1.791L213.464,129.381z"/>
<path fill="#FFFFFF" d="M219.398,130.874v-17.938h3.752l4.771,10.634h0.05v-10.634h3.131v17.938h-3.281l-5.243-11.579h-0.047v11.579
	H219.398z"/>
<path fill="#FFFFFF" d="M234.878,130.874v-17.938h3.427v7.405h0.049l4.447-7.405h3.752l-4.621,7.231l5.143,10.707h-3.852
	l-3.578-7.527l-1.34,2.037v5.49H234.878L234.878,130.874z"/>
<path fill="#FFFFFF" d="M248.886,118.698c0-4.42,2.335-6.011,5.665-6.011s5.664,1.591,5.664,6.011v6.411
	c0,4.421-2.334,6.013-5.664,6.013s-5.665-1.59-5.665-6.013V118.698z M252.314,125.555c0,1.987,0.868,2.535,2.234,2.535
	s2.236-0.548,2.236-2.535v-7.304c0-1.987-0.87-2.533-2.236-2.533s-2.234,0.546-2.234,2.533V125.555z"/>
<path fill="#FFFFFF" d="M263.69,130.874v-17.938h4.794l3.105,11.776h0.05l3.107-11.776h4.792v17.938h-2.931v-14.111h-0.048
	l-3.652,14.111h-2.583l-3.651-14.111h-0.051v14.111H263.69z"/>
<path fill="#FFFFFF" d="M283.514,130.874v-17.938h4.945c4.222,0,6.283,1.989,6.283,5.368s-2.062,5.366-6.283,5.366h-1.518v7.204
	H283.514L283.514,130.874z M286.941,120.836h1.837c1.691,0,2.536-0.844,2.536-2.533s-0.845-2.533-2.536-2.533h-1.837V120.836z"/>
<path fill="#FFFFFF" d="M295.487,130.874l4.446-17.938h4.396l4.323,17.938h-3.278l-0.871-3.777h-4.745l-0.97,3.777H295.487z
	 M300.38,124.067h3.403l-1.661-7.254h-0.051L300.38,124.067z"/>
<path fill="#FFFFFF" d="M319.062,130.874l-2.979-7.305h-1.64v7.305h-3.429v-17.938h4.967c4.125,0,6.087,1.989,6.087,5.368
	c0,2.235-0.795,3.85-2.707,4.57l3.379,8H319.062L319.062,130.874z M314.442,120.737h1.763c1.516,0,2.435-0.744,2.435-2.484
	c0-1.739-0.919-2.482-2.435-2.482h-1.763V120.737z"/>
<path fill="#FFFFFF" d="M324.104,130.874l4.445-17.938h4.397l4.324,17.938h-3.279l-0.87-3.777h-4.745l-0.97,3.777H324.104z
	 M328.997,124.067h3.403l-1.663-7.254h-0.052L328.997,124.067z"/>
<path fill="#FFFFFF" d="M348.646,112.935v3.032h-3.999v14.906h-3.429v-14.907h-3.999v-3.031H348.646L348.646,112.935z"/>
<path fill="#FFFFFF" d="M351.379,130.874v-17.938h3.428v17.938H351.379z"/>
<path fill="#FFFFFF" d="M357.415,112.935h3.378l3.157,12.82h0.047l3.131-12.82h3.354l-4.572,17.938h-3.9L357.415,112.935z"/>
<path fill="#FFFFFF" d="M372.888,130.874v-17.938h9.391v3.032h-5.962v4.124h4.547v3.03h-4.547v4.723h6.211v3.029H372.888
	L372.888,130.874z"/>
</svg>
