<?xml version="1.0" encoding="utf-8"?>
<!-- Generator: Adobe Illustrator 16.0.0, SVG Export Plug-In . SVG Version: 6.00 Build 0)  -->
<!DOCTYPE svg PUBLIC "-//W3C//DTD SVG 1.1//EN" "http://www.w3.org/Graphics/SVG/1.1/DTD/svg11.dtd">
<svg version="1.1" id="Ebene_1" xmlns="http://www.w3.org/2000/svg" xmlns:xlink="http://www.w3.org/1999/xlink" x="0px" y="0px"
	 width="357.853px" height="369.854px" viewBox="0 0 357.853 369.854" enable-background="new 0 0 357.853 369.854"
	 xml:space="preserve">
<path fill-rule="evenodd" clip-rule="evenodd" fill="#FFFFFF" d="M295.466,100.033c-2.709,0.717-4.122,0.089-5.955-1.828
	c-7.567-7.912-15.267-15.716-23.175-23.284c-2.023-1.936-2.474-3.433-1.743-6.001c1.644-5.764,2.965-11.617,4.405-17.438
	c2.229-9.002,4.446-18.007,6.391-25.89C257.697,18.251,240.688,11.196,223.342,4c-7.202,12-14.869,24.482-22.188,37.164
	c-1.942,3.366-3.879,4.333-7.844,4.051c-8.763-0.624-17.671-1.081-26.366-0.162c-5.988,0.634-9.393-0.854-11.534-6.137
	c-0.188-0.46-0.444-0.916-0.702-1.344c-6.857-11.378-13.843-23.051-20.676-34.292c-17.387,7.201-34.418,14.256-51.611,21.378
	c0.409,1.995,0.545,3.454,0.939,5.043c3.238,13.088,6.367,26.215,9.887,39.228c0.82,3.03-0.174,4.396-2.15,6.279
	c-7.206,6.871-14.514,13.689-21.115,21.12c-3.086,3.473-5.466,4.5-10.008,3.208c-11.807-3.36-23.801-6.063-35.028-8.856
	c-7.304,17.558-14.38,34.566-21.627,51.989c10.692,6.415,21.79,13.116,32.938,19.727c2.318,1.373,3.299,2.732,3.193,5.833
	c-0.387,11.103-0.289,22.229-0.005,33.339c0.074,2.913-0.625,4.382-3.157,5.858C25.1,213.95,14.085,220.744,2.83,227.54
	c7.198,17.38,14.253,34.411,21.447,51.78c12.757-3.174,25.078-5.955,37.396-9.365c3.65-1.01,5.252,0.253,7.457,2.656
	c6.282,6.849,12.511,13.847,19.537,19.878c4.106,3.523,5.426,6.273,3.896,11.632c-3.874,13.582-6.972,27.387-10.223,40.462
	c17.461,7.333,34.458,14.469,51.769,21.739c0.73-1.162,1.631-2.54,2.479-3.949c6.872-11.417,13.852-22.773,20.518-34.309
	c1.672-2.891,3.379-3.808,6.69-3.498c6.609,0.617,13.27,0.785,19.913,0.907c5.061,0.093,11.137-1.941,14.91,0.212
	c3.904,2.228,5.579,8.43,8.245,12.847c5.646,9.354,11.231,18.507,16.956,28.042c17.576-7.281,34.598-14.331,51.802-21.457
	c-3.603-14.744-7.435-29.705-10.856-44.454c-0.376-1.624,0.383-4.188,1.552-5.416c7.663-8.051,15.497-15.953,23.493-23.671
	c1.223-1.179,3.715-1.965,5.355-1.633c7.012,1.429,13.922,3.35,20.873,5.075c5.92,1.471,11.845,2.919,16.531,4.073
	c7.354-17.784,14.395-34.806,21.553-52.117c-10.062-6.051-20.656-12.672-31.518-18.816c-3.653-2.066-4.312-4.355-4.043-8.284
	c0.589-8.606,1.647-17.456,0.283-25.845c-1.31-8.047,1.751-11.496,8.085-14.9c9.61-5.164,18.557-11.094,28.093-16.812
	c-7.282-17.582-14.332-34.602-21.457-51.804C320.796,93.651,308.012,96.716,295.466,100.033z M256.959,154.894
	c17.542,46.382-7.045,92.832-48.346,108.261c-45.918,17.153-92.627-7.003-108.047-48.838c-16.77-45.497,6.991-91.265,48.34-107.606
	C194.963,90.042,241.25,113.361,256.959,154.894z"/>
</svg>
