<?xml version="1.0" encoding="utf-8"?>
<!-- Generator: Adobe Illustrator 16.0.0, SVG Export Plug-In . SVG Version: 6.00 Build 0)  -->
<!DOCTYPE svg PUBLIC "-//W3C//DTD SVG 1.1//EN" "http://www.w3.org/Graphics/SVG/1.1/DTD/svg11.dtd">
<svg version="1.1" id="Ebene_1" xmlns="http://www.w3.org/2000/svg" xmlns:xlink="http://www.w3.org/1999/xlink" x="0px" y="0px"
	 width="228.945px" height="41.083px" viewBox="190.586 0 228.945 41.083" enable-background="new 190.586 0 228.945 41.083"
	 xml:space="preserve">
<g>
	<g>
		<defs>
			<rect id="SVGID_1_" width="419.531" height="41.083"/>
		</defs>
		<clipPath id="SVGID_2_">
			<use xlink:href="#SVGID_1_"  overflow="visible"/>
		</clipPath>
		<path clip-path="url(#SVGID_2_)" fill="#00CDBE" d="M319.169,30.381c0,1.133-0.434,1.566-1.338,1.566s-1.299-0.435-1.299-1.547
			c0-1.111,0.414-1.523,1.299-1.523S319.169,29.215,319.169,30.381 M320.091,37.805c0,0.962-0.678,1.225-2.053,1.225
			c-1.449,0-1.902-0.227-1.902-1.148c0-0.246,0.095-0.547,0.207-0.734h3.033C319.884,37.146,320.091,37.241,320.091,37.805
			 M322.484,37.599c0-2.111-1.168-2.675-2.994-2.675h-2.58c-0.32,0-0.453-0.077-0.453-0.396c0-0.227,0.113-0.527,0.319-0.865
			c0.321,0.094,0.83,0.17,1.282,0.17c2.07,0,3.482-1.094,3.482-3.262c0-0.508-0.131-1.017-0.356-1.336v-0.132l1.093-0.076
			c0.112-0.563,0.151-1.243,0.151-1.846h-3.108c-0.453-0.112-1.074-0.188-1.64-0.188c-2.315,0-3.616,1.411-3.616,3.467
			c0,1.186,0.414,1.978,1.072,2.485c-0.489,0.847-0.924,1.677-1.036,2.261c0.151,0.451,0.452,1.035,0.681,1.412
			c-0.697,0.527-0.998,1.188-0.998,1.828c0,1.602,1.108,2.637,4.18,2.637C321.035,41.083,322.484,39.708,322.484,37.599
			 M312.52,36.016c0-0.303-0.019-0.659-0.037-0.961l-1.13-0.188v-4.842c0-2.225-1.227-3.031-2.751-3.031
			c-0.96,0-1.791,0.244-2.75,1.166h-0.149l0.057-1.074c-1.188,0-2.657,0.076-3.73,0.265c-0.037,0.282-0.059,0.642-0.059,0.961
			c0,0.321,0.021,0.679,0.059,0.961l1.188,0.112v5.482l-1.148,0.188c-0.037,0.302-0.057,0.641-0.057,0.961
			c0,0.318,0.02,0.678,0.057,0.997h4.576c0.039-0.319,0.059-0.679,0.059-0.997c0-0.32-0.02-0.659-0.059-0.961l-0.865-0.188V29.78
			c0.547-0.32,1.148-0.49,1.77-0.49c0.943,0,1.244,0.377,1.244,1.111v4.465l-0.83,0.188c-0.035,0.302-0.057,0.641-0.057,0.961
			c0,0.319,0.021,0.678,0.057,0.997h4.522C312.501,36.693,312.52,36.334,312.52,36.016 M300.482,36.016
			c0-0.32-0.02-0.659-0.038-0.961l-1.167-0.188v-5.463l0.075-2.224h-3.843c-0.02,0.319-0.038,0.678-0.038,0.999
			c0,0.318,0.021,0.658,0.038,0.96l1.205,0.187v5.107c-0.51,0.301-1.17,0.471-1.733,0.471c-0.94,0-1.243-0.357-1.243-1.129v-4.371
			l0.096-2.318c-1.111,0-2.562,0.076-3.654,0.265c-0.039,0.282-0.057,0.642-0.057,0.961c0,0.304,0.018,0.679,0.057,0.961
			l0.998,0.112v4.785c0,2.186,1.148,3.033,2.712,3.033c1.056,0,1.864-0.34,2.714-1.037h0.15l-0.039,0.848h3.729
			C300.464,36.693,300.482,36.334,300.482,36.016 M288.953,36.732c-0.056-0.717-0.188-1.604-0.356-2.28
			c-0.435,0.227-1.13,0.414-1.544,0.414c-0.734,0-1.057-0.17-1.057-1.035v-4.465h2.355c0.074-0.717,0.132-1.449,0.132-2.186h-2.487
			v-2.393c-0.886,0.057-1.884,0.244-2.562,0.414v1.979h-1.112v2.186h1.112v4.465c0,2.373,1.017,3.371,3.333,3.371
			C287.391,37.202,288.369,37.032,288.953,36.732 M281.117,36.016c0-0.32-0.019-0.659-0.056-0.961l-1.149-0.188v-9.553l0.096-2.316
			c-1.207,0-2.752,0.076-3.844,0.266c-0.039,0.281-0.057,0.641-0.057,0.96c0,0.302,0.018,0.679,0.057,0.961l1.186,0.112v9.57
			l-1.146,0.188c-0.037,0.302-0.058,0.641-0.058,0.961c0,0.318,0.021,0.678,0.058,0.997h4.859
			C281.099,36.693,281.117,36.334,281.117,36.016 M271.171,34.866c-0.414,0.283-1.057,0.471-1.602,0.471
			c-0.716,0-1.018-0.319-1.018-1.148c0-0.887,0.302-1.188,1.188-1.225l1.432-0.074V34.866L271.171,34.866z M275.126,34.904h-0.998
			c-0.338,0-0.471-0.151-0.471-0.509v-6.311c-0.998-0.772-2.638-1.092-4.051-1.092c-0.886,0-1.863,0.131-2.788,0.414
			c0,0.696,0.169,1.713,0.358,2.336c0.658-0.304,1.525-0.435,2.279-0.435c0.623,0,1.299,0.112,1.713,0.319v1.715l-1.6,0.058
			c-2.374,0.074-3.598,0.792-3.598,2.938c0,1.978,1.148,2.863,2.919,2.863c0.961,0,1.81-0.301,2.638-1.019h0.113
			c0.396,0.827,1.072,1.019,1.884,1.019c1.147,0,1.601-0.529,1.601-1.564V34.904L275.126,34.904z M264.936,36.732
			c-0.058-0.717-0.188-1.604-0.356-2.28c-0.435,0.227-1.131,0.414-1.545,0.414c-0.734,0-1.056-0.17-1.056-1.035v-4.465h2.354
			c0.074-0.717,0.131-1.449,0.131-2.186h-2.485v-2.393c-0.886,0.057-1.886,0.244-2.562,0.414v1.979h-1.111v2.186h1.111v4.465
			c0,2.373,1.018,3.371,3.334,3.371C263.373,37.202,264.353,37.032,264.936,36.732 M256.798,34c0-3.354-4.541-2.957-4.541-4.164
			c0-0.564,0.32-0.865,1.074-0.865c0.34,0,0.604,0.037,0.771,0.074l0.17,0.812c0.32,0.036,0.793,0.058,1.111,0.058
			c0.32,0,0.736-0.021,1.056-0.058V27.35c-0.812-0.227-1.771-0.355-2.771-0.355c-2.24,0-4.068,1.11-4.068,3.237
			c0,3.146,4.541,2.638,4.541,4.032c0,0.621-0.303,0.886-1.148,0.886c-0.396,0-0.754-0.056-1.056-0.151l-0.17-0.849
			c-0.339-0.034-0.772-0.056-1.11-0.056c-0.32,0-0.754,0.021-1.074,0.056v2.336c0.903,0.49,2.09,0.718,3.314,0.718
			C255.027,37.202,256.798,36.146,256.798,34 M244.025,28.856c0.924,0,1.395,0.548,1.395,1.79c0,0.149,0,0.358-0.019,0.511h-2.882
			C242.537,29.479,243.123,28.856,244.025,28.856 M247.982,31.192c0-2.6-1.225-4.199-3.938-4.199c-2.43,0-4.313,1.639-4.313,5.199
			c0,3.334,1.733,5.01,4.841,5.01c0.904,0,2.186-0.207,3.278-0.734c-0.112-0.694-0.321-1.582-0.565-2.297
			c-0.941,0.471-1.846,0.677-2.675,0.677c-1.526,0-2.11-0.509-2.11-1.919V32.85h5.408C247.962,32.342,247.982,31.625,247.982,31.192
			 M235.153,30.381c0,1.133-0.433,1.566-1.338,1.566c-0.903,0-1.298-0.435-1.298-1.547c0-1.111,0.413-1.523,1.298-1.523
			C234.701,28.877,235.153,29.215,235.153,30.381 M236.078,37.805c0,0.962-0.68,1.225-2.055,1.225c-1.451,0-1.902-0.227-1.902-1.148
			c0-0.246,0.094-0.547,0.207-0.734h3.033C235.871,37.146,236.078,37.241,236.078,37.805 M238.468,37.599
			c0-2.111-1.166-2.675-2.993-2.675h-2.581c-0.32,0-0.452-0.077-0.452-0.396c0-0.227,0.113-0.527,0.32-0.865
			c0.319,0.094,0.827,0.17,1.28,0.17c2.072,0,3.484-1.094,3.484-3.262c0-0.508-0.132-1.017-0.357-1.336v-0.132l1.094-0.076
			c0.111-0.563,0.148-1.243,0.148-1.846h-3.106c-0.452-0.112-1.073-0.188-1.64-0.188c-2.317,0-3.617,1.411-3.617,3.467
			c0,1.186,0.416,1.978,1.074,2.485c-0.49,0.847-0.922,1.677-1.037,2.261c0.151,0.451,0.453,1.035,0.68,1.412
			c-0.697,0.527-0.998,1.188-0.998,1.828c0,1.602,1.111,2.637,4.184,2.637C237.019,41.083,238.468,39.708,238.468,37.599
			 M223.833,36.016c0-0.32-0.021-0.659-0.039-0.961l-1.168-0.188v-9.553l0.095-2.316c-1.206,0-2.769,0.076-3.843,0.266
			c-0.039,0.281-0.057,0.641-0.057,0.96c0,0.302,0.018,0.679,0.057,0.961l1.188,0.112v1.941c-0.471-0.152-1.057-0.244-1.621-0.244
			c-2.617,0-4.352,1.692-4.352,5.272c0,3.446,1.355,4.937,3.523,4.937c0.865,0,1.602-0.228,2.336-1.019h0.149l-0.037,0.828h3.729
			C223.813,36.693,223.833,36.334,223.833,36.016 M220.065,34.603c-0.45,0.282-1.019,0.396-1.563,0.396
			c-1.11,0-1.694-0.545-1.694-2.73c0-2.354,0.621-3.07,1.901-3.07c0.453,0,1.017,0.113,1.356,0.282V34.603z M212.925,36.016
			c0-0.303-0.02-0.659-0.036-0.961l-1.132-0.188v-4.842c0-2.225-1.223-3.031-2.75-3.031c-0.961,0-1.79,0.244-2.75,1.166h-0.151
			l0.057-1.074c-1.188,0-2.656,0.076-3.73,0.265c-0.038,0.282-0.056,0.642-0.056,0.961c0,0.321,0.018,0.679,0.056,0.961l1.187,0.112
			v5.482l-1.149,0.188c-0.038,0.302-0.057,0.641-0.057,0.961c0,0.318,0.019,0.678,0.057,0.997h4.577
			c0.039-0.319,0.057-0.679,0.057-0.997c0-0.32-0.019-0.659-0.057-0.961l-0.866-0.188V29.78c0.546-0.32,1.149-0.49,1.771-0.49
			c0.942,0,1.244,0.377,1.244,1.111v4.465l-0.829,0.188c-0.039,0.302-0.057,0.641-0.057,0.961c0,0.319,0.018,0.678,0.057,0.997
			h4.521C212.906,36.693,212.925,36.334,212.925,36.016 M200.889,36.016c0-0.32-0.019-0.659-0.038-0.961l-1.167-0.188v-5.463
			l0.076-2.224h-3.843c-0.02,0.319-0.038,0.678-0.038,0.999c0,0.318,0.019,0.658,0.038,0.96l1.205,0.187v5.107
			c-0.508,0.301-1.167,0.471-1.734,0.471c-0.941,0-1.242-0.357-1.242-1.129v-4.371l0.094-2.318c-1.111,0-2.562,0.076-3.654,0.265
			c-0.039,0.282-0.057,0.642-0.057,0.961c0,0.304,0.019,0.679,0.057,0.961l0.998,0.112v4.785c0,2.186,1.149,3.033,2.711,3.033
			c1.056,0,1.866-0.34,2.714-1.037h0.15l-0.038,0.848h3.729C200.87,36.693,200.889,36.334,200.889,36.016"/>
	</g>
	<g>
		<defs>
			<rect id="SVGID_3_" width="419.531" height="41.083"/>
		</defs>
		<clipPath id="SVGID_4_">
			<use xlink:href="#SVGID_3_"  overflow="visible"/>
		</clipPath>
		<path clip-path="url(#SVGID_4_)" fill="#00CDBE" d="M419.531,13.382c0-0.31-0.021-0.677-0.039-0.988L418.33,12.2V7.224
			c0-2.286-1.258-3.119-2.828-3.119c-0.986,0-1.838,0.252-2.826,1.201h-0.156l0.061-1.104c-1.221,0-2.732,0.078-3.836,0.271
			c-0.037,0.291-0.059,0.658-0.059,0.988s0.021,0.697,0.059,0.988l1.221,0.116V12.2l-1.182,0.194
			c-0.039,0.311-0.059,0.658-0.059,0.988c0,0.329,0.02,0.697,0.059,1.026h4.707c0.037-0.33,0.059-0.698,0.059-1.026
			c0-0.33-0.021-0.677-0.059-0.988l-0.893-0.194V6.972c0.562-0.33,1.184-0.503,1.822-0.503c0.967,0,1.277,0.387,1.277,1.142v4.59
			l-0.854,0.194c-0.039,0.311-0.059,0.658-0.059,0.988c0,0.329,0.02,0.697,0.059,1.026h4.648
			C419.511,14.079,419.531,13.711,419.531,13.382 M404.134,9.354c0,2.382-0.678,2.982-1.857,2.982c-1.223,0-1.842-0.62-1.842-2.982
			c0-2.382,0.68-2.983,1.859-2.983C403.515,6.371,404.134,6.991,404.134,9.354 M406.904,9.354c0-3.796-1.955-5.249-4.609-5.249
			c-2.691,0-4.646,1.859-4.646,5.249c0,3.718,1.916,5.248,4.629,5.248C404.888,14.602,406.904,12.82,406.904,9.354 M396.388,13.382
			c0-0.33-0.018-0.677-0.039-0.988l-1.2-0.194V6.585l0.077-2.382c-1.239,0-2.826,0.078-3.93,0.271
			c-0.041,0.291-0.06,0.658-0.06,0.988c0,0.31,0.019,0.697,0.06,0.988l1.221,0.116v5.635l-1.184,0.194
			c-0.037,0.311-0.058,0.658-0.058,0.988c0,0.329,0.021,0.697,0.058,1.026h5.016C396.371,14.079,396.388,13.711,396.388,13.382
			 M395.285,1.627c0-0.755-0.465-1.491-1.473-1.491c-1.007,0-1.49,0.736-1.49,1.491c0,0.774,0.483,1.452,1.471,1.452
			C394.8,3.079,395.285,2.421,395.285,1.627 M389.804,14.118c-0.059-0.736-0.192-1.646-0.368-2.344
			c-0.444,0.233-1.162,0.426-1.588,0.426c-0.755,0-1.085-0.174-1.085-1.065v-4.59h2.422c0.076-0.735,0.136-1.491,0.136-2.246h-2.558
			V1.84c-0.909,0.058-1.936,0.251-2.633,0.426v2.033h-1.144v2.246h1.144v4.59c0,2.441,1.045,3.467,3.426,3.467
			C388.197,14.602,389.205,14.428,389.804,14.118 M378.727,9.122c0,2.479-0.64,3.233-2.033,3.233c-0.464,0-0.948-0.057-1.336-0.291
			V6.953c0.483-0.368,1.063-0.562,1.666-0.562C378.106,6.391,378.727,6.991,378.727,9.122 M381.496,9.122
			c0-3.738-1.549-5.016-3.562-5.016c-0.93,0-1.686,0.271-2.479,1.104h-0.174l0.059-1.007c-1.221,0-2.73,0.078-3.854,0.271
			c-0.019,0.291-0.039,0.658-0.039,0.988c0,0.31,0.021,0.697,0.039,0.988l1.239,0.116v9.625l-1.199,0.194
			c-0.02,0.309-0.04,0.677-0.04,0.988c0,0.329,0.021,0.698,0.04,1.026h5.073c0.038-0.329,0.06-0.697,0.06-1.026
			c0-0.33-0.021-0.679-0.06-0.988l-1.239-0.194V14.37c0.521,0.156,1.008,0.233,1.413,0.233
			C379.619,14.602,381.496,12.782,381.496,9.122 M365.85,6.023c0.946,0,1.433,0.562,1.433,1.84c0,0.155,0,0.368-0.021,0.522H364.3
			C364.319,6.663,364.919,6.023,365.85,6.023 M369.916,8.425c0-2.673-1.26-4.319-4.047-4.319c-2.5,0-4.438,1.686-4.438,5.345
			c0,3.428,1.783,5.151,4.979,5.151c0.93,0,2.246-0.213,3.369-0.755c-0.115-0.717-0.328-1.626-0.58-2.363
			c-0.969,0.484-1.896,0.697-2.75,0.697c-1.568,0-2.169-0.522-2.169-1.975v-0.077h5.558C369.896,9.605,369.916,8.869,369.916,8.425
			 M359.826,11.213c-0.328-0.039-0.717-0.058-1.066-0.058c-0.327,0-0.734,0.019-1.082,0.058l-0.174,0.949h-2.791l4.938-5.713
			l-0.114-2.15h-7.572v3.195c0.328,0.04,0.736,0.059,1.063,0.059c0.329,0,0.735-0.02,1.065-0.059l0.193-0.949h2.323l-4.938,5.713
			l0.117,2.15h8.037V11.213L359.826,11.213z M350.395,13.382c0-0.31-0.021-0.677-0.038-0.988l-1.161-0.194V7.224
			c0-2.286-1.26-3.119-2.829-3.119c-0.986,0-1.839,0.252-2.826,1.201h-0.156l0.059-1.104c-1.219,0-2.729,0.078-3.833,0.271
			c-0.038,0.291-0.06,0.658-0.06,0.988s0.021,0.697,0.06,0.988l1.22,0.116V12.2l-1.182,0.194c-0.038,0.311-0.059,0.658-0.059,0.988
			c0,0.329,0.021,0.697,0.059,1.026h4.707c0.038-0.33,0.059-0.698,0.059-1.026c0-0.33-0.021-0.677-0.059-0.988l-0.891-0.194V6.972
			c0.561-0.33,1.182-0.503,1.818-0.503c0.969,0,1.278,0.387,1.278,1.142v4.59l-0.853,0.194c-0.039,0.311-0.059,0.658-0.059,0.988
			c0,0.329,0.02,0.697,0.059,1.026h4.647C350.375,14.079,350.395,13.711,350.395,13.382 M335,9.354c0,2.382-0.679,2.982-1.859,2.982
			c-1.221,0-1.84-0.62-1.84-2.982c0-2.382,0.678-2.983,1.859-2.983C334.38,6.371,335,6.991,335,9.354 M337.769,9.354
			c0-3.796-1.957-5.249-4.609-5.249c-2.691,0-4.646,1.859-4.646,5.249c0,3.718,1.917,5.248,4.628,5.248
			C335.753,14.602,337.769,12.82,337.769,9.354 M327.175,12.24h-0.445c-0.561,0-0.773-0.155-1.064-0.639
			c-0.562-0.93-1.104-1.879-1.666-2.828l2.015-2.247l1.046-0.194c0.039-0.31,0.059-0.678,0.059-1.007
			c0-0.329-0.02-0.697-0.059-1.026h-4.473c-0.021,0.33-0.041,0.697-0.041,1.026c0,0.329,0.021,0.697,0.041,1.007l0.89,0.194
			l-0.733,0.833c-0.641,0.736-1.027,1.297-1.474,2.11h-0.155V2.382L321.21,0c-1.258,0-2.809,0.077-3.932,0.271
			c-0.037,0.291-0.059,0.658-0.059,0.988c0,0.31,0.021,0.697,0.059,0.987l1.221,0.117V12.2l-1.183,0.194
			c-0.038,0.311-0.058,0.658-0.058,0.988c0,0.329,0.02,0.697,0.058,1.026h4.435c0.039-0.33,0.06-0.698,0.06-1.026
			c0-0.33-0.021-0.677-0.06-0.988l-0.639-0.194v-0.193l1.064-1.181l1.221,2.169c0.755,1.316,1.297,1.587,2.268,1.587
			c1.024,0,1.51-0.561,1.51-1.587V12.24L327.175,12.24z M311.354,4.222c-0.233-0.077-0.562-0.116-0.794-0.116
			c-0.602,0-1.335,0.175-2.268,1.472h-0.153l0.075-1.375c-1.219,0-2.748,0.078-3.853,0.271c-0.038,0.291-0.058,0.658-0.058,0.988
			c0,0.31,0.02,0.697,0.058,0.988l1.222,0.116v5.635l-1.183,0.194c-0.039,0.311-0.06,0.658-0.06,0.988
			c0,0.329,0.021,0.697,0.06,1.026h5.074c0.021-0.33,0.038-0.698,0.038-1.026c0-0.33-0.02-0.677-0.038-0.988l-1.261-0.194V7.379
			c0.619-0.426,1.201-0.543,1.841-0.543c0.368,0,0.755,0.06,1.085,0.137C311.257,6.119,311.354,5.017,311.354,4.222 M300.49,1.897
			c0-0.774-0.445-1.413-1.375-1.413c-0.97,0-1.396,0.658-1.396,1.413c0,0.756,0.445,1.376,1.375,1.376S300.49,2.672,300.49,1.897
			 M296.654,1.897c0-0.774-0.445-1.413-1.373-1.413c-0.951,0-1.396,0.658-1.396,1.413c0,0.756,0.445,1.376,1.375,1.376
			C296.19,3.273,296.654,2.672,296.654,1.897 M302.774,13.382c0-0.33-0.021-0.677-0.038-0.988l-1.199-0.194V6.585l0.075-2.286h-3.95
			c-0.02,0.33-0.039,0.697-0.039,1.026c0,0.329,0.021,0.678,0.039,0.988l1.239,0.193v5.249c-0.522,0.309-1.2,0.484-1.782,0.484
			c-0.968,0-1.277-0.368-1.277-1.162V6.585l0.098-2.382c-1.143,0-2.635,0.078-3.757,0.271c-0.04,0.291-0.06,0.658-0.06,0.988
			c0,0.31,0.02,0.697,0.06,0.988l1.024,0.116v4.918c0,2.247,1.182,3.118,2.789,3.118c1.086,0,1.916-0.349,2.789-1.065h0.155
			l-0.039,0.872h3.835C302.755,14.079,302.774,13.711,302.774,13.382 M290.807,0.116C290.498,0.059,289.798,0,289.431,0
			c-1.879,0-3.445,1.316-3.445,3.525v0.774h-1.182v2.246h1.182V12.2l-1.182,0.194c-0.04,0.311-0.061,0.678-0.061,0.988
			c0,0.329,0.021,0.697,0.061,1.026h5.054c0.038-0.33,0.058-0.698,0.058-1.026c0-0.31-0.02-0.677-0.058-0.988l-1.239-0.194V6.545
			h2.016c0.096-0.696,0.154-1.471,0.154-2.246h-2.17V3.331c0-0.716,0.232-1.026,0.852-1.026c0.234,0,0.892,0.039,1.183,0.097
			C290.768,1.627,290.807,0.756,290.807,0.116 M278.529,14.118c-0.061-0.736-0.193-1.646-0.367-2.344
			c-0.447,0.233-1.162,0.426-1.59,0.426c-0.755,0-1.084-0.174-1.084-1.065v-4.59h2.422c0.076-0.735,0.135-1.491,0.135-2.246h-2.557
			V1.84c-0.91,0.058-1.938,0.251-2.635,0.426v2.033h-1.143v2.246h1.143v4.59c0,2.441,1.047,3.467,3.428,3.467
			C276.921,14.602,277.927,14.428,278.529,14.118 M270.568,14.118c-0.059-0.736-0.193-1.646-0.367-2.344
			c-0.445,0.233-1.16,0.426-1.588,0.426c-0.754,0-1.085-0.174-1.085-1.065v-4.59h2.421c0.077-0.735,0.135-1.491,0.135-2.246h-2.556
			V1.84c-0.909,0.058-1.937,0.251-2.634,0.426v2.033h-1.143v2.246h1.143v4.59c0,2.441,1.047,3.467,3.428,3.467
			C268.96,14.602,269.97,14.428,270.568,14.118 M258.716,12.201c-0.426,0.291-1.084,0.484-1.645,0.484
			c-0.736,0-1.047-0.33-1.047-1.181c0-0.91,0.311-1.219,1.221-1.258l1.471-0.079V12.201z M262.785,12.24h-1.027
			c-0.348,0-0.483-0.155-0.483-0.523V5.229c-1.026-0.793-2.711-1.124-4.164-1.124c-0.909,0-1.917,0.136-2.864,0.426
			c0,0.716,0.174,1.762,0.367,2.402c0.678-0.311,1.567-0.446,2.344-0.446c0.639,0,1.336,0.116,1.762,0.329v1.762l-1.646,0.059
			c-2.442,0.077-3.7,0.812-3.7,3.021c0,2.033,1.183,2.943,3.002,2.943c0.987,0,1.859-0.311,2.711-1.046h0.117
			c0.406,0.853,1.104,1.046,1.938,1.046c1.181,0,1.646-0.542,1.646-1.607V12.24H262.785z M252.308,14.118
			c-0.059-0.736-0.193-1.646-0.368-2.344c-0.444,0.233-1.162,0.426-1.588,0.426c-0.755,0-1.084-0.174-1.084-1.065v-4.59h2.42
			c0.077-0.735,0.136-1.491,0.136-2.246h-2.556V1.84c-0.911,0.058-1.938,0.251-2.636,0.426v2.033h-1.143v2.246h1.143v4.59
			c0,2.441,1.048,3.467,3.43,3.467C250.701,14.602,251.707,14.428,252.308,14.118 M243.941,11.31c0-3.447-4.667-3.041-4.667-4.28
			c0-0.581,0.329-0.891,1.103-0.891c0.351,0,0.621,0.039,0.795,0.077l0.175,0.833c0.329,0.039,0.813,0.058,1.144,0.058
			c0.329,0,0.756-0.019,1.084-0.058V4.474c-0.832-0.232-1.82-0.368-2.847-0.368c-2.306,0-4.185,1.143-4.185,3.332
			c0,3.234,4.67,2.71,4.67,4.144c0,0.639-0.312,0.911-1.184,0.911c-0.406,0-0.773-0.059-1.085-0.155l-0.174-0.871
			c-0.349-0.04-0.794-0.058-1.142-0.058c-0.33,0-0.775,0.019-1.105,0.058v2.401c0.93,0.503,2.15,0.736,3.409,0.736
			C242.123,14.602,243.941,13.517,243.941,11.31 M235.052,12.24h-0.445c-0.562,0-0.773-0.155-1.064-0.639
			c-0.562-0.93-1.104-1.879-1.666-2.828l2.016-2.247l1.046-0.194c0.038-0.31,0.058-0.678,0.058-1.007
			c0-0.329-0.02-0.697-0.058-1.026h-4.474c-0.021,0.33-0.039,0.697-0.039,1.026c0,0.329,0.019,0.697,0.039,1.007l0.891,0.194
			l-0.736,0.833c-0.639,0.736-1.024,1.297-1.473,2.11h-0.154V2.382L229.087,0c-1.26,0-2.809,0.077-3.932,0.271
			c-0.039,0.291-0.058,0.658-0.058,0.988c0,0.31,0.019,0.697,0.058,0.987l1.221,0.117V12.2l-1.182,0.194
			c-0.039,0.311-0.059,0.658-0.059,0.988c0,0.329,0.02,0.697,0.059,1.026h4.434c0.041-0.33,0.06-0.698,0.06-1.026
			c0-0.33-0.019-0.677-0.06-0.988L228.99,12.2v-0.193l1.064-1.181l1.222,2.169c0.755,1.316,1.298,1.587,2.265,1.587
			c1.027,0,1.512-0.561,1.512-1.587V12.24z M223.975,4.222c-0.231-0.077-0.562-0.116-0.794-0.116c-0.602,0-1.336,0.175-2.266,1.472
			h-0.156l0.078-1.375c-1.219,0-2.748,0.078-3.854,0.271c-0.039,0.291-0.057,0.658-0.057,0.988c0,0.31,0.018,0.697,0.057,0.988
			l1.221,0.116v5.635l-1.182,0.194c-0.039,0.311-0.059,0.658-0.059,0.988c0,0.329,0.02,0.697,0.059,1.026h5.073
			c0.021-0.33,0.038-0.698,0.038-1.026c0-0.33-0.02-0.677-0.038-0.988l-1.259-0.194V7.379c0.619-0.426,1.201-0.543,1.84-0.543
			c0.367,0,0.755,0.06,1.085,0.137C223.878,6.119,223.975,5.017,223.975,4.222 M211.078,6.023c0.947,0,1.432,0.562,1.432,1.84
			c0,0.155,0,0.368-0.018,0.522h-2.964C209.548,6.663,210.147,6.023,211.078,6.023 M215.145,8.425c0-2.673-1.259-4.319-4.048-4.319
			c-2.499,0-4.434,1.686-4.434,5.345c0,3.428,1.781,5.151,4.975,5.151c0.932,0,2.248-0.213,3.371-0.755
			c-0.116-0.717-0.33-1.626-0.581-2.363c-0.968,0.484-1.897,0.697-2.751,0.697c-1.567,0-2.168-0.522-2.168-1.975v-0.077h5.558
			C215.125,9.605,215.145,8.869,215.145,8.425 M205.229,5.326c0-0.329-0.019-0.697-0.038-1.026h-3.951
			c-0.039,0.33-0.058,0.697-0.058,1.026s0.019,0.678,0.058,0.988l0.833,0.193l-0.717,3.37c-0.078,0.408-0.136,0.891-0.174,1.375
			h-0.136c-0.058-0.484-0.155-0.968-0.271-1.375l-1.55-5.577h-2.537l-1.569,5.577c-0.116,0.408-0.193,0.891-0.252,1.375h-0.135
			c-0.038-0.484-0.117-0.968-0.193-1.375l-1.026-5.655c-0.853,0-2.072,0.097-3.099,0.252c-0.02,0.31-0.04,0.678-0.04,1.007
			s0.02,0.677,0.04,0.968l0.891,0.116c0.484,2.634,1.084,5.113,1.899,7.843h2.594l1.705-5.945c0.096-0.349,0.193-0.833,0.25-1.26
			h0.137c0.039,0.427,0.135,0.911,0.232,1.26l1.723,5.945h2.576c0.833-2.847,1.453-5.346,1.957-7.902l0.813-0.193
			C205.21,6.004,205.229,5.655,205.229,5.326"/>
	</g>
	<g>
		<defs>
			<rect id="SVGID_5_" width="419.531" height="41.083"/>
		</defs>
		<clipPath id="SVGID_6_">
			<use xlink:href="#SVGID_5_"  overflow="visible"/>
		</clipPath>
		<path clip-path="url(#SVGID_6_)" fill="#00CDBE" d="M67.417,14.467h-3.743l0.038-0.85h-0.151c-0.851,0.7-1.664,1.04-2.722,1.04
			c-1.569,0-2.722-0.851-2.722-3.042V6.812l-1.001-0.113c-0.038-0.283-0.057-0.662-0.057-0.964c0-0.322,0.019-0.68,0.057-0.964
			c1.095-0.188,2.551-0.264,3.666-0.264l-0.094,2.325v4.384c0,0.775,0.301,1.135,1.247,1.135c0.567,0,1.229-0.17,1.739-0.473V6.756
			l-1.209-0.189c-0.019-0.302-0.039-0.643-0.039-0.964s0.02-0.681,0.039-1.001h3.855l-0.075,2.23v5.481l1.172,0.188
			c0.018,0.304,0.037,0.643,0.037,0.965C67.454,13.787,67.435,14.146,67.417,14.467"/>
	</g>
	<g>
		<defs>
			<rect id="SVGID_7_" width="419.531" height="41.083"/>
		</defs>
		<clipPath id="SVGID_8_">
			<use xlink:href="#SVGID_7_"  overflow="visible"/>
		</clipPath>
		<path clip-path="url(#SVGID_8_)" fill="#00CDBE" d="M79.489,14.467h-4.537c-0.038-0.321-0.057-0.68-0.057-1.001
			c0-0.322,0.019-0.661,0.057-0.965l0.833-0.188V7.834c0-0.738-0.303-1.116-1.248-1.116c-0.624,0-1.229,0.171-1.776,0.492v5.103
			l0.87,0.188c0.038,0.304,0.057,0.643,0.057,0.965c0,0.321-0.019,0.68-0.057,1.001h-4.593c-0.039-0.321-0.057-0.68-0.057-1.001
			c0-0.322,0.018-0.661,0.057-0.965l1.152-0.188v-5.5L68.999,6.7c-0.038-0.283-0.056-0.642-0.056-0.964
			c0-0.322,0.019-0.68,0.056-0.964c1.078-0.188,2.552-0.264,3.742-0.264l-0.056,1.076h0.151c0.964-0.925,1.795-1.17,2.759-1.17
			c1.531,0,2.759,0.812,2.759,3.042v4.858l1.134,0.188c0.019,0.304,0.038,0.663,0.038,0.965
			C79.527,13.787,79.508,14.146,79.489,14.467"/>
	</g>
	<g>
		<defs>
			<rect id="SVGID_9_" width="419.531" height="41.083"/>
		</defs>
		<clipPath id="SVGID_10_">
			<use xlink:href="#SVGID_9_"  overflow="visible"/>
		</clipPath>
		<path clip-path="url(#SVGID_10_)" fill="#00CDBE" d="M86.68,6.907c-0.34-0.17-0.907-0.283-1.36-0.283
			c-1.286,0-1.908,0.718-1.908,3.081c0,2.192,0.585,2.741,1.7,2.741c0.547,0,1.114-0.114,1.568-0.398V6.907z M90.422,14.467H86.68
			l0.038-0.831h-0.151c-0.737,0.793-1.474,1.021-2.344,1.021c-2.173,0-3.534-1.493-3.534-4.952c0-3.591,1.738-5.292,4.366-5.292
			c0.567,0,1.153,0.094,1.625,0.245V2.711l-1.19-0.113c-0.037-0.284-0.056-0.662-0.056-0.963c0-0.322,0.019-0.681,0.056-0.964
			c1.077-0.189,2.647-0.265,3.856-0.265L89.251,2.73v9.583l1.171,0.188c0.02,0.304,0.039,0.643,0.039,0.965
			C90.461,13.787,90.442,14.146,90.422,14.467"/>
	</g>
	<g>
		<defs>
			<rect id="SVGID_11_" width="419.531" height="41.083"/>
		</defs>
		<clipPath id="SVGID_12_">
			<use xlink:href="#SVGID_11_"  overflow="visible"/>
		</clipPath>
		<path clip-path="url(#SVGID_12_)" fill="#FFFFFF" d="M3.327,14.656c-1.229,0-2.419-0.227-3.326-0.718v-2.344
			c0.321-0.038,0.755-0.056,1.077-0.056c0.34,0,0.775,0.018,1.115,0.056l0.169,0.85c0.302,0.095,0.661,0.151,1.059,0.151
			c0.851,0,1.153-0.264,1.153-0.887c0-1.398-4.554-0.889-4.554-4.044c0-2.136,1.833-3.251,4.082-3.251
			c1.001,0,1.965,0.131,2.778,0.358v2.514C6.558,7.323,6.143,7.342,5.822,7.342c-0.322,0-0.794-0.019-1.115-0.057l-0.17-0.814
			c-0.17-0.037-0.435-0.075-0.775-0.075c-0.755,0-1.078,0.302-1.078,0.869c0,1.21,4.555,0.813,4.555,4.177
			C7.239,13.598,5.462,14.656,3.327,14.656"/>
	</g>
	<g>
		<defs>
			<rect id="SVGID_13_" width="419.531" height="41.083"/>
		</defs>
		<clipPath id="SVGID_14_">
			<use xlink:href="#SVGID_13_"  overflow="visible"/>
		</clipPath>
		<path clip-path="url(#SVGID_14_)" fill="#FFFFFF" d="M11.669,8.59h2.892c0.019-0.151,0.019-0.36,0.019-0.511
			c0-1.247-0.472-1.795-1.398-1.795C12.274,6.284,11.689,6.907,11.669,8.59 M17.075,10.291H11.65v0.076
			c0,1.417,0.587,1.927,2.117,1.927c0.832,0,1.739-0.208,2.684-0.681c0.246,0.719,0.453,1.606,0.566,2.306
			c-1.096,0.529-2.381,0.737-3.288,0.737c-3.119,0-4.857-1.683-4.857-5.028c0-3.571,1.89-5.215,4.328-5.215
			c2.721,0,3.95,1.605,3.95,4.214C17.151,9.062,17.132,9.78,17.075,10.291"/>
	</g>
	<g>
		<defs>
			<rect id="SVGID_15_" width="419.531" height="41.083"/>
		</defs>
		<clipPath id="SVGID_16_">
			<use xlink:href="#SVGID_15_"  overflow="visible"/>
		</clipPath>
		<path clip-path="url(#SVGID_16_)" fill="#FFFFFF" d="M29.354,14.467h-4.517c-0.038-0.321-0.056-0.68-0.056-1.001
			c0-0.322,0.019-0.661,0.056-0.965l0.812-0.188V7.834c0-0.663-0.227-1.116-1.229-1.116c-0.623,0-1.247,0.171-1.795,0.492v5.103
			l0.87,0.188c0.038,0.304,0.057,0.643,0.057,0.965c0,0.321-0.019,0.68-0.057,1.001h-4.612c-0.02-0.321-0.038-0.68-0.038-1.001
			c0-0.322,0.018-0.661,0.038-0.965l1.171-0.188V2.711l-1.209-0.113c-0.019-0.284-0.039-0.662-0.039-0.963
			c0-0.322,0.02-0.681,0.039-0.964c1.096-0.189,2.665-0.265,3.875-0.265L22.626,2.73v2.797h0.132
			c0.85-0.775,1.587-1.115,2.703-1.115c1.681,0,2.74,0.963,2.74,3.042v4.858l1.153,0.188c0.02,0.304,0.038,0.643,0.038,0.965
			C29.392,13.787,29.374,14.146,29.354,14.467"/>
	</g>
	<g>
		<defs>
			<rect id="SVGID_17_" width="419.531" height="41.083"/>
		</defs>
		<clipPath id="SVGID_18_">
			<use xlink:href="#SVGID_17_"  overflow="visible"/>
		</clipPath>
		<path clip-path="url(#SVGID_18_)" fill="#FFFFFF" d="M33.377,8.59h2.893c0.019-0.151,0.019-0.36,0.019-0.511
			c0-1.247-0.473-1.795-1.399-1.795C33.982,6.284,33.397,6.907,33.377,8.59 M38.784,10.291h-5.425v0.076
			c0,1.417,0.586,1.927,2.117,1.927c0.832,0,1.739-0.208,2.684-0.681c0.246,0.719,0.453,1.606,0.567,2.306
			c-1.096,0.529-2.381,0.737-3.289,0.737c-3.119,0-4.857-1.683-4.857-5.028c0-3.571,1.89-5.215,4.328-5.215
			c2.722,0,3.951,1.605,3.951,4.214C38.86,9.062,38.84,9.78,38.784,10.291"/>
	</g>
	<g>
		<defs>
			<rect id="SVGID_19_" width="419.531" height="41.083"/>
		</defs>
		<clipPath id="SVGID_20_">
			<use xlink:href="#SVGID_19_"  overflow="visible"/>
		</clipPath>
		<path clip-path="url(#SVGID_20_)" fill="#FFFFFF" d="M51.2,14.467h-4.537c-0.038-0.321-0.056-0.68-0.056-1.001
			c0-0.322,0.019-0.661,0.056-0.965l0.832-0.188V7.834c0-0.738-0.303-1.116-1.248-1.116c-0.624,0-1.229,0.171-1.777,0.492v5.103
			l0.87,0.188c0.038,0.304,0.057,0.643,0.057,0.965c0,0.321-0.02,0.68-0.057,1.001h-4.593c-0.038-0.321-0.057-0.68-0.057-1.001
			c0-0.322,0.02-0.661,0.057-0.965l1.153-0.188v-5.5l-1.19-0.114c-0.038-0.283-0.057-0.642-0.057-0.964
			c0-0.322,0.019-0.68,0.057-0.964c1.077-0.188,2.551-0.264,3.742-0.264l-0.057,1.076h0.151c0.964-0.925,1.796-1.17,2.76-1.17
			c1.53,0,2.759,0.812,2.759,3.042v4.858l1.135,0.188c0.019,0.304,0.037,0.663,0.037,0.965C51.237,13.787,51.218,14.146,51.2,14.467
			"/>
	</g>
	<g>
		<defs>
			<rect id="SVGID_21_" width="419.531" height="41.083"/>
		</defs>
		<clipPath id="SVGID_22_">
			<use xlink:href="#SVGID_21_"  overflow="visible"/>
		</clipPath>
		<path clip-path="url(#SVGID_22_)" fill="#FFFFFF" d="M98.889,8.59h2.891c0.02-0.151,0.02-0.36,0.02-0.511
			c0-1.247-0.473-1.795-1.399-1.795C99.494,6.284,98.907,6.907,98.889,8.59 M104.294,10.291H98.87v0.076
			c0,1.417,0.586,1.927,2.117,1.927c0.832,0,1.738-0.208,2.685-0.681c0.245,0.719,0.453,1.606,0.566,2.306
			c-1.096,0.529-2.381,0.737-3.288,0.737c-3.119,0-4.857-1.683-4.857-5.028c0-3.571,1.89-5.215,4.329-5.215
			c2.721,0,3.95,1.605,3.95,4.214C104.37,9.062,104.351,9.78,104.294,10.291"/>
	</g>
	<g>
		<defs>
			<rect id="SVGID_23_" width="419.531" height="41.083"/>
		</defs>
		<clipPath id="SVGID_24_">
			<use xlink:href="#SVGID_23_"  overflow="visible"/>
		</clipPath>
		<path clip-path="url(#SVGID_24_)" fill="#FFFFFF" d="M112.934,7.21c-0.322-0.076-0.699-0.132-1.059-0.132
			c-0.624,0-1.19,0.112-1.795,0.529v4.706l1.229,0.189c0.019,0.303,0.038,0.643,0.038,0.965c0,0.321-0.019,0.679-0.038,1h-4.952
			c-0.038-0.321-0.056-0.68-0.056-1c0-0.322,0.018-0.662,0.056-0.965l1.153-0.189v-5.5l-1.191-0.114
			c-0.038-0.284-0.057-0.661-0.057-0.964c0-0.322,0.02-0.68,0.057-0.964c1.077-0.188,2.57-0.265,3.761-0.265l-0.075,1.342h0.15
			c0.907-1.266,1.626-1.436,2.211-1.436c0.227,0,0.547,0.038,0.775,0.113C113.142,5.301,113.047,6.378,112.934,7.21"/>
	</g>
	<g>
		<defs>
			<rect id="SVGID_25_" width="419.531" height="41.083"/>
		</defs>
		<clipPath id="SVGID_26_">
			<use xlink:href="#SVGID_25_"  overflow="visible"/>
		</clipPath>
		<path clip-path="url(#SVGID_26_)" fill="#FFFFFF" d="M125.222,14.467h-4.537c-0.036-0.321-0.056-0.68-0.056-1.001
			c0-0.322,0.02-0.661,0.056-0.965l0.833-0.188V7.834c0-0.738-0.303-1.116-1.247-1.116c-0.624,0-1.229,0.171-1.777,0.492v5.103
			l0.869,0.188c0.038,0.304,0.057,0.643,0.057,0.965c0,0.321-0.019,0.68-0.057,1.001h-4.592c-0.038-0.321-0.057-0.68-0.057-1.001
			c0-0.322,0.02-0.661,0.057-0.965l1.152-0.188v-5.5l-1.19-0.113c-0.038-0.283-0.057-0.642-0.057-0.964
			c0-0.322,0.02-0.68,0.057-0.964c1.078-0.188,2.551-0.264,3.742-0.264l-0.056,1.076h0.15c0.964-0.925,1.795-1.17,2.76-1.17
			c1.53,0,2.76,0.812,2.76,3.042v4.858l1.134,0.188c0.019,0.304,0.037,0.663,0.037,0.965
			C125.258,13.787,125.241,14.146,125.222,14.467"/>
	</g>
	<g>
		<defs>
			<rect id="SVGID_27_" width="419.531" height="41.083"/>
		</defs>
		<clipPath id="SVGID_28_">
			<use xlink:href="#SVGID_27_"  overflow="visible"/>
		</clipPath>
		<path clip-path="url(#SVGID_28_)" fill="#FFFFFF" d="M130.659,14.656c-2.324,0-3.345-1.002-3.345-3.383V6.794h-1.115V4.602h1.115
			V2.617c0.68-0.17,1.682-0.359,2.57-0.416v2.4h2.495c0,0.737-0.057,1.474-0.132,2.192h-2.363v4.479c0,0.87,0.322,1.04,1.059,1.04
			c0.416,0,1.115-0.189,1.55-0.417c0.17,0.681,0.302,1.569,0.359,2.287C132.266,14.486,131.282,14.656,130.659,14.656"/>
	</g>
	<g>
		<defs>
			<rect id="SVGID_29_" width="419.531" height="41.083"/>
		</defs>
		<clipPath id="SVGID_30_">
			<use xlink:href="#SVGID_29_"  overflow="visible"/>
		</clipPath>
		<path clip-path="url(#SVGID_30_)" fill="#FFFFFF" d="M136.753,8.59h2.891c0.018-0.151,0.018-0.36,0.018-0.511
			c0-1.247-0.472-1.795-1.398-1.795C137.358,6.284,136.771,6.907,136.753,8.59 M142.159,10.291h-5.425v0.076
			c0,1.417,0.586,1.927,2.117,1.927c0.832,0,1.738-0.208,2.684-0.681c0.246,0.719,0.454,1.606,0.567,2.306
			c-1.097,0.529-2.381,0.737-3.288,0.737c-3.119,0-4.857-1.683-4.857-5.028c0-3.571,1.889-5.215,4.327-5.215
			c2.722,0,3.951,1.605,3.951,4.214C142.234,9.062,142.214,9.78,142.159,10.291"/>
	</g>
	<g>
		<defs>
			<rect id="SVGID_31_" width="419.531" height="41.083"/>
		</defs>
		<clipPath id="SVGID_32_">
			<use xlink:href="#SVGID_31_"  overflow="visible"/>
		</clipPath>
		<path clip-path="url(#SVGID_32_)" fill="#FFFFFF" d="M154.567,14.467h-4.536c-0.037-0.321-0.056-0.68-0.056-1.001
			c0-0.322,0.019-0.661,0.056-0.965l0.833-0.188V7.834c0-0.738-0.303-1.116-1.249-1.116c-0.623,0-1.228,0.171-1.777,0.492v5.103
			l0.87,0.188c0.038,0.304,0.057,0.643,0.057,0.965c0,0.321-0.02,0.68-0.057,1.001h-4.592c-0.038-0.321-0.058-0.68-0.058-1.001
			c0-0.322,0.02-0.661,0.058-0.965l1.153-0.188v-5.5L144.078,6.7c-0.038-0.283-0.057-0.642-0.057-0.964
			c0-0.322,0.02-0.68,0.057-0.964c1.077-0.188,2.55-0.264,3.742-0.264l-0.056,1.076h0.15c0.964-0.925,1.796-1.17,2.759-1.17
			c1.531,0,2.759,0.812,2.759,3.042v4.858l1.135,0.188c0.019,0.304,0.038,0.663,0.038,0.965
			C154.605,13.787,154.586,14.146,154.567,14.467"/>
	</g>
</g>
</svg>
