<?xml version="1.0" encoding="utf-8"?>
<!-- Generator: Adobe Illustrator 16.0.4, SVG Export Plug-In . SVG Version: 6.00 Build 0)  -->
<!DOCTYPE svg PUBLIC "-//W3C//DTD SVG 1.0//EN" "http://www.w3.org/TR/2001/REC-SVG-20010904/DTD/svg10.dtd">
<svg version="1.0" id="Layer_1" xmlns="http://www.w3.org/2000/svg" xmlns:xlink="http://www.w3.org/1999/xlink" x="0px" y="0px"
	 width="49.218px" height="40px" viewBox="0 0 49.218 40" enable-background="new 0 0 49.218 40" xml:space="preserve">
<g>
	<path fill="#FFFFFF" d="M44.279,9.877c0,0.494,0,0.823,0,1.317C44.279,24.526,34.074,40,15.473,40C9.712,40,4.444,38.684,0,35.886
		c0.823,0.164,1.646,0.164,2.469,0.164c4.773,0,9.219-1.976,12.511-4.773c-4.444,0-8.23-2.963-9.383-7.078
		c0.658,0.164,1.316,0.164,1.811,0.164c0.987,0,1.811-0.164,2.634-0.329c-4.609-0.987-8.066-4.938-8.066-9.876c0,0,0,0,0-0.165
		c1.317,0.823,2.964,1.152,4.609,1.317c-2.798-1.811-4.609-4.938-4.609-8.395c0-1.811,0.494-3.457,1.317-4.938
		c5.103,6.09,12.511,9.876,20.905,10.37c-0.164-0.658-0.164-1.481-0.164-2.304C24.033,4.445,28.477,0,34.074,0
		c2.963,0,5.596,1.317,7.406,3.128c2.305-0.494,4.445-1.317,6.42-2.469c-0.822,2.305-2.305,4.444-4.443,5.597
		c2.139-0.165,3.949-0.823,5.76-1.646C47.9,6.749,46.254,8.56,44.279,9.877z"/>
</g>
</svg>
