<?xml version="1.0" encoding="utf-8"?>
<!-- Generator: Adobe Illustrator 16.0.0, SVG Export Plug-In . SVG Version: 6.00 Build 0)  -->
<!DOCTYPE svg PUBLIC "-//W3C//DTD SVG 1.1//EN" "http://www.w3.org/Graphics/SVG/1.1/DTD/svg11.dtd">
<svg version="1.1" id="Ebene_1" xmlns="http://www.w3.org/2000/svg" xmlns:xlink="http://www.w3.org/1999/xlink" x="0px" y="0px"
	 width="661.2px" height="411.72px" viewBox="0 0 661.2 411.72" enable-background="new 0 0 661.2 411.72" xml:space="preserve">
<path fill="#FE574A" d="M215.967,400.745c1.072-6.542,0.445-13.086,0.062-19.633c-0.153-2.616-0.237-5.237-0.335-7.856
	c-0.136-3.584-0.217-7.17-0.4-10.751c-0.065-1.266-0.49-2.517-0.533-3.781c-0.166-4.738-0.262-9.48-0.343-14.222
	c-0.056-3.264-0.091-6.528-0.048-9.791c0.025-1.983,0.304-3.963,0.316-5.945c0.035-5.17-0.018-10.341-0.027-15.512
	c-0.008-5.226-0.07-10.452,0.023-15.677c0.043-2.468,0.168-4.977,0.66-7.384c0.691-3.374,1.049-6.748,1.124-10.18
	c0.132-6.013,0.332-12.024,0.51-18.036c0.014-0.479,0.056-0.959,0.122-1.433c0.207-1.48,0.533-2.952,0.629-4.439
	c0.202-3.171,0.246-6.352,0.431-9.524c0.288-4.939,0.654-9.874,0.956-14.812c0.266-4.364,0.407-8.738,0.756-13.095
	c0.292-3.639,0.803-7.258,1.22-10.885c0.562-4.883,1.134-9.764,1.688-14.648c0.431-3.803,0.878-7.604,1.24-11.413
	c0.212-2.226,0.255-4.466,0.405-6.698c0.35-5.146,0.684-10.295,1.094-15.438c0.246-3.09,0.655-6.166,0.934-9.252
	c0.178-1.974,1.109-7.188,1.043-9.161c-0.105-3.174-0.394-6.346-0.674-9.512c-0.453-5.137-1.102-10.262-1.385-15.406
	c-0.123-2.255-0.04-4.755,0.814-6.777c1.482-3.506,2.184-7.543,5.442-10.096c0.903-0.707,1.964-1.223,2.985-1.766
	c0.374-0.199,0.939-0.098,1.25-0.344c1.623-1.28,3.404-1.533,5.411-1.238c1.956,0.287,3.835,0.168,5.737-0.824
	c1.557-0.811,3.432-1.131,5.207-1.377c3.436-0.479,6.91-0.674,10.35-1.127c5.187-0.682,10.314-1.807,15.588-1.78
	c2.303,0.012,4.607-0.209,6.912-0.29c1.66-0.057,3.348,0.114,4.977-0.126c2.364-0.349,4.675-0.888,7.068-0.147
	c0.66,0.204,1.429,0.048,2.146,0.084c4.359,0.225,8.721,0.433,13.078,0.691c3.485,0.207,6.95,0.327,10.289-0.984
	c0.352-0.139,0.761-0.141,1.146-0.183c1.781-0.191,3.646-0.786,5.326-0.456c2.076,0.409,3.642-0.741,5.47-0.933
	c0.392-0.041,0.805,0.111,1.192,0.06c3.098-0.422,6.337,0.279,9.308-1.195c0.703-0.35,1.485-0.536,2.226-0.816
	c3.109-1.176,5.423-3.193,6.73-6.307c0.274-0.654,0.748-1.224,1.033-1.874c0.41-0.933,0.917-1.878,1.055-2.864
	c0.307-2.203,0.188-4.482,0.66-6.64c0.457-2.094,2.395-1.434,2.481-3.586c0.132-3.26,0.582-6.539,0.363-9.772
	c-0.375-5.542-1.14-11.058-1.787-16.579c-0.281-2.401-0.947-4.646-2.547-6.596c-0.843-1.028,0.71-1.148,0.097-2.354
	c-1.01-1.984-1.855-4.062-2.999-5.965c-1.306-2.172-2.778-4.26-4.339-6.258c-1.016-1.301-2.13-2.719-3.527-3.492
	c-4.297-2.375-8.555-4.965-13.638-5.4c-0.935-0.08-1.87-0.159-2.799-0.286c-4.185-0.573-8.366-1.161-12.549-1.745
	c-4-0.56-8.001-1.11-11.997-1.691c-0.928-0.135-1.833-0.428-2.762-0.561c-5.794-0.831-11.619-0.457-17.435-0.404
	c-3.645,0.032-7.288,0.061-10.933,0.091c-2.383,0.021-4.766,0.054-7.148,0.059c-1.667,0.004-3.338,0.037-5-0.062
	c-1.983-0.118-3.955-0.438-5.938-0.533c-2.631-0.129-5.271-0.07-7.901-0.195c-2.052-0.097-4.093-0.424-6.144-0.52
	c-5.483-0.256-10.955,0.014-16.426,0.424c-3.642,0.274-7.315,0.063-10.908,1.01c-1.455,0.383-3.024,0.678-4.506,0.56
	c-6.451-0.515-12.826,0.776-19.26,0.661c-2.105-0.039-4.219,0.598-6.335,0.652c-4.511,0.117-9.013,0.105-13.484,0.926
	c-1.701,0.311-3.533,0.367-5.233,0.092c-1.795-0.289-3.472,0.113-5.199,0.211c-1.027,0.059-2.049,0.254-3.077,0.297
	c-3.796,0.156-7.616-0.301-11.381,0.582c-2.94,0.689-5.915,1.234-8.85,1.948c-1.916,0.467-3.776,1.156-5.679,1.687
	c-2.293,0.639-4.613,1.18-6.903,1.825c-3.206,0.904-6.378,1.937-9.599,2.788c-4.082,1.079-8.207,1.993-12.295,3.051
	c-3.611,0.935-7.199,1.957-10.788,2.97c-0.686,0.193-1.368,0.46-1.989,0.805c-3.191,1.768-6.432,3.392-10.002,4.292
	c-1.061,0.268-2.082,0.771-3.051,1.297c-4.523,2.459-8.93,5.152-13.553,7.4c-4.607,2.24-8.916,4.816-12.602,8.39
	c-0.342,0.331-0.697,0.721-1.122,0.882c-2.259,0.855-3.568,2.824-5.22,4.383c-2.009,1.895-3.907,3.908-5.931,5.789
	c-3.007,2.793-6.157,5.435-9.101,8.291c-2.385,2.314-4.521,4.881-6.826,7.279c-3.271,3.404-5.623,7.456-7.105,11.816
	c-1.549,4.55-1.224,7.991-2.929,12.448c-1.143,2.991-2.314,5.955-2.313,9.191c0.001,4.66-0.757,9.111-2.477,13.486
	c-1.385,3.523-1.312,7.398-0.931,11.09c0.372,3.595,0.338,7.125-0.121,10.66c-0.379,2.916-0.766,5.793-0.794,8.764
	c-0.036,3.707,0.345,7.484-0.885,11.146c-0.472,1.404-0.666,3.006-0.542,4.481c0.263,3.121-0.158,6.187-0.311,9.276
	c-0.078,1.57,0.104,3.152,0.176,4.728c0.041,0.876,0.146,1.751,0.14,2.625c-0.019,2.3-0.063,4.599-0.139,6.897
	c-0.03,0.954,0.011,1.962-0.278,2.85c-1.167,3.592-0.43,7.262-0.288,10.842c0.171,4.352,0.897,8.672,0.147,13.038
	c-0.105,0.606-0.217,1.497,0.11,1.843c1.452,1.526,0.622,3.153,0.449,4.766c-0.092,0.856-0.401,1.784-0.185,2.562
	c0.723,2.597,0.512,5.171,0.173,7.769c-0.103,0.784-0.369,1.6-0.249,2.352c0.493,3.067,0.957,6.154,1.727,9.158
	c0.535,2.085,0.531,4.044,0.113,6.117c-0.292,1.452-0.367,2.976-0.335,4.462c0.085,3.959,0.631,7.943,0.323,11.865
	c-0.249,3.185-0.055,6.243,0.372,9.357c0.181,1.314-0.003,2.676,0.019,4.015c0.035,2.056,0.096,4.11,0.164,6.165
	c0.055,1.67,0.354,3.365,0.151,5.001c-0.308,2.492-0.185,4.916,0.185,7.379c0.271,1.802,0.27,3.643,0.427,5.463
	c0.409,4.733-0.173,9.567,1.495,14.178c0.26,0.717,0.271,1.557,0.251,2.336c-0.112,4.344,0.892,8.621,0.728,12.968
	c-0.035,0.95,0.058,1.92,0.219,2.858c0.689,4.048,1.599,8.065,2.108,12.135c0.765,6.111,1.325,12.252,1.854,18.391
	c0.423,4.918,0.674,9.852,0.986,14.778c0.051,0.795,0.036,1.594,0.032,2.39c-0.007,2.058-2.88,4.872-2.634,6.897
	c0.365,3.022,3.473,10.214,2.773,13.256c-0.137,0.595,0.082,1.266,0.092,1.902 M655.485,402.617
	c0.213-2.385,4.248-10.201,4.376-12.588c0.139-2.611,0.108-5.232,0.104-7.85c-0.005-2.458-0.454-4.981-0.039-7.359
	c1.23-7.047,1.264-14.122,1.196-21.227c-0.03-3.108,0.173-6.221,0.298-9.33c0.161-3.983,0.683-7.986,0.436-11.943
	c-0.268-4.307-0.42-8.583-0.159-12.886c0.149-2.459,0.34-4.89-0.194-7.383c-0.443-2.071-0.449-4.293-0.299-6.423
	c0.414-5.872,1.802-11.627,1.598-17.6c-0.174-5.075,0.472-10.173,0.597-15.265c0.099-4.043,0.177-8.11-0.138-12.135
	c-0.311-3.959,0.66-7.759,0.859-11.646c0.154-3.018,0.604-6.021,0.899-9.032c0.256-2.611,0.51-5.224,0.707-7.84
	c0.239-3.157,0.586-6.318,0.582-9.478c-0.005-3.981-0.409-7.96-0.474-11.943c-0.086-5.259-0.002-10.521-0.009-15.781
	c-0.001-1.115,0.041-2.25-0.142-3.341c-0.492-2.949-1.134-5.873-1.644-8.82c-0.538-3.114-1.124-6.229-1.453-9.368
	c-0.59-5.614-1.26-11.173-3.414-16.482c-1.322-3.26-2.918-6.344-4.729-9.339c-1.682-2.783-3.515-5.489-4.995-8.377
	c-2.6-5.072-6.458-9.089-10.541-12.887c-4.007-3.727-8.343-7.1-12.379-10.797c-3.541-3.244-7.265-6.198-11.474-8.505
	c-1.461-0.801-2.989-1.517-4.556-2.075c-3.811-1.359-7.646-2.66-11.507-3.865c-1.577-0.492-3.24-0.869-4.883-0.967
	c-3.657-0.218-7.354,0.02-10.984-0.38c-4.973-0.548-10.005-0.713-14.899-1.915c-0.607-0.149-1.274-0.038-1.903-0.125
	c-3.051-0.416-6.195,0.127-9.186-0.903c-2.877-0.991-5.854-1.29-8.873-1.195c-0.835,0.026-1.67,0.423-2.493,0.385
	c-2.05-0.093-4.097-0.307-6.138-0.535c-1.249-0.14-2.486-0.579-3.727-0.567c-4.048,0.039-8.036,0.976-12.116,0.771
	c-2.464-0.123-4.942,0.018-7.412,0.091c-3.484,0.104-7.019-0.13-10.317,1.397c-0.35,0.162-0.815,0.296-1.163,0.202
	c-1.712-0.462-3.228,0.42-4.835,0.633c-2.886,0.382-5.747,0.95-8.635,1.302c-3.464,0.421-6.979-0.069-10.448,0.688
	c-2.39,0.521-4.855,0.727-7.299,0.957c-4.812,0.453-9.631,0.832-14.448,1.225c-1.029,0.084-2.064,0.076-3.095,0.145
	c-3.325,0.221-6.661,0.345-9.969,0.717c-3.21,0.36-6.385,1.015-9.585,1.478c-2.44,0.353-4.889,0.737-7.347,0.87
	c-2.454,0.131-4.925-0.001-7.386-0.084c-1.5-0.05-3.005-0.393-4.491-0.31c-3.156,0.177-6.302,0.554-9.453,0.832
	c-2.727,0.241-5.464,1.298-8.035-0.169c-1.692,1.111-1.691,1.108-3.36,0.549c-0.292-0.099-0.604-0.252-0.893-0.227
	c-2.838,0.259-5.703-0.314-8.537,0.517c-3.021,0.888-6.34,0.715-9.106,2.563c-0.304,0.203-0.767,0.229-1.157,0.229
	c-2.562,0.009-4.996,0.613-7.362,1.539c-2.797,1.093-5.534,2.397-7.632,4.549c-2.712,2.782-4.274,6.315-5.338,10.008
	c-1.146,3.977-2.271,7.979-3.031,12.04c-0.597,3.18-0.775,6.463-0.859,9.707c-0.078,3.008,0.198,6.025,0.354,9.037
	c0.069,1.348,0.261,2.688,0.339,4.035c0.131,2.278,0.145,4.566,0.334,6.839c0.322,3.854,0.045,7.892,3.016,11.035
	c0.211,0.225,0.375,0.537,0.456,0.837c0.991,3.695,2.763,6.876,5.618,9.518c1.809,1.672,3.424,3.388,6.145,3.41
	c0.998,0.01,1.993,0.465,2.988,0.722c1.23,0.317,2.461,0.634,3.688,0.96c3.46,0.92,7.026,1.168,10.558,1.602
	c2.667,0.328,5.34,0.883,8.062,0.396c1.177-0.211,2.437-0.631,3.549-0.408c3.258,0.654,6.483,0.23,9.724,0.104
	c1.014-0.039,2.032-0.009,3.044-0.08c2.296-0.162,4.59-0.534,6.883-0.52c4.386,0.026,8.774-0.002,13.05-0.994
	c2.678-0.621,5.338-0.855,8.05-0.795c2.423,0.055,4.846,0.238,7.268,0.231c1.41-0.003,2.824-0.429,4.227-0.38
	c2.451,0.086,4.927,0.217,7.333,0.652s4.841,1.033,7.078,1.994c2.098,0.9,4.17,2.24,4.658,4.771
	c0.389,2.019,0.521,4.092,0.675,6.148c0.098,1.318-0.247,2.719,0.078,3.959c1.239,4.74,1.306,9.601,1.675,14.425
	c0.31,4.043,0.341,8.107,0.574,12.157c0.095,1.657,0.504,3.298,0.581,4.954c0.115,2.452,0.068,4.912,0.079,7.368
	c0.012,2.694,0.031,5.39,0.01,8.084c-0.052,6.781-0.304,13.567-0.134,20.342c0.137,5.439-0.173,10.807-1.087,16.152
	c-0.376,2.198-1.064,4.377-1.156,6.583c-0.273,6.602-0.29,13.213-0.472,19.818c-0.093,3.347-0.188,6.702-0.521,10.03
	c-0.569,5.699-1.724,11.35-1.221,17.127c0.111,1.268,0.24,2.553,0.151,3.815c-0.451,6.357-0.992,12.709-1.459,19.065
	c-0.25,3.404-0.749,6.78-0.211,10.235c0.906,5.822,4.031,15.914,3.577,21.805c-0.182,2.349-0.588,4.681-0.901,7.087"/>
<path fill-rule="evenodd" clip-rule="evenodd" d="M652.445,406.996c-2.786-0.096-5.318-0.197-7.852-0.264
	c-2.542-0.066-5.085-0.115-7.627-0.141c-4.183-0.043-8.365-0.07-12.549-0.09c-5.876-0.025-11.752-0.039-17.628-0.059
	c-8.89-0.029-17.782-0.191-26.668-0.035c-4.501,0.08-8.987,0.775-13.486,1.117c-3.24,0.246-6.494,0.322-9.736,0.562
	c-2.064,0.15-4.113,0.52-6.177,0.689c-3.857,0.312-7.723,0.523-11.58,0.83c-3.325,0.266-6.653,0.535-9.965,0.934
	c-7.503,0.898-15.028,1.119-22.568,0.857c-4.195-0.146-8.386-0.645-12.579-0.641c-4.598,0.004-9.194,0.402-13.792,0.629
	c-0.319,0.018-0.638,0.047-0.957,0.053c-15.917,1.898-12.796-6.461-12.796-6.461c0.313-2.406,0.72-4.738,0.901-7.087
	c0.454-5.891,0.101-11.769-0.806-17.591c-0.538-3.455-0.039-6.831,0.211-10.235c0.467-6.356,1.008-12.708,1.459-19.065
	c0.089-1.263-0.04-2.548-0.151-3.815c-0.503-5.777,0.651-11.428,1.221-17.127c0.332-3.328,0.428-6.684,0.521-10.03
	c0.182-6.605,0.198-13.217,0.472-19.818c0.092-2.206,0.78-4.385,1.156-6.583c0.914-5.346,1.224-10.713,1.087-16.152
	c-0.17-6.774,0.082-13.561,0.134-20.342c0.021-2.694,0.002-5.39-0.01-8.084c-0.011-2.456,0.036-4.916-0.079-7.368
	c-0.077-1.656-0.486-3.297-0.581-4.954c-0.233-4.05-0.265-8.114-0.574-12.157c-0.369-4.824-0.436-9.685-1.675-14.425
	c-0.325-1.24,0.02-2.641-0.078-3.959c-0.153-2.057-0.286-4.13-0.675-6.148c-0.488-2.531-2.561-3.871-4.658-4.771
	c-2.237-0.961-4.672-1.559-7.078-1.994s-4.882-0.566-7.333-0.652c-1.402-0.049-2.816,0.377-4.227,0.38
	c-2.422,0.007-4.845-0.177-7.268-0.231c-2.712-0.061-5.372,0.174-8.05,0.795c-4.275,0.992-8.664,1.021-13.05,0.994
	c-2.293-0.015-4.587,0.357-6.883,0.52c-1.012,0.071-2.03,0.041-3.044,0.08c-3.24,0.127-6.466,0.551-9.724-0.104
	c-1.112-0.223-2.372,0.197-3.549,0.408c-2.722,0.486-5.395-0.068-8.062-0.396c-3.531-0.434-7.098-0.682-10.558-1.602
	c-1.228-0.326-2.458-0.643-3.688-0.96c-0.995-0.257-1.99-0.712-2.988-0.722c-2.721-0.022-4.336-1.738-6.145-3.41
	c-2.855-2.642-4.627-5.822-5.618-9.518c-0.081-0.3-0.245-0.612-0.456-0.837c-2.971-3.144-2.693-7.181-3.016-11.035
	c-0.189-2.272-0.203-4.561-0.334-6.839c-0.078-1.348-0.27-2.688-0.339-4.035c-0.156-3.012-0.433-6.029-0.354-9.037
	c0.084-3.244,0.263-6.527,0.859-9.707c0.761-4.061,1.886-8.063,3.031-12.04c1.063-3.692,2.626-7.226,5.338-10.008
	c2.098-2.151,4.835-3.456,7.632-4.549c2.366-0.926,4.801-1.53,7.362-1.539c0.391-0.001,0.854-0.026,1.157-0.229
	c2.767-1.849,6.085-1.676,9.106-2.563c2.834-0.831,5.699-0.258,8.537-0.517c0.289-0.025,0.601,0.128,0.893,0.227
	c1.669,0.56,1.668,0.562,3.36-0.549c2.571,1.467,5.309,0.41,8.035,0.169c3.151-0.278,6.297-0.655,9.453-0.832
	c1.486-0.083,2.991,0.26,4.491,0.31c2.461,0.083,4.932,0.215,7.386,0.084c2.458-0.133,4.906-0.518,7.347-0.87
	c3.2-0.463,6.375-1.117,9.585-1.478c3.308-0.372,6.644-0.496,9.969-0.717c1.03-0.068,2.065-0.061,3.095-0.145
	c4.817-0.393,9.637-0.771,14.448-1.225c2.443-0.23,4.909-0.437,7.299-0.957c3.469-0.757,6.984-0.267,10.448-0.688
	c2.888-0.352,5.749-0.92,8.635-1.302c1.607-0.213,3.123-1.095,4.835-0.633c0.348,0.094,0.813-0.04,1.163-0.202
	c3.299-1.527,6.833-1.294,10.317-1.397c2.47-0.073,4.948-0.214,7.412-0.091c4.08,0.204,8.068-0.732,12.116-0.771
	c1.24-0.012,2.478,0.428,3.727,0.567c2.041,0.229,4.088,0.442,6.138,0.535c0.823,0.038,1.658-0.358,2.493-0.385
	c3.019-0.095,5.996,0.204,8.873,1.195c2.99,1.03,6.135,0.487,9.186,0.903c0.629,0.087,1.296-0.024,1.903,0.125
	c4.895,1.202,9.927,1.367,14.899,1.915c3.631,0.399,7.327,0.162,10.984,0.38c1.643,0.098,3.306,0.475,4.883,0.967
	c3.861,1.205,7.696,2.506,11.507,3.865c1.566,0.559,3.095,1.274,4.556,2.075c4.209,2.307,7.933,5.261,11.474,8.505
	c4.036,3.697,8.372,7.07,12.379,10.797c4.083,3.798,7.941,7.814,10.541,12.887c1.48,2.888,3.313,5.594,4.995,8.377
	c1.811,2.995,3.406,6.079,4.729,9.339c2.154,5.31,2.824,10.868,3.414,16.482c0.329,3.14,0.915,6.254,1.453,9.368
	c0.51,2.947,1.151,5.871,1.644,8.82c0.183,1.091,0.141,2.226,0.142,3.341c0.007,5.261-0.077,10.522,0.009,15.781
	c0.064,3.983,0.469,7.962,0.474,11.943c0.004,3.159-0.343,6.32-0.582,9.478c-0.197,2.616-0.451,5.229-0.707,7.84
	c-0.295,3.012-0.745,6.015-0.899,9.032c-0.199,3.887-1.17,7.687-0.859,11.646c0.314,4.024,0.236,8.092,0.138,12.135
	c-0.125,5.092-0.771,10.189-0.597,15.265c0.204,5.973-1.184,11.728-1.598,17.6c-0.15,2.13-0.145,4.352,0.299,6.423
	c0.534,2.493,0.344,4.924,0.194,7.383c-0.261,4.303-0.108,8.579,0.159,12.886c0.247,3.957-0.274,7.96-0.436,11.943
	c-0.125,3.109-0.328,6.222-0.298,9.33c0.067,7.104,0.034,14.18-1.196,21.227c-0.415,2.378,0.034,4.901,0.039,7.359
	c0.004,2.617,0.034,5.238-0.104,7.85c-0.128,2.388-0.484,4.763-0.698,7.147c-0.07,0.778-0.012,1.569-0.012,2.44
	C659.151,399.617,658.395,406.716,652.445,406.996z M11.02,398.079c-0.01-0.637-0.229-1.308-0.092-1.902
	c0.699-3.042,0.191-6.021-0.174-9.044c-0.246-2.025-0.019-4.107-0.012-6.165c0.004-0.796,0.019-1.595-0.032-2.39
	c-0.312-4.927-0.563-9.86-0.986-14.778c-0.528-6.139-1.089-12.279-1.854-18.391c-0.51-4.069-1.419-8.087-2.108-12.135
	c-0.161-0.938-0.254-1.908-0.219-2.858c0.164-4.347-0.84-8.624-0.728-12.968c0.021-0.779,0.009-1.619-0.251-2.336
	c-1.668-4.61-1.086-9.444-1.495-14.178c-0.157-1.82-0.156-3.661-0.427-5.463c-0.369-2.463-0.492-4.887-0.185-7.379
	c0.202-1.636-0.097-3.331-0.151-5.001c-0.068-2.055-0.129-4.109-0.164-6.165c-0.021-1.339,0.162-2.7-0.019-4.015
	c-0.427-3.114-0.621-6.173-0.372-9.357c0.308-3.922-0.238-7.906-0.323-11.865c-0.032-1.486,0.043-3.01,0.335-4.462
	c0.418-2.073,0.422-4.032-0.113-6.117c-0.77-3.004-1.233-6.091-1.727-9.158c-0.12-0.752,0.146-1.567,0.249-2.352
	c0.339-2.598,0.55-5.172-0.173-7.769c-0.217-0.777,0.093-1.705,0.185-2.562c0.173-1.612,1.003-3.239-0.449-4.766
	c-0.327-0.346-0.216-1.236-0.11-1.843c0.75-4.366,0.023-8.687-0.147-13.038c-0.142-3.58-0.879-7.25,0.288-10.842
	c0.289-0.888,0.248-1.896,0.278-2.85c0.075-2.299,0.12-4.598,0.139-6.897c0.007-0.874-0.099-1.749-0.14-2.625
	c-0.072-1.575-0.254-3.157-0.176-4.728c0.152-3.09,0.573-6.155,0.311-9.276c-0.124-1.476,0.07-3.077,0.542-4.481
	c1.229-3.662,0.849-7.439,0.885-11.146c0.028-2.971,0.415-5.848,0.794-8.764c0.459-3.535,0.493-7.065,0.121-10.66
	c-0.381-3.691-0.454-7.566,0.931-11.09c1.72-4.375,2.478-8.826,2.477-13.486c-0.001-3.236,1.171-6.2,2.313-9.191
	c1.705-4.457,4.025-8.63,5.574-13.18c1.482-4.36,3.834-8.412,7.105-11.816c2.305-2.398,4.441-4.965,6.826-7.279
	c2.943-2.856,6.094-5.498,9.101-8.291c2.023-1.881,3.922-3.895,5.931-5.789c1.651-1.559,2.961-3.527,5.22-4.383
	c0.425-0.161,0.78-0.551,1.122-0.882c3.686-3.573,7.994-6.149,12.602-8.39c4.623-2.248,9.029-4.941,13.553-7.4
	c0.969-0.525,1.99-1.029,3.051-1.297c3.57-0.9,6.811-2.524,10.002-4.292c0.621-0.345,1.304-0.611,1.989-0.805
	c3.589-1.013,7.177-2.035,10.788-2.97c4.088-1.058,8.213-1.972,12.295-3.051c3.221-0.852,6.393-1.884,9.599-2.788
	c2.29-0.646,4.61-1.187,6.903-1.825c1.902-0.53,3.763-1.22,5.679-1.687c2.935-0.714,5.909-1.259,8.85-1.948
	c3.765-0.883,7.585-0.426,11.381-0.582c1.028-0.043,2.05-0.238,3.077-0.297c1.728-0.098,3.404-0.5,5.199-0.211
	c1.7,0.275,3.532,0.219,5.233-0.092c4.472-0.82,8.974-0.809,13.484-0.926c2.116-0.055,4.229-0.691,6.335-0.652
	c6.434,0.115,12.809-1.176,19.26-0.661c1.481,0.118,3.051-0.177,4.506-0.56c3.593-0.946,7.267-0.735,10.908-1.01
	c5.471-0.41,10.942-0.68,16.426-0.424c2.051,0.096,4.092,0.423,6.144,0.52c2.631,0.125,5.271,0.066,7.901,0.195
	c1.982,0.096,3.954,0.415,5.938,0.533c1.662,0.099,3.333,0.065,5,0.062c2.383-0.005,4.766-0.038,7.148-0.059
	c3.645-0.03,7.288-0.059,10.933-0.091c5.815-0.053,11.641-0.427,17.435,0.404c0.929,0.133,1.834,0.426,2.762,0.561
	c3.996,0.581,7.997,1.132,11.997,1.691c4.183,0.584,8.364,1.172,12.549,1.745c0.929,0.127,1.864,0.206,2.799,0.286
	c5.083,0.436,9.341,3.025,13.638,5.4c1.397,0.773,2.512,2.191,3.527,3.492c1.561,1.998,3.033,4.086,4.339,6.258
	c1.144,1.902,1.989,3.98,2.999,5.965c0.613,1.206,1.126,2.513,1.969,3.541c1.6,1.949,2.266,4.194,2.547,6.596
	c0.647,5.521,1.412,11.037,1.787,16.579c0.219,3.233-0.231,6.513-0.363,9.772c-0.086,2.152-0.629,4.21-1.086,6.304
	c-0.473,2.157-0.354,4.437-0.66,6.64c-0.138,0.986-0.645,1.932-1.055,2.864c-0.285,0.65-0.759,1.22-1.033,1.874
	c-1.308,3.113-3.621,5.131-6.73,6.307c-0.74,0.28-1.522,0.467-2.226,0.816c-2.971,1.475-6.21,0.773-9.308,1.195
	c-0.388,0.052-0.801-0.101-1.192-0.06c-1.828,0.191-3.394,1.342-5.47,0.933c-1.681-0.33-3.545,0.265-5.326,0.456
	c-0.386,0.042-0.795,0.044-1.146,0.183c-3.339,1.312-6.804,1.191-10.289,0.984c-4.357-0.259-8.719-0.467-13.078-0.691
	c-0.718-0.036-1.486,0.12-2.146-0.084c-2.394-0.74-4.704-0.201-7.068,0.147c-1.629,0.24-3.316,0.069-4.977,0.126
	c-2.305,0.081-4.609,0.302-6.912,0.29c-5.273-0.026-10.401,1.099-15.588,1.78c-3.439,0.453-6.914,0.648-10.35,1.127
	c-1.775,0.246-3.65,0.566-5.207,1.377c-1.902,0.992-3.781,1.111-5.737,0.824c-2.007-0.295-3.788-0.042-5.411,1.238
	c-0.311,0.246-0.876,0.145-1.25,0.344c-1.021,0.543-2.082,1.059-2.985,1.766c-3.259,2.553-3.96,6.59-5.442,10.096
	c-0.854,2.022-0.938,4.522-0.814,6.777c0.283,5.145,0.932,10.27,1.385,15.406c0.28,3.166,0.568,6.338,0.674,9.512
	c0.065,1.973-0.158,3.96-0.336,5.934c-0.278,3.086-0.688,6.162-0.934,9.252c-0.41,5.143-0.744,10.291-1.094,15.438
	c-0.15,2.232-0.193,4.473-0.405,6.698c-0.362,3.81-0.81,7.61-1.24,11.413c-0.554,4.885-1.126,9.766-1.688,14.648
	c-0.417,3.627-0.928,7.246-1.22,10.885c-0.349,4.356-0.49,8.73-0.756,13.095c-0.302,4.938-0.668,9.873-0.956,14.812
	c-0.185,3.173-0.229,6.354-0.431,9.524c-0.096,1.487-0.422,2.959-0.629,4.439c-0.066,0.474-0.108,0.954-0.122,1.433
	c-0.178,6.012-0.378,12.023-0.51,18.036c-0.075,3.432-0.433,6.806-1.124,10.18c-0.492,2.407-0.617,4.916-0.66,7.384
	c-0.094,5.225-0.031,10.451-0.023,15.677c0.01,5.171,0.062,10.342,0.027,15.512c-0.013,1.982-0.291,3.962-0.316,5.945
	c-0.043,3.263-0.008,6.527,0.048,9.791c0.081,4.741,0.177,9.483,0.343,14.222c0.043,1.265,0.468,2.516,0.533,3.781
	c0.184,3.581,0.265,7.167,0.4,10.751c0.098,2.619,0.182,5.24,0.335,7.856c0.384,6.547,1.011,13.091-0.062,19.633
	c0,0-0.922,8.257-6.818,7.682c-6.336-0.801-12.695-0.992-19.041-0.793c-6.752,0.211-13.449-0.713-20.192-0.551
	c-3.634,0.088-7.276-0.273-10.917-0.354c-1.01-0.021-2.029,0.369-3.039,0.346c-3.482-0.082-6.964-0.215-10.441-0.412
	c-7.118-0.408-14.229-1.023-21.354-1.244c-3.535-0.109-7.104,0.365-10.637,0.756c-6.622,0.732-13.217,1.752-19.85,2.35
	c-3.93,0.352-7.912,0.133-11.871,0.154c-4.285,0.025-8.57-0.01-12.854,0.066c-2.94,0.051-5.878,0.285-8.819,0.373
	c-4.695,0.143-9.393,0.229-14.089,0.34c-2.147,0.053-4.298,0.08-6.444,0.166c-4.917,0.193-9.831,0.488-14.75,0.604
	c-3.706,0.086-7.417-0.061-11.127-0.068c-0.871,0-1.743,0.201-2.616,0.219C10.272,407.172,11.02,398.079,11.02,398.079z
	 M223.023,114.643c0.01-3.497,0.469-6.833,2.175-9.949c0.606-1.109,1.012-2.335,1.444-3.531c1.088-3.013,3.318-5.057,6.023-6.43
	c2.316-1.176,4.887-1.862,7.365-2.701c0.482-0.162,1.165-0.215,1.582,0.008c1.266,0.674,2.463,0.455,3.693,0.015
	c2.98-1.068,5.961-1.935,9.193-2.121c4.436-0.257,8.84-0.996,13.264-1.489c6.938-0.773,13.878-1.521,20.88-0.977
	c0.548,0.043,1.164,0.021,1.656-0.188c3.119-1.328,6.289-0.932,9.506-0.502c2.343,0.312,4.72,0.398,7.085,0.512
	c3.002,0.143,6.036,0,9.004,0.387c1.799,0.234,3.498,0.17,5.201-0.191c3.333-0.707,6.588-1.888,10.091-1.391
	c0.46,0.064,0.953-0.062,1.426-0.132c2.751-0.407,5.5-1.145,8.249-1.142c2.343,0.002,4.326-0.717,6.389-1.523
	c5.381-2.102,7.558-6.496,7.578-11.979c0.006-1.493,0.146-2.995,0.357-4.474c0.235-1.653,0.701-3.274,0.926-4.928
	c0.561-4.126,0.486-8.246-0.129-12.374c-0.422-2.832-0.526-5.713-0.982-8.538c-0.503-3.113-0.731-6.336-2.707-9.032
	c-0.736-1.004-1.574-2.009-2.004-3.149c-1.395-3.71-3.887-6.719-6.099-9.902c-0.803-1.156-1.668-2.429-2.817-3.152
	c-2.892-1.822-6.125-3.242-9.48-3.58c-6.07-0.611-11.957-2.488-18.1-2.482c-0.472,0.001-0.961-0.032-1.412-0.156
	c-3.831-1.055-7.833-1.029-11.709-2.039c-2.924-0.762-6.14-0.478-9.229-0.524c-3.654-0.056-7.311,0.044-10.967,0.056
	c-5.643,0.02-11.285,0.086-16.926-0.004c-1.969-0.031-3.926-0.579-5.899-0.688c-3.724-0.204-7.454-0.299-11.183-0.369
	c-4.146-0.078-8.293-0.088-12.44-0.109c-1.113-0.006-2.228,0.027-3.341,0.08c-2.947,0.142-5.893,0.326-8.842,0.446
	c-1.754,0.071-3.629-0.33-5.244,0.157c-3.066,0.926-6.141,0.766-9.238,0.881c-4.348,0.16-8.701,0.761-13.033,0.604
	c-4.334-0.156-8.536,0.791-12.836,0.844c-4.566,0.056-9.125,0.619-13.691,0.901c-1.42,0.088-2.854-0.054-4.279-0.023
	c-3.336,0.071-6.672,0.143-10.006,0.297c-1.482,0.069-2.953-0.104-4.457,0.479c-1.358,0.528-2.951,0.419-4.418,0.709
	c-2.017,0.398-4.023,0.86-6.011,1.386c-1.386,0.365-2.715,0.95-4.103,1.312c-2.143,0.558-4.345,0.899-6.465,1.527
	c-3.855,1.141-7.617,2.642-11.52,3.562c-2.195,0.518-4.488,0.715-6.692,1.33c-2.685,0.75-5.392,1.418-8.086,2.134
	c-1.384,0.368-2.739,0.899-4.144,1.118c-3.016,0.471-5.857,1.258-8.467,2.955c-1.295,0.842-2.881,1.242-4.346,1.816
	c-2.652,1.04-5.365,1.947-7.953,3.127c-2.014,0.918-3.863,2.189-5.811,3.256c-2.431,1.33-4.901,2.586-7.324,3.928
	c-1.176,0.649-2.222,1.553-3.434,2.106c-2.262,1.032-4.312,2.308-6.041,4.11c-1.047,1.09-2.143,2.141-3.283,3.131
	c-1.672,1.449-3.478,2.749-5.096,4.254c-3.701,3.443-7.357,6.938-10.969,10.477c-2.762,2.709-6.004,4.928-8.301,8.107
	c-0.766,1.061-1.518,2.135-2.216,3.239c-1.526,2.415-3.38,4.636-4.181,7.476c-0.365,1.29-0.861,2.578-1.518,3.744
	c-2.386,4.24-4.123,8.757-5.688,13.334c-0.531,1.557-0.578,3.279-0.826,4.93c-0.107,0.706-0.107,1.433-0.256,2.129
	c-0.887,4.167-1.418,8.409-2.714,12.492c-0.258,0.812-0.208,1.728-0.272,2.598c-0.088,1.193-0.092,2.395-0.234,3.58
	c-0.184,1.521,0.096,2.991,0.197,4.487c0.191,2.795-0.076,5.636-0.321,8.442c-0.186,2.123-0.751,4.214-0.937,6.338
	c-0.306,3.512-0.303,7.055-0.685,10.558c-0.458,4.195-1.526,8.327-1.093,12.606c0.086,0.847,0.022,1.762-0.21,2.577
	c-0.638,2.233-0.476,4.377,0.309,6.537c0.159,0.436-0.046,1.001-0.075,1.507c-0.119,2.02-1.002,3.947-0.422,6.068
	c0.41,1.504,0.432,3.086-0.283,4.627c-0.354,0.762-0.486,1.706-0.451,2.557c0.172,4.031,0.445,8.059,0.661,12.089
	c0.14,2.605,0.243,5.213,0.362,7.819c0.036,0.792,0.072,1.584,0.102,2.376c0.049,1.243,0.189,2.492,0.117,3.729
	c-0.12,2.024-0.441,4.01-0.199,6.08c0.285,2.416,0.412,4.907,0.147,7.314c-0.272,2.475,0.038,4.827,0.396,7.23
	c0.48,3.237,2.05,6.391,0.773,9.785c-0.185,0.491-0.05,1.108-0.038,1.667c0.096,4.502,0.188,9.005,0.301,13.507
	c0.074,2.949,0.188,5.897,0.272,8.846c0.041,1.432,0.347,2.938,0.007,4.278c-0.495,1.953-0.243,3.775,0.097,5.657
	c0.125,0.697,0.222,1.412,0.22,2.119c-0.01,3.018-0.315,6.059-0.042,9.048c0.498,5.471,0.924,10.929,0.812,16.428
	c-0.024,1.164,0.3,2.336,0.479,3.502c0.202,1.318,0.47,2.628,0.623,3.952c0.274,2.363,0.509,4.731,0.712,7.103
	c0.12,1.404,0.205,2.815,0.205,4.224c0,2.225-0.338,4.475,0.962,6.521c0.221,0.348,0.155,0.886,0.199,1.338
	c0.208,2.133,0.183,4.321,0.677,6.386c0.466,1.945,0.553,3.885,0.758,5.838c0.146,1.397,0.532,2.77,0.803,4.154
	c0.273,1.398,0.883,2.836,0.74,4.192c-0.379,3.589,0.503,7.115,0.186,10.712c-0.234,2.652,0.207,5.372,0.422,8.056
	c0.088,1.1,0.51,2.179,0.545,3.275c0.136,4.253-0.469,8.544,0.727,12.738c0.043,0.149,0.076,0.333,0.029,0.474
	c-0.967,2.906,0.086,5.85-0.155,8.776c-0.128,1.557,0.342,1.956,1.966,1.959c2.395,0.006,4.789-0.08,7.184-0.145
	c6.359-0.178,12.721-0.332,19.078-0.557c5.472-0.193,10.939-0.533,16.411-0.695c4.212-0.123,8.429-0.072,12.643-0.1
	c4.274-0.031,8.56-0.27,12.821-0.049c7.682,0.396,15.223-0.662,22.775-1.738c2.834-0.404,5.646-1.151,8.49-1.274
	c5.064-0.219,10.147-0.219,15.215-0.053c4.352,0.144,8.635,1.177,13.033,1.088c3.639-0.074,7.284,0.258,10.926,0.23
	c3.573-0.027,7.141,0.05,10.729-0.188c3.788-0.251,7.628,0.392,11.449,0.513c4.186,0.133,8.375,0.093,12.562,0.17
	c4.691,0.088,9.383,0.169,14.07,0.359c2.367,0.096,4.725,0.438,7.089,0.646c1.696,0.15,2.265-0.181,2.449-1.535
	c0.183-1.335,0.358-2.687,0.348-4.029c-0.04-4.917-0.115-9.835-0.269-14.75c-0.066-2.134-0.439-4.257-0.516-6.391
	c-0.088-2.459,0.054-4.927-0.004-7.388c-0.066-2.844,0.137-5.724-0.944-8.468c-0.158-0.402-0.003-0.927,0.005-1.395
	c0.033-2.066,0.141-4.136,0.078-6.2c-0.072-2.391-0.412-4.776-0.426-7.165c-0.045-7.415,0.045-14.831,0.002-22.247
	c-0.012-2.117-0.666-4.286-0.377-6.34c0.672-4.768,0.029-9.514,0.07-14.26c0.045-5.084,0.157-10.16,0.893-15.159
	c0.841-5.701,0.973-11.397,1.011-17.124c0.015-2.374-0.081-4.789,0.311-7.111c0.597-3.541,0.617-7.081,0.669-10.638
	c0.037-2.465,0.055-4.935,0.245-7.39c0.208-2.687,0.593-5.36,0.923-8.036c0.126-1.025,0.444-2.042,0.45-3.063
	c0.016-2.68-0.103-5.359-0.148-8.039c-0.024-1.408-0.221-2.854,0.026-4.218c0.646-3.561,0.949-7.129,1.17-10.741
	c0.305-4.996,1.168-9.955,1.645-14.944c0.451-4.729,1.506-9.372,1.742-14.139c0.36-7.22,0.969-14.427,1.492-21.638
	c0.253-3.499,0.537-6.995,0.84-10.49c0.17-1.972,0.588-3.939,0.57-5.906c-0.031-3.511-0.187-7.03-0.51-10.526
	C224.311,125.379,223.628,120.015,223.023,114.643z M652.958,399.965c0.127-0.304,0.488-0.842,0.574-1.421
	c0.669-4.498,1.271-9.004,0.951-13.575c-0.29-4.139-0.464-8.277,0.235-12.4c0.267-1.57,0.626-3.144,0.686-4.726
	c0.219-5.896,0.325-11.796,0.486-17.694c0.062-2.3-0.106-4.646,0.303-6.885c0.666-3.647,0.726-7.275,0.504-10.94
	c-0.23-3.808-0.399-7.602-0.004-11.426c0.286-2.763,0.221-5.574,0.139-8.358c-0.052-1.737-0.652-3.472-0.606-5.196
	c0.081-3.097,0.311-6.207,0.756-9.271c0.658-4.538,0.63-9.103,0.852-13.658c0.179-3.664,0.281-7.332,0.378-11
	c0.049-1.83,0.01-3.662,0.011-5.494c0-4.031-0.221-8.078,0.052-12.092c0.459-6.755,1.225-13.489,1.878-20.23
	c0.122-1.257,0.316-2.507,0.479-3.76c0.202-1.57,0.612-3.146,0.57-4.71c-0.144-5.316-0.472-10.629-0.681-15.944
	c-0.169-4.277-0.503-8.565-0.33-12.831c0.16-3.938-0.203-7.767-0.846-11.628c-0.73-4.391-2.008-8.691-2.156-13.184
	c-0.065-1.988-0.084-4.031-0.557-5.943c-0.993-4.012-2.219-7.969-3.464-11.912c-0.378-1.196-1.079-2.305-1.723-3.4
	c-2.123-3.61-4.509-7.086-6.382-10.82c-2.558-5.099-6.354-9.109-10.487-12.832c-4.671-4.205-9.604-8.117-14.281-12.314
	c-2.599-2.332-5.549-4.053-8.523-5.779c-0.817-0.475-1.668-0.933-2.561-1.227c-4.212-1.388-8.442-2.718-12.669-4.062
	c-1.335-0.425-2.604-1.058-4.115-0.657c-1.043,0.276-2.183,0.457-3.244,0.345c-6.426-0.68-12.844-1.436-19.259-2.214
	c-1.799-0.218-3.57-0.799-5.366-0.864c-4.058-0.149-8.059-0.602-12.028-1.438c-1.156-0.242-2.385-0.439-3.542-0.314
	c-3.256,0.354-6.465,0.332-9.719-0.148c-2.494-0.369-5.053-0.426-7.58-0.398c-1.447,0.017-2.883,0.579-4.34,0.707
	c-1.097,0.096-2.219-0.172-3.33-0.166c-2.942,0.014-5.886,0.066-8.828,0.147c-1.492,0.041-3.004,0.049-4.47,0.294
	c-4.701,0.786-9.381,1.701-14.079,2.512c-1.553,0.269-3.134,0.516-4.703,0.525c-3.74,0.021-7.523-0.143-11.142,0.841
	c-3.222,0.875-6.475,0.751-9.719,1.022c-1.875,0.156-3.743,0.413-5.62,0.502c-3.392,0.161-6.726,0.916-10.185,0.51
	c-2.656-0.312-5.364,0.01-8.039,0.553c-6.784,1.379-13.604,2.605-20.56,2.613c-2.441,0.004-4.883-0.254-7.323-0.406
	c-0.586-0.036-1.177-0.221-1.752-0.174c-3.253,0.26-6.499,0.611-9.754,0.849c-2.437,0.179-4.896,0.114-7.319,0.39
	c-1.356,0.153-2.604,0.447-3.957-0.142c-0.845-0.367-1.902-0.593-2.794-0.449c-4.446,0.719-9.078,0.534-13.244,2.714
	c-0.88,0.461-1.97,0.639-2.979,0.707c-3.237,0.215-6.103,1.592-8.999,2.822c-0.914,0.389-1.715,1.185-2.396,1.946
	c-2.734,3.055-4.147,6.804-5.158,10.676c-1.06,4.062-1.974,8.173-2.717,12.305c-0.461,2.563-1.004,5.29-0.598,7.796
	c0.854,5.277-0.567,10.704,1.246,15.879c0.149,0.425-0.021,0.953,0.008,1.43c0.151,2.439-0.139,5.027,0.588,7.283
	c1.111,3.443,2.866,6.689,4.49,9.948c0.438,0.879,1.273,1.703,2.132,2.198c1.635,0.943,3.352,1.856,5.151,2.385
	c4.748,1.395,9.662,1.93,14.563,2.562c3.427,0.443,6.782,0.57,10.194,0.074c1.709-0.248,3.452-0.568,5.172,0.166
	c0.385,0.164,0.935-0.066,1.41-0.1c4.923-0.35,9.842-0.781,14.771-1.016c3.636-0.172,7.318,0.098,10.89-0.651
	c3.2-0.671,6.397-1.04,9.649-1.046c1.247-0.004,2.493,0.102,3.74,0.101c3.874-0.003,7.75-0.128,11.62-0.026
	c4.425,0.115,8.545,1.75,12.772,2.841c1.864,0.48,3.153,1.722,4.4,3.054c0.324,0.346,0.613,0.725,0.929,1.078
	c1.265,1.415,2.383,2.918,2.668,4.859c0.506,3.446,0.798,6.9,0.987,10.389c0.241,4.428,1.05,8.817,1.339,13.273
	c0.381,5.86,0.156,11.775,1.291,17.582c0.061,0.311,0.039,0.638,0.044,0.958c0.044,3.023,0.104,6.048,0.118,9.072
	c0.009,1.916-0.01,3.835-0.096,5.748c-0.107,2.381-0.463,4.761-0.418,7.136c0.106,5.703,0.593,11.405,0.533,17.104
	c-0.057,5.564-0.456,11.141-2.083,16.539c-0.25,0.83-0.375,1.721-0.409,2.589c-0.146,3.66-0.245,7.322-0.34,10.984
	c-0.085,3.314-0.1,6.632-0.223,9.946c-0.117,3.171-0.294,6.341-0.516,9.506c-0.343,4.914-0.804,9.819-1.096,14.735
	c-0.128,2.142,0.187,4.311,0.041,6.449c-0.312,4.606-0.715,9.21-1.224,13.799c-0.805,7.257-0.669,14.484,0.383,21.699
	c0.616,4.232,0.117,8.43-0.29,12.633c-0.164,1.69-0.322,3.381-0.498,5.231c4.302-0.18,8.244-0.18,12.152-0.545
	c5.503-0.514,10.985-0.662,16.488-0.129c3.465,0.334,6.931,0.695,10.405,0.861c2.227,0.105,4.482,0.002,6.7-0.238
	c3.655-0.395,7.363,0.15,11-0.953c1.921-0.584,4.065-0.412,6.105-0.619c2.498-0.254,4.989-0.586,7.49-0.812
	c2.366-0.213,4.739-0.383,7.113-0.463c0.966-0.033,1.886,0.307,2.923,0.01c1.508-0.434,3.1-0.6,4.667-0.779
	c0.934-0.105,1.899,0.07,2.834-0.031c3.384-0.363,6.754-0.9,10.145-1.15c1.785-0.133,3.606,0.299,5.348-0.479
	c0.249-0.111,0.62,0.066,0.937,0.086c0.863,0.052,1.735,0.183,2.591,0.113c1.383-0.112,2.752-0.484,4.134-0.523
	c2.294-0.064,4.643-0.231,6.875,0.167c2.229,0.397,4.663-0.413,6.71,1.07c0.11,0.08,0.385,0.115,0.454,0.045
	c1.012-1.032,2.323-0.061,3.384-0.51c2.16-0.913,4.382-0.542,6.602-0.486c3.226,0.083,6.506,0.468,9.667,0.034
	c3.473-0.479,6.883,0.647,10.313-0.084c0.517-0.11,1.182,0.234,1.714,0.499c0.891,0.441,1.626,0.492,2.633,0.082
	c1.121-0.458,2.457-0.426,3.705-0.519c1.088-0.081,2.186-0.059,3.278-0.049c1.357,0.012,2.839-0.269,4.033,0.188
	c1.027,0.393,1.782,0.11,2.695,0.076C647.288,399.813,649.864,399.927,652.958,399.965z"/>
<path fill-rule="evenodd" clip-rule="evenodd" d="M201.65,260.827c1.111-0.083,1.957-0.075,2.773-0.224
	c1.254-0.227,1.857,0,2.129,1.19c0.732,3.23,1.585,6.415,0.863,9.835c-0.332,1.573-0.051,3.342,0.249,4.967
	c0.409,2.209,0.53,4.355,0.331,6.616c-0.307,3.479-0.109,6.998-0.285,10.491c-0.209,4.179-0.758,8.316-2.063,12.323
	c-0.419,1.283-0.679,2.617-1.058,3.915c-0.688,2.353-1.586,4.601-2.619,6.846c-0.99,2.151-1.682,4.413-3.057,6.418
	c-0.672,0.978-0.805,2.313-1.256,3.457c-0.695,1.764-1.424,3.516-2.2,5.245c-0.38,0.847-0.66,1.604-0.692,2.616
	c-0.037,1.125-0.891,2.252-1.484,3.324c-0.92,1.659-1.887,3.296-2.901,4.898c-0.931,1.471-2.466,2.201-4.062,2.412
	c-1.269,0.167-2.582,0.533-3.966-0.182c-2.818-1.453-4.357-3.549-4.463-6.763c-0.084-2.539-0.407-5.07-0.518-7.609
	c-0.041-0.938,0.201-1.892,0.353-2.832c0.544-3.396,0.738-6.772,0.002-10.188c-0.278-1.289-0.185-2.679-0.124-4.018
	c0.151-3.425,0.42-6.846,0.555-10.271c0.053-1.341-0.021-2.707-0.223-4.034c-0.561-3.697-1.304-7.368-1.812-11.071
	c-0.495-3.61-0.712-7.26-1.201-10.872c-0.309-2.272-0.892-4.508-1.358-6.758c-0.205-0.986-0.428-1.97-0.594-2.727
	c1.015-1.307,2.178-1.165,2.992-0.688c0.885,0.519,1.721,1.423,2.154,2.356c1.68,3.607,2.001,7.531,2.633,11.418
	c0.564,3.469,0.566,7.016,1.781,10.451c0.996,2.817,1.559,5.919,0.739,9.057c-0.284,1.087,0.009,2.322,0.013,3.489
	c0.006,2.367,0.303,4.789-0.098,7.087c-0.398,2.272-0.261,4.359,0.257,6.548c0.208,0.882-0.079,1.896-0.21,2.841
	c-0.473,3.407-0.393,6.872-1.069,10.261c-0.087,0.435,0.021,0.999,0.241,1.388c1.033,1.817,0.787,3.854,1.076,5.794
	c0.232,1.559,0.194,1.563,1.771,2.677c2.264-1.874,3.04-4.527,3.799-7.218c0.528-1.871,1.082-3.752,1.835-5.54
	c2.038-4.836,4.217-9.611,6.285-14.435c1.925-4.487,2.489-9.332,3.634-14.026c1.127-4.624,1.114-9.259,0.957-13.948
	c-0.218-6.486-0.378-12.976-0.384-19.464c0-1.171,0.117-2.305-0.117-3.48C201.153,261.871,201.535,261.246,201.65,260.827z"/>
<path fill-rule="evenodd" clip-rule="evenodd" d="M103.443,338.544c0.285-1.599,0.607-3.191,0.846-4.797
	c0.291-1.953,0.309-3.973,1.832-5.532c0.238-0.244,0.291-0.745,0.299-1.131c0.063-3.646,1.164-7.173,0.961-10.887
	c-0.205-3.723,0.638-7.404,1.795-10.974c1.203-3.708,2.115-7.543,3.67-11.099c1.91-4.367,4.355-8.498,7.303-12.294
	c1.508-1.941,3.121-3.831,4.383-5.927c1.057-1.757,2.764-2.313,4.371-3.106c0.847-0.418,1.578,0.099,1.973,0.865
	c0.646,1.257,0.924,2.555,0.012,3.848c-2.289,3.248-4.563,6.506-6.852,9.755c-0.135,0.192-0.43,0.31-0.49,0.511
	c-1.043,3.446-4.043,5.871-4.82,9.501c-0.377,1.757-1.445,3.354-2.096,5.064c-1.557,4.093-2.504,8.36-3.062,12.679
	c-0.393,3.035-0.202,6.142-0.458,9.201c-0.123,1.474-0.609,2.933-1.057,4.358c-0.4,1.277-1.049,2.478-1.445,3.757
	c-0.303,0.979-0.486,2.022-0.545,3.047c-0.148,2.63-1.191,4.919-2.492,7.135c-1.043,1.777-2.804,2.259-4.639,2.598
	c-0.299,0.056-0.739,0.09-0.918-0.076c-1.754-1.635-4.227-2.516-4.805-5.363c-0.42-2.063-1.467-3.998-2.222-5.994
	c-0.564-1.49-1.147-2.976-1.655-4.485c-0.909-2.705-1.862-5.4-2.629-8.147c-1.291-4.621-2.095-9.306-1.4-14.146
	c0.18-1.254,0.037-2.552,0.074-3.828c0.039-1.34,0.104-2.678,0.18-4.016c0.094-1.661,0.36-3.328,0.287-4.98
	c-0.18-4.062,0.041-8.071,1.037-12.022c0.035-0.141,0.178-0.255,0.271-0.38c2.271,0.018,3.328,0.85,3.426,2.954
	c0.104,2.214,0.018,4.436,0.043,6.653c0.016,1.409-0.024,2.831,0.153,4.223c0.305,2.39,0.347,4.731-0.397,7.058
	c-0.139,0.433-0.086,0.95-0.031,1.418c0.348,2.903,0.973,5.8,1.028,8.707c0.091,4.791,1.905,9.11,3.179,13.585
	c0.021,0.076,0.084,0.144,0.096,0.22c0.652,4.282,3.532,7.764,4.229,12.03C103.066,338.533,103.256,338.539,103.443,338.544z"/>
<path fill-rule="evenodd" clip-rule="evenodd" d="M92.719,280.255c-1.679-1.025-2.104-2.15-2.158-3.619
	c-0.119-3.32-0.437-6.633-0.604-9.951c-0.117-2.31-0.143-4.624-0.162-6.938c-0.013-1.464,0.348-2.843,1.226-4.048
	c1.037-1.422,2.759-1.457,3.468,0.084c0.389,0.841,0.869,1.741,0.463,2.932c-0.996,2.911-0.641,5.991-0.568,9
	c0.059,2.369,0.535,4.727,0.635,7.097c0.053,1.248-0.131,2.574-0.544,3.747C94.232,279.245,93.328,279.697,92.719,280.255z"/>
<path fill-rule="evenodd" clip-rule="evenodd" d="M108.814,37.456c1.928-3.63,3.645-7.226,6.238-10.393
	c1.305-1.593,2.998-2.658,4.33-4.168c0.635-0.719,1.776-1.164,2.825-0.453c0.827,0.562,0.979,1.809,0.22,3.032
	c-1.044,1.681-2.212,3.29-3.383,4.888c-1.541,2.102-3.141,4.16-4.705,6.244c-0.189,0.251-0.296,0.565-0.493,0.808
	C111.939,39.76,111.207,39.792,108.814,37.456z"/>
<path fill-rule="evenodd" clip-rule="evenodd" d="M127.102,37.449c-0.656,0.126-1.39,0.267-2.203,0.422
	c-0.463-0.415-0.993-0.89-1.564-1.401c0.281-3.371,1.266-6.523,2.759-9.533c0.632-1.273,1.165-2.609,1.921-3.806
	c1.514-2.398,1.563-2.366,4.646-2.452c0.258,0.396,0.538,0.861,0.852,1.302c0.695,0.976,0.67,1.807-0.154,2.782
	c-2.332,2.76-3.639,6.064-4.796,9.444C128.182,35.316,127.6,36.357,127.102,37.449z"/>
<path fill-rule="evenodd" clip-rule="evenodd" d="M137.764,26.012c0.406-1.87,0.645-3.604,1.176-5.241
	c0.572-1.763,2.01-2.241,3.809-1.522c1.566,0.625,1.842,1.641,1.369,3.433c-0.48,1.818-0.682,3.712-0.963,5.58
	c-0.069,0.462,0.06,0.95,0.045,1.425c-0.045,1.482-0.646,2.641-1.465,2.719c-1.299,0.123-2.192-0.703-2.612-1.716
	C138.498,29.182,138.191,27.543,137.764,26.012z"/>
<path fill-rule="evenodd" clip-rule="evenodd" d="M149.609,15.91c3.439-0.804,4.205-0.397,5.771,2.438
	c0.953,1.725,2.142,3.323,3.271,4.946c0.957,1.375,1.158,2.783,0.402,3.45c-0.664,0.586-2.275,0.549-3.322-0.385
	c-2.998-2.675-5.369-5.796-6.26-9.831C149.441,16.389,149.535,16.221,149.609,15.91z"/>
<path fill-rule="evenodd" clip-rule="evenodd" d="M160.09,81.872c0.9,0.9,0.797,1.428,0.074,1.709
	c-0.133,0.051-0.557-0.23-0.544-0.283C159.738,82.812,159.924,82.344,160.09,81.872z"/>
<path fill-rule="evenodd" clip-rule="evenodd" d="M572.296,325.487c1.596-0.224,2.618-1.294,3.852-0.535
	c0.929,0.572,2.029,1.114,2.589,1.974c0.668,1.025,0.955,2.35,1.209,3.586c1.053,5.129,2.157,10.253,3.001,15.418
	c0.868,5.322,1.476,10.678,0.966,16.111c-0.204,2.177,0.069,4.396,0.077,6.596c0.004,1.149-0.033,2.306-0.163,3.446
	c-0.286,2.517-0.004,4.447,1.271,7.396c1.575-2.093,3.577-3.582,4.426-6.177c1.185-3.618,2.783-7.1,4.193-10.645
	c0.205-0.515,0.528-1.064,0.495-1.579c-0.201-3.119,1.131-5.828,2.071-8.673c0.959-2.901,1.564-5.92,2.312-8.89
	c0.057-0.226,0.038-0.479,0.013-0.715c-0.575-5.289-1.111-10.584-1.749-15.865c-0.665-5.507-1.802-10.985-2.04-16.505
	c-0.216-4.988-1.759-9.709-2.102-14.631c-0.087-1.248-0.167-2.496-0.258-3.864c1.623-0.216,3.003-0.446,4.108,0.606
	c0.53,0.506,0.985,1.234,1.164,1.939c0.674,2.671,1.33,5.355,1.781,8.07c0.377,2.263,0.458,4.575,0.666,6.865
	c0.374,4.1,0.339,8.237,1.548,12.25c0.402,1.336,0.202,2.844,0.367,4.263c0.283,2.442,0.697,4.87,0.942,7.316
	c0.229,2.275,0.17,4.586,0.485,6.847c0.799,5.723-0.752,10.963-2.987,16.105c-0.373,0.858-0.756,1.801-0.771,2.71
	c-0.043,2.596-0.741,4.959-1.913,7.253c-0.679,1.327-1.132,2.771-1.666,4.17c-1.628,4.264-3.905,8.162-6.632,11.808
	c-1.028,1.376-2.02,2.787-3.143,4.082c-1.125,1.296-2.039,1.438-3.701,0.685c-0.935-0.424-1.941-0.337-2.776-1.48
	c-1.254-1.713-1.435-3.535-1.312-5.324c0.088-1.298,0.178-2.629-0.313-3.689c-0.78-1.681-0.254-3.249-0.178-4.862
	c0.056-1.176,0.326-2.343,0.356-3.519c0.11-4.296,0.38-8.604,0.178-12.889c-0.279-5.943-1.505-11.77-2.94-17.542
	c-0.403-1.619-0.67-3.272-1.058-4.896c-0.295-1.231-0.646-2.452-1.04-3.656C573.261,327.933,572.808,326.846,572.296,325.487z"/>
<path fill-rule="evenodd" clip-rule="evenodd" d="M493.987,385.724c1.312-1.749,2.343-3.005,1.72-4.898
	c-0.216-0.655-0.233-1.433-0.138-2.126c0.504-3.672,0.629-7.373,1.652-11.007c0.825-2.934,0.928-6.078,1.273-9.139
	c0.323-2.858,1.339-5.513,2.082-8.25c1.038-3.825,3.45-6.8,5.134-10.193c1.319-2.657,3.55-4.865,5.386-7.265
	c0.677-0.886,1.385-1.747,2.074-2.623c0.882-1.121,2.025-1.153,3.47-0.09c0.844,0.621,1.035,1.666,0.364,2.677
	c-1.395,2.103-2.906,4.13-4.262,6.257c-1.272,1.995-2.407,4.077-3.602,6.122c-0.199,0.341-0.328,0.749-0.598,1.019
	c-2.181,2.181-3.102,5.001-3.818,7.854c-1.003,3.997-1.679,8.076-2.692,12.07c-0.901,3.55-1.731,7.096-1.897,10.761
	c-0.1,2.204,0.187,4.461-0.192,6.606c-0.592,3.351-1.42,6.722-4.604,8.784c-0.186,0.12-0.289,0.368-0.432,0.559
	c-2.726-0.339-4.466-1.689-5.387-4.195c-1.336-3.636-2.752-7.241-4.123-10.865c-0.105-0.278-0.151-0.59-0.168-0.889
	c-0.388-7.042-0.818-14.082-1.12-21.128c-0.104-2.44,0.237-4.897,0.161-7.341c-0.115-3.636-0.333-7.272-0.673-10.894
	c-0.254-2.705-0.581-5.385-0.024-8.082c0.251-1.216,0.715-2.267,2.023-2.695c2.511,1.21,2.926,2.122,2.337,4.848
	c-0.165,0.764-0.179,1.573-0.166,2.361c0.041,2.477,0.58,4.901,0.528,7.413c-0.062,3.01,0.479,6.025,0.6,9.044
	c0.123,3.074,0.05,6.156,0.071,9.235c0.004,0.554,0.022,1.111,0.086,1.662c0.46,4.012,0.934,8.022,1.403,12.033
	c0.037,0.317,0.186,0.665,0.104,0.946c-1.024,3.513,1.469,6.258,2.062,9.415C492.735,384.32,493.363,384.833,493.987,385.724z"/>
<path fill-rule="evenodd" clip-rule="evenodd" d="M495.076,262.008c-1.131-0.496-2.608-0.698-3.123-1.511
	c-0.426-0.67,0.341-2.056,0.483-3.137c0.155-1.172,0.248-2.357,0.281-3.54c0.047-1.613,0.012-3.229-0.293-4.878
	c-2.265,4.644-4.53,9.287-6.839,14.019c-0.779,0.081-1.545,0.16-2.309,0.239c-1.395-1.467-1.452-3.01-0.627-4.802
	c2.212-4.8,4.321-9.646,6.469-14.466c3.042-0.154,3.565,0.396,3.561,3.896c0.523-0.041,1.037-0.135,1.546-0.114
	c2.945,0.116,3.816,1.093,3.642,4.063c-0.103,1.731-0.165,3.469-0.359,5.189C497.227,259.454,496.983,259.876,495.076,262.008z"/>
<path fill-rule="evenodd" clip-rule="evenodd" d="M502.671,247.662c3.996-0.836,5.175,1.091,4.222,4.572
	c-0.756,2.762-0.073,5.306,0.52,7.927c0.162,0.718,0.171,1.574-0.065,2.257c-0.411,1.188-1.737,1.557-2.714,0.771
	c-0.704-0.566-1.446-1.279-1.774-2.088C501.074,256.701,500.442,252.239,502.671,247.662z"/>
<path fill-rule="evenodd" clip-rule="evenodd" d="M509.612,248.37c2.444-1.755,5.222-1.012,5.91,1.515
	c0.793,2.908,1.409,5.871,1.957,8.836c0.128,0.696-0.243,1.536-0.538,2.246c-0.329,0.796-1.103,0.98-1.811,0.624
	c-1.033-0.521-2.124-0.95-2.482-2.341C511.699,255.573,510.615,251.931,509.612,248.37z"/>
<path fill-rule="evenodd" clip-rule="evenodd" d="M522.879,245.113c0.453-0.021,0.612-0.041,0.769-0.033
	c2.526,0.121,3.874,1.272,4.232,3.949c0.212,1.581,1.153,3.131,2.771,3.982c0.349,0.183,0.704,0.41,0.959,0.701
	c0.577,0.659,1.17,1.342,0.601,2.325c-0.458,0.792-1.845,1.564-2.61,1.238c-4.423-1.888-7.801-5.622-7.234-10.822
	C522.414,246.012,522.688,245.596,522.879,245.113z"/>
<path fill-rule="evenodd" clip-rule="evenodd" d="M537.306,251.24c-1.858-1.812-3.698-3.794-5.743-5.536
	c-1.464-1.246-1.358-2.486-0.729-3.96c1.078,0.055,2.08,0.041,3.06,0.182c0.491,0.07,1.023,0.328,1.396,0.66
	c1.538,1.368,3.121,2.708,4.483,4.24c0.679,0.764,1.4,1.826,0.814,3.029C539.941,251.182,538.805,251.542,537.306,251.24z"/>
<path fill-rule="evenodd" clip-rule="evenodd" d="M545.494,245.26c-0.207,0.299-0.542,1.006-1.079,1.489
	c-0.441,0.398-2.631-0.104-3.046-0.546c-0.695-0.741-1.334-1.546-2.091-2.218c-0.885-0.786-1.024-1.77-0.744-2.758
	c0.286-1.011,1.261-0.672,2.012-0.69C543.184,240.473,545.521,242.488,545.494,245.26z"/>
<path fill-rule="evenodd" clip-rule="evenodd" fill="#FFFFFF" d="M194.348,136.283l-3.799,5.191c0,0,0,8.61,0,8.737
	s3.799,3.292,3.799,3.292l6.837,0.633l2.786-5.318l-0.76-6.078l-1.393-5.318L194.348,136.283z"/>
<path fill-rule="evenodd" clip-rule="evenodd" d="M211.503,135.843c0.215,3.302-1.653,4.423-5.479,3.464
	c0,1.924-0.061,3.886,0.016,5.842c0.084,2.129,0.129,4.283,0.508,6.369c0.26,1.419-0.234,2.332-1.131,3.168
	c-2.172,2.025-4.748,2.939-7.728,2.67c-1.108-0.1-2.218-0.188-3.327-0.25c-2.208-0.127-5.598-3.131-5.73-5.336
	c-0.24-3.977-0.312-7.962-0.461-12.102c-2.147-0.175-4.32-0.252-6.461-0.553c-2.076-0.292-4.119-0.812-6.625-1.324
	c0.637-0.885,0.881-1.516,1.338-1.795c0.801-0.485,1.705-0.938,2.617-1.077c2.498-0.384,5.027-0.452,7.557-0.334
	c0.314,0.015,0.652,0.024,0.946-0.069c3.644-1.164,7.405-0.875,11.134-0.882c2.889-0.005,5.778,0.142,8.664,0.292
	c0.771,0.04,1.574,0.242,2.279,0.557C210.255,134.766,210.777,135.303,211.503,135.843z M200.557,151.203
	c0-3.74,0.027-7.228-0.018-10.713c-0.014-1.123-0.982-1.891-2.316-1.946c-1.103-0.046-2.208-0.01-3.43-0.01
	c-0.746,0.938-1.347,1.986-1.125,3.389c0.219,1.386,0.312,2.791,0.479,4.188c0.229,1.937,0.473,3.872,0.706,5.773
	C198.754,152.2,198.754,152.2,200.557,151.203z"/>
<polygon fill-rule="evenodd" clip-rule="evenodd" fill="#FFFFFF" points="495.573,279.868 492.281,285.312 493.927,297.215 
	499.625,299.747 504.387,298.734 506.588,288.731 505.069,281.641 "/>
<path fill-rule="evenodd" clip-rule="evenodd" d="M508.769,282.818c-0.242,3.596-0.577,6.944-0.649,10.298
	c-0.04,1.886,0.373,3.779,0.549,5.672c0.173,1.865-0.556,2.86-2.375,3.13c-1.018,0.151-2.066,0.081-3.094,0.188
	c-0.864,0.089-1.774,0.146-2.562,0.468c-1.912,0.779-3.732,1.202-5.548-0.218c-0.285-0.223-0.772-0.165-1.128-0.323
	c-0.857-0.382-1.817-0.65-1.936-1.861c-0.035-0.362-0.283-0.806-0.574-1.023c-2.187-1.641-1.89-4.029-1.954-6.306
	c-0.093-3.265-0.129-6.532-0.266-9.795c-0.021-0.476-0.39-1-0.729-1.388c-0.958-1.095-0.956-1.906,0.237-2.63
	c0.515-0.312,1.189-0.397,1.806-0.497c1.549-0.25,3.144-0.305,4.646-0.71c1.479-0.399,2.919-0.346,4.398-0.282
	c3.305,0.141,6.602-0.01,9.923,0.423c2.074,0.271,4.444,0.188,6.386-1.218c0.445,0.441,0.835,1.156,1.387,1.319
	c2.236,0.66,2.068,1.245,1.569,3.14c-0.079,0.3-0.215,0.584-0.395,1.062C515.231,282.45,511.985,282.634,508.769,282.818z
	 M495.186,291.449c-0.091,0.01-0.182,0.019-0.272,0.028c0.043,0.796,0.048,1.596,0.141,2.386c0.081,0.688,0.028,1.665,0.442,1.983
	c1.002,0.769,2.201,1.612,3.395,1.737c3.238,0.343,4.158-0.689,3.818-3.892c-0.209-1.972-0.399-3.885,0.28-5.839
	c0.327-0.942,0.259-2.057,0.217-3.086c-0.084-2.052-0.814-2.69-2.919-2.751c-0.236-0.007-0.473-0.041-0.709-0.064
	c-3.828-0.375-5.501,1.36-4.922,5.046C494.889,288.472,495.013,289.964,495.186,291.449z"/>
</svg>
