<?xml version="1.0" encoding="utf-8"?>
<!-- Generator: Adobe Illustrator 16.0.0, SVG Export Plug-In . SVG Version: 6.00 Build 0)  -->
<!DOCTYPE svg PUBLIC "-//W3C//DTD SVG 1.1//EN" "http://www.w3.org/Graphics/SVG/1.1/DTD/svg11.dtd">
<svg version="1.1" xmlns="http://www.w3.org/2000/svg" xmlns:xlink="http://www.w3.org/1999/xlink" x="0px" y="0px" width="1200px"
	 height="300px" viewBox="0 0 1200 300" enable-background="new 0 0 1200 300" xml:space="preserve">
<g id="ico">
	<g id="facebook">
		<path fill="#4F4F4F" d="M232,264.725v-36h10.871l1.891-14H232v-10.527c0-3.783,0.777-5.473,4.875-5.473H246v-12.818
			c0,0-4.436-0.631-10.113-0.631c-12.928,0-19.887,7.254-19.887,17.977v11.471h-12v14h12v36h16V264.725z"/>
	</g>
	<g id="mail">
		<path fill="#4F4F4F" d="M374.988,231.141l43.238-35.005c-0.984-0.708-2.184-1.136-3.488-1.136h-80
			c-1.176,0-2.266,0.352-3.191,0.936L374.988,231.141z"/>
		<path fill="#4F4F4F" d="M375.25,238.859L329,201.382V249c0,3.312,2.424,6,5.738,6h80c3.312,0,6.262-2.688,6.262-6v-47.176
			L375.25,238.859z"/>
	</g>
	<g id="twitter">
		<path fill="#4F4F4F" d="M114.342,204.754c0,0.988,0,1.646,0,2.634c0,26.663-20.41,57.612-57.611,57.612
			c-11.522,0-22.059-2.633-30.946-8.229c1.646,0.328,3.292,0.328,4.938,0.328c9.547,0,18.438-3.951,25.022-9.545
			c-8.888,0-16.46-5.926-18.766-14.156c1.315,0.328,2.632,0.328,3.622,0.328c1.974,0,3.621-0.328,5.268-0.658
			c-9.218-1.975-16.132-9.876-16.132-19.752c0,0,0,0,0-0.33c2.634,1.646,5.928,2.304,9.218,2.634
			c-5.596-3.622-9.218-9.876-9.218-16.79c0-3.622,0.988-6.914,2.634-9.876c10.206,12.18,25.022,19.752,41.811,20.74
			c-0.328-1.316-0.328-2.962-0.328-4.608C73.851,193.89,82.738,185,93.932,185c5.926,0,11.191,2.634,14.812,6.256
			c4.609-0.988,8.891-2.634,12.84-4.938c-1.645,4.609-4.609,8.888-8.887,11.193c4.279-0.33,7.898-1.646,11.52-3.292
			C121.584,198.498,118.291,202.12,114.342,204.754z"/>
	</g>
	<g id="Behance">
		<path fill-rule="evenodd" clip-rule="evenodd" fill="#4F4F4F" d="M667.014,222.181c-0.16-0.064-0.291-0.195-0.537-0.367
			c4.762-2.318,6.994-6.123,7.359-11.219c0.486-6.812-2.551-12.545-8.254-15.271c-2.965-1.418-6.133-2.076-9.375-2.102
			c-10.25-0.082-20.498-0.047-30.752-0.055c-0.119-0.002-0.238,0.033-0.455,0.064c0,20.68,0,41.768,0,61.768
			c0.449,0,0.807,0,1.166,0c7.307,0,14.611,0.134,21.916,0.089c3.426-0.02,6.865,0.033,10.273-0.258
			c10.145-0.863,16.697-7.281,17.438-17.216C676.291,230.931,673.682,224.894,667.014,222.181z M637,204.046
			c6,0,10.206-0.059,15.157,0.033c1.672,0.031,3.479,0.357,5.128,0.701c1.986,0.418,3.267,1.729,3.812,3.688
			c1.295,4.621-0.988,8.17-5.814,8.883c-1.15,0.172-2.307,0.254-3.473,0.26c-4.676,0.025-9.588,0.006-14.264,0
			c-0.078,0-0.546-0.033-0.546-0.07C637,213.107,637,208.658,637,204.046z M662.498,237.958c-0.764,3.725-3.322,6.025-7.506,6.211
			c-5.875,0.258-11.992,0.064-17.992,0.064c0-5.395,0-10.754,0-16.188c0-0.043,0.6-0.115,0.781-0.113
			c5.527,0.025,11.165,0.045,16.696,0.105c0.795,0.01,1.661,0.154,2.442,0.34C661.432,229.462,663.514,233.007,662.498,237.958z"/>
		<path fill-rule="evenodd" clip-rule="evenodd" fill="#4F4F4F" d="M714.627,196.833c0,2.084,0,4.084,0,6.148
			c-8.965,0-17.861,0-26.83,0c0-2.064,0-4.064,0-6.148C696.721,196.833,705.619,196.833,714.627,196.833z"/>
		<path fill-rule="evenodd" clip-rule="evenodd" fill="#4F4F4F" d="M712.373,241.75c-0.299,0.004-0.619,0.4-0.881,0.664
			c-1.037,1.049-1.93,2.307-3.115,3.137c-2.111,1.479-4.617,1.21-7.109,1.031c-5.869-0.424-10.141-5.581-9.742-11.581
			c11.031,0,22.068,0,33.475,0c-0.234-2-0.188-6.196-0.727-9.269c-1.328-7.6-5.234-13.209-12.643-16.137
			c-4.537-1.789-9.291-2.014-14.051-1.227c-8.035,1.336-13.791,5.753-16.584,13.513c-2.246,6.234-2.229,12.68-0.789,19.102
			c1.193,5.324,4.174,9.376,8.893,12.128c7.586,4.422,15.531,4.754,23.631,1.781c4.527-1.658,7.814-4.926,10.121-9.121
			c0.656-1.193,0.975-2.566,1.52-4.053C720.115,241.717,716.242,241.707,712.373,241.75z M702.629,217.469
			c5.518,0.273,9.92,5.531,9.498,9.531c-6.736,0-13.48,0-20.23,0C692.285,223,695.752,217.127,702.629,217.469z"/>
	</g>
	<g id="xing">
		<path fill-rule="evenodd" clip-rule="evenodd" fill="#4F4F4F" d="M850.912,264.985c-1.848,0-3.459,0-5.072,0
			c-3.459,0-6.92-0.017-10.381,0.015c-0.639,0.006-0.977-0.2-1.283-0.76c-5.592-10.196-11.197-20.385-16.832-30.557
			c-0.381-0.688-0.357-1.177,0.02-1.844c8.652-15.332,17.285-30.677,25.916-46.021c0.26-0.46,0.484-0.824,1.152-0.819
			c5.014,0.034,10.025,0.019,15.039,0.021c0.186,0.001,0.373,0.03,0.672,0.056c-0.162,0.339-0.268,0.593-0.4,0.83
			c-8.604,15.286-17.203,30.575-25.83,45.848c-0.416,0.735-0.432,1.269-0.021,2.019c5.486,9.994,10.936,20.011,16.393,30.021
			C850.465,264.126,850.637,264.463,850.912,264.985z"/>
		<path fill-rule="evenodd" clip-rule="evenodd" fill="#4F4F4F" d="M789.857,240.928c1.906-3.362,3.764-6.646,5.625-9.929
			c2.518-4.438,5.021-8.884,7.568-13.306c0.354-0.615,0.334-1.054-0.02-1.659c-2.764-4.743-5.488-9.51-8.225-14.271
			c-0.141-0.247-0.268-0.503-0.457-0.858c0.318-0.025,0.555-0.062,0.791-0.062c4.945-0.004,9.893,0.006,14.84-0.016
			c0.582-0.002,0.92,0.155,1.219,0.686c2.752,4.862,5.531,9.711,8.322,14.551c0.303,0.524,0.361,0.915,0.035,1.485
			c-4.32,7.574-8.602,15.17-12.918,22.744c-0.188,0.327-0.635,0.717-0.963,0.72c-5.172,0.041-10.346,0.024-15.518,0.018
			C790.098,241.031,790.039,240.992,789.857,240.928z"/>
	</g>
	<g id="vimeo">
		<path fill-rule="evenodd" clip-rule="evenodd" fill="#4F4F4F" d="M531.54,207.854c0.409-1.063,0.804-2.21,1.288-3.315
			c2.027-4.603,4.712-8.726,8.982-11.56c5.22-3.469,11.002-4.532,17.173-3.722c2.605,0.344,4.979,1.169,6.884,3.093
			c2.137,2.158,3.261,4.817,3.511,7.765c0.213,2.494,0.407,5.086-0.04,7.516c-0.559,3.024-1.494,6.061-2.782,8.853
			c-3.682,7.995-8.892,15.024-14.597,21.669c-3.474,4.047-7.092,7.988-10.859,11.762c-4.021,4.027-8.547,7.443-13.853,9.668
			c-2.802,1.176-5.75,1.735-8.765,1.233c-2.321-0.386-4.205-1.789-5.689-3.544c-3.027-3.578-5.035-7.704-6.271-12.24
			c-0.907-3.312-2.06-6.559-3.047-9.853c-0.999-3.341-1.925-6.71-2.901-10.057c-1.344-4.604-2.684-9.209-5.483-13.2
			c-0.263-0.372-0.603-0.692-0.932-1.014c-1.656-1.612-2.886-1.777-4.871-0.612c-1.289,0.756-2.55,1.549-3.82,2.329
			c-0.767,0.471-1.442,0.48-2.057-0.284c-0.829-1.033-1.659-2.068-2.564-3.032c-0.638-0.677-0.604-1.153,0.103-1.731
			c2.852-2.332,5.688-4.682,8.518-7.043c3.771-3.149,7.53-6.32,11.876-8.687c1.94-1.057,3.922-1.899,6.22-1.924
			c4.341-0.048,7.3,2.076,9.293,5.727c1.299,2.384,1.976,4.976,2.385,7.676c0.555,3.672,1.329,7.31,2.002,10.963
			c0.399,2.154,0.664,4.344,1.198,6.467c0.714,2.855,1.551,5.688,2.494,8.479c0.482,1.425,1.171,2.835,2.021,4.075
			c1.432,2.078,2.752,2.441,4.785,0.739c3.421-2.865,5.897-6.515,8.107-10.313c1.444-2.48,2.77-5.093,3.682-7.804
			c0.646-1.914,0.792-4.098-0.158-6.112c-0.758-1.609-2.152-2.419-3.788-2.426C537.018,207.378,534.449,207.671,531.54,207.854z"/>
	</g>
	<g id="instagram">
		<path fill-rule="evenodd" clip-rule="evenodd" fill="#4F4F4F" d="M942.117,216.802c5.967,0,11.739,0,17.594,0
			c-3.831,10.396-1.906,19.061,7.955,24.873c6.431,3.792,14.71,2.687,20.419-2.111c6.46-5.428,7.959-12.678,4.635-22.677
			c5.056,0,10.076,0,15.199,0c0.025,0.502,0.067,0.989,0.067,1.478c0.004,9.488,0.085,18.983-0.062,28.47
			c-0.031,2.039-0.551,4.217-1.409,6.065c-1.564,3.374-4.5,5.067-8.238,5.076c-14.661,0.031-29.324,0.034-43.987,0.002
			c-5.79-0.016-11.074-4.21-12.078-9.463c-0.094-0.488-0.143-0.994-0.144-1.49c-0.01-9.695-0.008-19.386-0.005-29.075
			C942.063,217.604,942.095,217.265,942.117,216.802z"/>
		<path fill-rule="evenodd" clip-rule="evenodd" fill="#4F4F4F" d="M1007.891,212.591c-0.95,0-1.84,0-2.729,0
			c-4.819-0.001-9.643,0.036-14.459-0.042c-0.765-0.008-1.672-0.353-2.25-0.845c-7.233-6.221-17.266-6.199-24.485,0.081
			c-0.451,0.394-1.108,0.763-1.679,0.769c-6.477,0.054-12.953,0.028-19.431,0.023c-0.195,0-0.39-0.057-0.798-0.117
			c0-2.63,0.182-5.291-0.033-7.912c-0.59-7.254,5.611-11.655,10.559-12.395c0.589-0.087,1.197-0.09,1.801-0.09
			c14.312-0.006,28.622,0.119,42.93-0.062c6.054-0.077,9.985,3.769,10.506,9.162C1008.18,204.876,1007.891,208.653,1007.891,212.591
			z M987.434,202.381c0,1.355,0.018,2.712-0.005,4.067c-0.014,1.285,0.647,2.059,1.872,2.09c2.859,0.075,5.725,0.07,8.582-0.004
			c1.136-0.028,1.884-0.747,1.9-1.939c0.036-2.859,0.05-5.722-0.013-8.582c-0.024-1.166-0.766-1.839-1.958-1.849
			c-2.812-0.023-5.621-0.038-8.432,0c-1.25,0.015-1.938,0.713-1.943,2.001C987.432,199.567,987.437,200.976,987.434,202.381z"/>
		<path fill-rule="evenodd" clip-rule="evenodd" fill="#4F4F4F" d="M961.541,225.471c-0.027-8.153,6.57-14.76,14.728-14.752
			c8.122,0.007,14.638,6.515,14.651,14.624c0.014,8.247-6.448,14.82-14.607,14.861C968.211,240.247,961.562,233.62,961.541,225.471z
			"/>
	</g>
	<g id="homepage">
		<path fill="#4F4F4F" d="M1095.923,218.084c0.243-0.633,0.341-1.219,0.341-1.607c0-1.17-0.779-1.51-2.24-1.754v-3.215h9.303v3.215
			c-1.656,0.584-2.289,0.877-2.728,1.949l-9.06,21.82h-2.971l-6.332-15.344l-6.818,15.344h-2.923l-9.79-21.82
			c-0.486-1.072-1.022-1.365-2.728-1.949v-3.215h14.953v3.215c-1.412,0.244-1.851,0.779-1.851,1.607
			c0,0.535,0.194,1.072,0.486,1.803l3.41,8.67l3.409-7.891l-0.877-2.24c-0.438-1.121-0.925-1.656-2.143-1.949v-3.215h13.93v3.215
			c-1.705,0.244-2.24,0.584-2.24,1.656c0,0.535,0.194,1.168,0.39,1.705l3.117,8.426L1095.923,218.084z"/>
		<path fill="#4F4F4F" d="M1139.271,218.084c0.243-0.633,0.341-1.219,0.341-1.607c0-1.17-0.779-1.51-2.24-1.754v-3.215h9.303v3.215
			c-1.656,0.584-2.289,0.877-2.728,1.949l-9.06,21.82h-2.971l-6.332-15.344l-6.818,15.344h-2.923l-9.79-21.82
			c-0.486-1.072-1.022-1.365-2.728-1.949v-3.215h14.953v3.215c-1.412,0.244-1.851,0.779-1.851,1.607
			c0,0.535,0.194,1.072,0.486,1.803l3.41,8.67l3.409-7.891l-0.877-2.24c-0.438-1.121-0.925-1.656-2.143-1.949v-3.215h13.93v3.215
			c-1.705,0.244-2.24,0.584-2.24,1.656c0,0.535,0.194,1.168,0.39,1.705l3.117,8.426L1139.271,218.084z"/>
		<path fill="#4F4F4F" d="M1182.62,218.084c0.244-0.633,0.341-1.219,0.341-1.607c0-1.17-0.779-1.51-2.24-1.754v-3.215h9.303v3.215
			c-1.656,0.584-2.289,0.877-2.728,1.949l-9.06,21.82h-2.971l-6.332-15.344l-6.818,15.344h-2.923l-9.79-21.82
			c-0.486-1.072-1.022-1.365-2.728-1.949v-3.215h14.953v3.215c-1.412,0.244-1.851,0.779-1.851,1.607
			c0,0.535,0.194,1.072,0.487,1.803l3.409,8.67l3.409-7.891l-0.877-2.24c-0.438-1.121-0.925-1.656-2.143-1.949v-3.215h13.93v3.215
			c-1.705,0.244-2.24,0.584-2.24,1.656c0,0.535,0.194,1.168,0.39,1.705l3.117,8.426L1182.62,218.084z"/>
	</g>
	<g id="fadebook-dark">
		<path fill="#272727" d="M232.75,114.732v-36h10.871l1.891-14H232.75V54.205c0-3.783,0.777-5.473,4.875-5.473h9.125V35.914
			c0,0-4.436-0.631-10.113-0.631c-12.928,0-19.887,7.254-19.887,17.977V64.73h-12v14h12v36h16V114.732z"/>
	</g>
	<g id="mail-dark">
		<path fill="#272727" d="M375.738,81.148l43.238-35.005c-0.984-0.708-2.184-1.136-3.488-1.136h-80
			c-1.176,0-2.266,0.352-3.191,0.936L375.738,81.148z"/>
		<path fill="#272727" d="M376,88.867l-46.25-37.478v47.618c0,3.312,2.424,6,5.738,6h80c3.312,0,6.262-2.688,6.262-6V51.832
			L376,88.867z"/>
	</g>
	<g id="twitter-dark">
		<path fill="#272727" d="M115.092,54.761c0,0.988,0,1.646,0,2.634c0,26.663-20.41,57.612-57.611,57.612
			c-11.522,0-22.059-2.633-30.946-8.229c1.646,0.328,3.292,0.328,4.938,0.328c9.547,0,18.438-3.951,25.022-9.545
			c-8.888,0-16.46-5.926-18.766-14.156c1.315,0.328,2.632,0.328,3.622,0.328c1.974,0,3.621-0.328,5.268-0.658
			C37.4,81.101,30.486,73.2,30.486,63.324c0,0,0,0,0-0.33c2.634,1.646,5.928,2.304,9.218,2.634
			c-5.596-3.622-9.218-9.876-9.218-16.79c0-3.622,0.988-6.914,2.634-9.876c10.206,12.18,25.022,19.752,41.811,20.74
			c-0.328-1.316-0.328-2.962-0.328-4.608c-0.002-11.196,8.886-20.086,20.079-20.086c5.926,0,11.191,2.634,14.812,6.256
			c4.609-0.988,8.891-2.634,12.84-4.938c-1.645,4.609-4.609,8.888-8.887,11.193c4.279-0.33,7.898-1.646,11.52-3.292
			C122.334,48.505,119.041,52.127,115.092,54.761z"/>
	</g>
	<g id="behance-dark">
		<path fill-rule="evenodd" clip-rule="evenodd" fill="#272727" d="M667.764,72.188c-0.16-0.064-0.291-0.195-0.537-0.367
			c4.762-2.318,6.994-6.123,7.359-11.219c0.486-6.812-2.551-12.545-8.254-15.271c-2.965-1.418-6.133-2.076-9.375-2.102
			c-10.25-0.082-20.373-0.047-30.627-0.055c-0.119-0.002-0.33,0.033-0.33,0.064c0,20.68,0,41.761,0,61.761c0,0,0.557,0,0.916,0
			c7.307,0,14.611,0.138,21.916,0.093c3.426-0.02,6.865,0.035,10.273-0.256c10.145-0.863,16.697-7.28,17.438-17.215
			C677.041,80.938,674.432,74.901,667.764,72.188z M638,54.054c6,0,10.081-0.059,15.032,0.033c1.672,0.031,3.417,0.357,5.065,0.701
			c1.986,0.418,3.235,1.729,3.78,3.688c1.295,4.621-1.004,8.17-5.83,8.883c-1.15,0.172-2.314,0.254-3.48,0.26
			c-4.676,0.025-9.467,0.006-14.143,0c-0.078,0-0.425-0.033-0.425-0.07C638,63.114,638,58.665,638,54.054z M663.248,87.966
			c-0.764,3.725-3.197,6.025-7.381,6.211C649.992,94.435,644,94.241,638,94.241c0-5.395,0-10.754,0-16.188
			c0-0.043,0.475-0.115,0.656-0.113c5.527,0.025,11.103,0.045,16.634,0.105c0.795,0.01,1.63,0.154,2.411,0.34
			C662.213,79.47,664.264,83.015,663.248,87.966z"/>
		<path fill-rule="evenodd" clip-rule="evenodd" fill="#272727" d="M715.377,46.841c0,2.084,0,4.084,0,6.148
			c-8.965,0-17.861,0-26.83,0c0-2.064,0-4.064,0-6.148C697.471,46.841,706.369,46.841,715.377,46.841z"/>
		<path fill-rule="evenodd" clip-rule="evenodd" fill="#272727" d="M713.123,91.757c-0.299,0.004-0.619,0.4-0.881,0.664
			c-1.037,1.049-1.93,2.307-3.115,3.137c-2.111,1.479-4.617,1.207-7.109,1.027C696.148,96.161,691.877,91,692.275,85
			c11.031,0,22.068,0,33.475,0c-0.234-2-0.188-6.192-0.727-9.265c-1.328-7.6-5.234-13.208-12.643-16.135
			c-4.537-1.789-9.291-2.013-14.051-1.226c-8.035,1.336-13.791,5.753-16.584,13.513c-2.246,6.234-2.229,12.68-0.789,19.102
			c1.193,5.324,4.174,9.376,8.893,12.128c7.586,4.422,15.531,4.754,23.631,1.781c4.527-1.658,7.814-4.926,10.121-9.121
			c0.656-1.193,0.975-2.566,1.52-4.053C720.865,91.725,716.992,91.714,713.123,91.757z M703.379,67.469
			c5.518,0.273,9.92,5.531,9.498,9.531c-6.736,0-13.48,0-20.23,0C693.035,73,696.502,67.127,703.379,67.469z"/>
	</g>
	<g id="xing-dark">
		<path fill-rule="evenodd" clip-rule="evenodd" fill="#272727" d="M851.662,114.993c-1.848,0-3.459,0-5.072,0
			c-3.459,0-6.92-0.017-10.381,0.015c-0.639,0.006-0.977-0.2-1.283-0.76c-5.592-10.196-11.197-20.385-16.832-30.557
			c-0.381-0.688-0.357-1.177,0.02-1.844c8.652-15.332,17.285-30.677,25.916-46.021c0.26-0.46,0.484-0.824,1.152-0.819
			c5.014,0.034,10.025,0.019,15.039,0.021c0.186,0.001,0.373,0.03,0.672,0.056c-0.162,0.339-0.268,0.593-0.4,0.83
			c-8.604,15.286-17.203,30.575-25.83,45.848c-0.416,0.735-0.432,1.269-0.021,2.019c5.486,9.994,10.936,20.011,16.393,30.021
			C851.215,114.133,851.387,114.47,851.662,114.993z"/>
		<path fill-rule="evenodd" clip-rule="evenodd" fill="#272727" d="M790.607,90.935c1.906-3.362,3.764-6.646,5.625-9.929
			c2.518-4.438,5.021-8.884,7.568-13.306c0.354-0.615,0.334-1.054-0.02-1.659c-2.764-4.743-5.488-9.51-8.225-14.271
			c-0.141-0.247-0.268-0.503-0.457-0.858c0.318-0.025,0.555-0.062,0.791-0.062c4.945-0.004,9.893,0.006,14.84-0.016
			c0.582-0.002,0.92,0.155,1.219,0.686c2.752,4.862,5.531,9.711,8.322,14.551c0.303,0.524,0.361,0.915,0.035,1.485
			c-4.32,7.574-8.602,15.17-12.918,22.744c-0.188,0.327-0.635,0.717-0.963,0.72c-5.172,0.041-10.346,0.024-15.518,0.018
			C790.848,91.039,790.789,91,790.607,90.935z"/>
	</g>
	<g id="vimeo-dark">
		<path fill-rule="evenodd" clip-rule="evenodd" fill="#272727" d="M532.29,57.862c0.409-1.063,0.804-2.21,1.288-3.315
			c2.027-4.603,4.712-8.726,8.982-11.56c5.22-3.469,11.002-4.532,17.173-3.722c2.605,0.344,4.979,1.169,6.884,3.093
			c2.137,2.158,3.261,4.817,3.511,7.765c0.213,2.494,0.407,5.086-0.04,7.516c-0.559,3.024-1.494,6.061-2.782,8.853
			c-3.682,7.995-8.892,15.024-14.597,21.669c-3.474,4.047-7.092,7.988-10.859,11.762c-4.021,4.027-8.547,7.443-13.853,9.668
			c-2.802,1.176-5.75,1.735-8.765,1.233c-2.321-0.386-4.205-1.789-5.689-3.544c-3.027-3.578-5.035-7.704-6.271-12.24
			c-0.907-3.312-2.06-6.559-3.047-9.853c-0.999-3.341-1.925-6.71-2.901-10.057c-1.344-4.604-2.684-9.209-5.483-13.2
			c-0.263-0.372-0.603-0.692-0.932-1.014c-1.656-1.612-2.886-1.777-4.871-0.612c-1.289,0.756-2.55,1.549-3.82,2.329
			c-0.767,0.471-1.442,0.48-2.057-0.284c-0.829-1.033-1.659-2.068-2.564-3.032c-0.638-0.677-0.604-1.153,0.103-1.731
			c2.852-2.332,5.688-4.682,8.518-7.043c3.771-3.149,7.53-6.32,11.876-8.687c1.94-1.057,3.922-1.899,6.22-1.924
			c4.341-0.048,7.3,2.076,9.293,5.727c1.299,2.384,1.976,4.976,2.385,7.676c0.555,3.672,1.329,7.31,2.002,10.963
			c0.399,2.154,0.664,4.344,1.198,6.467c0.714,2.855,1.551,5.688,2.494,8.479c0.482,1.425,1.171,2.835,2.021,4.075
			c1.432,2.078,2.752,2.441,4.785,0.739c3.421-2.865,5.897-6.515,8.107-10.313c1.444-2.48,2.77-5.093,3.682-7.804
			c0.646-1.914,0.792-4.098-0.158-6.112c-0.758-1.609-2.152-2.419-3.788-2.426C537.768,57.385,535.199,57.678,532.29,57.862z"/>
	</g>
	<g id="instagram-dark">
		<path fill-rule="evenodd" clip-rule="evenodd" fill="#272727" d="M942.867,66.809c5.967,0,11.739,0,17.594,0
			c-3.831,10.396-1.906,19.061,7.955,24.873c6.431,3.792,14.71,2.687,20.419-2.111c6.46-5.428,7.959-12.678,4.635-22.677
			c5.056,0,10.076,0,15.199,0c0.025,0.502,0.067,0.989,0.067,1.478c0.004,9.488,0.085,18.983-0.062,28.47
			c-0.031,2.039-0.551,4.217-1.409,6.065c-1.564,3.374-4.5,5.067-8.238,5.076c-14.661,0.031-29.324,0.034-43.987,0.002
			c-5.79-0.016-11.074-4.21-12.078-9.463c-0.094-0.488-0.143-0.994-0.144-1.49c-0.01-9.695-0.008-19.386-0.005-29.075
			C942.813,67.612,942.845,67.272,942.867,66.809z"/>
		<path fill-rule="evenodd" clip-rule="evenodd" fill="#272727" d="M1008.641,62.598c-0.95,0-1.84,0-2.729,0
			c-4.819-0.001-9.643,0.036-14.459-0.042c-0.765-0.008-1.672-0.353-2.25-0.845c-7.233-6.221-17.266-6.199-24.485,0.081
			c-0.451,0.394-1.108,0.763-1.679,0.769c-6.477,0.054-12.953,0.028-19.431,0.023c-0.195,0-0.39-0.057-0.798-0.117
			c0-2.63,0.182-5.291-0.033-7.912c-0.59-7.254,5.611-11.655,10.559-12.395c0.589-0.087,1.197-0.09,1.801-0.09
			c14.312-0.006,28.622,0.119,42.93-0.062c6.054-0.077,9.985,3.769,10.506,9.162C1008.93,54.883,1008.641,58.661,1008.641,62.598z
			 M988.184,52.388c0,1.355,0.018,2.712-0.005,4.067c-0.014,1.285,0.647,2.059,1.872,2.09c2.859,0.075,5.725,0.07,8.582-0.004
			c1.136-0.028,1.884-0.747,1.9-1.939c0.036-2.859,0.05-5.722-0.013-8.582c-0.024-1.166-0.766-1.839-1.958-1.849
			c-2.812-0.023-5.621-0.038-8.432,0c-1.25,0.015-1.938,0.713-1.943,2.001C988.182,49.575,988.187,50.983,988.184,52.388z"/>
		<path fill-rule="evenodd" clip-rule="evenodd" fill="#272727" d="M962.291,75.478c-0.027-8.153,6.57-14.76,14.728-14.752
			c8.122,0.007,14.638,6.515,14.651,14.624c0.014,8.247-6.448,14.82-14.607,14.861C968.961,90.254,962.312,83.627,962.291,75.478z"
			/>
	</g>
	<g id="homepage-dark">
		<path fill="#272727" d="M1096.673,68.091c0.243-0.633,0.341-1.219,0.341-1.607c0-1.17-0.779-1.51-2.24-1.754v-3.215h9.303v3.215
			c-1.656,0.584-2.289,0.877-2.728,1.949l-9.06,21.82h-2.971l-6.332-15.344l-6.818,15.344h-2.923l-9.79-21.82
			c-0.486-1.072-1.022-1.365-2.728-1.949v-3.215h14.953v3.215c-1.412,0.244-1.851,0.779-1.851,1.607
			c0,0.535,0.194,1.072,0.486,1.803l3.41,8.67l3.409-7.891l-0.877-2.24c-0.438-1.121-0.925-1.656-2.143-1.949v-3.215h13.93v3.215
			c-1.705,0.244-2.24,0.584-2.24,1.656c0,0.535,0.194,1.168,0.39,1.705l3.117,8.426L1096.673,68.091z"/>
		<path fill="#272727" d="M1140.021,68.091c0.243-0.633,0.341-1.219,0.341-1.607c0-1.17-0.779-1.51-2.24-1.754v-3.215h9.303v3.215
			c-1.656,0.584-2.289,0.877-2.728,1.949l-9.06,21.82h-2.971l-6.332-15.344l-6.818,15.344h-2.923l-9.79-21.82
			c-0.486-1.072-1.022-1.365-2.728-1.949v-3.215h14.953v3.215c-1.412,0.244-1.851,0.779-1.851,1.607
			c0,0.535,0.194,1.072,0.486,1.803l3.41,8.67l3.409-7.891l-0.877-2.24c-0.438-1.121-0.925-1.656-2.143-1.949v-3.215h13.93v3.215
			c-1.705,0.244-2.24,0.584-2.24,1.656c0,0.535,0.194,1.168,0.39,1.705l3.117,8.426L1140.021,68.091z"/>
		<path fill="#272727" d="M1183.37,68.091c0.244-0.633,0.341-1.219,0.341-1.607c0-1.17-0.779-1.51-2.24-1.754v-3.215h9.303v3.215
			c-1.656,0.584-2.289,0.877-2.728,1.949l-9.06,21.82h-2.971l-6.332-15.344l-6.818,15.344h-2.923l-9.79-21.82
			c-0.486-1.072-1.022-1.365-2.728-1.949v-3.215h14.953v3.215c-1.412,0.244-1.851,0.779-1.851,1.607
			c0,0.535,0.194,1.072,0.487,1.803l3.409,8.67l3.409-7.891l-0.877-2.24c-0.438-1.121-0.925-1.656-2.143-1.949v-3.215h13.93v3.215
			c-1.705,0.244-2.24,0.584-2.24,1.656c0,0.535,0.194,1.168,0.39,1.705l3.117,8.426L1183.37,68.091z"/>
	</g>
</g>
<g id="guides">
	<rect fill-rule="evenodd" clip-rule="evenodd" fill="none" width="150" height="150"/>
	<rect x="150" fill-rule="evenodd" clip-rule="evenodd" fill="none" width="150" height="150"/>
	<rect x="300" fill-rule="evenodd" clip-rule="evenodd" fill="none" width="150" height="150"/>
	<rect x="450" fill-rule="evenodd" clip-rule="evenodd" fill="none" width="150" height="150"/>
	<rect x="600" fill-rule="evenodd" clip-rule="evenodd" fill="none" width="150" height="150"/>
	<rect x="750" fill-rule="evenodd" clip-rule="evenodd" fill="none" width="150" height="150"/>
	<rect x="900" fill-rule="evenodd" clip-rule="evenodd" fill="none" width="150" height="150"/>
	<rect x="1050" fill-rule="evenodd" clip-rule="evenodd" fill="none" width="150" height="150"/>
	<rect y="150" fill-rule="evenodd" clip-rule="evenodd" fill="none" width="150" height="150"/>
	<rect x="150" y="150" fill-rule="evenodd" clip-rule="evenodd" fill="none" width="150" height="150"/>
	<rect x="300" y="150" fill-rule="evenodd" clip-rule="evenodd" fill="none" width="150" height="150"/>
	<rect x="450" y="150" fill-rule="evenodd" clip-rule="evenodd" fill="none" width="150" height="150"/>
	<rect x="600" y="150" fill-rule="evenodd" clip-rule="evenodd" fill="none" width="150" height="150"/>
	<rect x="750" y="150" fill-rule="evenodd" clip-rule="evenodd" fill="none" width="150" height="150"/>
	<rect x="900" y="150" fill-rule="evenodd" clip-rule="evenodd" fill="none" width="150" height="150"/>
	<rect x="1050" y="150" fill-rule="evenodd" clip-rule="evenodd" fill="none" width="150" height="150"/>
</g>
</svg>
