<?xml version="1.0" encoding="utf-8"?>
<!-- Generator: Adobe Illustrator 16.0.0, SVG Export Plug-In . SVG Version: 6.00 Build 0)  -->
<!DOCTYPE svg PUBLIC "-//W3C//DTD SVG 1.1//EN" "http://www.w3.org/Graphics/SVG/1.1/DTD/svg11.dtd">
<svg version="1.1" id="Ebene_1" xmlns="http://www.w3.org/2000/svg" xmlns:xlink="http://www.w3.org/1999/xlink" x="0px" y="0px"
	 width="296.044px" height="166px" viewBox="0 0 296.044 166" enable-background="new 0 0 296.044 166" xml:space="preserve">
<path fill-rule="evenodd" clip-rule="evenodd" fill="#FFFFFF" d="M294.661,87.235c-6.978-33.799-39.762-56.641-73.706-50.962
	c-7.227,1.209-14.206,3.9-21.397,5.937c-18.3-30.759-45.217-45.999-81.451-37.215C85.05,13.009,67.982,36.606,63.77,70.085
	c-0.469,0.107-1.033,0.259-1.605,0.367c-16.727,3.194-28.74,12.479-36.228,27.774c-0.572,1.17-2.124,2.147-3.436,2.625
	C6.785,106.568-2.286,121.862,0.5,138.146c2.765,16.164,16.596,27.793,33.223,27.803C64.812,165.967,95.901,166,126.991,166
	c1.274,0,2.958,0,3.958,0c0-17.29,0-35,0-52h-22.96l40.022-47.376L188.023,114h-23.074c0,18,0,34.603,0,51.772
	c1,0.055,1.811,0.128,2.518,0.128c21.006,0.007,42.076,0.009,63.082,0.006C272.105,165.9,303.066,127.946,294.661,87.235z"/>
</svg>
