<?xml version="1.0" encoding="utf-8"?>
<!-- Generator: Adobe Illustrator 16.0.0, SVG Export Plug-In . SVG Version: 6.00 Build 0)  -->
<!DOCTYPE svg PUBLIC "-//W3C//DTD SVG 1.1//EN" "http://www.w3.org/Graphics/SVG/1.1/DTD/svg11.dtd">
<svg version="1.1" id="Ebene_1" xmlns="http://www.w3.org/2000/svg" xmlns:xlink="http://www.w3.org/1999/xlink" x="0px" y="0px"
	 width="357.853px" height="369.854px" viewBox="0 0 357.853 369.854" enable-background="new 0 0 357.853 369.854"
	 xml:space="preserve">
<g>
	<path fill-rule="evenodd" clip-rule="evenodd" fill="#FFFFFF" d="M207.001,0c2.011,13.304,3.998,26.44,5.979,39.577
		c0.074,0.494,0.137,0.996,0.133,1.493c-0.042,5.7,2.534,8.378,8.309,10.084c8.386,2.479,16.44,6.31,24.297,10.239
		c3.555,1.778,5.714,1.625,8.797-0.741c11.615-8.915,23.474-17.514,34.719-25.844c13.272,13.286,26.285,26.313,39.823,39.866
		c-4.815,6.538-10.311,14.009-15.814,21.473c-3.559,4.826-7.022,9.729-10.746,14.425c-1.659,2.092-1.822,3.648-0.694,6.211
		c4.41,10.019,8.521,20.175,12.486,30.381c0.96,2.471,1.997,3.593,4.775,3.968c12.859,1.736,25.675,3.797,38.787,5.784
		c0,18.62,0,37.042,0,56.071c-10.721,1.634-21.478,3.689-32.332,4.782c-7.156,0.721-11.247,2.737-13.117,10.672
		c-1.949,8.271-6.313,16.043-10.152,23.769c-1.752,3.526-2.018,5.894,0.566,9.201c7.683,9.833,14.937,20.002,21.917,29.444
		c-13.239,13.254-26.255,26.286-39.856,39.902c-3.888-2.86-8.807-6.468-13.713-10.092c-5.762-4.255-11.411-8.676-17.343-12.678
		c-1.389-0.937-3.992-1.171-5.572-0.549c-10.342,4.07-20.604,8.358-30.764,12.864c-1.55,0.688-3.232,2.738-3.506,4.383
		c-2.483,14.936-4.668,29.921-6.982,45.169c-18.622,0-37.045,0-56.07,0c-1.64-10.737-3.297-21.537-4.934-32.341
		c-0.773-5.101,0.053-11.416-2.701-14.968c-2.663-3.434-9.056-3.88-13.695-5.902c-6.091-2.655-12.18-5.359-18.05-8.458
		c-2.94-1.553-4.87-1.36-7.52,0.671c-10.574,8.106-21.367,15.928-32.084,23.846c-1.323,0.978-2.683,1.906-3.802,2.699
		c-13.211-13.341-26.181-26.438-39.507-39.894c8.007-10.837,16.152-22.404,24.93-33.47c3.463-4.365,3.299-7.411,0.854-12.238
		c-4.184-8.261-7.256-17.109-10.44-25.841c-1.117-3.064-2.104-4.844-5.864-5.308C25.43,217.086,12.816,214.941,0,212.991
		c0-18.8,0-37.235,0-56.046c12.97-1.972,25.759-4.033,38.591-5.779c2.905-0.395,4.096-1.484,5.142-4.205
		c3.989-10.372,8.158-20.689,12.762-30.799c1.286-2.823,0.898-4.455-0.716-6.61C48.008,99.178,40.32,88.741,32.896,78.723
		c13.364-13.323,26.41-26.33,39.876-39.755c9.304,6.876,19.351,13.964,28.974,21.587c3.701,2.932,6.292,2.895,10.472,0.867
		c8.943-4.339,18.304-7.838,27.591-11.429c2.546-0.984,3.987-1.861,4.39-4.974c1.728-13.369,3.86-26.686,5.876-40.018
		c0.245-1.619,0.677-3.21,1.063-5.001C169.747,0,188.182,0,207.001,0z M181.195,101.2c-44.455-0.725-83.921,32.466-85.839,80.917
		c-1.764,44.55,32.146,84.743,81.132,86.467c44.061,1.551,84.552-31.955,86.095-81.518
		C263.964,142.684,230.125,103.425,181.195,101.2z"/>
	<path fill-rule="evenodd" clip-rule="evenodd" fill="none" d="M181.195,101.2c48.93,2.225,82.77,41.484,81.388,85.867
		c-1.542,49.562-42.034,83.068-86.095,81.518c-48.986-1.724-82.896-41.917-81.132-86.467
		C97.273,133.666,136.74,100.475,181.195,101.2z"/>
</g>
</svg>
