<?xml version="1.0" encoding="utf-8"?>
<!-- Generator: Adobe Illustrator 16.0.0, SVG Export Plug-In . SVG Version: 6.00 Build 0)  -->
<!DOCTYPE svg PUBLIC "-//W3C//DTD SVG 1.1//EN" "http://www.w3.org/Graphics/SVG/1.1/DTD/svg11.dtd">
<svg version="1.1" id="Ebene_1" xmlns="http://www.w3.org/2000/svg" xmlns:xlink="http://www.w3.org/1999/xlink" x="0px" y="0px"
	 width="554.848px" height="185.448px" viewBox="0 0 554.848 185.448" enable-background="new 0 0 554.848 185.448"
	 xml:space="preserve">
<g>
	<path fill="#CC3636" d="M411.11,20.493c0.161,1.665-0.241,3.29-0.493,4.893c-0.161,1.038-0.786,2.025-1.31,2.971
		c-0.867,1.573-1.835,3.084-2.721,4.637c-0.877,1.521-2.117,2.672-3.437,3.803c-1.813,1.542-4,2.282-6.106,3.207
		c-1.976,0.874-4.061,1.203-6.207,1.213c-0.091,0-0.19-0.01-0.262,0.031c-1.492,0.699-3.104,0.596-4.676,0.596
		c-2.358,0-4.726,0.093-7.073-0.051c-1.048-0.062-2.035-0.113-3.084,0.062c-1.239,0.216-2.529,0.144-3.809,0.186
		c-0.888,0.03-1.784,0.103-2.681,0.061c-1.188-0.061-2.367-0.236-3.557-0.329c-0.766-0.051-1.553-0.113-2.318-0.042
		c-1.461,0.134-2.912,0.257-4.362,0.186c-0.565-0.021-1.129-0.195-1.693-0.195c-1.017,0-2.015,0.154-2.941,0.668
		c-0.384,0.216-0.808,0.37-1.23,0.535c-1.018,0.411-1.783,1.13-2.559,1.912c-1.28,1.295-2.138,2.857-3.022,4.399
		c-0.193,0.339-0.232,0.75-0.374,1.121c-0.746,1.86-0.807,3.854-1.108,5.808c-0.232,1.562-0.533,3.126-0.766,4.698
		c-0.101,0.658-0.161,1.337-0.121,1.995c0.061,1.346-0.06,2.663-0.242,3.999c-0.241,1.809-0.282,3.649-0.402,5.469
		c-0.102,1.459-0.213,2.91-0.282,4.369c-0.071,1.367-0.05,2.723,0.069,4.102c0.122,1.418-0.01,2.857,0.011,4.296
		c0.011,1.913,0.091,3.834,0.08,5.746c0,1.594-0.06,3.177-0.14,4.759c-0.102,1.676-0.202,3.342-0.112,5.027
		c0.071,1.213-0.02,2.436-0.06,3.66c-0.091,2.95-0.01,5.891,0.524,8.819c0.151,0.822,0.12,1.707,0.091,2.561
		c-0.071,1.735,0.04,3.474,0.151,5.211c0.15,2.498,0.21,4.997,0.342,7.504c0.101,1.82,0.292,3.641,0.382,5.459
		c0.112,2.128,0.143,4.255,0.242,6.384c0.042,0.945,0.203,1.882,0.232,2.816c0.029,1.244-0.061,2.487-0.212,3.732
		c-0.141,1.201-0.05,2.436-0.05,3.658c-0.02,3.63-0.03,7.268-0.061,10.907c-0.01,0.977-0.142,1.942-0.162,2.919
		c-0.01,0.936,0.071,1.871,0.091,2.807c0.041,1.984,0.161,3.968,0.071,5.94c-0.131,2.808-0.414,5.594-0.645,8.39
		c-0.061,0.719-0.222,1.429-0.293,2.159c-0.029,0.35,0.041,0.718,0.062,1.079c0.12,1.952,0.271,3.896,0.332,5.849
		c0.04,1.09-0.08,2.19-0.122,3.289c-0.02,0.453-0.039,0.916-0.029,1.367c0.01,0.155,0.02,0.278,0.051,0.381H234.923
		c0.061-0.616,0.121-1.234,0.171-1.84c0.03-0.309,0.071-0.606,0.081-0.915c0.01-2.046,0-4.091,0.03-6.138
		c0.03-1.336-0.183-2.631-0.534-3.885c-0.463-1.666-0.666-3.331-0.655-5.047c0.011-0.33,0.132-0.669,0.132-0.998
		c0.02-0.452,0.029-0.915-0.062-1.357c-0.161-0.698-0.222-1.376-0.01-2.065c0.03-0.113,0.081-0.246,0.04-0.35
		c-0.393-1.028-0.04-2.045,0.041-3.073c0.03-0.35-0.02-0.719-0.041-1.079c-0.03-0.36-0.06-0.721-0.09-1.079
		c-0.021-0.217-0.021-0.434-0.081-0.639c-0.554-1.983-0.504-4.039-0.716-6.064c-0.131-1.203-0.01-2.437,0.051-3.659
		c0.07-1.368,0.151-2.734,0.322-4.091c0.402-3.209,0.847-6.416,0.916-9.653c0.042-1.984,0.193-3.958,0.264-5.941
		c0.021-0.638-0.07-1.274-0.091-1.912c-0.021-0.36-0.04-0.729,0.021-1.09c0.171-1.089,0.382-2.148,0.231-3.279
		c-0.061-0.482,0.201-1.007,0.241-1.521c0.142-1.573,0.231-3.155,0.363-4.738c0.07-0.854,0.191-1.697,0.241-2.551
		c0.061-0.873,0.021-1.768,0.091-2.641c0.102-1.223,0.333-2.427,0.363-3.639c0.039-1.522,0.242-3.033,0.171-4.564
		c-0.061-1.357,0.071-2.766,0.403-4.081c0.595-2.363,0.463-4.719,0.211-7.082c-0.141-1.348-0.02-2.663,0.242-3.988
		c0.312-1.646,0.544-3.301,0.826-4.946c0.11-0.637,0.281-1.254,0.343-1.891c0.271-2.456,0.585-4.914,0.736-7.38
		c0.11-1.851-0.021-3.711-0.042-5.572c-0.02-1.563-0.06-3.115-0.069-4.678c0-0.205,0.102-0.411,0.171-0.607
		c0.141-0.431,0.312-0.862,0.435-1.294c0.412-1.398,0.775-2.807,1.228-4.195c0.242-0.74,0.333-1.469,0.323-2.24
		c-0.011-0.967,0.041-1.913,0.483-2.837c0.645-1.377,1.139-2.817,1.663-4.236c0.322-0.864,0.493-1.757,0.453-2.693
		c-0.02-0.359,0.091-0.72,0.161-1.08c0.121-0.596,0.223-1.203,0.403-1.778c0.211-0.688,0.483-1.367,0.775-2.035
		c0.373-0.863,0.827-1.697,1.169-2.57c0.887-2.242,2.087-4.308,3.477-6.251c0.664-0.936,1.311-1.881,2.016-2.786
		c0.745-0.945,1.571-1.84,2.317-2.786c0.514-0.658,0.946-1.388,1.461-2.056c0.716-0.935,1.432-1.881,2.208-2.765
		c0.694-0.792,1.45-1.522,2.206-2.251c0.544-0.524,1.107-1.018,1.692-1.491c1.915-1.521,3.869-2.981,5.744-4.544
		c1.742-1.449,3.638-2.652,5.461-3.958c1.995-1.439,3.99-2.889,6.238-3.917c1.047-0.473,2.075-1.038,3.163-1.398
		c1.673-0.544,3.386-0.945,5.089-1.408c1.008-0.277,2.024-0.535,3.032-0.812c1.603-0.432,3.205-0.874,4.808-1.306
		c1.088-0.297,2.177-0.616,3.274-0.884c1.3-0.318,2.609-0.637,3.92-0.895c1.824-0.349,3.658-0.647,5.481-0.976
		c1.501-0.257,2.992-0.524,4.494-0.782c2.177-0.38,4.383-0.555,6.579-0.781c2.339-0.236,4.696-0.329,7.034-0.637
		c1.834-0.237,3.688-0.103,5.542-0.042c1.845,0.062,3.698,0.083,5.542-0.267c1.108-0.216,2.248-0.268,3.375-0.381
		c1.19-0.124,2.369-0.298,3.559-0.319c1.128-0.03,2.257,0.083,3.385,0.186c1.754,0.154,3.508,0.38,5.281,0.154
		c0.383-0.041,0.775,0,1.159,0.01c1.581,0.072,3.162,0.236,4.734,0.206c1.542-0.021,3.084-0.268,4.625-0.329
		c0.746-0.031,1.482,0.123,2.229,0.195c0.442,0.041,0.886,0.072,1.318,0.123c0.384,0.051,0.767,0.124,1.149,0.185
		c1.33,0.186,2.661,0.371,3.99,0.576c0.767,0.113,1.522,0.288,2.288,0.391c0.413,0.062,0.826,0.041,1.249,0.051
		c1.572,0.062,3.144,0,4.706,0.34c0.563,0.113,1.208,0.062,1.753-0.103c0.756-0.227,1.451-0.309,2.177,0.031
		c0.182,0.091,0.402,0.091,0.614,0.091c1.099,0.042,2.196,0.062,3.295,0.104c1.018,0.051,2.035,0.092,3.043,0.195
		c0.524,0.051,1.028,0.236,1.553,0.35c0.221,0.051,0.462,0.113,0.685,0.093c1.068-0.124,2.045,0,3.013,0.585
		c0.504,0.309,1.199,0.277,1.803,0.411c0.264,0.062,0.525,0.124,0.767,0.227c1.532,0.688,3.083,1.315,4.565,2.086
		c1.138,0.597,2.187,1.368,3.274,2.067c0.101,0.062,0.211,0.154,0.252,0.257c0.292,0.739,0.896,1.161,1.521,1.562
		c0.191,0.113,0.313,0.35,0.453,0.545c0.182,0.247,0.303,0.544,0.515,0.75c0.744,0.7,1.129,1.532,1.319,2.437
		c0.121,0.545,0.161,1.11,0.181,1.696C410.971,19.032,411.051,19.762,411.11,20.493z"/>
	<polygon fill-rule="evenodd" clip-rule="evenodd" fill="#FFFFFF" points="318.22,64.201 314.22,64.764 314.845,68.701 
		315.47,70.639 319.618,70.639 321.483,68.889 321.157,64.514 	"/>
	<g>
		<path fill-rule="evenodd" clip-rule="evenodd" d="M312.458-27.894c0.085,0.134,0.17,0.269,0.255,0.403
			c0.093-0.135,0.187-0.269,0.28-0.403C312.815-27.894,312.637-27.894,312.458-27.894z"/>
		<path fill-rule="evenodd" clip-rule="evenodd" d="M384.913,41.52c-2.34,0-4.688,0.096-7.02-0.044
			c-1.037-0.062-2.014-0.111-3.055,0.062c-1.234,0.207-2.516,0.132-3.778,0.173c-0.888,0.029-1.778,0.103-2.662,0.06
			c-1.179-0.058-2.351-0.23-3.528-0.315c-0.768-0.055-1.545-0.113-2.308-0.042c-1.442,0.132-2.882,0.251-4.329,0.183
			c-0.56-0.026-1.115-0.193-1.673-0.191c-1.012,0.002-2.004,0.148-2.919,0.645c-0.388,0.211-0.809,0.365-1.221,0.526
			c-1.015,0.398-1.77,1.093-2.545,1.861c-1.273,1.261-2.115,2.774-2.997,4.279c-0.189,0.323-0.231,0.729-0.374,1.083
			c-0.733,1.814-0.802,3.754-1.096,5.653c-0.235,1.525-0.533,3.041-0.765,4.566c-0.097,0.641-0.157,1.3-0.122,1.945
			c0.069,1.311-0.054,2.592-0.231,3.892c-0.239,1.758-0.283,3.543-0.406,5.317c-0.099,1.416-0.206,2.831-0.278,4.248
			c-0.067,1.33-0.051,2.655,0.067,3.991c0.123,1.382-0.003,2.785,0.011,4.178c0.016,1.865,0.092,3.73,0.086,5.596
			c-0.004,1.544-0.061,3.089-0.146,4.63c-0.092,1.628-0.198,3.248-0.104,4.884c0.068,1.183-0.025,2.375-0.062,3.562
			c-0.088,2.875-0.01,5.735,0.521,8.577c0.15,0.809,0.121,1.662,0.087,2.49c-0.071,1.695,0.038,3.38,0.147,5.07
			c0.156,2.431,0.212,4.868,0.347,7.3c0.099,1.774,0.284,3.543,0.378,5.317c0.107,2.067,0.143,4.139,0.239,6.207
			c0.043,0.916,0.202,1.827,0.228,2.742c0.033,1.211-0.062,2.414-0.209,3.624c-0.142,1.172-0.045,2.372-0.051,3.56
			c-0.018,3.538-0.023,7.076-0.059,10.615c-0.01,0.946-0.145,1.891-0.157,2.838c-0.013,0.911,0.069,1.823,0.087,2.734
			c0.037,1.927,0.157,3.858,0.066,5.78c-0.127,2.722-0.406,5.437-0.639,8.153c-0.061,0.702-0.217,1.396-0.284,2.099
			c-0.033,0.348,0.038,0.705,0.06,1.058c0.115,1.895,0.27,3.787,0.332,5.684c0.035,1.063-0.081,2.133-0.123,3.199
			c-0.019,0.445-0.043,0.893-0.027,1.338c0.02,0.607,0.201,0.763,0.793,0.841c0.629,0.083,2.003-0.454,2.211-1.201
			c0.133-0.477,0.238-0.962,0.332-1.448c0.09-0.462,0.211-0.929,0.211-1.394c0-2.167-0.025-4.335-0.067-6.502
			c-0.018-0.913-0.149-1.826-0.133-2.737c0.015-0.822,0.157-1.643,0.249-2.463c0.102-0.909,0.209-1.818,0.316-2.728
			c0.098-0.823,0.201-1.645,0.296-2.468c0.024-0.206,0.03-0.415,0.03-0.622c0.004-0.709,0.002-1.417,0.003-2.126
			c0.001-0.858-0.001-1.717,0.003-2.575c0.001-0.384,0.01-0.769,0.018-1.152c0.006-0.238,0.074-0.492,0.014-0.711
			c-0.34-1.226-0.083-2.457-0.048-3.683c0.036-1.244,0.212-2.484,0.235-3.728c0.021-1.181-0.075-2.362-0.12-3.544
			c-0.007-0.179-0.069-0.377-0.011-0.531c0.357-0.949,0-1.937,0.18-2.898c0.08-0.427-0.019-0.885-0.008-1.328
			c0.055-2.375,0.012-4.76,0.223-7.121c0.119-1.349-0.139-2.657-0.059-3.99c0.053-0.878-0.135-1.758-0.111-2.658
			c0.031-1.203-0.231-2.411-0.307-3.62c-0.145-2.331-0.244-4.664-0.365-6.996c-0.048-0.947-0.085-1.896-0.152-2.842
			c-0.102-1.421-0.253-2.839-0.332-4.262c-0.08-1.448-0.113-2.899-0.135-4.351c-0.013-0.893,0.021-1.779-0.293-2.643
			c-0.109-0.299-0.109-0.642-0.131-0.966c-0.178-2.642-0.07-5.28-0.023-7.923c0.041-2.342,0.041-4.686,0.082-7.029
			c0.032-1.869,0.178-3.746,0.062-5.606c-0.093-1.489-0.09-2.964-0.039-4.448c0.041-1.215,0.096-2.431,0.084-3.646
			c-0.01-1.186-0.144-2.371-0.134-3.556c0.007-0.854,0.202-1.706,0.239-2.562c0.059-1.364,0.096-2.731,0.064-4.096
			c-0.033-1.384,0.361-2.705,0.481-4.061c0.109-1.238,0.097-2.486,0.166-3.729c0.037-0.68,0.11-1.359,0.204-2.033
			c0.199-1.439,0.423-2.875,0.634-4.312c0.03-0.205-0.018-0.447,0.076-0.612c0.708-1.244,0.681-2.695,1.165-4.004
			c0.655-1.774,1.725-3.241,3.157-4.448c0.26-0.219,0.636-0.315,0.972-0.424c0.424-0.137,0.864-0.217,1.292-0.343
			c0.981-0.288,1.95-0.31,2.983-0.203c1.221,0.126,2.493,0.054,3.709-0.144c2.224-0.362,4.377-0.088,6.525,0.422
			c0.365,0.087,0.665,0.063,1.023-0.055c0.405-0.133,0.864-0.123,1.301-0.133c1.364-0.032,2.758,0.123,4.086-0.106
			c1.617-0.279,3.204-0.137,4.787-0.017c1.721,0.131,3.43,0.046,5.143,0.031c0.701-0.006,1.406,0.089,2.101,0.034
			c0.673-0.054,1.33-0.271,2.001-0.367c1.783-0.256,3.535-0.718,5.368-0.674c0.612,0.015,1.24-0.348,1.853-0.563
			c2.185-0.765,4.23-1.836,6.301-2.855c1.65-0.812,2.94-2.053,4.189-3.368c0.665-0.701,1.145-1.483,1.577-2.339
			c0.479-0.948,1.136-1.805,1.678-2.724c0.644-1.089,1.433-2.141,1.826-3.32c0.632-1.898,1.134-3.863,0.939-5.919
			c-0.181-1.918-0.22-3.856-0.518-5.753c-0.312-1.979-1.015-3.835-2.667-5.167c-0.225-0.181-0.416-0.429-0.561-0.682
			c-0.298-0.525-0.739-0.907-1.143-1.34c-1.075-1.153-2.469-1.845-3.729-2.721c-1.084-0.754-2.325-1.274-3.58-1.736
			c-0.771-0.284-1.489-0.714-2.251-1.031c-0.953-0.396-1.909-0.805-2.896-1.098c-1.272-0.377-2.573-0.665-3.87-0.95
			c-0.547-0.12-1.121-0.208-1.676-0.181c-2.244,0.109-4.437-0.357-6.654-0.524c-0.029-0.002-0.064-0.003-0.087-0.019
			c-0.759-0.52-1.598-0.261-2.404-0.233c-1.746,0.062-3.495,0.275-5.235,0.216c-1.52-0.051-3.07,0.062-4.562-0.477
			c-0.6-0.217-1.284-0.202-1.931-0.286c-1.089-0.141-2.181-0.263-3.267-0.423c-0.378-0.056-0.746-0.193-1.114-0.306
			c-1.194-0.363-2.417-0.226-3.63-0.198c-0.649,0.015-1.299,0.087-1.944,0.171c-1.716,0.221-3.43,0.029-5.145,0.018
			c-1.571-0.011-3.144,0.055-4.714,0.021c-1.036-0.022-2.069-0.159-3.103-0.252c-0.235-0.021-0.469-0.112-0.702-0.111
			c-1.569,0.007-3.143-0.078-4.701,0.184c-0.231,0.039-0.471,0.025-0.705,0.044c-0.732,0.057-1.453,0.099-2.184,0.282
			c-0.874,0.219-1.804,0.223-2.711,0.306c-0.234,0.021-0.479-0.043-0.71-0.007c-2.276,0.362-4.559,0.18-6.845,0.142
			c-1.684-0.028-3.371,0.188-5.055,0.335c-1.242,0.108-2.482,0.257-3.718,0.427c-1.571,0.216-3.163,0.199-4.729,0.412
			c-2.371,0.321-4.756,0.568-7.09,1.127c-1.34,0.32-2.675,0.667-4.027,0.923c-2.214,0.42-4.445,0.747-6.658,1.174
			c-0.926,0.178-1.819,0.522-2.732,0.771c-1.369,0.373-2.743,0.722-4.111,1.096c-0.395,0.107-0.768,0.291-1.163,0.396
			c-2.257,0.602-4.536,1.125-6.768,1.81c-1.241,0.38-2.497,0.75-3.71,1.189c-1.323,0.479-2.548,1.268-3.753,2.021
			c-1.755,1.098-3.476,2.256-5.173,3.442c-1.531,1.069-3.008,2.214-4.516,3.318c-0.598,0.438-1.211,0.853-1.818,1.277
			c-0.072,0.051-0.155,0.09-0.223,0.146c-1.684,1.4-3.375,2.79-5.043,4.207c-1.449,1.231-2.811,2.558-4.016,4.03
			c-0.655,0.8-1.281,1.614-1.764,2.552c-0.371,0.723-0.966,1.335-1.49,1.972c-0.566,0.686-1.166,1.342-1.751,2.011
			c-0.254,0.291-0.505,0.584-0.766,0.869c-0.141,0.153-0.334,0.268-0.44,0.439c-0.832,1.331-1.675,2.656-2.462,4.013
			c-0.713,1.229-1.405,2.474-2.022,3.752c-0.553,1.146-0.977,2.355-1.486,3.523c-0.735,1.688-0.86,3.495-1.122,5.285
			c-0.162,1.108-0.465,2.208-0.821,3.272c-0.27,0.802-0.695,1.559-1.105,2.306c-0.506,0.923-0.654,1.946-0.59,2.93
			c0.098,1.51-0.288,2.911-0.816,4.241c-0.85,2.138-1.27,4.312-1.248,6.6c0.025,2.707,0.024,5.413-0.001,8.119
			c-0.007,0.767-0.136,1.534-0.217,2.299c-0.159,1.498-0.28,3.002-0.497,4.492c-0.23,1.58-0.489,3.162-0.852,4.715
			c-0.537,2.305-0.791,4.603-0.537,6.972c0.167,1.557,0.115,3.122-0.157,4.69c-0.442,2.549-0.498,5.139-0.551,7.723
			c-0.026,1.276-0.024,2.575-0.266,3.82c-0.426,2.206-0.214,4.441-0.479,6.649c-0.273,2.269-0.525,4.54-0.785,6.812
			c-0.026,0.235-0.068,0.475-0.056,0.709c0.126,2.431-0.155,4.854-0.085,7.287c0.05,1.688-0.025,3.382-0.122,5.068
			c-0.056,0.971-0.274,1.931-0.396,2.898c-0.085,0.676-0.128,1.356-0.19,2.035c-0.086,0.916-0.098,1.846-0.273,2.744
			c-0.391,2.001-0.445,4.01-0.41,6.038c0.035,2.084,0.224,4.149,0.495,6.211c0.151,1.147,0.327,2.293,0.431,3.444
			c0.062,0.706,0.023,1.422,0.008,2.134c-0.025,1.127-0.102,2.254-0.1,3.382c0.002,1.663-0.004,3.33,0.113,4.987
			c0.051,0.715,0.401,1.409,0.618,2.111c0.017,0.055,0.075,0.101,0.084,0.155c0.167,0.989,0.332,1.979,0.487,2.971
			c0.027,0.174-0.032,0.367,0.016,0.533c0.468,1.644-0.068,3.281-0.027,4.922c0.023,0.915-0.027,1.833-0.056,2.749
			c-0.052,1.649-0.106,3.299-0.169,4.947c-0.028,0.741-0.112,1.482-0.103,2.223c0.006,0.488,0.108,0.981,0.216,1.462
			c0.064,0.286,0.299,0.487,0.604,0.356c0.517-0.22,1.067-0.421,1.495-0.766c0.448-0.361,0.827-0.826,0.85-1.496
			c0.046-1.39,0.13-2.778,0.224-4.165c0.064-0.947,0.172-1.892,0.259-2.837c0.027-0.296,0.069-0.592,0.071-0.888
			c0.016-1.99,0.002-3.98,0.037-5.971c0.023-1.294-0.183-2.558-0.532-3.783c-0.459-1.611-0.663-3.24-0.646-4.904
			c0.003-0.324,0.122-0.646,0.13-0.971c0.012-0.439,0.027-0.895-0.068-1.317c-0.152-0.68-0.214-1.34-0.005-2.013
			c0.033-0.107,0.075-0.243,0.038-0.337c-0.387-1.006-0.041-1.995,0.039-2.992c0.029-0.346-0.02-0.698-0.043-1.047
			c-0.023-0.353-0.057-0.704-0.09-1.056c-0.02-0.206-0.017-0.42-0.072-0.616c-0.549-1.93-0.506-3.934-0.715-5.903
			c-0.124-1.172-0.006-2.374,0.057-3.561c0.07-1.329,0.146-2.663,0.316-3.982c0.402-3.121,0.836-6.234,0.908-9.39
			c0.044-1.925,0.194-3.849,0.264-5.774c0.021-0.619-0.073-1.241-0.098-1.863c-0.014-0.353-0.033-0.714,0.023-1.06
			c0.172-1.055,0.378-2.094,0.234-3.185c-0.062-0.475,0.195-0.983,0.24-1.483c0.135-1.534,0.229-3.073,0.354-4.608
			c0.067-0.828,0.19-1.653,0.244-2.481c0.056-0.856,0.022-1.719,0.091-2.573c0.096-1.184,0.33-2.359,0.36-3.543
			c0.037-1.477,0.235-2.941,0.166-4.434c-0.062-1.318,0.074-2.694,0.403-3.973c0.592-2.304,0.453-4.588,0.206-6.893
			c-0.141-1.311-0.014-2.59,0.239-3.879c0.314-1.596,0.547-3.207,0.823-4.81c0.105-0.614,0.274-1.219,0.343-1.835
			c0.266-2.391,0.58-4.78,0.724-7.179c0.108-1.802-0.013-3.618-0.038-5.428c-0.02-1.515-0.056-3.03-0.066-4.545
			c-0.002-0.197,0.102-0.397,0.167-0.592c0.142-0.421,0.307-0.835,0.435-1.26c0.408-1.358,0.77-2.732,1.217-4.077
			c0.239-0.719,0.324-1.428,0.316-2.177c-0.011-0.945,0.047-1.863,0.48-2.769c0.638-1.332,1.13-2.734,1.656-4.118
			c0.318-0.839,0.489-1.709,0.445-2.621c-0.017-0.347,0.088-0.702,0.159-1.049c0.12-0.579,0.219-1.167,0.397-1.728
			c0.216-0.674,0.483-1.335,0.77-1.983c0.371-0.84,0.825-1.645,1.168-2.495c0.881-2.183,2.062-4.188,3.443-6.084
			c0.661-0.908,1.305-1.831,2.004-2.708c0.738-0.925,1.555-1.786,2.297-2.708c0.517-0.641,0.943-1.353,1.449-2.003
			c0.708-0.912,1.42-1.825,2.189-2.685c0.689-0.771,1.445-1.485,2.197-2.196c0.536-0.507,1.098-0.993,1.68-1.447
			c1.895-1.479,3.84-2.898,5.7-4.42c1.722-1.409,3.608-2.579,5.419-3.854c1.978-1.394,3.961-2.806,6.189-3.802
			c1.04-0.465,2.055-1.014,3.135-1.36c1.66-0.533,3.365-0.926,5.053-1.375c1.003-0.266,2.009-0.52,3.012-0.787
			c1.59-0.423,3.178-0.853,4.768-1.278c1.084-0.29,2.164-0.596,3.254-0.859c1.291-0.311,2.584-0.615,3.888-0.864
			c1.808-0.345,3.625-0.635,5.438-0.948c1.487-0.256,2.975-0.511,4.463-0.767c2.162-0.371,4.345-0.54,6.525-0.756
			c2.324-0.231,4.66-0.319,6.979-0.62c1.827-0.237,3.666-0.101,5.507-0.043c1.825,0.058,3.668,0.08,5.492-0.263
			c1.104-0.207,2.235-0.256,3.355-0.367c1.176-0.117,2.352-0.288,3.531-0.312c1.118-0.023,2.242,0.088,3.359,0.183
			c1.742,0.148,3.479,0.375,5.234,0.154c0.379-0.048,0.771-0.008,1.156,0.01c1.566,0.071,3.133,0.225,4.697,0.202
			c1.533-0.022,3.061-0.261,4.594-0.327c0.731-0.031,1.471,0.121,2.205,0.189c0.438,0.041,0.877,0.073,1.312,0.125
			c0.38,0.046,0.756,0.119,1.135,0.173c1.321,0.188,2.645,0.364,3.964,0.562c0.759,0.114,1.511,0.278,2.271,0.384
			c0.406,0.056,0.824,0.034,1.236,0.048c1.562,0.058,3.127-0.003,4.678,0.327c0.553,0.118,1.193,0.063,1.74-0.096
			c0.748-0.217,1.438-0.296,2.158,0.034c0.178,0.082,0.4,0.081,0.604,0.087c1.093,0.038,2.186,0.055,3.278,0.102
			c1.007,0.043,2.015,0.084,3.016,0.184c0.519,0.052,1.024,0.232,1.538,0.343c0.223,0.048,0.457,0.115,0.677,0.089
			c1.061-0.124,2.032,0,2.991,0.571c0.502,0.298,1.193,0.273,1.797,0.405c0.256,0.056,0.518,0.112,0.756,0.217
			c1.518,0.664,3.061,1.281,4.533,2.033c1.129,0.577,2.169,1.329,3.245,2.008c0.099,0.062,0.208,0.149,0.249,0.25
			c0.295,0.72,0.889,1.123,1.514,1.514c0.188,0.118,0.312,0.348,0.451,0.537c0.176,0.238,0.299,0.528,0.51,0.723
			c1.187,1.095,1.444,2.515,1.493,4.029c0.022,0.709,0.103,1.417,0.17,2.125c0.155,1.619-0.245,3.196-0.495,4.764
			c-0.16,1.009-0.781,1.969-1.301,2.892c-0.856,1.524-1.814,2.992-2.697,4.502c-0.869,1.487-2.098,2.608-3.409,3.699
			c-1.806,1.501-3.976,2.219-6.064,3.124c-1.962,0.849-4.028,1.174-6.154,1.181c-0.089,0-0.188-0.006-0.265,0.029
			C388.074,41.624,386.479,41.525,384.913,41.52z"/>
		<path fill-rule="evenodd" clip-rule="evenodd" d="M271.214,112.029c-0.287,0.036-0.573,0.086-0.861,0.105
			c-0.976,0.065-1.391,0.703-1.538,1.354c-0.21,0.925-0.39,1.856-0.601,2.782c-0.138,0.605-0.275,1.215-0.469,1.804
			c-0.517,1.567-0.663,3.19-0.791,4.818c-0.015,0.178-0.018,0.357-0.049,0.532c-0.328,1.808-0.487,3.631-0.523,5.466
			c-0.01,0.502,0.059,1.006,0.084,1.51c0.02,0.382-0.016,0.771,0.048,1.145c0.176,1.026-0.153,2.031-0.071,3.059
			c0.07,0.877,0.043,1.777-0.068,2.65c-0.273,2.174,0.148,4.315,0.188,6.472c0.019,0.998-0.118,2.015-0.313,2.997
			c-0.241,1.219-0.656,2.402-0.921,3.617c-0.17,0.777-0.328,1.595-0.263,2.375c0.066,0.806-0.304,1.507-0.299,2.276
			c0.001,0.099-0.106,0.197-0.242,0.43c-0.208-0.31-0.39-0.525-0.511-0.771c-0.391-0.792-0.69-1.638-1.149-2.386
			c-1.005-1.633-1.616-3.439-2.301-5.201c-0.775-2-1.261-4.085-1.353-6.271c-0.088-2.098-0.177-4.204-0.615-6.282
			c-0.306-1.453-0.047-2.952-0.035-4.429c0.014-1.721,0.117-3.44,0.192-5.16c0.049-1.127,0.117-2.252,0.176-3.378
			c0.075-1.421,0.215-2.842,0.208-4.262c-0.011-2.09,0.261-4.125,0.716-6.162c0.242-1.082,0.227-2.229,0.254-3.35
			c0.018-0.717,0.014-1.418,0.273-2.104c0.504-1.331,1.022-2.657,1.458-4.011c0.417-1.297,0.729-2.628,1.103-3.939
			c0.162-0.568,0.418-1.114,0.533-1.689c0.19-0.95-0.217-1.379-1.199-1.367c-1.115,0.014-1.71,0.428-2.092,1.455
			c-0.732,1.973-1.57,3.914-2.158,5.929c-0.34,1.167-1.008,2.202-1.21,3.407c-0.122,0.729-0.343,1.445-0.421,2.176
			c-0.102,0.941-0.1,1.894-0.151,2.84c-0.013,0.236-0.029,0.48-0.099,0.704c-0.274,0.88-0.424,1.774-0.555,2.688
			c-0.126,0.88-0.123,1.758-0.182,2.632c-0.113,1.684,0.007,3.392-0.211,5.057c-0.291,2.224-0.164,4.443-0.25,6.663
			c-0.012,0.293-0.119,0.58-0.148,0.874c-0.034,0.35-0.036,0.702-0.047,1.054c-0.006,0.234,0.07,0.503-0.018,0.697
			c-0.296,0.654-0.178,1.275,0.035,1.907c0.037,0.11,0.111,0.246,0.078,0.337c-0.316,0.86,0.176,1.628,0.254,2.441
			c0.157,1.622,0.359,3.244,0.408,4.871c0.074,2.456,0.494,4.821,1.29,7.152c0.319,0.938,0.784,1.81,1.084,2.761
			c0.359,1.14,1.04,2.18,1.586,3.26c0.333,0.659,0.676,1.313,1.014,1.97c0.458,0.89,0.854,1.819,1.396,2.656
			c0.395,0.611,0.963,1.117,1.486,1.637c0.156,0.155,0.418,0.248,0.643,0.279c0.586,0.079,1.178,0.129,1.769,0.145
			c0.186,0.005,0.42-0.092,0.554-0.222c0.602-0.582,1.139-1.206,1.293-2.08c0.305-1.718,0.645-3.43,0.945-5.148
			c0.143-0.813,0.214-1.639,0.35-2.453c0.107-0.643,0.201-1.299,0.411-1.911c0.594-1.734,0.845-3.525,0.864-5.338
			c0.016-1.294-0.156-2.588-0.213-3.884c-0.044-1.006-0.095-2.019,0.265-2.994c0.06-0.163,0.082-0.354,0.066-0.527
			c-0.13-1.425,0.082-2.841,0.095-4.259c0.007-0.87,0.219-1.777-0.205-2.623c-0.037-0.075-0.045-0.178-0.033-0.263
			c0.178-1.229,0.375-2.457,0.537-3.688c0.082-0.612,0.191-1.243,0.125-1.848c-0.062-0.552,0.04-1.05,0.128-1.572
			c0.379-2.253,0.742-4.509,1.107-6.764C272.217,113.733,271.913,112.804,271.214,112.029z"/>
		<path fill-rule="evenodd" clip-rule="evenodd" d="M326.139,162.105c-0.194-0.874-0.37-1.611-0.521-2.354
			c-0.506-2.502-0.337-5.078-0.785-7.578c-0.24-1.342,0.008-2.659-0.102-3.986c-0.057-0.667,0.178-1.36,0.111-2.024
			c-0.241-2.409-0.26-4.827-0.349-7.242c-0.024-0.68,0.016-1.364,0.069-2.043c0.115-1.471-0.256-2.889-0.429-4.329
			c-0.056-0.468-0.103-0.941-0.1-1.412c0.009-1.454,0.074-2.909,0.052-4.363c-0.01-0.584-0.17-1.17-0.302-1.746
			c-0.319-1.386-0.637-2.773-1.005-4.146c-0.19-0.713-0.404-1.401-0.374-2.159c0.012-0.291-0.261-0.583-0.355-0.89
			c-0.217-0.709-0.401-1.429-0.604-2.143c-0.268-0.949-1.273-1.394-2.176-0.962c-0.134,0.063-0.261,0.143-0.396,0.199
			c-0.542,0.231-0.812,0.597-0.662,1.154c0.141,0.523,0.023,1.152,0.551,1.555c0.084,0.064,0.077,0.272,0.082,0.415
			c0.012,0.44-0.047,0.891,0.026,1.318c0.15,0.877,0.184,1.757,0.246,2.64c0.058,0.814,0.287,1.637,0.567,2.409
			c0.422,1.168,0.573,2.35,0.526,3.58c-0.046,1.215-0.181,2.453-0.005,3.641c0.113,0.756,0.212,1.511,0.262,2.272
			c0.152,2.334,0.227,4.668,0.164,7.009c-0.019,0.671,0.188,1.345,0.261,2.021c0.132,1.234,0.312,2.471,0.339,3.709
			c0.037,1.657-0.11,3.317-0.066,4.974c0.025,0.972,0.285,1.936,0.406,2.907c0.091,0.733,0.124,1.475,0.188,2.212
			c0.11,1.271,0.195,2.545,0.347,3.812c0.161,1.354,0.709,2.573,1.594,3.603c0.466,0.543,0.582,1.169,0.658,1.805
			c0.144,1.224,0.837,1.763,2.016,1.475c0.202-0.05,0.404-0.149,0.605-0.146c0.852,0.016,1.273-0.546,1.576-1.201
			c0.38-0.828,0.795-1.63,0.931-2.575c0.129-0.895,0.485-1.764,0.8-2.623c0.768-2.105,1.182-4.289,1.534-6.491
			c0.122-0.762,0.292-1.516,0.453-2.271c0.419-1.966,0.386-3.953,0.321-5.946c-0.067-2.11,0.023-4.215,0.26-6.314
			c0.05-0.437-0.039-0.888-0.027-1.331c0.047-1.897,0.029-3.802,0.184-5.691c0.219-2.671,0.146-5.328,0.031-7.999
			c-0.104-2.409-0.588-4.773-0.721-7.17c-0.133-2.402-0.428-4.785-0.691-7.173c-0.078-0.707-0.129-1.403-0.383-2.086
			c-0.369-0.989-0.98-1.426-2.025-1.304c-0.41,0.049-0.814,0.168-1.225,0.184c-0.484,0.02-0.666,0.315-0.612,0.695
			c0.19,1.349-0.062,2.732,0.376,4.063c0.164,0.498,0.201,1.044,0.25,1.571c0.186,1.973,0.32,3.951,0.541,5.919
			c0.108,0.97,0.438,1.915,0.539,2.885c0.146,1.407,0.215,2.825,0.25,4.241c0.031,1.208-0.021,2.419-0.055,3.628
			c-0.068,2.461-0.145,4.922-0.229,7.382c-0.037,1.066-0.141,2.131-0.146,3.196c-0.012,1.955,0.025,3.911,0.047,5.866
			c0.012,1.036,0.064,2.072,0.036,3.106c-0.013,0.465-0.197,0.923-0.274,1.389c-0.241,1.464-0.392,2.946-0.72,4.39
			c-0.46,2.022-1.046,4.017-1.585,6.021C326.381,161.775,326.276,161.882,326.139,162.105z"/>
		<path fill-rule="evenodd" clip-rule="evenodd" d="M304.642,64.905c1.23-0.55,2.572-0.635,3.872-0.895
			c0.4-0.08,0.798-0.176,1.194-0.277c0.257-0.065,0.504-0.2,0.763-0.222c0.944-0.083,1.894-0.107,2.837-0.198
			c1.205-0.116,2.406-0.28,3.609-0.413c0.615-0.068,1.234-0.12,1.852-0.168c0.266-0.021,0.537,0.015,0.799-0.025
			c1.258-0.192,2.512-0.407,3.769-0.603c0.556-0.087,1.154-0.051,1.665-0.248c0.883-0.34,1.76-0.21,2.634-0.126
			c0.819,0.079,1.111,0.77,0.835,1.556c-0.272,0.778-0.863,0.968-1.57,1.072c-0.879,0.129-1.754,0.277-2.625,0.449
			c-0.621,0.124-1,0.552-1.054,1.167c-0.064,0.731-0.067,1.472-0.038,2.207c0.033,0.824,0.293,1.636,0.041,2.472
			c-0.176,0.585-0.478,0.895-1.081,0.982c-0.322,0.046-0.643,0.105-0.965,0.147c-0.817,0.105-1.634,0.227-2.454,0.299
			c-0.734,0.065-1.521-0.071-2.2,0.148c-0.706,0.227-1.297,0.039-1.892-0.144c-0.969-0.296-1.61-1.079-1.645-2.166
			c-0.027-0.859-0.087-1.72-0.189-2.573c-0.127-1.066-0.51-1.343-1.535-1.123c-1.561,0.334-3.114,0.701-4.67,1.058
			c-0.699,0.161-1.348,0.09-1.948-0.343c-0.257-0.185-0.557-0.308-0.893-0.489C303.696,65.539,303.853,65.257,304.642,64.905z
			 M318.733,69.522c0.336,0.013,0.59-0.173,0.625-0.512c0.104-1.001,0.182-2.005,0.26-3.008c0.008-0.111-0.05-0.227-0.075-0.333
			c-0.41-0.267-0.816-0.124-1.222-0.062c-0.469,0.071-0.942,0.118-1.41,0.197c-0.693,0.118-0.773,0.256-0.619,0.964
			c0.105,0.49,0.217,0.98,0.301,1.475c0.053,0.316,0.061,0.64,0.106,1.153C317.396,69.441,318.064,69.497,318.733,69.522z"/>
		<path fill-rule="evenodd" clip-rule="evenodd" d="M289.571,22.372c0.082,0.625,0.416,1.095,1.004,1.311
			c0.476,0.174,0.903,0.021,1.295-0.5c0.176-0.234,0.327-0.493,0.453-0.759c0.57-1.206,1.092-2.436,1.699-3.623
			c0.629-1.231,1.359-2.41,2-3.635c0.285-0.544,0.506-1.134,0.666-1.727c0.188-0.699,0.021-0.955-0.628-1.262
			c-1.048-0.494-1.737-0.283-2.339,0.701c-0.494,0.807-1.017,1.597-1.498,2.412c-0.359,0.606-0.729,1.191-0.882,1.924
			c-0.142,0.678-0.594,1.285-0.819,1.953C290.166,20.222,289.885,21.302,289.571,22.372z"/>
		<path fill-rule="evenodd" clip-rule="evenodd" d="M300.786,21.836c0.262,0,0.468,0.004,0.674-0.001
			c0.65-0.016,1.061-0.44,0.818-1.035c-0.423-1.044-0.084-1.928,0.219-2.914c0.316-1.032,0.359-2.151,0.479-3.237
			c0.061-0.558-0.012-1.131,0.045-1.69c0.1-0.974-1.549-1.806-2.396-1.32c-0.215,0.124-0.387,0.458-0.434,0.722
			c-0.221,1.225-0.432,2.455-0.564,3.692c-0.117,1.083-0.14,2.176-0.167,3.266c-0.007,0.284,0.061,0.609,0.202,0.851
			C299.989,20.729,300.384,21.248,300.786,21.836z"/>
		<path fill-rule="evenodd" clip-rule="evenodd" d="M306.92,11.564c0.184,1.176,0.264,2.432,0.813,3.628
			c0.332,0.723,0.652,1.447,1.076,2.117c0.33,0.521,0.695,1.022,1.082,1.504c0.384,0.479,0.952,0.457,1.477,0.372
			c0.399-0.065,0.646-0.679,0.48-1.094c-0.099-0.245-0.258-0.467-0.403-0.689c-0.952-1.454-1.353-3.081-1.439-4.787
			c-0.04-0.792,0.011-1.593,0.085-2.383c0.037-0.396-0.087-0.64-0.41-0.79c-0.455-0.21-0.914-0.424-1.392-0.572
			c-0.592-0.184-0.985,0.062-1.1,0.681C307.071,10.192,307.014,10.843,306.92,11.564z"/>
		<path fill-rule="evenodd" clip-rule="evenodd" d="M386.729,26.411c-0.146,0.064-0.484,0.136-0.718,0.332
			c-0.495,0.417-0.939,0.895-1.398,1.354c-0.697,0.697-0.824,1.516-0.33,2.344c0.277,0.467,0.677,0.906,1.119,1.22
			c0.609,0.433,0.992,0.304,1.505-0.29c0.095-0.109,0.195-0.238,0.321-0.291c0.771-0.321,1.106-1.012,1.512-1.668
			c0.339-0.549,0.254-1.082,0.085-1.62C388.612,27.111,387.612,26.42,386.729,26.411z"/>
		<path fill-rule="evenodd" clip-rule="evenodd" d="M393.548,27.579c0.086,0.403,0.177,1.022,0.357,1.614
			c0.192,0.634,0.975,1.133,1.656,1.146c0.734,0.013,1.203-0.334,1.54-1.101c0.155-0.352,0.36-0.681,0.538-1.022
			c0.136-0.263,0.305-0.517,0.391-0.796c0.431-1.397-0.762-2.667-2.18-2.305c-0.512,0.131-1.016,0.336-1.487,0.576
			C393.693,26.031,393.578,26.685,393.548,27.579z"/>
		<path fill-rule="evenodd" clip-rule="evenodd" fill="none" d="M316.699,69.396c0.696,0.045,1.365,0.101,2.034,0.126
			c0.336,0.013,0.59-0.173,0.625-0.512c0.104-1.001,0.182-2.005,0.26-3.008c0.008-0.111-0.05-0.227-0.075-0.333
			c-0.41-0.267-0.816-0.124-1.222-0.062c-0.469,0.071-0.942,0.118-1.41,0.197c-0.693,0.118-0.773,0.256-0.619,0.964
			c0.105,0.49,0.217,0.98,0.301,1.475C316.646,68.559,316.653,68.882,316.699,69.396z"/>
	</g>
</g>
<g>
	<path fill="#D34237" d="M213.407,93.641c0.061,0.222,0.02,0.473,0,0.713c-0.119,1.363-0.24,2.729-0.699,4.04
		c-0.361,1.024-0.291,2.127-0.221,3.21c0.039,0.591,0.16,1.173,0.17,1.765c0,0.651,0.02,1.323-0.15,1.944
		c-0.449,1.654-0.51,3.31-0.27,4.974c0.17,1.273-0.08,2.485-0.34,3.709c-0.1,0.512-0.199,1.073-0.109,1.585
		c0.289,1.725,0.389,3.448-0.09,5.132c-0.352,1.254-0.211,2.507-0.15,3.74c0.049,1.153-0.08,2.267-0.271,3.38
		c-0.289,1.774-0.379,3.539-0.109,5.333c0.131,0.863,0.01,1.786-0.07,2.667c-0.07,0.822-0.17,1.665-0.379,2.468
		c-0.191,0.701-0.49,1.394-0.861,2.024c-0.68,1.144-0.92,2.365-1,3.65c-0.09,1.253-0.148,2.517-0.658,3.68
		c-0.391,0.893-0.172,1.784-0.092,2.657c0.211,2.115,0.102,4.22-0.129,6.325c-0.061,0.533-0.01,1.083,0.039,1.615
		c0.051,0.521-0.02,1.003-0.299,1.453c-0.391,0.611-0.561,1.234-0.35,1.967c0.1,0.36,0.08,0.781,0.039,1.163
		c-0.131,1.272-0.311,2.536-0.459,3.809c-0.051,0.411-0.051,0.832-0.111,1.243c-0.24,1.624-0.539,3.239-0.74,4.873
		c-0.16,1.274-0.219,2.557-0.32,3.83c0,0.121,0.012,0.24,0,0.36c-0.18,1.755-0.35,3.509-0.549,5.254
		c-0.15,1.365-0.311,2.728-0.51,4.081c-0.141,1.003-0.35,1.995-0.5,2.998H57.797c0.11-0.521,0.16-1.054,0.24-1.584
		c0.11-0.742,0.08-1.504,0.23-2.227c0.38-1.813,0.67-3.629,0.7-5.493c0.02-1.243,0.27-2.478,0.37-3.721
		c0.11-1.293,0.19-2.597,0.26-3.89c0.09-1.584,0.22-3.168,0.24-4.752c0.02-1.395,0.49-2.678,0.85-4.001
		c0.07-0.251,0.18-0.602,0.07-0.781c-0.35-0.543-0.05-1.015,0-1.525c0.08-0.823,0.06-1.665,0.07-2.497
		c0.02-1.103,0.02-2.195,0.06-3.298c0.06-1.704,0.17-3.399,0.22-5.104c0.01-0.401-0.17-0.803-0.22-1.204
		c-0.1-0.711-0.19-1.412-0.25-2.125c-0.07-0.883-0.1-1.773-0.16-2.657c-0.02-0.331-0.07-0.662-0.07-0.982
		c-0.03-2.154-0.02-4.301-0.08-6.457c-0.03-1.153-0.21-2.316-0.27-3.478c-0.06-1.244-0.07-2.497-0.1-3.74
		c-0.02-1.494-0.04-2.979-0.05-4.463c-0.03-1.585-0.02-3.157-0.08-4.741c-0.07-2.057-0.21-4.112-0.27-6.167
		c-0.11-3.219-0.05-6.427,0.32-9.637c0.13-1.112,0.02-2.256,0-3.378c-0.02-0.771-0.05-1.555-0.09-2.326
		c-0.04-0.742-0.11-1.484-0.16-2.225c0-0.092-0.02-0.183-0.02-0.272c0.06-2.716,0.13-5.434,0.19-8.141
		c0.04-1.876,0.27-3.77,0.09-5.624c-0.17-1.685-0.18-3.379-0.37-5.053c-0.29-2.667-0.51-5.344-0.74-8.011
		c-0.19-2.256-0.47-4.512-0.92-6.728c-0.09-0.441-0.24-0.873-0.35-1.303c-0.48-1.985-1.03-3.951-1.36-5.986
		c-0.23-1.404-0.69-2.777-1.16-4.131c-0.3-0.862-0.79-1.665-1.2-2.487c-0.51-1.042-1.02-2.075-1.55-3.108
		c-0.1-0.21-0.21-0.441-0.37-0.612c-1.07-1.062-2.12-2.156-3.26-3.138c-0.5-0.431-1.19-0.672-1.84-0.882
		c-1.19-0.381-2.4-0.692-3.61-0.982c-0.66-0.161-1.34-0.241-2.01-0.331c-1.89-0.25-3.79-0.461-5.67-0.752
		c-0.79-0.121-1.58-0.28-2.25-0.792c-0.18-0.13-0.44-0.181-0.67-0.22c-0.88-0.141-1.77-0.201-2.63-0.412
		c-0.8-0.19-1.57-0.521-2.35-0.792c-0.34-0.121-0.67-0.23-1.01-0.341c-0.25-0.09-0.54-0.11-0.76-0.261
		c-0.97-0.652-2.16-0.632-3.19-1.073c-1.04-0.451-2.15-0.321-3.21-0.602c-1.01-0.271-2.13-0.271-3.18-0.181
		c-1.77,0.161-3.48-0.15-5.17-0.461c-1.72-0.32-3.22-1.213-4.6-2.286c-0.18-0.141-0.37-0.341-0.44-0.552
		c-0.13-0.441-0.36-0.732-0.79-0.892c-0.1-0.04-0.19-0.15-0.25-0.25c-0.89-1.584-1.41-3.289-1.38-5.124c0-0.29,0.1-0.591,0.23-0.862
		c0.65-1.333,1.29-2.677,2.02-3.971c0.47-0.832,1.15-1.534,1.63-2.346c0.81-1.384,2.02-2.336,3.31-3.189
		c0.51-0.34,1.09-0.611,1.67-0.832c0.91-0.351,1.84-0.641,2.77-0.952c0.87-0.281,1.75-0.521,2.61-0.823
		c0.54-0.18,1.06-0.291,1.63-0.34c0.79-0.061,1.55-0.341,2.32-0.542c0.37-0.09,0.74-0.21,1.11-0.311
		c1.69-0.431,3.38-0.912,5.09-1.273c1.54-0.331,3.11-0.521,4.67-0.762c0.84-0.13,1.69-0.241,2.54-0.331
		c0.68-0.08,1.36-0.08,2.04-0.15c1.24-0.13,2.47-0.311,3.71-0.411c0.67-0.05,1.36,0.03,2.03,0.05c0.41,0.01,0.83,0.07,1.24,0.02
		c1.68-0.18,3.36-0.401,5.04-0.602c0.09-0.01,0.18-0.01,0.27-0.02c1.99-0.05,3.98-0.08,5.97-0.151c1.55-0.05,3.08-0.15,4.63-0.19
		c1.36-0.04,2.74-0.16,4.08,0c1.53,0.181,3.02-0.11,4.53-0.06c1.49,0.05,2.98-0.03,4.47,0.01c0.89,0.02,1.77,0.23,2.66,0.261
		c1.82,0.06,3.64,0.07,5.46,0.08c1.45,0.01,2.92,0.091,4.37-0.04c1.65-0.14,3.27-0.01,4.89,0.12c1.75,0.141,3.51,0.181,5.26,0.351
		c2.6,0.271,5.2,0.612,7.8,0.933c1.33,0.17,2.66,0.351,3.98,0.541c1.92,0.271,3.83,0.582,5.75,0.812c1.09,0.12,2.2,0.1,3.29,0.161
		c0.9,0.06,1.78,0.15,2.67,0.201c1.16,0.07,2.32,0.11,3.47,0.18c0.29,0.02,0.58,0.12,0.87,0.16c0.64,0.101,1.29,0.19,1.93,0.271
		c0.2,0.03,0.41,0.01,0.62,0.04c1.76,0.291,3.51,0.652,5.28,0.882c1.47,0.19,2.96,0.23,4.44,0.351c0.47,0.03,0.94,0.11,1.41,0.161
		c1.8,0.22,3.62,0.14,5.4,0.591c1,0.26,2.03,0.411,3.05,0.571c0.77,0.121,1.54,0.19,2.311,0.23c1.939,0.101,3.81,0.521,5.689,1.013
		c1.17,0.3,2.33,0.661,3.52,0.932c0.601,0.13,1.17,0.391,1.771,0.582c0.33,0.1,0.68,0.23,1.021,0.23
		c0.85,0.01,1.639,0.25,2.439,0.521c1.96,0.682,3.93,1.354,5.891,2.045c0.329,0.11,0.639,0.301,0.959,0.451
		c0.271,0.12,0.541,0.251,0.811,0.361c0.41,0.17,0.82,0.331,1.23,0.472c0.68,0.23,1.359,0.451,2.039,0.641
		c1.28,0.361,2.35,1.123,3.53,1.685c1.06,0.501,1.899,1.414,3.09,1.645c0.38,0.07,0.771,0.21,1.14,0.17
		c0.551-0.06,0.971,0.121,1.431,0.361c1.599,0.853,3.21,1.674,4.839,2.457c0.531,0.251,1.131,0.341,1.691,0.511
		c0.09,0.02,0.18,0.03,0.26,0.08c1.15,0.652,2.299,1.324,3.459,1.976c0.33,0.18,0.68,0.331,1.031,0.491
		c0.129,0.07,0.309,0.08,0.398,0.17c0.381,0.371,0.861,0.501,1.342,0.612c1.578,0.331,2.75,1.363,3.959,2.315
		c0.631,0.492,1.279,0.983,1.83,1.564c1.369,1.434,2.859,2.788,3.68,4.662c0.541,1.264,1.16,2.497,1.631,3.78
		c0.359,0.983,0.539,2.045,0.809,3.068c0.281,1.093,0.592,2.186,0.881,3.278c0.061,0.251,0.09,0.521,0.141,0.783
		c0.07,0.441,0.139,0.882,0.209,1.323c0.061,0.321,0.121,0.642,0.16,0.962c0.08,0.591,0.16,1.183,0.23,1.765
		c0.029,0.211,0.029,0.421,0.07,0.622c0.059,0.351,0.109,0.702,0.209,1.033c0.26,0.762,0.531,1.524,0.361,2.356
		c-0.041,0.19-0.061,0.451,0.029,0.601c0.49,0.792,0.379,1.645,0.369,2.507c0,0.391,0.182,0.792,0.371,1.153
		c0.48,0.912,0.93,1.834,0.959,2.897c0.01,0.21-0.039,0.441,0.041,0.612c0.549,1.223,0.639,2.537,0.799,3.83
		c0.061,0.401,0.012,0.822,0.041,1.233c0.109,1.454,0.24,2.898,0.34,4.342c0.02,0.291-0.02,0.591-0.109,0.862
		c-0.23,0.662-0.361,1.324-0.24,2.025c0.17,0.962,0.4,1.925,0.469,2.898c0.131,1.534,0.131,3.078,0.211,4.621
		c0.051,0.973,0.17,1.946,0.24,2.918c0.02,0.23-0.02,0.472-0.02,0.713C213.368,91.215,213.058,92.429,213.407,93.641z"/>
	<polygon fill-rule="evenodd" clip-rule="evenodd" fill="#FFFFFF" points="81.57,117.647 81.022,123.123 82.092,125.662 
		87.245,125.662 90.257,124.518 90.805,121.281 90.556,118.245 	"/>
	<g>
		<path fill-rule="evenodd" clip-rule="evenodd" d="M205.927,202.93c0.131-0.049,0.262-0.096,0.393-0.145
			c0.477-0.184,0.529-0.596,0.562-1.025c0.115-1.512,0.229-3.025,0.355-4.539c0.102-1.217,0.197-2.438,0.334-3.65
			c0.248-2.191,0.508-4.381,0.795-6.568c0.201-1.535,0.518-3.057,0.674-4.596c0.373-3.668,0.621-7.35,1.039-11.012
			c0.201-1.766,0.445-3.535,0.879-5.277c0.285-1.143,0.303-2.357,0.377-3.543c0.049-0.77-0.016-1.547-0.031-2.32
			c-0.004-0.148,0.012-0.311-0.039-0.443c-0.703-1.828-0.428-3.686-0.197-5.547c0.133-1.09,0.246-2.186,0.293-3.281
			c0.061-1.373,0.184-2.723,0.498-4.07c0.232-1.004,0.174-2.074,0.361-3.094c0.146-0.809,0.385-1.627,0.734-2.371
			c0.736-1.572,1.254-3.199,1.66-4.885c0.162-0.67,0.096-1.252,0.027-1.898c-0.156-1.479-0.289-2.969-0.279-4.455
			c0.006-0.871,0.299-1.742,0.465-2.613c0.023-0.117,0.076-0.232,0.078-0.348c0.01-1.072,0.031-2.146,0.014-3.219
			c-0.021-1.254,0.008-2.484,0.355-3.719c0.211-0.75,0.143-1.588,0.133-2.387c-0.014-0.98-0.102-1.959-0.146-2.938
			c-0.006-0.145,0.029-0.297,0.07-0.438c0.518-1.74,0.459-3.518,0.361-5.299c-0.061-1.072-0.102-2.133,0.316-3.166
			c0.455-1.123,0.244-2.295,0.15-3.453c-0.049-0.59-0.135-1.18-0.154-1.77c-0.029-0.986,0.076-1.936,0.492-2.873
			c0.635-1.424,0.609-2.955,0.424-4.482c-0.025-0.205-0.072-0.422-0.035-0.619c0.256-1.307,0.025-2.607-0.031-3.91
			c-0.047-1.1-0.143-2.199-0.15-3.301c-0.012-1.676-0.203-3.328-0.555-4.963c-0.223-1.033-0.238-2.056-0.033-3.106
			c0.238-1.227,0.357-2.47,0.088-3.727c-0.123-0.565-0.186-1.173-0.119-1.743c0.156-1.341-0.207-2.604-0.447-3.888
			c-0.18-0.966-0.369-1.931-0.568-2.894c-0.209-1.017-0.385-2.028-0.73-3.029c-0.381-1.105-0.414-2.331-0.613-3.501
			c-0.148-0.871-0.268-1.753-0.498-2.603c-0.18-0.664-0.264-1.322-0.346-2.001c-0.156-1.297-0.428-2.585-0.713-3.863
			c-0.279-1.246-0.635-2.474-0.957-3.71c-0.014-0.058-0.031-0.116-0.037-0.175c-0.16-1.863-0.852-3.59-1.43-5.338
			c-0.322-0.975-0.811-1.91-1.332-2.8c-0.844-1.439-1.904-2.727-3.021-3.969s-2.414-2.276-3.717-3.303
			c-0.865-0.681-1.742-1.346-2.643-1.979c-0.283-0.199-0.66-0.259-0.986-0.4c-1.062-0.462-2.148-0.879-3.174-1.412
			c-1.902-0.987-3.736-2.097-5.744-2.892c-1.291-0.51-2.486-1.26-3.709-1.93c-0.66-0.361-1.33-0.68-2.08-0.759
			c-1.381-0.146-2.543-0.846-3.688-1.517c-1.129-0.662-2.248-1.302-3.484-1.757c-2.535-0.934-5.029-1.986-7.574-2.889
			c-1.73-0.613-3.518-1.066-5.285-1.569c-1.346-0.383-2.697-0.751-4.055-1.091c-1.154-0.29-2.264-0.729-3.4-1.047
			c-1.414-0.396-2.877-0.642-4.346-0.818c-1.441-0.173-2.877-0.418-4.314-0.627c-0.295-0.043-0.596-0.053-0.889-0.099
			c-1.145-0.181-2.284-0.418-3.434-0.547c-1.889-0.21-3.785-0.342-5.676-0.531c-0.467-0.047-0.951-0.335-1.381-0.256
			c-0.795,0.147-1.539-0.087-2.299-0.142c-1.178-0.085-2.344-0.356-3.518-0.537c-0.35-0.054-0.709-0.051-1.061-0.1
			c-1.826-0.252-3.65-0.53-5.479-0.761c-0.791-0.1-1.594-0.104-2.391-0.159c-1.842-0.126-3.684-0.231-5.521-0.394
			c-0.947-0.084-1.885-0.281-2.828-0.415c-3.322-0.47-6.643-0.97-9.971-1.392c-2.982-0.378-5.973-0.71-8.967-0.98
			c-1.537-0.139-3.09-0.106-4.637-0.141c-1.129-0.026-2.258-0.053-3.389-0.046c-0.83,0.005-1.66,0.069-2.49,0.1
			c-1.49,0.055-2.967-0.134-4.449-0.247c-1.148-0.086-2.297-0.129-3.438-0.317c-0.293-0.048-0.617,0.15-0.928,0.151
			c-1.752,0.002-3.506-0.037-5.26-0.032c-1.307,0.004-2.615,0.065-3.922,0.078c-1.189,0.012-2.379-0.021-3.566-0.01
			c-1.338,0.012-2.678,0.055-4.016,0.076c-1.453,0.022-2.904,0.035-4.357,0.054c-0.299,0.004-0.598-0.002-0.893,0.033
			c-2.689,0.323-5.385,0.492-8.094,0.566c-2.883,0.08-5.762,0.34-8.637,0.576c-1.631,0.134-3.268,0.296-4.873,0.595
			c-1.633,0.304-3.23,0.798-4.846,1.196c-1.07,0.264-2.148,0.495-3.217,0.76c-1.295,0.32-2.586,0.663-3.879,0.991
			c-0.947,0.241-1.887,0.541-2.848,0.699c-1.582,0.26-2.984,1.015-4.469,1.532c-1.01,0.351-1.98,0.822-2.938,1.3
			c-0.416,0.208-0.846,0.504-1.113,0.873c-1.254,1.728-2.811,3.223-3.861,5.107c-0.562,1.006-1.285,1.925-1.818,2.943
			c-0.492,0.938-0.822,1.961-1.238,2.94c-1.045,2.454-0.613,4.817,0.352,7.182c0.322,0.786,0.699,1.513,1.262,2.136
			c0.336,0.372,0.697,0.728,1.086,1.042c0.852,0.688,1.697,1.394,2.605,2.001c0.658,0.442,1.383,0.85,2.137,1.075
			c1.395,0.417,2.828,0.711,4.256,1.006c0.424,0.088,0.885-0.017,1.328,0.01c1.473,0.088,2.943,0.187,4.414,0.297
			c2.242,0.169,4.385,0.732,6.484,1.531c1.471,0.56,2.953,1.148,4.482,1.479c1.734,0.374,3.363,1.107,5.115,1.369
			c1.613,0.241,3.236,0.426,4.857,0.616c1.516,0.178,2.971,0.61,4.426,1.042c0.625,0.186,1.24,0.427,1.879,0.534
			c0.51,0.085,0.918,0.333,1.232,0.661c0.924,0.964,1.963,1.883,2.621,3.015c0.566,0.97,1.088,2.014,1.5,3.085
			c0.074,0.193,0.129,0.406,0.248,0.568c0.686,0.938,1.002,2.033,1.275,3.126c0.527,2.103,0.982,4.224,1.467,6.337
			c0.324,1.422,0.727,2.832,0.957,4.269c0.322,2.026,0.738,4.037,0.785,6.111c0.041,1.898,0.338,3.79,0.49,5.688
			c0.146,1.806,0.266,3.617,0.365,5.429c0.188,3.363-0.09,6.725-0.09,10.09c0.002,2.68,0.027,5.359,0.082,8.039
			c0.053,2.623-0.113,5.234-0.264,7.85c-0.098,1.68,0.064,3.375,0.107,5.064c0.041,1.695,0.076,3.393,0.113,5.09
			c0.016,0.803-0.016,1.609,0.051,2.408c0.146,1.805,0.154,3.607,0.062,5.416c-0.045,0.854,0.057,1.715,0.098,2.572
			c0.074,1.631,0.141,3.262,0.236,4.891c0.053,0.887,0.166,1.77,0.242,2.654c0.02,0.234,0.008,0.473,0.01,0.709
			c0.01,1.098,0.002,2.197,0.033,3.295c0.023,0.771,0.09,1.543,0.16,2.314c0.072,0.828,0.211,1.652,0.252,2.482
			c0.049,1.035,0.057,2.076,0.029,3.113c-0.033,1.25-0.137,2.5-0.18,3.75c-0.035,1.07,0.047,2.148-0.055,3.211
			c-0.213,2.25-0.504,4.494-0.783,6.738c-0.057,0.449-0.035,0.854,0.062,1.309c0.137,0.615,0.123,1.289,0.041,1.922
			c-0.254,1.945-0.66,3.873-0.566,5.854c0.135,2.904-0.295,5.768-0.648,8.637c-0.176,1.418-0.354,2.836-0.58,4.248
			c-0.23,1.438-0.514,2.865-0.785,4.295c-0.139,0.73,0.342,1.445,1.066,1.547c0.266,0.037,0.533,0.074,0.801,0.076
			c0.762,0.002,1.279-0.223,1.676-1.018c0.449-0.895,0.469-1.812,0.609-2.73c0.113-0.734,0.088-1.492,0.238-2.217
			c0.379-1.811,0.666-3.621,0.697-5.48c0.02-1.238,0.266-2.469,0.371-3.707c0.111-1.293,0.184-2.59,0.26-3.885
			c0.092-1.578,0.217-3.156,0.242-4.734c0.02-1.396,0.48-2.678,0.842-3.99c0.07-0.254,0.184-0.607,0.072-0.779
			c-0.354-0.539-0.049-1.012,0-1.521c0.078-0.826,0.057-1.66,0.072-2.49c0.021-1.098,0.018-2.195,0.059-3.291
			c0.062-1.697,0.17-3.391,0.217-5.088c0.012-0.4-0.164-0.803-0.221-1.207c-0.098-0.705-0.189-1.41-0.246-2.117
			c-0.072-0.883-0.104-1.768-0.156-2.652c-0.02-0.326-0.072-0.652-0.076-0.979c-0.027-2.145-0.016-4.289-0.076-6.434
			c-0.033-1.158-0.209-2.311-0.27-3.471c-0.064-1.244-0.076-2.49-0.098-3.736c-0.027-1.482-0.039-2.967-0.059-4.449
			c-0.021-1.576-0.016-3.152-0.07-4.727c-0.07-2.051-0.213-4.1-0.279-6.15c-0.102-3.211-0.043-6.414,0.326-9.613
			c0.129-1.107,0.018-2.244-0.004-3.367c-0.014-0.773-0.049-1.549-0.09-2.324c-0.041-0.74-0.104-1.48-0.154-2.221
			c-0.008-0.088-0.023-0.178-0.021-0.266c0.062-2.709,0.123-5.416,0.189-8.123c0.043-1.869,0.27-3.756,0.088-5.604
			c-0.168-1.682-0.176-3.369-0.365-5.048c-0.299-2.656-0.518-5.321-0.746-7.984c-0.191-2.254-0.471-4.497-0.918-6.715
			c-0.088-0.438-0.24-0.862-0.346-1.296c-0.484-1.982-1.033-3.945-1.363-5.969c-0.229-1.4-0.695-2.771-1.16-4.118
			c-0.299-0.864-0.787-1.662-1.197-2.487c-0.514-1.035-1.027-2.068-1.551-3.099c-0.107-0.212-0.213-0.442-0.377-0.605
			c-1.07-1.062-2.111-2.158-3.254-3.135c-0.5-0.427-1.195-0.671-1.84-0.877c-1.189-0.378-2.4-0.69-3.615-0.984
			c-0.658-0.159-1.338-0.236-2.012-0.326c-1.889-0.251-3.783-0.463-5.668-0.748c-0.785-0.119-1.578-0.287-2.25-0.791
			c-0.18-0.134-0.438-0.187-0.668-0.224c-0.877-0.141-1.77-0.201-2.631-0.405c-0.803-0.19-1.57-0.526-2.354-0.796
			c-0.332-0.115-0.668-0.228-1.002-0.339c-0.254-0.084-0.547-0.111-0.76-0.255c-0.973-0.657-2.168-0.632-3.191-1.071
			c-1.045-0.449-2.154-0.323-3.217-0.604c-1.008-0.266-2.127-0.272-3.178-0.179c-1.764,0.157-3.473-0.145-5.17-0.462
			c-1.721-0.321-3.217-1.209-4.596-2.275c-0.184-0.141-0.375-0.341-0.439-0.551c-0.133-0.437-0.363-0.732-0.793-0.889
			c-0.1-0.037-0.189-0.151-0.246-0.251c-0.896-1.584-1.418-3.276-1.385-5.11c0.004-0.288,0.1-0.595,0.229-0.856
			c0.656-1.332,1.291-2.677,2.023-3.967c0.467-0.823,1.148-1.523,1.629-2.34c0.811-1.38,2.02-2.322,3.309-3.177
			c0.516-0.341,1.092-0.608,1.67-0.831c0.912-0.35,1.846-0.642,2.775-0.945c0.867-0.282,1.744-0.529,2.607-0.823
			c0.535-0.183,1.061-0.291,1.633-0.336c0.783-0.062,1.547-0.346,2.318-0.542c0.371-0.095,0.738-0.213,1.109-0.309
			c1.693-0.433,3.377-0.916,5.084-1.275c1.541-0.324,3.111-0.518,4.67-0.756c0.846-0.129,1.693-0.247,2.543-0.338
			c0.678-0.072,1.363-0.076,2.041-0.145c1.238-0.126,2.475-0.309,3.715-0.406c0.67-0.052,1.352,0.026,2.027,0.044
			c0.412,0.012,0.832,0.067,1.238,0.022c1.682-0.185,3.361-0.4,5.041-0.604c0.088-0.011,0.178-0.012,0.268-0.015
			c1.992-0.05,3.984-0.088,5.977-0.152c1.541-0.049,3.08-0.148,4.623-0.19c1.361-0.038,2.742-0.162,4.086-0.002
			c1.525,0.182,3.016-0.105,4.525-0.056c1.488,0.049,2.982-0.035,4.473,0.006c0.889,0.024,1.771,0.229,2.662,0.259
			c1.814,0.062,3.633,0.07,5.451,0.083c1.459,0.01,2.928,0.09,4.375-0.038c1.646-0.146,3.266-0.012,4.895,0.118
			c1.75,0.138,3.508,0.174,5.254,0.352c2.604,0.265,5.201,0.609,7.799,0.931c1.33,0.165,2.658,0.347,3.986,0.534
			c1.914,0.269,3.824,0.584,5.744,0.809c1.09,0.127,2.197,0.104,3.295,0.167c0.893,0.051,1.781,0.142,2.672,0.195
			c1.154,0.068,2.311,0.108,3.465,0.179c0.293,0.018,0.578,0.117,0.871,0.161c0.641,0.098,1.285,0.189,1.928,0.273
			c0.205,0.027,0.416,0.004,0.619,0.038c1.76,0.293,3.512,0.646,5.279,0.875c1.471,0.19,2.961,0.231,4.441,0.35
			c0.475,0.038,0.943,0.11,1.416,0.167c1.795,0.216,3.619,0.135,5.393,0.591c1.002,0.257,2.033,0.41,3.057,0.566
			c0.764,0.116,1.537,0.193,2.309,0.232c1.939,0.098,3.809,0.52,5.688,1.008c1.17,0.304,2.332,0.663,3.516,0.926
			c0.604,0.134,1.178,0.396,1.771,0.58c0.336,0.104,0.682,0.237,1.023,0.238c0.854,0.001,1.645,0.243,2.436,0.515
			c1.965,0.676,3.932,1.35,5.893,2.038c0.334,0.117,0.643,0.302,0.963,0.451c0.27,0.124,0.537,0.25,0.811,0.361
			c0.406,0.166,0.814,0.335,1.23,0.475c0.676,0.227,1.355,0.446,2.041,0.64c1.273,0.359,2.35,1.116,3.523,1.672
			c1.062,0.503,1.904,1.411,3.098,1.644c0.379,0.074,0.77,0.209,1.141,0.167c0.547-0.062,0.967,0.124,1.43,0.368
			c1.596,0.845,3.207,1.665,4.836,2.442c0.525,0.251,1.125,0.345,1.691,0.511c0.086,0.025,0.182,0.035,0.256,0.078
			c1.156,0.656,2.305,1.321,3.461,1.972c0.332,0.186,0.682,0.337,1.027,0.497c0.135,0.062,0.312,0.071,0.408,0.166
			c0.377,0.369,0.854,0.502,1.34,0.606c1.576,0.334,2.746,1.359,3.955,2.31c0.631,0.496,1.279,0.985,1.832,1.562
			c1.371,1.433,2.859,2.781,3.676,4.657c0.545,1.255,1.164,2.483,1.635,3.765c0.359,0.985,0.535,2.038,0.805,3.057
			c0.287,1.092,0.592,2.179,0.879,3.271c0.068,0.257,0.098,0.524,0.143,0.788c0.074,0.438,0.145,0.875,0.217,1.313
			c0.053,0.322,0.113,0.642,0.158,0.965c0.082,0.586,0.156,1.173,0.23,1.76c0.027,0.206,0.027,0.415,0.062,0.619
			c0.062,0.344,0.109,0.696,0.219,1.025c0.254,0.765,0.521,1.519,0.355,2.349c-0.039,0.195-0.064,0.452,0.029,0.603
			c0.49,0.791,0.377,1.643,0.371,2.504c-0.002,0.382,0.184,0.791,0.367,1.143c0.48,0.916,0.93,1.834,0.967,2.895
			c0.008,0.205-0.043,0.438,0.035,0.612c0.547,1.215,0.637,2.523,0.805,3.814c0.053,0.406,0.008,0.824,0.039,1.234
			c0.107,1.444,0.24,2.888,0.338,4.333c0.02,0.283-0.021,0.589-0.115,0.856c-0.229,0.66-0.354,1.32-0.232,2.018
			c0.168,0.962,0.393,1.919,0.471,2.89c0.121,1.531,0.123,3.072,0.207,4.607c0.053,0.973,0.168,1.943,0.242,2.916
			c0.018,0.232-0.021,0.471-0.023,0.705c0,1.211-0.307,2.424,0.039,3.635c0.062,0.217,0.018,0.473-0.002,0.707
			c-0.113,1.365-0.24,2.717-0.701,4.033c-0.357,1.02-0.283,2.121-0.213,3.195c0.037,0.588,0.16,1.172,0.164,1.758
			c0.004,0.65,0.02,1.328-0.148,1.945c-0.453,1.645-0.504,3.295-0.271,4.963c0.176,1.264-0.074,2.473-0.334,3.693
			c-0.107,0.516-0.203,1.074-0.117,1.58c0.295,1.723,0.398,3.439-0.084,5.127c-0.355,1.246-0.217,2.492-0.154,3.73
			c0.057,1.145-0.08,2.258-0.264,3.369c-0.295,1.77-0.389,3.523-0.117,5.314c0.131,0.865,0.012,1.777-0.064,2.662
			c-0.072,0.824-0.168,1.658-0.383,2.455c-0.189,0.703-0.49,1.398-0.863,2.027c-0.674,1.133-0.912,2.357-1,3.639
			c-0.086,1.248-0.143,2.51-0.658,3.674c-0.391,0.881-0.172,1.771-0.086,2.641c0.207,2.117,0.102,4.215-0.133,6.318
			c-0.061,0.527-0.01,1.072,0.039,1.605c0.047,0.525-0.018,1.004-0.303,1.455c-0.381,0.602-0.555,1.229-0.346,1.957
			c0.104,0.361,0.084,0.775,0.043,1.156c-0.135,1.27-0.311,2.535-0.463,3.803c-0.049,0.412-0.047,0.832-0.107,1.242
			c-0.244,1.619-0.541,3.23-0.746,4.854c-0.16,1.27-0.213,2.551-0.312,3.828c-0.008,0.119,0.01,0.238-0.004,0.357
			c-0.18,1.746-0.352,3.494-0.547,5.24c-0.152,1.359-0.314,2.719-0.51,4.072c-0.16,1.115-0.418,2.217-0.559,3.332
			c-0.215,1.715-0.35,3.441-0.547,5.158c-0.279,2.426-0.6,4.846-0.867,7.271"/>
		<path fill-rule="evenodd" clip-rule="evenodd" d="M169.173,170.757c-0.193-0.291-0.365-0.465-0.438-0.676
			c-0.334-0.984-0.623-1.984-0.965-2.967c-0.439-1.264-0.943-2.508-1.359-3.779c-0.324-0.988-0.545-2.01-0.836-3.01
			c-0.1-0.338-0.273-0.654-0.418-0.979c-0.562-1.262-1.002-2.562-0.904-3.963c0.121-1.766-0.525-3.266-1.504-4.656
			c-1.318-1.875-2.475-3.828-3.279-5.99c-0.412-1.109-1.051-2.135-1.463-3.246c-0.74-2-1.383-4.037-2.076-6.057
			c-0.096-0.277-0.211-0.562-0.383-0.797c-0.553-0.754-1.055-0.781-1.758-0.137c-0.023,0.02-0.037,0.051-0.062,0.064
			c-1.143,0.664-1.174,0.932-0.676,2.551c0.51,1.65,0.896,3.342,1.48,4.963c0.604,1.674,1.377,3.285,2.082,4.922
			c0.211,0.492,0.477,0.967,0.65,1.471c0.367,1.064,1.072,1.895,1.719,2.787c0.887,1.227,1.562,2.559,1.648,4.15
			c0.098,1.758,0.41,3.486,1.23,5.088c0.424,0.826,0.564,1.736,0.75,2.645c0.189,0.918,0.615,1.795,0.992,2.666
			c0.367,0.844,0.826,1.648,0.84,2.607c0.002,0.199,0.096,0.408,0.188,0.594c0.521,1.062,1.061,2.115,1.582,3.178
			c0.246,0.506,0.449,1.031,0.695,1.537c0.549,1.129,1.582,1.545,2.717,1.779c0.152,0.033,0.35-0.049,0.496-0.129
			c0.205-0.115,0.365-0.318,0.576-0.416c1.08-0.502,1.412-1.465,1.541-2.523c0.197-1.625,0.365-3.254,0.512-4.885
			c0.102-1.125,0.109-2.258,0.223-3.379c0.082-0.797,0.289-1.578,0.41-2.371c0.342-2.236,0.68-4.473,1.002-6.713
			c0.27-1.885,0.625-3.781,0.324-5.684c-0.268-1.699-0.322-3.422-0.795-5.105c-0.625-2.232-1.012-4.531-1.59-6.779
			c-0.506-1.959-1.203-3.869-1.689-5.834c-0.406-1.637-1.33-3.049-1.803-4.654c-0.266-0.904-0.891-1.311-1.373-1.166
			c-0.822,0.246-1.324,1.141-1.373,1.957c-0.076,1.273,0.574,2.287,1.027,3.361c0.559,1.328,0.824,2.729,1.219,4.096
			c0.42,1.449,0.812,2.908,1.195,4.367c0.145,0.547,0.215,1.109,0.346,1.658c0.381,1.611,0.861,3.205,1.141,4.832
			c0.285,1.666,0.406,3.363,0.547,5.051c0.176,2.131-0.289,4.209-0.596,6.301c-0.299,2.031-0.566,4.068-0.846,6.104
			c-0.088,0.648-0.182,1.297-0.248,1.949c-0.164,1.619-0.311,3.24-0.473,4.859C169.392,170.476,169.312,170.542,169.173,170.757z"/>
		<path fill-rule="evenodd" clip-rule="evenodd" d="M89.213,176.841c-1.348-0.234-1.945-1.277-2.656-2.109
			c-0.998-1.164-1.938-2.396-2.754-3.691c-0.531-0.84-0.805-1.846-1.191-2.777c-0.744-1.797-1.025-3.695-1.355-5.598
			c-0.236-1.365-0.793-2.672-1.162-4.018c-0.281-1.027-0.453-2.08-0.438-3.156c0.021-1.623-0.229-3.211-0.738-4.744
			c-0.459-1.377-1.02-2.719-1.49-4.09c-0.262-0.76-0.422-1.551-0.648-2.32c-0.074-0.256-0.188-0.504-0.322-0.732
			c-0.428-0.723-1.828-0.895-2.309-0.225c-0.412,0.57-0.752,1.244-0.568,2c0.271,1.129,0.549,2.258,0.891,3.365
			c0.367,1.195,0.906,2.342,1.195,3.553c0.258,1.086,0.277,2.229,0.398,3.346c0.09,0.824,0.102,1.666,0.283,2.471
			c0.246,1.1,0.629,2.166,0.938,3.252c0.219,0.773,0.475,1.543,0.6,2.332c0.359,2.246,0.943,4.428,1.824,6.52
			c0.859,2.041,2.1,3.854,3.561,5.514c0.645,0.732,1.328,1.434,1.945,2.188c0.467,0.57,0.982,0.988,1.717,1.18
			c0.654,0.172,1.264,0.521,1.916,0.703c0.447,0.125,0.939,0.15,1.406,0.129c1.336-0.062,1.926-1.049,2.436-2.088
			c0.408-0.832,0.75-1.684,0.445-2.65c-0.068-0.219-0.031-0.477-0.016-0.713c0.119-1.648-0.305-3.256-0.369-4.891
			c-0.018-0.414-0.055-0.826-0.051-1.24c0.008-1.838,0.051-3.676,0.035-5.514c-0.012-1.398-0.152-2.795-0.129-4.191
			c0.021-1.154,0.168-2.309,0.314-3.457c0.191-1.508,0.414-3.012,0.666-4.51c0.188-1.113,0.432-2.219,0.67-3.324
			c0.105-0.492-0.43-1.252-1.014-1.316c-0.375-0.041-0.822-0.107-1.125,0.049c-0.545,0.283-1.018,0.713-1.492,1.113
			c-0.115,0.098-0.152,0.324-0.168,0.496c-0.08,0.914-0.145,1.83-0.213,2.746c-0.008,0.09,0.014,0.186-0.012,0.268
			c-0.379,1.225-0.594,2.488-0.688,3.754c-0.105,1.41-0.582,2.768-0.516,4.199c0.09,1.902,0.168,3.805,0.197,5.709
			c0.021,1.455-0.061,2.914-0.055,4.369c0.002,0.682,0.096,1.363,0.156,2.043c0.084,0.916,0.188,1.832,0.26,2.75
			c0.057,0.74,0.135,1.486,0.086,2.221C89.651,176.132,89.37,176.493,89.213,176.841z"/>
		<path fill-rule="evenodd" clip-rule="evenodd" d="M193.362,34.099c-0.561,0.024-1.076,0.047-1.723,0.076
			c-0.25,0.42-0.785,0.879-0.715,1.595c0.047,0.47,0.16,0.944,0.32,1.389c0.674,1.87,0.904,3.812,1.023,5.78
			c0.039,0.651,0.18,1.296,0.264,1.944c0.027,0.203,0.031,0.411,0.023,0.616c-0.006,0.208-0.09,0.424-0.053,0.62
			c0.367,1.906-0.072,3.793-0.109,5.689c-0.004,0.268-0.061,0.537-0.045,0.802c0.037,0.615,0.582,0.893,1.15,0.627
			c0.469-0.219,0.762-0.598,0.891-1.063c0.229-0.819,0.406-1.654,0.58-2.487c0.412-1.977,0.209-3.975,0.174-5.965
			c-0.014-0.859-0.098-1.718-0.135-2.578c-0.1-2.373-0.693-4.635-1.521-6.846C193.468,34.244,193.425,34.198,193.362,34.099z"/>
		<path fill-rule="evenodd" clip-rule="evenodd" d="M186.173,37.624c-0.104-0.671-0.199-1.589-0.391-2.487
			c-0.215-1.009-0.828-1.413-1.643-1.18c-0.873,0.249-1.387,1.173-1.154,2.008c0.191,0.686,0.334,1.386,0.496,2.08
			c0.014,0.058,0.023,0.121,0.014,0.177c-0.207,1.037-0.373,2.084-0.641,3.105c-0.178,0.686-0.48,1.343-0.764,1.998
			c-0.113,0.265-0.273,0.617-0.5,0.706c-0.533,0.208-0.639,0.758-1.021,1.074c-0.26,0.214-0.262,0.523-0.066,0.808
			c0.178,0.262,0.424,0.235,0.713,0.204c1.617-0.176,2.52-1.173,3.307-2.516c0.719-1.225,1.043-2.548,1.432-3.863
			C186.126,39.15,186.089,38.5,186.173,37.624z"/>
		<path fill-rule="evenodd" clip-rule="evenodd" d="M178.345,30.414c-1.045,0.778-1.748,1.666-2.041,2.96
			c-0.23,1.025-0.822,1.971-1.266,2.946c-0.393,0.867-0.812,1.705-1.482,2.42c-0.277,0.298-0.346,0.812-0.455,1.242
			c-0.08,0.313,0.258,0.724,0.619,0.716c0.342-0.007,0.734-0.06,1.006-0.241c0.438-0.292,0.848-0.665,1.178-1.077
			c1.137-1.423,2.133-2.941,2.814-4.642c0.418-1.042,0.824-2.089,1.182-3.152c0.268-0.798,0.109-0.973-0.727-1.031
			C178.909,30.536,178.647,30.467,178.345,30.414z"/>
		<path fill-rule="evenodd" clip-rule="evenodd" d="M14.793,18.372c-1.424,0.574-1.723,0.997-1.721,2.454
			c0,0.768-0.016,1.539,0.043,2.304c0.059,0.789,0.6,1.351,1.109,1.886c0.178,0.187,0.543,0.186,0.811,0.298
			c0.988,0.412,1.625,0.071,2.217-0.797c0.65-0.952,0.943-2.422,0.352-3.438c-0.52-0.891-1.062-1.795-2.115-2.209
			C15.225,18.767,15.014,18.533,14.793,18.372z"/>
		<path fill-rule="evenodd" clip-rule="evenodd" d="M28.459,24.12c-0.096-0.602-0.16-1.101-0.258-1.593
			c-0.082-0.423-0.096-0.916-0.332-1.236c-0.24-0.325-0.721-0.471-1.088-0.708c-0.586-0.38-1.803-0.052-2.309,0.601
			c-0.416,0.535-0.531,1.155-0.406,1.768c0.225,1.101,0.488,2.214,1.279,3.079c0.225,0.248,0.559,0.413,0.869,0.563
			c0.326,0.16,0.635,0.046,0.891-0.201c0.322-0.309,0.729-0.567,0.939-0.938C28.284,25.039,28.344,24.521,28.459,24.12z"/>
		<path fill-rule="evenodd" clip-rule="evenodd" fill="none" d="M82.551,119.399c0,1.352-0.021,2.596,0.008,3.84
			c0.014,0.545,0.629,0.977,1.238,0.846c0.771-0.166,1.523-0.426,2.285-0.641c0.137-0.039,0.279-0.076,0.42-0.08
			c0.768-0.014,1.537,0.006,2.303-0.033c0.602-0.029,0.682-0.143,0.75-0.758c0.08-0.703,0.205-1.406,0.219-2.109
			c0.014-0.695-0.23-0.941-0.881-0.957c-1.246-0.031-2.494-0.004-3.74-0.031c-0.502-0.01-1.002-0.123-1.504-0.143
			C83.276,119.317,82.901,119.376,82.551,119.399z"/>
		<path fill-rule="evenodd" clip-rule="evenodd" d="M75.69,118.034c-1.166-0.299-2.354-0.246-3.531-0.34
			c-0.234-0.02-0.516-0.047-0.701,0.059c-0.426,0.248-0.867,0.117-1.299,0.174c-0.781,0.105-1.203-0.393-1.48-0.92
			c-0.271-0.52-0.119-1.182,0.33-1.566c0.713-0.613,1.465-1.203,2.48-1.293c1.416-0.125,2.785,0.188,4.168,0.387
			c0.436,0.062,0.867,0.158,1.299,0.252c0.605,0.133,1.209,0.277,1.814,0.412c0.23,0.051,0.463,0.09,0.697,0.129
			c0.52,0.088,1.039,0.215,1.562,0.248c0.621,0.039,1.215,0.049,1.828,0.279c0.742,0.275,1.559,0.43,2.352,0.469
			c1.355,0.068,2.715-0.02,4.072,0.004c1.545,0.027,3.088,0.092,4.631,0.164c1.99,0.094,3.982,0.176,5.967,0.334
			c0.885,0.07,1.762,0.279,2.625,0.496c0.748,0.188,0.951,0.604,0.881,1.514c-0.041,0.512-0.371,0.785-1.072,0.848
			c-0.326,0.029-0.656,0.027-0.982,0.008c-1.012-0.064-2.021-0.217-3.029-0.203c-1.574,0.021-3.148,0.143-4.723,0.234
			c-0.697,0.041-0.748,0.092-0.814,0.781c-0.09,0.943-0.078,1.9-0.457,2.801c-0.066,0.158-0.049,0.352-0.07,0.529
			c-0.127,0.986-0.82,1.615-1.469,2.256c-0.221,0.219-0.559,0.41-0.859,0.439c-0.795,0.074-1.6,0.047-2.4,0.072
			c-0.471,0.016-0.953,0.002-1.41,0.102c-1.012,0.217-2.006,0.521-3.02,0.734c-0.289,0.062-0.621-0.043-0.924-0.113
			c-0.652-0.15-1.346-0.246-1.641-1c-0.023-0.061-0.148-0.096-0.234-0.115c-0.576-0.143-0.678-0.518-0.672-1.076
			c0.012-1.039,0.031-2.104-0.172-3.113c-0.213-1.059-0.051-2.104-0.211-3.225C78.049,118.546,76.858,118.333,75.69,118.034z
			 M82.559,123.239c0.014,0.545,0.629,0.977,1.238,0.846c0.771-0.166,1.523-0.426,2.285-0.641c0.137-0.039,0.279-0.076,0.42-0.08
			c0.768-0.014,1.537,0.006,2.303-0.033c0.602-0.029,0.682-0.143,0.75-0.758c0.08-0.703,0.205-1.406,0.219-2.109
			c0.014-0.695-0.23-0.941-0.881-0.957c-1.246-0.031-2.494-0.004-3.74-0.031c-0.502-0.01-1.002-0.123-1.504-0.143
			c-0.373-0.016-0.748,0.043-1.098,0.066C82.551,120.751,82.53,121.995,82.559,123.239z"/>
	</g>
</g>
<g id="_x33_.psd">
	
		<image overflow="visible" width="1704" height="2171" id="_x33_" xlink:href="8A545F1D965600F5.jpg"  transform="matrix(1.430986e-09 -0.12 0.12 1.430986e-09 272.2275 -373.2363)">
	</image>
</g>
<g>
	<path fill="#F44642" d="M552.067,160.685c0.121,1.681,0.081,3.352-0.142,5.032c-0.262,1.996-0.523,4.023-0.483,6.03
		c0.03,1.69-0.333,3.288-0.464,4.937c-0.121,1.377-0.383,2.732-0.435,4.107c-0.079,2.007,0,4.024-0.039,6.041
		c-0.021,1.356-0.111,2.711-0.202,4.056c-0.021,0.325-0.232,0.651-0.223,0.966c0.052,1.46,0.152,2.911,0.223,4.371
		c0.041,0.651,0.081,1.303,0.101,1.954c0.021,0.788,0.041,1.576,0.041,2.364c-0.011,0.766-0.202,1.575-0.041,2.3
		c0.111,0.525,0.313,1.03,0.535,1.523H412.236c-0.121-0.925-0.272-1.849-0.363-2.773c-0.121-1.198-0.161-2.396-0.212-3.603
		c-0.1-2.249-0.252-4.519-0.231-6.767c0.021-2.752,0.212-5.505,0.322-8.257c0.03-0.83,0.062-1.66,0.071-2.49
		c0.01-1.839,0.03-3.677,0-5.516c-0.02-1.46-0.131-2.909-0.202-4.369c-0.04-0.81-0.091-1.619-0.131-2.428
		c-0.05-0.945-0.091-1.891-0.131-2.837c-0.03-0.914-0.051-1.849-0.111-2.763c-0.061-1.081-0.212-2.164-0.252-3.246
		c-0.041-1.104,0.011-2.217,0.011-3.319c0.02-2.869,0.029-5.736,0.06-8.615c0.021-1.796,0.071-3.593,0.111-5.379
		c0.041-1.586,0.101-3.162,0.11-4.748c0.021-1.975,0-3.95,0-5.926c0-0.851,0-1.701,0-2.542c-0.01-1.135-0.01-2.27-0.01-3.393
		c-0.01-0.379-0.04-0.757-0.07-1.125c-0.091-1.008,0.252-2.027-0.101-3.035c-0.071-0.211-0.071-0.474-0.021-0.704
		c0.384-1.828-0.021-3.646,0-5.474c0.011-0.883-0.101-1.775-0.142-2.658c-0.091-1.817-0.19-3.624-0.242-5.441
		c-0.02-1.04,0.052-2.091,0.081-3.131c0.03-0.809,0.102-1.606,0.091-2.406c-0.021-0.924-0.131-1.858-0.151-2.793
		c-0.03-1.272-0.201-2.502-0.766-3.677c-0.444-0.946-0.878-1.913-1.13-2.922c-0.413-1.617-1.543-2.51-2.783-3.257
		c-1.039-0.63-2.259-0.609-3.438-0.734c-0.424-0.043-0.827-0.295-1.251-0.316c-0.656-0.03-1.311,0.063-1.967,0.095
		c-0.282,0.01-0.585,0.063-0.847,0c-0.816-0.199-1.624-0.431-2.44-0.661c-0.656-0.189-1.311-0.367-1.957-0.578
		c-0.826-0.283-1.653-0.6-2.48-0.883c-0.282-0.094-0.604-0.104-0.866-0.231c-0.949-0.462-1.896-0.893-2.976-0.903
		c-0.354,0-0.706,0-1.039-0.094c-1.432-0.399-2.854-0.799-4.255-1.283c-0.807-0.283-1.563-0.713-2.33-1.112
		c-0.231-0.116-0.453-0.284-0.636-0.483c-0.493-0.546-0.978-1.103-1.441-1.67c-0.948-1.177-1.644-2.458-1.281-4.086
		c0.061-0.305,0.313-0.63,0.252-0.893c-0.039-0.189-0.039-0.368-0.01-0.536c0.091-0.557,0.475-1.02,0.565-1.565
		c0.06-0.441,0.292-0.893,0.533-1.271c0.414-0.62,0.979-1.135,1.332-1.775c0.353-0.662,0.856-1.092,1.401-1.523
		c0.727-0.557,1.412-1.167,2.148-1.691c1.169-0.83,2.349-1.649,3.58-2.374c0.987-0.599,2.036-1.083,3.085-1.566
		c0.969-0.441,1.977-0.809,2.956-1.218c0.604-0.263,1.209-0.536,1.814-0.83c0.202-0.095,0.353-0.294,0.555-0.368
		c0.928-0.357,1.876-0.662,2.804-1.029c0.424-0.158,0.786-0.494,1.209-0.63c0.868-0.294,1.755-0.536,2.643-0.746
		c0.757-0.178,1.523-0.294,2.29-0.441c1.674-0.347,3.337-0.746,5.021-1.02c1.301-0.21,2.632-0.273,3.943-0.388
		c1.693-0.147,3.389-0.41,5.072-0.389c1.846,0.01,3.61-0.41,5.415-0.61c1.392-0.168,2.764-0.577,4.165-0.798
		c1.019-0.158,2.067-0.168,3.106-0.252c0.756-0.063,1.503-0.168,2.259-0.221c1.1-0.063,2.208-0.074,3.318-0.126
		c1.008-0.052,2.026-0.116,3.045-0.179c1.2-0.073,2.409,0.168,3.59-0.21c0.132-0.042,0.292,0.032,0.443,0.053
		c0.283,0.042,0.555,0.136,0.838,0.115c0.917-0.052,1.835-0.168,2.752-0.2c1.029-0.042,2.068-0.021,3.097-0.042
		c0.978-0.021,1.945-0.084,2.925-0.084c0.544,0,1.089,0.105,1.623,0.105c1.019,0.021,2.047-0.042,3.056,0.01
		c1.441,0.074,2.874,0.231,4.316,0.326c0.776,0.053,1.562-0.021,2.329,0.074c0.514,0.063,1.039-0.179,1.543-0.179
		c0.242,0,0.483,0.063,0.726,0.231c0.01,0.011,0.041,0.011,0.062,0.011c1.239,0.062,2.48-0.032,3.73,0.189
		c0.938,0.168,1.916,0.074,2.874,0.126c0.828,0.042,1.645,0.105,2.472,0.179c0.675,0.063,1.351,0.126,2.026,0.21
		c0.393,0.042,0.787,0.126,1.17,0.168c0.585,0.063,1.17,0.105,1.744,0.158c1.02,0.084,2.027,0.168,3.046,0.263
		c0.847,0.073,1.694,0.126,2.531,0.252c0.948,0.137,1.886,0.347,2.833,0.525c1.755,0.326,3.51,0.641,5.265,0.966
		c1.17,0.221,2.339,0.462,3.509,0.662c1.059,0.189,2.129,0.305,3.188,0.494c1.108,0.2,2.219,0.357,3.298,0.672
		c1.744,0.515,3.459,1.166,5.203,1.712c1.129,0.357,2.299,0.609,3.438,0.966c0.908,0.284,1.815,0.588,2.673,0.999
		c0.907,0.43,1.755,0.998,2.632,1.502c1.06,0.599,2.088,1.282,3.187,1.796c1.473,0.683,2.794,1.618,4.124,2.553
		c1.434,1.009,2.714,2.249,4.286,3.058c0.736,0.378,1.412,0.872,2.118,1.334c0.293,0.2,0.595,0.409,0.848,0.662
		c0.433,0.452,0.837,0.936,1.27,1.387c1.059,1.104,2.129,2.196,3.178,3.299c0.302,0.326,0.564,0.693,0.856,1.03
		c0.454,0.546,0.999,1.029,1.352,1.639c0.564,0.998,1.371,1.786,1.946,2.794c0.867,1.492,1.906,2.878,2.491,4.549
		c0.131,0.346,0.373,0.642,0.524,0.977c0.271,0.652,0.544,1.304,0.757,1.976c0.16,0.473,0.211,0.977,0.321,1.461
		c0.091,0.419,0.212,0.829,0.313,1.249c0.141,0.579,0.222,1.167,0.413,1.713c0.201,0.557,0.555,1.04,0.767,1.597
		c0.403,1.041,0.746,2.102,1.119,3.152c0.212,0.609,0.373,1.26,0.675,1.816c0.797,1.409,1.08,2.932,1.211,4.518
		c0.121,1.356,0.232,2.721,0.373,4.066c0.051,0.43,0.283,0.851,0.273,1.271c0,0.872-0.133,1.733-0.162,2.605
		c-0.04,1.104-0.102,2.228-0.03,3.32c0.131,2.007,0.716,3.971,0.625,5.998c-0.04,0.956-0.202,1.922-0.091,2.857
		c0.242,2.175,0.626,4.339,0.947,6.514c0.021,0.189,0.052,0.389,0.031,0.588c-0.172,1.86-0.706,3.677-0.595,5.569
		c0.03,0.514,0.05,1.028,0.07,1.554c0.041,1.292,0.061,2.595,0.201,3.877c0.071,0.641,0.161,1.26,0.121,1.911
		c-0.05,0.8-0.02,1.618-0.06,2.427c-0.031,0.926-0.152,1.86-0.152,2.784c-0.01,1.051,0.051,2.091,0.111,3.142
		C551.805,156.682,551.926,158.688,552.067,160.685z"/>
	<path fill-rule="evenodd" clip-rule="evenodd" fill="#FFFFFF" d="M432.434,97.514l-7.815,1.125l-6.148,2.562
		c0,0-1.438,3.438-1.375,3.75s1.642,6.688,1.642,6.688l4.733,3.938l8.125-0.75l6.951,0.062l5.299-0.188l2.562-3.438l-0.375-5.938
		l-0.625-3.688l-6.861-3.875L432.434,97.514z"/>
	<g>
		<path fill-rule="evenodd" clip-rule="evenodd" d="M525.33,65.38c0.091,0,0.29,0.061,0.411-0.01
			c0.584-0.343,1.015,0.048,1.161,0.434c0.312,0.821,1.048,0.974,1.674,1.299c0.838,0.434,1.709,0.751,2.498,1.338
			c0.523,0.389,1.025,0.834,1.552,1.229c0.335,0.251,0.504,0.716,0.777,1.06c0.104,0.131,0.295,0.276,0.444,0.274
			c0.514-0.006,0.466-0.017,0.612,0.527c0.057,0.21,0.386,0.346,0.66,0.448c0.164,0.818,0.82,1.233,1.442,1.703
			c0.278,0.21,0.41,0.607,0.674,0.848c0.428,0.391,0.908,0.723,1.408,1.024c0.163,0.226,0.033,0.792,0.689,0.478
			c0.082-0.039,0.311,0.118,0.406,0.236c0.656,0.813,1.558,1.433,1.891,2.505c0.104,0.335,0.421,0.598,0.586,0.922
			c0.099,0.192,0.014,0.546,0.145,0.64c0.479,0.343,0.757,0.797,1.09,1.265c0.342,0.48,0.682,0.988,1.046,1.441
			c0.669,0.831,0.692,1.923,1.289,2.7c0.836,1.088,1.072,2.381,1.517,3.6c0.467,1.283,0.829,2.605,1.231,3.912
			c0.308,0.996,0.463,2.072,0.95,2.971c0.45,0.828,0.827,1.682,1.135,2.551c0.617,1.748,1.037,3.566,1.684,5.303
			c0.482,1.297,0.351,2.631,0.537,3.941c0.141,0.988,0.221,1.988,0.302,2.984c0.035,0.43,0.029,0.865,0.003,1.297
			c-0.075,1.238-0.271,2.48-0.231,3.713c0.046,1.381,0.33,2.75,0.45,4.129c0.08,0.916,0.039,1.84,0.083,2.76
			c0.073,1.525,0.145,3.053,0.268,4.574c0.076,0.938,0.312,1.865,0.355,2.803c0.036,0.797-0.075,1.607-0.17,2.406
			c-0.17,1.42-0.483,2.83-0.533,4.252c-0.04,1.148,0.222,2.305,0.348,3.459c0.019,0.168,0.07,0.354,0.024,0.506
			c-0.167,0.557,0.102,1.039,0.186,1.559c0.096,0.586,0.154,1.227,0.014,1.791c-0.211,0.852-0.131,1.674-0.025,2.506
			c0.036,0.287,0.27,0.555,0.279,0.836c0.024,0.713-0.026,1.43-0.052,2.279c-0.026-0.279-0.04-0.432-0.055-0.584
			c-0.046,0.002-0.092,0.004-0.138,0.006c0.021,0.455,0.032,0.912,0.063,1.367c0.105,1.506,0.216,3.01,0.329,4.514
			c0.069,0.916-0.09,1.945,0.28,2.719c0.453,0.947,0.093,1.773,0.074,2.633c-0.021,0.902-0.282,1.803-0.474,2.697
			c-0.057,0.266-0.299,0.496-0.34,0.76c-0.122,0.787-0.186,1.584-0.272,2.375c0.052,0.014,0.104,0.025,0.156,0.037
			c0.058-0.105,0.114-0.209,0.172-0.312c0.029,0.006,0.058,0.012,0.087,0.018c-0.049,0.674-0.098,1.346-0.156,2.152
			c-0.109-0.215-0.159-0.312-0.161-0.318c-0.075,0.783-0.15,1.629-0.242,2.475c-0.033,0.305-0.104,0.605-0.164,0.906
			c-0.15,0.75-0.352,1.492-0.438,2.25c-0.046,0.396,0.129,0.814,0.163,1.227c0.042,0.508,0.217,1.102,0.023,1.51
			c-0.408,0.863,0.006,1.693-0.106,2.535c-0.119,0.887-0.055,1.801-0.047,2.703c0.009,1.002,0.045,2.006,0.066,3.008
			c0.003,0.152,0.01,0.309-0.023,0.453c-0.102,0.434-0.092,0.836-0.022,1.297c0.116,0.766-0.042,1.57-0.068,2.359
			c-0.013,0.395,0.061,0.797,0.006,1.184c-0.141,0.99,0.176,1.963,0.073,2.953c-0.119,1.145,0.3,2.295-0.096,3.459
			c-0.15,0.443,0.156,1.037,0.018,1.49c-0.213,0.695-0.572,1.367-0.979,1.975c-0.269,0.4-0.835,0.264-1.046-0.201
			c-0.382-0.842-0.848-1.672-1.056-2.559c-0.161-0.689,0.033-1.457,0.039-2.189c0.006-0.75-0.017-1.5-0.041-2.248
			c-0.021-0.621-0.06-1.244-0.094-1.865c-0.077-1.387-0.174-2.773-0.223-4.16c-0.01-0.303,0.196-0.605,0.218-0.914
			c0.089-1.289,0.183-2.578,0.206-3.869c0.035-1.914-0.043-3.832,0.034-5.746c0.052-1.305,0.315-2.602,0.43-3.906
			c0.137-1.568,0.488-3.098,0.46-4.703c-0.034-1.91,0.218-3.838,0.481-5.738c0.223-1.602,0.262-3.188,0.141-4.793
			c-0.144-1.902-0.257-3.805-0.368-5.709c-0.058-0.996-0.121-1.992-0.114-2.99c0.005-0.883,0.118-1.768,0.157-2.652
			c0.035-0.77,0.009-1.543,0.056-2.311c0.037-0.619-0.05-1.211-0.118-1.82c-0.189-1.709-0.164-3.441-0.271-5.162
			c-0.114-1.809,0.417-3.537,0.59-5.309c0.018-0.184-0.006-0.375-0.034-0.561c-0.318-2.066-0.694-4.125-0.94-6.199
			c-0.105-0.889,0.059-1.809,0.099-2.713c0.086-1.936-0.497-3.799-0.623-5.709c-0.069-1.049-0.008-2.109,0.031-3.164
			c0.03-0.828,0.158-1.654,0.162-2.48c0.002-0.402-0.227-0.797-0.272-1.205c-0.144-1.289-0.256-2.582-0.37-3.873
			c-0.134-1.51-0.415-2.965-1.197-4.303c-0.308-0.527-0.46-1.146-0.675-1.727c-0.37-1.002-0.711-2.016-1.108-3.006
			c-0.209-0.521-0.561-0.988-0.758-1.514c-0.195-0.521-0.274-1.086-0.41-1.631c-0.1-0.398-0.219-0.791-0.313-1.189
			c-0.11-0.463-0.164-0.943-0.315-1.393c-0.217-0.639-0.486-1.26-0.759-1.879c-0.144-0.322-0.388-0.605-0.511-0.936
			c-0.589-1.581-1.613-2.901-2.472-4.326c-0.575-0.955-1.377-1.706-1.938-2.656c-0.343-0.581-0.888-1.042-1.339-1.56
			c-0.284-0.325-0.543-0.675-0.846-0.981c-1.044-1.054-2.105-2.09-3.152-3.14c-0.43-0.43-0.824-0.896-1.262-1.316
			c-0.252-0.242-0.546-0.444-0.842-0.632c-0.69-0.439-1.365-0.914-2.096-1.273c-1.561-0.769-2.826-1.952-4.25-2.91
			c-1.318-0.887-2.625-1.777-4.088-2.434c-1.09-0.49-2.112-1.131-3.163-1.709c-0.869-0.478-1.71-1.015-2.609-1.425
			c-0.851-0.389-1.751-0.682-2.648-0.952c-1.129-0.338-2.288-0.578-3.415-0.919c-1.727-0.523-3.425-1.143-5.16-1.632
			c-1.062-0.3-2.169-0.453-3.262-0.638c-1.05-0.177-2.109-0.294-3.159-0.467c-1.164-0.192-2.321-0.421-3.482-0.629
			c-1.741-0.311-3.482-0.615-5.224-0.925c-0.935-0.167-1.864-0.37-2.805-0.502c-0.833-0.118-1.677-0.163-2.517-0.236
			c-1.005-0.087-2.009-0.168-3.014-0.252c-0.577-0.048-1.155-0.089-1.73-0.149c-0.388-0.041-0.771-0.121-1.158-0.164
			c-0.672-0.074-1.345-0.141-2.019-0.195c-0.813-0.066-1.627-0.13-2.442-0.17c-0.952-0.046-1.924,0.036-2.855-0.123
			c-1.236-0.211-2.47-0.123-3.703-0.18c-0.019-0.001-0.043,0.006-0.056-0.003c-0.733-0.504-1.493,0.039-2.245-0.051
			c-0.764-0.092-1.546-0.025-2.317-0.074c-1.426-0.089-2.848-0.242-4.273-0.312c-1.008-0.049-2.02,0.011-3.029-0.004
			c-0.539-0.008-1.078-0.104-1.617-0.102c-0.966,0.003-1.932,0.06-2.898,0.078c-1.021,0.02-2.044-0.004-3.064,0.036
			c-0.914,0.037-1.824,0.149-2.738,0.198c-0.272,0.015-0.551-0.073-0.826-0.113c-0.146-0.021-0.31-0.094-0.438-0.054
			c-1.174,0.362-2.377,0.132-3.564,0.201c-1.007,0.059-2.014,0.122-3.021,0.168c-1.097,0.05-2.194,0.066-3.289,0.128
			c-0.747,0.042-1.491,0.144-2.238,0.204c-1.027,0.083-2.065,0.091-3.083,0.242c-1.384,0.205-2.743,0.603-4.131,0.756
			c-1.785,0.197-3.54,0.597-5.362,0.58c-1.677-0.015-3.357,0.235-5.035,0.376c-1.304,0.109-2.617,0.164-3.906,0.364
			c-1.672,0.26-3.324,0.645-4.986,0.969c-0.755,0.147-1.521,0.25-2.269,0.424c-0.882,0.204-1.761,0.432-2.621,0.708
			c-0.42,0.135-0.779,0.449-1.195,0.605c-0.918,0.347-1.857,0.636-2.78,0.971c-0.2,0.073-0.354,0.265-0.552,0.356
			c-0.595,0.274-1.195,0.538-1.803,0.785c-0.971,0.395-1.963,0.743-2.922,1.165c-1.04,0.458-2.085,0.921-3.069,1.485
			c-1.214,0.696-2.382,1.476-3.542,2.261c-0.735,0.499-1.416,1.08-2.129,1.613c-0.544,0.407-1.048,0.815-1.398,1.444
			c-0.343,0.616-0.907,1.105-1.312,1.694c-0.248,0.361-0.472,0.788-0.538,1.212c-0.107,0.688-0.727,1.217-0.543,2.001
			c0.059,0.249-0.188,0.558-0.256,0.849c-0.356,1.549,0.334,2.766,1.276,3.888c0.458,0.546,0.938,1.075,1.429,1.592
			c0.176,0.186,0.395,0.351,0.625,0.463c0.762,0.373,1.513,0.79,2.312,1.055c1.388,0.463,2.805,0.838,4.217,1.221
			c0.328,0.09,0.688,0.088,1.033,0.092c1.065,0.013,2.01,0.414,2.949,0.858c0.263,0.124,0.58,0.126,0.86,0.219
			c0.823,0.271,1.636,0.573,2.46,0.837c0.642,0.205,1.294,0.379,1.943,0.555c0.803,0.219,1.605,0.441,2.416,0.627
			c0.265,0.061,0.557,0.016,0.836,0.004c0.65-0.031,1.304-0.121,1.952-0.094c0.419,0.02,0.825,0.266,1.247,0.307
			c1.163,0.111,2.371,0.098,3.402,0.693c1.238,0.717,2.355,1.566,2.761,3.102c0.253,0.961,0.683,1.885,1.126,2.781
			c0.554,1.115,0.727,2.285,0.757,3.504c0.021,0.887,0.135,1.771,0.15,2.658c0.013,0.76-0.061,1.521-0.087,2.283
			c-0.034,0.994-0.104,1.992-0.079,2.986c0.044,1.727,0.146,3.451,0.231,5.176c0.042,0.846,0.156,1.689,0.144,2.533
			c-0.023,1.736,0.377,3.473-0.004,5.209c-0.047,0.215-0.044,0.471,0.029,0.674c0.341,0.955,0.001,1.926,0.094,2.883
			c0.034,0.355,0.064,0.715,0.066,1.07c0.01,1.885,0.011,3.768,0.014,5.65c0.003,1.881,0.02,3.762,0.002,5.643
			c-0.015,1.506-0.073,3.012-0.108,4.518c-0.041,1.707-0.093,3.416-0.112,5.125c-0.031,2.732-0.039,5.467-0.058,8.201
			c-0.007,1.051-0.054,2.104-0.012,3.154c0.04,1.031,0.185,2.059,0.254,3.09c0.059,0.877,0.072,1.758,0.11,2.637
			c0.039,0.898,0.08,1.795,0.127,2.693c0.039,0.771,0.091,1.543,0.131,2.314c0.071,1.385,0.173,2.77,0.199,4.154
			c0.032,1.752,0.009,3.504-0.004,5.256c-0.006,0.789-0.035,1.58-0.069,2.367c-0.11,2.619-0.295,5.236-0.32,7.855
			c-0.021,2.148,0.134,4.301,0.228,6.449c0.05,1.143,0.098,2.287,0.215,3.422c0.122,1.178,0.349,2.342,0.49,3.518
			c0.088,0.729,0.135,1.467,0.146,2.201c0.023,1.525,0.048,3.053-0.001,4.576c-0.022,0.711-0.106,1.459-0.36,2.115
			c-0.286,0.736-0.739,1.43-1.224,2.061c-0.356,0.465-1.638,0.584-2.146,0.303c-0.441-0.244-0.334-0.695-0.262-1.055
			c0.151-0.746,0.456-1.467,0.557-2.217c0.121-0.9,0.17-1.826,0.118-2.734c-0.111-1.994-0.318-3.982-0.463-5.973
			c-0.119-1.654-0.209-3.311-0.305-4.967c-0.124-2.131-0.341-4.262-0.337-6.391c0.006-2.697,0.198-5.393,0.303-8.088
			c0.057-1.432,0.107-2.863,0.145-4.295c0.028-1.055,0.042-2.111,0.036-3.168c-0.001-0.354-0.104-0.705-0.119-1.061
			c-0.054-1.143-0.062-2.289-0.136-3.432c-0.123-1.918-0.302-3.834-0.416-5.752c-0.049-0.805,0.046-1.619,0.002-2.424
			c-0.053-0.975-0.236-1.941-0.268-2.914c-0.058-1.746-0.047-3.494-0.06-5.242c-0.011-1.312-0.035-2.625-0.016-3.938
			c0.024-1.637,0.072-3.275,0.144-4.914c0.026-0.613,0.168-1.223,0.216-1.838c0.021-0.25-0.106-0.51-0.099-0.764
			c0.042-1.398,0.241-2.811,0.114-4.193c-0.088-0.963,0.123-1.838,0.195-2.756c0.067-0.838-0.013-1.688-0.007-2.531
			c0.002-0.354,0.056-0.705,0.093-1.057c0.241-2.24,0.053-4.469-0.095-6.707c-0.135-2.047-0.028-4.109-0.064-6.164
			c-0.007-0.379-0.261-0.754-0.27-1.133c-0.057-2.395-0.066-4.789-0.112-7.184c-0.021-1.146-0.091-2.291-0.137-3.436
			c-0.008-0.188-0.019-0.377-0.012-0.564c0.042-1.09,0.16-2.18,0.115-3.264c-0.062-1.535-0.08-3.102-0.667-4.547
			c-0.449-1.105-1.02-2.168-1.604-3.211c-0.366-0.656-1.047-1.023-1.742-1.191c-1.428-0.342-2.874-0.633-4.327-0.838
			c-1.039-0.146-2.123-0.008-3.148-0.199c-1.364-0.256-2.691-0.709-4.035-1.078c-0.035-0.01-0.065-0.039-0.102-0.049
			c-1.174-0.355-2.337-0.758-3.527-1.049c-1.36-0.332-2.745-0.557-4.117-0.842c-0.219-0.047-0.42-0.17-0.635-0.24
			c-1.348-0.434-2.698-0.857-4.044-1.295c-0.458-0.149-0.958-0.256-1.343-0.521c-0.365-0.252-0.591-0.699-0.905-1.035
			c-0.305-0.328-0.645-0.623-1.096-1.054c0.026-0.727-0.889-1.096-1.298-1.792c-0.144-0.246-0.463-0.383-0.654-0.611
			c-0.137-0.163-0.267-0.391-0.273-0.594c-0.05-1.518-0.128-3.039-0.069-4.554c0.024-0.645,0.367-1.275,0.545-1.918
			c0.12-0.432,0.173-0.884,0.313-1.309c0.526-1.599,1.427-2.956,2.604-4.166c1.085-1.116,2.109-2.287,3.397-3.185
			c1.224-0.854,2.438-1.721,3.655-2.583c0.03-0.021,0.056-0.053,0.089-0.07c1.348-0.689,2.675-1.426,4.055-2.045
			c0.663-0.297,1.332-0.532,1.915-0.994c0.261-0.206,0.668-0.221,1.003-0.341c0.768-0.275,1.53-0.562,2.296-0.845
			c0.053-0.02,0.104-0.057,0.157-0.06c1.007-0.054,1.803-0.67,2.705-1.001c0.645-0.237,1.304-0.44,1.966-0.625
			c1.2-0.334,2.446-0.544,3.604-0.988c1.706-0.654,3.504-0.846,5.257-1.26c0.399-0.094,0.828-0.06,1.242-0.087
			c1.554-0.103,3.107-0.203,4.661-0.311c0.407-0.028,0.812-0.09,1.219-0.12c0.453-0.033,0.907-0.046,1.361-0.069
			c0.075-0.004,0.181,0.021,0.22-0.019c0.555-0.561,1.243-0.233,1.872-0.296c0.708-0.071,1.428-0.291,2.118-0.216
			c1.129,0.122,2.186-0.237,3.243-0.419c0.924-0.159,1.822-0.225,2.747-0.259c0.606-0.022,1.201-0.265,1.81-0.325
			c1.27-0.125,2.545-0.191,3.817-0.286c1.225-0.091,2.449-0.199,3.675-0.276c0.485-0.03,0.979,0.046,1.46-0.004
			c0.776-0.082,1.543-0.273,2.32-0.334c0.776-0.061,1.562-0.04,2.343-0.015c0.602,0.02,1.238-0.26,1.805,0.186
			c0.062,0.049,0.252,0.023,0.321-0.038c0.448-0.388,0.919-0.156,1.401-0.117c0.525,0.043,1.068,0.018,1.59-0.065
			c0.968-0.153,1.917-0.359,2.88,0.059c0.155,0.067,0.411-0.144,0.623-0.152c0.863-0.033,1.728-0.034,2.592-0.054
			c0.696-0.016,1.393-0.074,2.088-0.058c1.464,0.033,2.929,0.077,4.391,0.166c1.32,0.081,2.635,0.245,3.955,0.341
			c1.031,0.075,2.087,0.25,3.093,0.105c0.828-0.119,1.567,0.141,2.352,0.144c0.807,0.003,1.614,0.048,2.42,0.098
			c1.843,0.114,3.686,0.226,5.525,0.369c2.348,0.182,4.694,0.374,7.038,0.599c1.554,0.149,3.107,0.318,4.649,0.559
			c1.934,0.301,3.854,0.694,5.783,1.03c1.863,0.325,3.738,0.594,5.597,0.95c1.543,0.295,3.07,0.675,4.602,1.029
			c1.126,0.26,2.247,0.534,3.369,0.81c0.218,0.054,0.438,0.122,0.637,0.223c1.341,0.679,2.758,1.087,4.241,1.325
			c0.775,0.125,1.544,0.349,2.286,0.611c0.26,0.092,0.467,0.409,0.633,0.666c0.161,0.249,0.256,0.467,0.599,0.226
			c0.09-0.064,0.294-0.042,0.407,0.015c1.072,0.54,2.133,1.104,3.204,1.646c0.906,0.458,1.808,0.933,2.741,1.33
			c0.761,0.324,1.425,0.762,1.975,1.363C525.187,64.775,525.208,65.038,525.33,65.38z"/>
		<path fill-rule="evenodd" clip-rule="evenodd" d="M426.917,96.207c0.741-0.115,1.48-0.307,2.224-0.328
			c1.44-0.039,2.888-0.035,4.324,0.059c0.984,0.064,1.959,0.299,2.933,0.486c1.115,0.215,2.237,0.416,3.333,0.707
			c0.861,0.23,1.682,0.607,2.53,0.887c1.067,0.35,2.154,0.641,3.214,1.012c0.604,0.211,1.164,0.545,1.754,0.801
			c1.43,0.617,2.88,1.191,4.295,1.844c0.936,0.432,1.838,0.943,2.729,1.463c0.545,0.316,1.021,0.752,1.567,1.066
			c0.823,0.475,1.556,1.039,2.129,1.799c0.354,0.471,0.284,1.482-0.124,1.898c-0.405,0.416-2.047,0.633-2.577,0.336
			c-0.062-0.035-0.119-0.1-0.146-0.166c-0.214-0.492-0.624-0.732-1.072-1c-0.591-0.354-1.063-0.898-1.626-1.305
			c-0.338-0.246-0.75-0.387-1.13-0.572c-0.067-0.033-0.166-0.031-0.208-0.082c-0.675-0.809-1.762-0.771-2.594-1.264
			c-0.521-0.309-0.825-0.105-0.805,0.52c0.024,0.715,0.134,1.426,0.186,2.141s0.058,1.436,0.125,2.15
			c0.048,0.51,0.274,1.023,0.228,1.518c-0.158,1.668-0.523,3.311-1.455,4.729c-0.77,1.168-2.021,1.539-3.362,1.611
			c-0.796,0.045-1.593,0.088-2.39,0.08c-0.278-0.004-0.551-0.184-0.835-0.238c-1.197-0.234-2.385-0.037-3.571,0.115
			c-0.85,0.109-1.699,0.223-2.55,0.324c-0.086,0.01-0.198-0.02-0.267-0.072c-0.776-0.584-1.587-0.408-2.451-0.217
			c-0.875,0.197-1.785,0.246-2.683,0.334c-0.75,0.074-1.503,0.154-2.255,0.16c-1.292,0.008-2.609,0.098-3.868-0.121
			c-0.735-0.127-1.398-0.758-2.057-1.217c-0.507-0.354-1.031-0.732-1.414-1.209c-0.658-0.82-1.437-1.553-1.795-2.611
			c-0.221-0.65-0.736-1.195-1.01-1.836c-0.255-0.594-0.403-1.244-0.525-1.885c-0.145-0.754-0.151-1.537-0.334-2.279
			c-0.096-0.393-0.382-0.783-0.68-1.07c-0.643-0.621-0.685-1.104-0.141-1.807c0.548-0.709,1.415-1.184,1.617-2.152
			c0.01-0.049,0.062-0.096,0.105-0.127c1.103-0.779,2.191-1.58,3.32-2.318c0.364-0.238,0.841-0.299,1.256-0.465
			c0.312-0.123,0.646-0.238,0.905-0.441c0.909-0.711,2.03-0.74,3.076-0.996c0.675-0.164,1.372-0.236,2.059-0.35
			C426.907,96.148,426.912,96.178,426.917,96.207z M444.342,105.842c0.029-0.004,0.058-0.008,0.087-0.012
			c-0.132-0.914-0.204-1.842-0.411-2.74c-0.232-1.002-0.607-1.463-1.569-1.693c-0.686-0.164-1.363-0.365-2.046-0.543
			c-1.046-0.273-2.091-0.551-3.14-0.809c-1.021-0.252-2.045-0.498-3.075-0.707c-0.153-0.031-0.463,0.105-0.505,0.23
			c-0.238,0.713-0.442,1.439-0.609,2.174c-0.185,0.809-0.338,1.625-0.462,2.445c-0.101,0.66-0.192,1.33-0.176,1.994
			c0.008,0.307,0.269,0.615,0.44,0.908c0.121,0.205,0.364,0.367,0.417,0.58c0.34,1.379,0.685,2.758,0.945,4.152
			c0.207,1.113,0.801,1.57,1.947,1.42c0.794-0.104,1.6-0.16,2.401-0.16c1.477-0.002,2.954,0.059,4.432,0.078
			c0.758,0.01,1.245-0.311,1.381-1c0.261-1.328,0.304-2.68,0.222-4.029C444.575,107.365,444.438,106.605,444.342,105.842z
			 M429.389,113.582c0.006,0.037,0.013,0.072,0.019,0.107c0.131,0,0.266,0.02,0.392-0.004c0.688-0.129,0.815-0.338,0.617-1.002
			c-0.258-0.859-0.568-1.705-0.769-2.578c-0.236-1.025-0.484-2.068-0.536-3.113c-0.06-1.225-0.061-2.473,0.327-3.674
			c0.155-0.48,0.281-0.971,0.398-1.463c0.158-0.662,0.323-1.326,0.431-1.998c0.062-0.391-0.154-0.584-0.578-0.518
			c-0.924,0.145-1.851,0.268-2.774,0.408c-1.526,0.229-2.901,0.91-4.312,1.475c-0.676,0.271-1.326,0.619-1.955,0.986
			c-0.311,0.184-0.662,0.441-0.797,0.75c-0.337,0.775-0.581,1.594-0.821,2.406c-0.146,0.494-0.323,1.018-0.29,1.514
			c0.032,0.484,0.292,0.963,0.492,1.426c0.59,1.359,1.204,2.717,2.231,3.812c0.48,0.514,1.037,0.971,1.617,1.371
			c0.333,0.232,0.779,0.303,1.178,0.438c0.111,0.037,0.231,0.062,0.348,0.066c0.52,0.012,1.04,0.004,1.56,0.021
			c0.286,0.008,0.582,0.111,0.854,0.064C427.814,113.941,428.6,113.752,429.389,113.582z"/>
		<path fill-rule="evenodd" clip-rule="evenodd" d="M478.252,151.068c-0.054,0.273-0.174,0.576-0.162,0.873
			c0.105,2.555,0.217,5.107,0.364,7.66c0.059,1.014,0.225,2.02,0.321,3.029c0.147,1.535,0.256,3.074,0.424,4.607
			c0.104,0.949,0.288,1.893,0.433,2.838c0.022,0.148,0.036,0.301,0.032,0.449c-0.028,1.305-0.018,2.613-0.108,3.914
			c-0.059,0.836-0.31,1.656-0.401,2.492c-0.232,2.098-0.882,4.086-1.582,6.055c-0.121,0.342-0.465,0.648-0.776,0.869
			c-1.001,0.711-1.606,1.143-2.973,0.354c-0.492-0.285-1.07-0.406-1.442-0.895c-0.279-0.367-0.619-0.689-0.877-1.07
			c-0.442-0.65-0.842-1.33-1.257-1.998c-0.208-0.336-0.421-0.666-0.613-1.01c-0.117-0.209-0.199-0.439-0.298-0.66
			c-0.195-0.441-0.407-0.875-0.579-1.324c-0.112-0.293-0.121-0.631-0.25-0.914c-0.785-1.723-0.932-3.604-1.377-5.408
			c-0.12-0.49-0.097-1.012-0.166-1.516c-0.138-0.996-0.329-1.984-0.431-2.984c-0.078-0.764-0.04-1.539-0.072-2.309
			c-0.031-0.73-0.062-1.463-0.136-2.191c-0.106-1.039-0.205-2.082-0.393-3.109c-0.158-0.865-0.423-1.711-0.67-2.559
			c-0.371-1.271-0.831-2.521-1.137-3.809c-0.305-1.277-0.526-2.584-0.673-3.891c-0.153-1.363-0.18-2.742-0.25-4.115
			c-0.02-0.373-0.015-0.75,0.014-1.123c0.01-0.137,0.091-0.297,0.19-0.393c0.655-0.627,1.67-0.729,2.498-0.332
			c0.758,0.361,0.926,1.123,1.047,1.766c0.235,1.248,0.228,2.541,0.366,3.809c0.15,1.369,0.266,2.75,0.556,4.092
			c0.363,1.68,0.95,3.311,1.325,4.99c0.36,1.611,0.651,3.248,0.828,4.889c0.146,1.35,0.023,2.725,0.119,4.08
			c0.112,1.598,0.266,3.199,0.527,4.777c0.192,1.158,0.559,2.291,0.901,3.42c0.366,1.205,0.76,2.406,1.213,3.58
			c0.247,0.639,0.643,1.221,0.97,1.83c0.179,0.332,0.354,0.666,0.594,1.119c0.158-0.467,0.3-0.809,0.39-1.164
			c0.325-1.291,0.664-2.582,0.937-3.885c0.171-0.82,0.316-1.664,0.327-2.498c0.023-1.746-0.013-3.494-0.095-5.236
			c-0.066-1.408-0.214-2.814-0.366-4.217c-0.104-0.949-0.352-1.887-0.405-2.836c-0.101-1.809-0.06-3.625-0.168-5.432
			c-0.11-1.838-0.323-3.67-0.504-5.504c-0.067-0.688-0.127-1.383-0.266-2.059c-0.285-1.383-0.587-2.764-0.951-4.129
			c-0.185-0.693-0.506-1.355-0.788-2.021c-0.291-0.686-0.623-1.354-0.906-2.041c-0.082-0.201-0.025-0.457-0.09-0.67
			c-0.089-0.293-0.226-0.576-0.355-0.855c-0.2-0.434-0.436-0.85-0.612-1.291c-0.18-0.451-0.311-0.92-0.455-1.385
			c-0.19-0.607-0.394-1.213-0.548-1.83c-0.073-0.295,0.113-0.418,0.425-0.447c1.076-0.094,2.203,0.512,2.668,1.479
			c0.936,1.945,1.931,3.865,2.781,5.846c0.623,1.449,1.07,2.977,1.567,4.479c0.228,0.689,0.426,1.396,0.567,2.109
			c0.187,0.939,0.291,1.895,0.457,2.84C478.011,150.486,478.145,150.756,478.252,151.068z"/>
		<path fill-rule="evenodd" clip-rule="evenodd" d="M432.195,181.711c0.235-0.537,0.6-1.059,0.679-1.619
			c0.171-1.215,0.224-2.447,0.275-3.674c0.068-1.633,0.096-3.268,0.13-4.902c0.034-1.627,0.053-3.252,0.081-4.879
			c0.003-0.16,0.007-0.328,0.05-0.48c0.267-0.947-0.177-1.84-0.21-2.768c-0.04-1.145-0.281-2.281-0.408-3.424
			c-0.186-1.664-0.379-3.328-0.505-4.998c-0.075-0.986,0.104-2.006-0.069-2.969c-0.214-1.182,0.305-2.182,0.491-3.262
			c0.019-0.107,0.052-0.23,0.121-0.307c0.834-0.922,2.998-0.693,3.481,0.406c0.305,0.693,0.308,1.441,0.027,2.188
			c-0.161,0.426-0.29,0.906-0.27,1.354c0.089,1.949,0.222,3.896,0.376,5.842c0.041,0.52,0.258,1.023,0.314,1.543
			c0.081,0.762,0.077,1.533,0.134,2.299c0.105,1.408,0.27,2.814,0.331,4.225c0.045,1.064-0.04,2.133-0.052,3.199
			c-0.006,0.635,0.029,1.271,0.025,1.906c-0.004,0.592,0.059,1.207-0.08,1.77c-0.132,0.527-0.188,1.014-0.092,1.547
			c0.114,0.631,0.294,1.242-0.008,1.922c-0.19,0.428-0.115,1.002-0.076,1.502c0.096,1.205-0.147,2.312-0.562,3.455
			c-0.635,1.756-1.881,2.846-3.416,3.717c-0.594,0.336-2.038,0.049-2.516-0.43c-0.287-0.287-0.639-0.516-0.979-0.746
			c-0.543-0.365-0.796-0.9-1.034-1.49c-0.354-0.881-0.817-1.717-1.227-2.576c-0.121-0.254-0.229-0.516-0.316-0.783
			c-0.185-0.566-0.351-1.141-0.525-1.711c-0.092-0.299-0.209-0.592-0.276-0.896c-0.134-0.6-0.212-1.215-0.363-1.811
			c-0.274-1.084-0.619-2.152-0.871-3.242c-0.269-1.156-0.454-2.332-0.692-3.494c-0.342-1.664-0.673-3.328-1.055-4.982
			c-0.523-2.275-1.111-4.541-1.135-6.896c-0.015-1.539,0.017-3.078,0.048-4.619c0.035-1.711,0.954-2.893,2.592-3.373
			c0.749-0.221,1.763,0.436,1.699,1.197c-0.085,1.016-0.4,2.016-0.449,3.031c-0.062,1.271,0.047,2.553,0.081,3.828
			c0.006,0.238-0.03,0.482,0.01,0.715c0.337,1.969,0.644,3.943,1.045,5.9c0.366,1.783,0.96,3.516,1.08,5.357
			c0.049,0.758,0.303,1.504,0.47,2.254c0.199,0.896,0.398,1.793,0.609,2.686c0.323,1.373,0.573,2.771,1.008,4.107
			c0.457,1.402,1.094,2.744,1.656,4.109c0.033,0.082,0.107,0.146,0.163,0.221C432.057,181.676,432.126,181.693,432.195,181.711z"/>
		<path fill-rule="evenodd" clip-rule="evenodd" d="M504.431,61.445c0.476-0.161,0.779,0.362,1.152,0.7
			c0.552,0.497,1.091,1.014,1.578,1.572c0.218,0.25,0.282,0.629,0.442,0.937c0.302,0.579,0.612,1.154,0.938,1.719
			c0.439,0.761,0.899,1.51,1.347,2.266c0.075,0.127,0.11,0.287,0.206,0.394c0.724,0.808,0.938,1.85,1.265,2.827
			c0.214,0.643-0.602,1.94-1.228,2.119c-0.11,0.032-0.354-0.022-0.355-0.042c-0.014-0.509-0.478-0.42-0.749-0.581
			c-0.56-0.33-0.794-0.889-0.997-1.458c-0.408-1.142-1.026-2.154-1.821-3.064c-0.098-0.113-0.181-0.243-0.25-0.375
			c-0.799-1.544-1.852-2.911-2.941-4.254c-0.198-0.245-0.318-0.554-0.473-0.833c-0.062-0.114-0.095-0.3-0.186-0.335
			c-0.394-0.151-0.383-0.404-0.256-0.729c0.139-0.358,0.246-0.705,0.749-0.709C503.321,61.594,503.789,61.511,504.431,61.445z"/>
		<path fill-rule="evenodd" clip-rule="evenodd" d="M496.019,72.498c-0.057-0.762-0.105-1.585-0.183-2.406
			c-0.143-1.509-0.3-3.016-0.455-4.523c-0.012-0.109-0.038-0.222-0.085-0.32c-0.382-0.802-0.243-1.639,0.466-2.102
			c0.319-0.208,0.774-0.216,1.171-0.3c1.054-0.223,1.42-0.014,1.616,1.075c0.163,0.902,0.228,1.823,0.309,2.738
			c0.069,0.788,0.147,1.579,0.134,2.368c-0.013,0.723-0.14,1.444-0.226,2.166c-0.018,0.147-0.123,0.292-0.113,0.433
			c0.053,0.789-0.615,0.948-1.096,1.255c-0.121,0.077-0.341,0.06-0.495,0.014C496.736,72.799,496.426,72.656,496.019,72.498z"/>
		<path fill-rule="evenodd" clip-rule="evenodd" d="M492.258,63.502c-0.123,0.452-0.29,1.141-0.498,1.817
			c-0.385,1.249-0.688,2.539-1.229,3.717c-0.346,0.752-1.056,1.338-1.613,1.989c-0.12,0.141-0.29,0.238-0.438,0.355
			c-0.485,0.388-1.477,0.462-1.922,0.08c-0.151-0.13-0.265-0.47-0.205-0.651c0.156-0.476,0.365-0.952,0.646-1.366
			c0.753-1.11,1.145-2.344,1.394-3.641c0.05-0.256,0.126-0.511,0.221-0.754c0.234-0.598,0.457-1.205,0.748-1.775
			c0.105-0.207,0.368-0.391,0.598-0.465c0.489-0.16,1-0.313,1.508-0.336C492.161,62.441,492.247,62.579,492.258,63.502z"/>
		<path fill-rule="evenodd" clip-rule="evenodd" d="M387.597,77.015c-0.346,0.14-0.672,0.185-0.872,0.368
			c-1.002,0.92-1.664,0.309-2.283-0.627c-0.256-0.387-0.377-0.862-0.615-1.264c-0.168-0.284-0.555-0.483-0.623-0.772
			c-0.129-0.549-0.224-1.163-0.104-1.698c0.141-0.627,0.736-0.998,1.345-1.133c0.604-0.134,1.187-0.078,1.688,0.475
			c0.623,0.687,0.786,1.541,1.093,2.349c0.026,0.07,0.03,0.165,0.08,0.208C388.031,75.555,387.734,76.318,387.597,77.015z"/>
		<path fill-rule="evenodd" clip-rule="evenodd" d="M392.195,74.145c0.004-0.038,0.009-0.075,0.013-0.113
			c0.062-0.727,0.062-0.727,0.578-1.062c0.474-0.309,2.056-0.144,2.37,0.341c0.605,0.935,0.908,2.005,1.064,3.103
			c0.05,0.354-0.943,1.281-1.361,1.382c-0.802,0.193-1.533,0.119-2.018-0.63c-0.172-0.266-0.231-0.613-0.309-0.931
			c-0.166-0.684-0.311-1.374-0.464-2.062C392.111,74.164,392.153,74.154,392.195,74.145z"/>
		<path fill-rule="evenodd" clip-rule="evenodd" fill="none" d="M444.342,105.842c0.097,0.764,0.233,1.523,0.279,2.289
			c0.082,1.35,0.039,2.701-0.222,4.029c-0.136,0.689-0.623,1.01-1.381,1c-1.478-0.02-2.955-0.08-4.432-0.078
			c-0.802,0-1.607,0.057-2.401,0.16c-1.146,0.15-1.74-0.307-1.947-1.42c-0.261-1.395-0.605-2.773-0.945-4.152
			c-0.053-0.213-0.296-0.375-0.417-0.58c-0.172-0.293-0.433-0.602-0.44-0.908c-0.017-0.664,0.075-1.334,0.176-1.994
			c0.124-0.82,0.277-1.637,0.462-2.445c0.167-0.734,0.371-1.461,0.609-2.174c0.042-0.125,0.352-0.262,0.505-0.23
			c1.03,0.209,2.054,0.455,3.075,0.707c1.049,0.258,2.094,0.535,3.14,0.809c0.683,0.178,1.36,0.379,2.046,0.543
			c0.962,0.23,1.337,0.691,1.569,1.693c0.207,0.898,0.279,1.826,0.411,2.74C444.399,105.834,444.371,105.838,444.342,105.842z"/>
		<path fill-rule="evenodd" clip-rule="evenodd" fill="none" d="M429.389,113.582c-0.789,0.17-1.574,0.359-2.368,0.496
			c-0.272,0.047-0.568-0.057-0.854-0.064c-0.52-0.018-1.04-0.01-1.56-0.021c-0.116-0.004-0.236-0.029-0.348-0.066
			c-0.398-0.135-0.845-0.205-1.178-0.438c-0.58-0.4-1.137-0.857-1.617-1.371c-1.027-1.096-1.642-2.453-2.231-3.812
			c-0.2-0.463-0.46-0.941-0.492-1.426c-0.033-0.496,0.144-1.02,0.29-1.514c0.24-0.812,0.484-1.631,0.821-2.406
			c0.135-0.309,0.486-0.566,0.797-0.75c0.629-0.367,1.279-0.715,1.955-0.986c1.41-0.564,2.785-1.246,4.312-1.475
			c0.924-0.141,1.851-0.264,2.774-0.408c0.424-0.066,0.641,0.127,0.578,0.518c-0.107,0.672-0.272,1.336-0.431,1.998
			c-0.117,0.492-0.243,0.982-0.398,1.463c-0.388,1.201-0.387,2.449-0.327,3.674c0.052,1.045,0.3,2.088,0.536,3.113
			c0.2,0.873,0.511,1.719,0.769,2.578c0.198,0.664,0.071,0.873-0.617,1.002c-0.126,0.023-0.261,0.004-0.392,0.004
			C429.401,113.654,429.395,113.619,429.389,113.582z"/>
	</g>
</g>
</svg>
