<?xml version="1.0" encoding="utf-8"?>
<!-- Generator: Adobe Illustrator 16.0.4, SVG Export Plug-In . SVG Version: 6.00 Build 0)  -->
<!DOCTYPE svg PUBLIC "-//W3C//DTD SVG 1.0//EN" "http://www.w3.org/TR/2001/REC-SVG-20010904/DTD/svg10.dtd">
<svg version="1.0" id="Layer_1" xmlns="http://www.w3.org/2000/svg" xmlns:xlink="http://www.w3.org/1999/xlink" x="0px" y="0px"
	 width="45.131px" height="45.174px" viewBox="0 0 45.131 45.174" enable-background="new 0 0 45.131 45.174" xml:space="preserve">
<g>
	<path fill="#FFFFFF" d="M25.813,2.556c0.164-0.002,0.348-0.053,0.488-0.139c1.104-0.669,2.201-1.353,3.299-2.033
		c0.078-0.049,0.148-0.185,0.223-0.24C29.818,0.121,29.812,0,29.807,0c-0.126,0-0.253,0-0.379,0c-3.802,0-7.604,0.066-11.405,0.083
		c-1.203,0.004-2.408,0.088-3.608,0.17c-1.689,0.115-3.329,0.505-4.897,1.154C7.301,2.323,5.45,3.683,4.303,5.859
		c-0.702,1.333-1.074,2.764-1.222,4.262c-0.24,2.429,0.267,4.667,1.723,6.64c1.906,2.579,4.558,3.73,7.697,3.871
		c0.748,0.033,1.499,0.005,2.249,0.005c-0.026,0.063-0.073,0.185-0.125,0.302c-0.493,1.123-0.539,2.265-0.14,3.422
		c0.272,0.788,0.752,1.455,1.261,2.102c0.07,0.09,0.134,0.185,0.189,0.261c-1.407,0.153-2.789,0.28-4.164,0.46
		c-1.947,0.254-3.847,0.715-5.647,1.517c-1.828,0.812-3.451,1.904-4.633,3.559c-1.06,1.483-1.608,3.132-1.471,4.963
		c0.143,1.901,1,3.468,2.39,4.75c1.384,1.276,3.044,2.041,4.84,2.528c2.402,0.652,4.851,0.769,7.324,0.611
		c2.02-0.129,3.989-0.495,5.888-1.203c2.491-0.929,4.665-2.319,6.261-4.491c1.633-2.224,2.234-4.693,1.66-7.415
		c-0.34-1.604-1.193-2.923-2.318-4.084c-1.317-1.357-2.828-2.485-4.322-3.633c-0.415-0.319-0.829-0.655-1.178-1.043
		c-0.791-0.88-0.92-2.044-0.273-3.033c0.389-0.596,0.903-1.123,1.422-1.618c0.568-0.544,1.22-0.999,1.809-1.523
		c2.116-1.885,3.195-4.222,3.094-7.087c-0.072-2.036-0.668-3.877-1.987-5.439c-0.589-0.698-1.273-1.317-1.921-1.979
		C23.733,2.562,24.773,2.568,25.813,2.556z M22.763,32.228c0.747,0.759,1.359,1.605,1.639,2.651c0.64,2.396-0.288,4.795-2.385,6.18
		c-1.164,0.768-2.459,1.183-3.827,1.369c-0.812,0.111-1.633,0.153-2.449,0.227c-1.919-0.062-3.799-0.306-5.594-1.016
		c-1.365-0.539-2.576-1.305-3.514-2.456c-2.016-2.477-1.854-6.451,1.285-8.543c1.334-0.888,2.811-1.403,4.37-1.699
		c1.583-0.301,3.182-0.455,4.794-0.477c0.609-0.008,1.132,0.136,1.638,0.518C20.101,30.023,21.542,30.989,22.763,32.228z
		 M21.004,15.204c-0.541,1.931-1.963,3.016-3.772,3.609c-2.029,0.667-3.821,0.091-5.377-1.285c-1.34-1.186-2.146-2.723-2.732-4.384
		C8.52,11.436,8.214,9.673,8.338,7.858C8.44,6.356,8.78,4.916,9.915,3.827c1.256-1.207,2.811-1.606,4.51-1.424
		c1.719,0.184,3.005,1.139,4.048,2.447c1.403,1.761,2.177,3.805,2.572,5.998c0.135,0.75,0.184,1.517,0.282,2.367
		C21.231,13.831,21.191,14.538,21.004,15.204z"/>
	<path fill="#FFFFFF" d="M39.131,14c-1,0-2,0-3,0c0,2,0,4,0,6c-2,0-4,0-6,0c0,1,0,2,0,3c2,0,4,0,6,0c0,2,0,4,0,6c1,0,2,0,3,0
		c0-2,0-4,0-6c2,0,4,0,6,0c0-1,0-2,0-3c-2,0-4,0-6,0C39.131,18,39.131,16,39.131,14z"/>
</g>
</svg>
