<?xml version="1.0" encoding="utf-8"?>
<!-- Generator: Adobe Illustrator 16.0.0, SVG Export Plug-In . SVG Version: 6.00 Build 0)  -->
<!DOCTYPE svg PUBLIC "-//W3C//DTD SVG 1.1//EN" "http://www.w3.org/Graphics/SVG/1.1/DTD/svg11.dtd">
<svg version="1.1" id="Ebene_1" xmlns="http://www.w3.org/2000/svg" xmlns:xlink="http://www.w3.org/1999/xlink" x="0px" y="0px"
	 width="183.351px" height="186.333px" viewBox="0 0 183.351 186.333" enable-background="new 0 0 183.351 186.333"
	 xml:space="preserve">
<g>
	<path fill="#CC3636" d="M181.302,20.015c0.161,1.665-0.241,3.29-0.493,4.893c-0.161,1.038-0.786,2.025-1.31,2.971
		c-0.867,1.573-1.835,3.084-2.721,4.637c-0.877,1.521-2.117,2.672-3.437,3.803c-1.813,1.542-4,2.282-6.106,3.207
		c-1.976,0.874-4.061,1.203-6.207,1.213c-0.091,0-0.19-0.01-0.262,0.031c-1.492,0.699-3.104,0.596-4.676,0.596
		c-2.358,0-4.726,0.093-7.073-0.051c-1.048-0.062-2.035-0.113-3.084,0.062c-1.239,0.216-2.529,0.144-3.809,0.186
		c-0.888,0.03-1.784,0.103-2.681,0.061c-1.188-0.061-2.367-0.236-3.557-0.329c-0.766-0.051-1.553-0.113-2.318-0.042
		c-1.461,0.134-2.912,0.257-4.362,0.186c-0.565-0.021-1.129-0.195-1.693-0.195c-1.017,0-2.015,0.154-2.941,0.668
		c-0.384,0.216-0.808,0.37-1.23,0.535c-1.018,0.411-1.783,1.13-2.559,1.912c-1.28,1.295-2.138,2.857-3.022,4.399
		c-0.193,0.339-0.232,0.75-0.374,1.121c-0.746,1.86-0.807,3.854-1.108,5.808c-0.232,1.562-0.533,3.126-0.766,4.698
		c-0.101,0.658-0.161,1.337-0.121,1.995c0.061,1.346-0.06,2.663-0.242,3.999c-0.241,1.809-0.282,3.649-0.402,5.469
		c-0.102,1.459-0.213,2.91-0.282,4.369c-0.071,1.367-0.05,2.723,0.069,4.102c0.122,1.418-0.01,2.857,0.011,4.296
		c0.011,1.913,0.091,3.834,0.08,5.746c0,1.594-0.06,3.177-0.14,4.759c-0.102,1.676-0.202,3.342-0.112,5.027
		c0.071,1.213-0.02,2.436-0.06,3.66c-0.091,2.95-0.01,5.891,0.524,8.819c0.151,0.822,0.12,1.707,0.091,2.561
		c-0.071,1.735,0.04,3.474,0.151,5.211c0.15,2.498,0.21,4.997,0.342,7.504c0.101,1.82,0.292,3.641,0.382,5.459
		c0.112,2.128,0.143,4.255,0.242,6.384c0.042,0.945,0.203,1.882,0.232,2.816c0.029,1.244-0.061,2.487-0.212,3.732
		c-0.141,1.201-0.05,2.436-0.05,3.658c-0.02,3.63-0.03,7.268-0.061,10.907c-0.01,0.977-0.142,1.942-0.162,2.919
		c-0.01,0.936,0.071,1.871,0.091,2.807c0.041,1.984,0.161,3.968,0.071,5.94c-0.131,2.808-0.414,5.594-0.645,8.39
		c-0.061,0.719-0.222,1.429-0.293,2.159c-0.029,0.35,0.041,0.718,0.062,1.079c0.12,1.952,0.271,3.896,0.332,5.849
		c0.04,1.09-0.08,2.19-0.122,3.289c-0.02,0.453-0.039,0.916-0.029,1.367c0.01,0.155,0.02,0.278,0.051,0.381H5.114
		c0.061-0.616,0.121-1.234,0.171-1.84c0.03-0.309,0.071-0.606,0.081-0.915c0.01-2.046,0-4.091,0.03-6.138
		c0.03-1.336-0.183-2.631-0.534-3.885c-0.463-1.666-0.666-3.331-0.655-5.047c0.011-0.33,0.132-0.669,0.132-0.998
		c0.02-0.452,0.029-0.915-0.062-1.357c-0.161-0.698-0.222-1.376-0.01-2.065c0.03-0.113,0.081-0.246,0.04-0.35
		c-0.393-1.028-0.04-2.045,0.041-3.073c0.03-0.35-0.02-0.719-0.041-1.079c-0.03-0.36-0.06-0.721-0.09-1.079
		c-0.021-0.217-0.021-0.434-0.081-0.639c-0.554-1.983-0.504-4.039-0.716-6.064c-0.131-1.203-0.01-2.437,0.051-3.659
		c0.07-1.368,0.151-2.734,0.322-4.091c0.402-3.209,0.847-6.416,0.916-9.653c0.042-1.984,0.193-3.958,0.264-5.941
		c0.021-0.638-0.07-1.274-0.091-1.912c-0.021-0.36-0.04-0.729,0.021-1.09c0.171-1.089,0.382-2.148,0.231-3.279
		c-0.061-0.482,0.201-1.007,0.241-1.521c0.142-1.573,0.231-3.155,0.363-4.738c0.07-0.854,0.191-1.697,0.241-2.551
		c0.061-0.873,0.021-1.768,0.091-2.641c0.102-1.223,0.333-2.427,0.363-3.639c0.039-1.522,0.242-3.033,0.171-4.564
		c-0.061-1.357,0.071-2.766,0.403-4.081c0.595-2.363,0.463-4.719,0.211-7.082C7.079,98.715,7.2,97.4,7.462,96.075
		c0.312-1.646,0.544-3.301,0.826-4.946c0.11-0.637,0.281-1.254,0.343-1.891c0.271-2.456,0.585-4.914,0.736-7.38
		c0.11-1.851-0.021-3.711-0.042-5.572c-0.02-1.563-0.06-3.115-0.069-4.678c0-0.205,0.102-0.411,0.171-0.607
		c0.141-0.431,0.312-0.862,0.435-1.294c0.412-1.398,0.775-2.807,1.228-4.195c0.242-0.74,0.333-1.469,0.323-2.24
		c-0.011-0.967,0.041-1.913,0.483-2.837c0.645-1.377,1.139-2.817,1.663-4.236c0.322-0.864,0.493-1.757,0.453-2.693
		c-0.02-0.359,0.091-0.72,0.161-1.08c0.121-0.596,0.223-1.203,0.403-1.778c0.211-0.688,0.483-1.367,0.775-2.035
		c0.373-0.863,0.827-1.697,1.169-2.57c0.887-2.242,2.087-4.308,3.477-6.251c0.664-0.936,1.311-1.881,2.016-2.786
		c0.745-0.945,1.571-1.84,2.317-2.786c0.514-0.658,0.946-1.388,1.461-2.056c0.716-0.935,1.432-1.881,2.208-2.765
		c0.694-0.792,1.45-1.522,2.206-2.251c0.544-0.524,1.107-1.018,1.692-1.491c1.915-1.521,3.869-2.981,5.744-4.544
		c1.742-1.449,3.638-2.652,5.461-3.958c1.995-1.439,3.99-2.889,6.238-3.917c1.047-0.473,2.075-1.038,3.163-1.398
		c1.673-0.544,3.386-0.945,5.089-1.408c1.008-0.277,2.024-0.535,3.032-0.812c1.603-0.432,3.205-0.874,4.808-1.306
		c1.088-0.297,2.177-0.616,3.274-0.884c1.3-0.318,2.609-0.637,3.92-0.895c1.824-0.349,3.658-0.647,5.481-0.976
		c1.501-0.257,2.992-0.524,4.494-0.782c2.177-0.38,4.383-0.555,6.579-0.781c2.339-0.236,4.696-0.329,7.034-0.637
		c1.834-0.237,3.688-0.103,5.542-0.042c1.845,0.062,3.698,0.083,5.542-0.267c1.108-0.216,2.248-0.268,3.375-0.381
		c1.19-0.124,2.369-0.298,3.559-0.319c1.128-0.03,2.257,0.083,3.385,0.186c1.754,0.154,3.508,0.38,5.281,0.154
		c0.383-0.041,0.775,0,1.159,0.01c1.581,0.072,3.162,0.236,4.734,0.206c1.542-0.021,3.084-0.268,4.625-0.329
		c0.746-0.031,1.482,0.123,2.229,0.195c0.442,0.041,0.886,0.072,1.318,0.123c0.384,0.051,0.767,0.124,1.149,0.185
		c1.33,0.186,2.661,0.371,3.99,0.576c0.767,0.113,1.522,0.288,2.288,0.391c0.413,0.062,0.826,0.041,1.249,0.051
		c1.572,0.062,3.144,0,4.706,0.34c0.563,0.113,1.208,0.062,1.753-0.103c0.756-0.227,1.451-0.309,2.177,0.031
		c0.182,0.091,0.402,0.091,0.614,0.091c1.099,0.042,2.196,0.062,3.295,0.104c1.018,0.051,2.035,0.092,3.043,0.195
		c0.524,0.051,1.028,0.236,1.553,0.35c0.221,0.051,0.462,0.113,0.685,0.093c1.068-0.124,2.045,0,3.013,0.585
		c0.504,0.309,1.199,0.277,1.803,0.411c0.264,0.062,0.525,0.124,0.767,0.227c1.532,0.688,3.083,1.315,4.565,2.086
		c1.138,0.597,2.187,1.368,3.274,2.067c0.101,0.062,0.211,0.154,0.252,0.257c0.292,0.739,0.896,1.161,1.521,1.562
		c0.191,0.113,0.313,0.35,0.453,0.545c0.182,0.247,0.303,0.544,0.515,0.75c0.744,0.7,1.129,1.532,1.319,2.437
		c0.121,0.545,0.161,1.11,0.181,1.696C181.162,18.554,181.242,19.284,181.302,20.015z"/>
	<polygon fill-rule="evenodd" clip-rule="evenodd" fill="#FFFFFF" points="88.411,63.723 84.411,64.286 85.036,68.223 
		85.661,70.161 89.81,70.161 91.675,68.411 91.349,64.036 	"/>
	<g>
		<path fill-rule="evenodd" clip-rule="evenodd" d="M82.649-28.372c0.085,0.134,0.17,0.269,0.255,0.403
			c0.093-0.135,0.187-0.269,0.28-0.403C83.007-28.372,82.828-28.372,82.649-28.372z"/>
		<path fill-rule="evenodd" clip-rule="evenodd" d="M155.104,41.042c-2.34,0-4.688,0.096-7.02-0.044
			c-1.037-0.062-2.014-0.111-3.055,0.062c-1.234,0.207-2.516,0.132-3.778,0.173c-0.888,0.029-1.778,0.103-2.662,0.06
			c-1.179-0.058-2.351-0.23-3.528-0.315c-0.768-0.055-1.545-0.113-2.308-0.042c-1.442,0.132-2.882,0.251-4.329,0.183
			c-0.56-0.026-1.115-0.193-1.673-0.191c-1.012,0.002-2.004,0.148-2.919,0.645c-0.388,0.211-0.809,0.365-1.221,0.526
			c-1.015,0.398-1.77,1.093-2.545,1.861c-1.273,1.261-2.115,2.774-2.997,4.279c-0.189,0.323-0.231,0.729-0.374,1.083
			c-0.733,1.814-0.802,3.754-1.096,5.653c-0.235,1.525-0.533,3.041-0.765,4.566c-0.097,0.641-0.157,1.3-0.122,1.945
			c0.069,1.311-0.054,2.592-0.231,3.892c-0.239,1.758-0.283,3.543-0.406,5.317c-0.099,1.416-0.206,2.831-0.278,4.248
			c-0.067,1.33-0.051,2.655,0.067,3.991c0.123,1.382-0.003,2.785,0.011,4.178c0.016,1.865,0.092,3.73,0.086,5.596
			c-0.004,1.544-0.061,3.089-0.146,4.63c-0.092,1.628-0.198,3.248-0.104,4.884c0.068,1.183-0.025,2.375-0.062,3.562
			c-0.088,2.875-0.01,5.735,0.521,8.577c0.15,0.809,0.121,1.662,0.087,2.49c-0.071,1.695,0.038,3.38,0.147,5.07
			c0.156,2.431,0.212,4.868,0.347,7.3c0.099,1.774,0.284,3.543,0.378,5.317c0.107,2.067,0.143,4.139,0.239,6.207
			c0.043,0.916,0.202,1.827,0.228,2.742c0.033,1.211-0.062,2.414-0.209,3.624c-0.142,1.172-0.045,2.372-0.051,3.56
			c-0.018,3.538-0.023,7.076-0.059,10.615c-0.01,0.946-0.145,1.891-0.157,2.838c-0.013,0.911,0.069,1.823,0.087,2.734
			c0.037,1.927,0.157,3.858,0.066,5.78c-0.127,2.722-0.406,5.437-0.639,8.153c-0.061,0.702-0.217,1.396-0.284,2.099
			c-0.033,0.348,0.038,0.705,0.06,1.058c0.115,1.895,0.27,3.787,0.332,5.684c0.035,1.063-0.081,2.133-0.123,3.199
			c-0.019,0.445-0.043,0.893-0.027,1.338c0.02,0.607,0.201,0.763,0.793,0.841c0.629,0.083,2.003-0.454,2.211-1.201
			c0.133-0.477,0.238-0.962,0.332-1.448c0.09-0.462,0.211-0.929,0.211-1.394c0-2.167-0.025-4.335-0.067-6.502
			c-0.018-0.913-0.149-1.826-0.133-2.737c0.015-0.822,0.157-1.643,0.249-2.463c0.102-0.909,0.209-1.818,0.316-2.728
			c0.098-0.823,0.201-1.645,0.296-2.468c0.024-0.206,0.03-0.415,0.03-0.622c0.004-0.709,0.002-1.417,0.003-2.126
			c0.001-0.858-0.001-1.717,0.003-2.575c0.001-0.384,0.01-0.769,0.018-1.152c0.006-0.238,0.074-0.492,0.014-0.711
			c-0.34-1.226-0.083-2.457-0.048-3.683c0.036-1.244,0.212-2.484,0.235-3.728c0.021-1.181-0.075-2.362-0.12-3.544
			c-0.007-0.179-0.069-0.377-0.011-0.531c0.357-0.949,0-1.937,0.18-2.898c0.08-0.427-0.019-0.885-0.008-1.328
			c0.055-2.375,0.012-4.76,0.223-7.121c0.119-1.349-0.139-2.657-0.059-3.99c0.053-0.878-0.135-1.758-0.111-2.658
			c0.031-1.203-0.231-2.411-0.307-3.62c-0.145-2.331-0.244-4.664-0.365-6.996c-0.048-0.947-0.085-1.896-0.152-2.842
			c-0.102-1.421-0.253-2.839-0.332-4.262c-0.08-1.448-0.113-2.899-0.135-4.351c-0.013-0.893,0.021-1.779-0.293-2.643
			c-0.109-0.299-0.109-0.642-0.131-0.966c-0.178-2.642-0.07-5.28-0.023-7.923c0.041-2.342,0.041-4.686,0.082-7.029
			c0.032-1.869,0.178-3.746,0.062-5.606c-0.093-1.489-0.09-2.964-0.039-4.448c0.041-1.215,0.096-2.431,0.084-3.646
			c-0.01-1.186-0.144-2.371-0.134-3.556c0.007-0.854,0.202-1.706,0.239-2.562c0.059-1.364,0.096-2.731,0.064-4.096
			c-0.033-1.384,0.361-2.705,0.481-4.061c0.109-1.238,0.097-2.486,0.166-3.729c0.037-0.68,0.11-1.359,0.204-2.033
			c0.199-1.439,0.423-2.875,0.634-4.312c0.03-0.205-0.018-0.447,0.076-0.612c0.708-1.244,0.681-2.695,1.165-4.004
			c0.655-1.774,1.725-3.241,3.157-4.448c0.26-0.219,0.636-0.315,0.972-0.424c0.424-0.137,0.864-0.217,1.292-0.343
			c0.981-0.288,1.95-0.31,2.983-0.203c1.221,0.126,2.493,0.054,3.709-0.144c2.224-0.362,4.377-0.088,6.525,0.422
			c0.365,0.087,0.665,0.063,1.023-0.055c0.405-0.133,0.864-0.123,1.301-0.133c1.364-0.032,2.758,0.123,4.086-0.106
			c1.617-0.279,3.204-0.137,4.787-0.017c1.721,0.131,3.43,0.046,5.143,0.031c0.701-0.006,1.406,0.089,2.101,0.034
			c0.673-0.054,1.33-0.271,2.001-0.367c1.783-0.256,3.535-0.718,5.368-0.674c0.612,0.015,1.24-0.348,1.853-0.563
			c2.185-0.765,4.23-1.836,6.301-2.855c1.65-0.812,2.94-2.053,4.189-3.368c0.665-0.701,1.145-1.483,1.577-2.339
			c0.479-0.948,1.136-1.805,1.678-2.724c0.644-1.089,1.433-2.141,1.826-3.32c0.632-1.898,1.134-3.863,0.939-5.919
			c-0.181-1.918-0.22-3.856-0.518-5.753c-0.312-1.979-1.015-3.835-2.667-5.167c-0.225-0.181-0.416-0.429-0.561-0.682
			c-0.298-0.525-0.739-0.907-1.143-1.34c-1.075-1.153-2.469-1.845-3.729-2.721c-1.084-0.754-2.325-1.274-3.58-1.736
			c-0.771-0.284-1.489-0.714-2.251-1.031c-0.953-0.396-1.909-0.805-2.896-1.098c-1.272-0.377-2.573-0.665-3.87-0.95
			c-0.547-0.12-1.121-0.208-1.676-0.181c-2.244,0.109-4.437-0.357-6.654-0.524c-0.029-0.002-0.064-0.003-0.087-0.019
			c-0.759-0.52-1.598-0.261-2.404-0.233c-1.746,0.062-3.495,0.275-5.235,0.216c-1.52-0.051-3.07,0.062-4.562-0.477
			c-0.6-0.217-1.284-0.202-1.931-0.286c-1.089-0.141-2.181-0.263-3.267-0.423c-0.378-0.056-0.746-0.193-1.114-0.306
			c-1.194-0.363-2.417-0.226-3.63-0.198c-0.649,0.015-1.299,0.087-1.944,0.171c-1.716,0.221-3.43,0.029-5.145,0.018
			c-1.571-0.011-3.144,0.055-4.714,0.021c-1.036-0.022-2.069-0.159-3.103-0.252c-0.235-0.021-0.469-0.112-0.702-0.111
			c-1.569,0.007-3.143-0.078-4.701,0.184c-0.231,0.039-0.471,0.025-0.705,0.044c-0.732,0.057-1.453,0.099-2.184,0.282
			c-0.874,0.219-1.804,0.223-2.711,0.306c-0.234,0.021-0.479-0.043-0.71-0.007c-2.276,0.362-4.559,0.18-6.845,0.142
			c-1.684-0.028-3.371,0.188-5.055,0.335c-1.242,0.108-2.482,0.257-3.718,0.427c-1.571,0.216-3.163,0.199-4.729,0.412
			c-2.371,0.321-4.756,0.568-7.09,1.127c-1.34,0.32-2.675,0.667-4.027,0.923c-2.214,0.42-4.445,0.747-6.658,1.174
			c-0.926,0.178-1.819,0.522-2.732,0.771c-1.369,0.373-2.743,0.722-4.111,1.096c-0.395,0.107-0.768,0.291-1.163,0.396
			c-2.257,0.602-4.536,1.125-6.768,1.81c-1.241,0.38-2.497,0.75-3.71,1.189c-1.323,0.479-2.548,1.268-3.753,2.021
			c-1.755,1.098-3.476,2.256-5.173,3.442c-1.531,1.069-3.008,2.214-4.516,3.318c-0.598,0.438-1.211,0.853-1.818,1.277
			c-0.072,0.051-0.155,0.09-0.223,0.146c-1.684,1.4-3.375,2.79-5.043,4.207c-1.449,1.231-2.811,2.558-4.016,4.03
			c-0.655,0.8-1.281,1.614-1.764,2.552c-0.371,0.723-0.966,1.335-1.49,1.972c-0.566,0.686-1.166,1.342-1.751,2.011
			c-0.254,0.291-0.505,0.584-0.766,0.869c-0.141,0.153-0.334,0.268-0.44,0.439c-0.832,1.331-1.675,2.656-2.462,4.013
			c-0.713,1.229-1.405,2.474-2.022,3.752c-0.553,1.146-0.977,2.355-1.486,3.523c-0.735,1.688-0.86,3.495-1.122,5.285
			C10.303,54.106,10,55.206,9.644,56.27c-0.27,0.802-0.695,1.559-1.105,2.306c-0.506,0.923-0.654,1.946-0.59,2.93
			c0.098,1.51-0.288,2.911-0.816,4.241c-0.85,2.138-1.27,4.312-1.248,6.6c0.025,2.707,0.024,5.413-0.001,8.119
			C5.876,81.233,5.747,82,5.666,82.765c-0.159,1.498-0.28,3.002-0.497,4.492c-0.23,1.58-0.489,3.162-0.852,4.715
			c-0.537,2.305-0.791,4.603-0.537,6.972c0.167,1.557,0.115,3.122-0.157,4.69c-0.442,2.549-0.498,5.139-0.551,7.723
			c-0.026,1.276-0.024,2.575-0.266,3.82c-0.426,2.206-0.214,4.441-0.479,6.649c-0.273,2.269-0.525,4.54-0.785,6.812
			c-0.026,0.235-0.068,0.475-0.056,0.709c0.126,2.431-0.155,4.854-0.085,7.287c0.05,1.688-0.025,3.382-0.122,5.068
			c-0.056,0.971-0.274,1.931-0.396,2.898c-0.085,0.676-0.128,1.356-0.19,2.035c-0.086,0.916-0.098,1.846-0.273,2.744
			c-0.391,2.001-0.445,4.01-0.41,6.038c0.035,2.084,0.224,4.149,0.495,6.211c0.151,1.147,0.327,2.293,0.431,3.444
			c0.062,0.706,0.023,1.422,0.008,2.134c-0.025,1.127-0.102,2.254-0.1,3.382c0.002,1.663-0.004,3.33,0.113,4.987
			c0.051,0.715,0.401,1.409,0.618,2.111c0.017,0.055,0.075,0.101,0.084,0.155c0.167,0.989,0.332,1.979,0.487,2.971
			c0.027,0.174-0.032,0.367,0.016,0.533c0.468,1.644-0.068,3.281-0.027,4.922c0.023,0.915-0.027,1.833-0.056,2.749
			c-0.052,1.649-0.106,3.299-0.169,4.947c-0.028,0.741-0.112,1.482-0.103,2.223c0.006,0.488,0.108,0.981,0.216,1.462
			c0.064,0.286,0.299,0.487,0.604,0.356c0.517-0.22,1.067-0.421,1.495-0.766c0.448-0.361,0.827-0.826,0.85-1.496
			c0.046-1.39,0.13-2.778,0.224-4.165c0.064-0.947,0.172-1.892,0.259-2.837c0.027-0.296,0.069-0.592,0.071-0.888
			c0.016-1.99,0.002-3.98,0.037-5.971c0.023-1.294-0.183-2.558-0.532-3.783c-0.459-1.611-0.663-3.24-0.646-4.904
			c0.003-0.324,0.122-0.646,0.13-0.971c0.012-0.439,0.027-0.895-0.068-1.317c-0.152-0.68-0.214-1.34-0.005-2.013
			c0.033-0.107,0.075-0.243,0.038-0.337c-0.387-1.006-0.041-1.995,0.039-2.992c0.029-0.346-0.02-0.698-0.043-1.047
			c-0.023-0.353-0.057-0.704-0.09-1.056c-0.02-0.206-0.017-0.42-0.072-0.616c-0.549-1.93-0.506-3.934-0.715-5.903
			c-0.124-1.172-0.006-2.374,0.057-3.561c0.07-1.329,0.146-2.663,0.316-3.982c0.402-3.121,0.836-6.234,0.908-9.39
			c0.044-1.925,0.194-3.849,0.264-5.774c0.021-0.619-0.073-1.241-0.098-1.863c-0.014-0.353-0.033-0.714,0.023-1.06
			c0.172-1.055,0.378-2.094,0.234-3.185c-0.062-0.475,0.195-0.983,0.24-1.483c0.135-1.534,0.229-3.073,0.354-4.608
			c0.067-0.828,0.19-1.653,0.244-2.481c0.056-0.856,0.022-1.719,0.091-2.573c0.096-1.184,0.33-2.359,0.36-3.543
			c0.037-1.477,0.235-2.941,0.166-4.434c-0.062-1.318,0.074-2.694,0.403-3.973c0.592-2.304,0.453-4.588,0.206-6.893
			c-0.141-1.311-0.014-2.59,0.239-3.879c0.314-1.596,0.547-3.207,0.823-4.81c0.105-0.614,0.274-1.219,0.343-1.835
			c0.266-2.391,0.58-4.78,0.724-7.179c0.108-1.802-0.013-3.618-0.038-5.428c-0.02-1.515-0.056-3.03-0.066-4.545
			c-0.002-0.197,0.102-0.397,0.167-0.592c0.142-0.421,0.307-0.835,0.435-1.26c0.408-1.358,0.77-2.732,1.217-4.077
			c0.239-0.719,0.324-1.428,0.316-2.177c-0.011-0.945,0.047-1.863,0.48-2.769c0.638-1.332,1.13-2.734,1.656-4.118
			c0.318-0.839,0.489-1.709,0.445-2.621c-0.017-0.347,0.088-0.702,0.159-1.049c0.12-0.579,0.219-1.167,0.397-1.728
			c0.216-0.674,0.483-1.335,0.77-1.983c0.371-0.84,0.825-1.645,1.168-2.495c0.881-2.183,2.062-4.188,3.443-6.084
			c0.661-0.908,1.305-1.831,2.004-2.708c0.738-0.925,1.555-1.786,2.297-2.708c0.517-0.641,0.943-1.353,1.449-2.003
			c0.708-0.912,1.42-1.825,2.189-2.685c0.689-0.771,1.445-1.485,2.197-2.196c0.536-0.507,1.098-0.993,1.68-1.447
			c1.895-1.479,3.84-2.898,5.7-4.42c1.722-1.409,3.608-2.579,5.419-3.854c1.978-1.394,3.961-2.806,6.189-3.802
			c1.04-0.465,2.055-1.014,3.135-1.36c1.66-0.533,3.365-0.926,5.053-1.375c1.003-0.266,2.009-0.52,3.012-0.787
			c1.59-0.423,3.178-0.853,4.768-1.278c1.084-0.29,2.164-0.596,3.254-0.859c1.291-0.311,2.584-0.615,3.888-0.864
			c1.808-0.345,3.625-0.635,5.438-0.948c1.487-0.256,2.975-0.511,4.463-0.767c2.162-0.371,4.345-0.54,6.525-0.756
			c2.324-0.231,4.66-0.319,6.979-0.62c1.827-0.237,3.666-0.101,5.507-0.043c1.825,0.058,3.668,0.08,5.492-0.263
			c1.104-0.207,2.235-0.256,3.355-0.367c1.176-0.117,2.352-0.288,3.531-0.312c1.118-0.023,2.242,0.088,3.359,0.183
			c1.742,0.148,3.479,0.375,5.234,0.154c0.379-0.048,0.771-0.008,1.156,0.01c1.566,0.071,3.133,0.225,4.697,0.202
			c1.533-0.022,3.061-0.261,4.594-0.327c0.731-0.031,1.471,0.121,2.205,0.189c0.438,0.041,0.877,0.073,1.312,0.125
			c0.38,0.046,0.756,0.119,1.135,0.173c1.321,0.188,2.645,0.364,3.964,0.562c0.759,0.114,1.511,0.278,2.271,0.384
			c0.406,0.056,0.824,0.034,1.236,0.048c1.562,0.058,3.127-0.003,4.678,0.327c0.553,0.118,1.193,0.063,1.74-0.096
			c0.748-0.217,1.438-0.296,2.158,0.034c0.178,0.082,0.4,0.081,0.604,0.087c1.093,0.038,2.186,0.055,3.278,0.102
			c1.007,0.043,2.015,0.084,3.016,0.184c0.519,0.052,1.024,0.232,1.538,0.343c0.223,0.048,0.457,0.115,0.677,0.089
			c1.061-0.124,2.032,0,2.991,0.571c0.502,0.298,1.193,0.273,1.797,0.405c0.256,0.056,0.518,0.112,0.756,0.217
			c1.518,0.664,3.061,1.281,4.533,2.033c1.129,0.577,2.169,1.329,3.245,2.008c0.099,0.062,0.208,0.149,0.249,0.25
			c0.295,0.72,0.889,1.123,1.514,1.514c0.188,0.118,0.312,0.348,0.451,0.537c0.176,0.238,0.299,0.528,0.51,0.723
			c1.187,1.095,1.444,2.515,1.493,4.029c0.022,0.709,0.103,1.417,0.17,2.125c0.155,1.619-0.245,3.196-0.495,4.764
			c-0.16,1.009-0.781,1.969-1.301,2.892c-0.856,1.524-1.814,2.992-2.697,4.502c-0.869,1.487-2.098,2.608-3.409,3.699
			c-1.806,1.501-3.976,2.219-6.064,3.124c-1.962,0.849-4.028,1.174-6.154,1.181c-0.089,0-0.188-0.006-0.265,0.029
			C158.266,41.146,156.671,41.047,155.104,41.042z"/>
		<path fill-rule="evenodd" clip-rule="evenodd" d="M41.405,111.551c-0.287,0.036-0.573,0.086-0.861,0.105
			c-0.976,0.065-1.391,0.703-1.538,1.354c-0.21,0.925-0.39,1.856-0.601,2.782c-0.138,0.605-0.275,1.215-0.469,1.804
			c-0.517,1.567-0.663,3.19-0.791,4.818c-0.015,0.178-0.018,0.357-0.049,0.532c-0.328,1.808-0.487,3.631-0.523,5.466
			c-0.01,0.502,0.059,1.006,0.084,1.51c0.02,0.382-0.016,0.771,0.048,1.145c0.176,1.026-0.153,2.031-0.071,3.059
			c0.07,0.877,0.043,1.777-0.068,2.65c-0.273,2.174,0.148,4.315,0.188,6.472c0.019,0.998-0.118,2.015-0.313,2.997
			c-0.241,1.219-0.656,2.402-0.921,3.617c-0.17,0.777-0.328,1.595-0.263,2.375c0.066,0.806-0.304,1.507-0.299,2.276
			c0.001,0.099-0.106,0.197-0.242,0.43c-0.208-0.31-0.39-0.525-0.511-0.771c-0.391-0.792-0.69-1.638-1.149-2.386
			c-1.005-1.633-1.616-3.439-2.301-5.201c-0.775-2-1.261-4.085-1.353-6.271c-0.088-2.098-0.177-4.204-0.615-6.282
			c-0.306-1.453-0.047-2.952-0.035-4.429c0.014-1.721,0.117-3.44,0.192-5.16c0.049-1.127,0.117-2.252,0.176-3.378
			c0.075-1.421,0.215-2.842,0.208-4.262c-0.011-2.09,0.261-4.125,0.716-6.162c0.242-1.082,0.227-2.229,0.254-3.35
			c0.018-0.717,0.014-1.418,0.273-2.104c0.504-1.331,1.022-2.657,1.458-4.011c0.417-1.297,0.729-2.628,1.103-3.939
			c0.162-0.568,0.418-1.114,0.533-1.689c0.19-0.95-0.217-1.379-1.199-1.367c-1.115,0.014-1.71,0.428-2.092,1.455
			c-0.732,1.973-1.57,3.914-2.158,5.929c-0.34,1.167-1.008,2.202-1.21,3.407c-0.122,0.729-0.343,1.445-0.421,2.176
			c-0.102,0.941-0.1,1.894-0.151,2.84c-0.013,0.236-0.029,0.48-0.099,0.704c-0.274,0.88-0.424,1.774-0.555,2.688
			c-0.126,0.88-0.123,1.758-0.182,2.632c-0.113,1.684,0.007,3.392-0.211,5.057c-0.291,2.224-0.164,4.443-0.25,6.663
			c-0.012,0.293-0.119,0.58-0.148,0.874c-0.034,0.35-0.036,0.702-0.047,1.054c-0.006,0.234,0.07,0.503-0.018,0.697
			c-0.296,0.654-0.178,1.275,0.035,1.907c0.037,0.11,0.111,0.246,0.078,0.337c-0.316,0.86,0.176,1.628,0.254,2.441
			c0.157,1.622,0.359,3.244,0.408,4.871c0.074,2.456,0.494,4.821,1.29,7.152c0.319,0.938,0.784,1.81,1.084,2.761
			c0.359,1.14,1.04,2.18,1.586,3.26c0.333,0.659,0.676,1.313,1.014,1.97c0.458,0.89,0.854,1.819,1.396,2.656
			c0.395,0.611,0.963,1.117,1.486,1.637c0.156,0.155,0.418,0.248,0.643,0.279c0.586,0.079,1.178,0.129,1.769,0.145
			c0.186,0.005,0.42-0.092,0.554-0.222c0.602-0.582,1.139-1.206,1.293-2.08c0.305-1.718,0.645-3.43,0.945-5.148
			c0.143-0.813,0.214-1.639,0.35-2.453c0.107-0.643,0.201-1.299,0.411-1.911c0.594-1.734,0.845-3.525,0.864-5.338
			c0.016-1.294-0.156-2.588-0.213-3.884c-0.044-1.006-0.095-2.019,0.265-2.994c0.06-0.163,0.082-0.354,0.066-0.527
			c-0.13-1.425,0.082-2.841,0.095-4.259c0.007-0.87,0.219-1.777-0.205-2.623c-0.037-0.075-0.045-0.178-0.033-0.263
			c0.178-1.229,0.375-2.457,0.537-3.688c0.082-0.612,0.191-1.243,0.125-1.848c-0.062-0.552,0.04-1.05,0.128-1.572
			c0.379-2.253,0.742-4.509,1.107-6.764C42.408,113.255,42.104,112.326,41.405,111.551z"/>
		<path fill-rule="evenodd" clip-rule="evenodd" d="M96.33,161.627c-0.194-0.874-0.37-1.611-0.521-2.354
			c-0.506-2.502-0.337-5.078-0.785-7.578c-0.24-1.342,0.008-2.659-0.102-3.986c-0.057-0.667,0.178-1.36,0.111-2.024
			c-0.241-2.409-0.26-4.827-0.349-7.242c-0.024-0.68,0.016-1.364,0.069-2.043c0.115-1.471-0.256-2.889-0.429-4.329
			c-0.056-0.468-0.103-0.941-0.1-1.412c0.009-1.454,0.074-2.909,0.052-4.363c-0.01-0.584-0.17-1.17-0.302-1.746
			c-0.319-1.386-0.637-2.773-1.005-4.146c-0.19-0.713-0.404-1.401-0.374-2.159c0.012-0.291-0.261-0.583-0.355-0.89
			c-0.217-0.709-0.401-1.429-0.604-2.143c-0.268-0.949-1.273-1.394-2.176-0.962c-0.134,0.063-0.261,0.143-0.396,0.199
			c-0.542,0.231-0.812,0.597-0.662,1.154c0.141,0.523,0.023,1.152,0.551,1.555c0.084,0.064,0.077,0.272,0.082,0.415
			c0.012,0.44-0.047,0.891,0.026,1.318c0.15,0.877,0.184,1.757,0.246,2.64c0.058,0.814,0.287,1.637,0.567,2.409
			c0.422,1.168,0.573,2.35,0.526,3.58c-0.046,1.215-0.181,2.453-0.005,3.641c0.113,0.756,0.212,1.511,0.262,2.272
			c0.152,2.334,0.227,4.668,0.164,7.009c-0.019,0.671,0.188,1.345,0.261,2.021c0.132,1.234,0.312,2.471,0.339,3.709
			c0.037,1.657-0.11,3.317-0.066,4.974c0.025,0.972,0.285,1.936,0.406,2.907c0.091,0.733,0.124,1.475,0.188,2.212
			c0.11,1.271,0.195,2.545,0.347,3.812c0.161,1.354,0.709,2.573,1.594,3.603c0.466,0.543,0.582,1.169,0.658,1.805
			c0.144,1.224,0.837,1.763,2.016,1.475c0.202-0.05,0.404-0.149,0.605-0.146c0.852,0.016,1.273-0.546,1.576-1.201
			c0.38-0.828,0.795-1.63,0.931-2.575c0.129-0.895,0.485-1.764,0.8-2.623c0.768-2.105,1.182-4.289,1.534-6.491
			c0.122-0.762,0.292-1.516,0.453-2.271c0.419-1.966,0.386-3.953,0.321-5.946c-0.067-2.11,0.023-4.215,0.26-6.314
			c0.05-0.437-0.039-0.888-0.027-1.331c0.047-1.897,0.029-3.802,0.184-5.691c0.219-2.671,0.146-5.328,0.031-7.999
			c-0.104-2.409-0.588-4.773-0.721-7.17c-0.133-2.402-0.428-4.785-0.691-7.173c-0.078-0.707-0.129-1.403-0.383-2.086
			c-0.369-0.989-0.98-1.426-2.025-1.304c-0.41,0.049-0.814,0.168-1.225,0.184c-0.484,0.02-0.666,0.315-0.612,0.695
			c0.19,1.349-0.062,2.732,0.376,4.063c0.164,0.498,0.201,1.044,0.25,1.571c0.186,1.973,0.32,3.951,0.541,5.919
			c0.108,0.97,0.438,1.915,0.539,2.885c0.146,1.407,0.215,2.825,0.25,4.241c0.031,1.208-0.021,2.419-0.055,3.628
			c-0.068,2.461-0.145,4.922-0.229,7.382c-0.037,1.066-0.141,2.131-0.146,3.196c-0.012,1.955,0.025,3.911,0.047,5.866
			c0.012,1.036,0.064,2.072,0.036,3.106c-0.013,0.465-0.197,0.923-0.274,1.389c-0.241,1.464-0.392,2.946-0.72,4.39
			c-0.46,2.022-1.046,4.017-1.585,6.021C96.572,161.297,96.468,161.404,96.33,161.627z"/>
		<path fill-rule="evenodd" clip-rule="evenodd" d="M74.833,64.427c1.23-0.55,2.572-0.635,3.872-0.895
			c0.4-0.08,0.798-0.176,1.194-0.277c0.257-0.065,0.504-0.2,0.763-0.222c0.944-0.083,1.894-0.107,2.837-0.198
			c1.205-0.116,2.406-0.28,3.609-0.413c0.615-0.068,1.234-0.12,1.852-0.168c0.266-0.021,0.537,0.015,0.799-0.025
			c1.258-0.192,2.512-0.407,3.769-0.603c0.556-0.087,1.154-0.051,1.665-0.248c0.883-0.34,1.76-0.21,2.634-0.126
			c0.819,0.079,1.111,0.77,0.835,1.556c-0.272,0.778-0.863,0.968-1.57,1.072c-0.879,0.129-1.754,0.277-2.625,0.449
			c-0.621,0.124-1,0.552-1.054,1.167c-0.064,0.731-0.067,1.472-0.038,2.207c0.033,0.824,0.293,1.636,0.041,2.472
			c-0.176,0.585-0.478,0.895-1.081,0.982c-0.322,0.046-0.643,0.105-0.965,0.147c-0.817,0.105-1.634,0.227-2.454,0.299
			c-0.734,0.065-1.521-0.071-2.2,0.148c-0.706,0.227-1.297,0.039-1.892-0.144c-0.969-0.296-1.61-1.079-1.645-2.166
			c-0.027-0.859-0.087-1.72-0.189-2.573c-0.127-1.066-0.51-1.343-1.535-1.123c-1.561,0.334-3.114,0.701-4.67,1.058
			c-0.699,0.161-1.348,0.09-1.948-0.343c-0.257-0.185-0.557-0.308-0.893-0.489C73.888,65.061,74.044,64.779,74.833,64.427z
			 M88.925,69.044c0.336,0.013,0.59-0.173,0.625-0.512c0.104-1.001,0.182-2.005,0.26-3.008c0.008-0.111-0.05-0.227-0.075-0.333
			c-0.41-0.267-0.816-0.124-1.222-0.062c-0.469,0.071-0.942,0.118-1.41,0.197c-0.693,0.118-0.773,0.256-0.619,0.964
			c0.105,0.49,0.217,0.98,0.301,1.475c0.053,0.316,0.061,0.64,0.106,1.153C87.587,68.963,88.256,69.019,88.925,69.044z"/>
		<path fill-rule="evenodd" clip-rule="evenodd" d="M59.763,21.894c0.082,0.625,0.416,1.095,1.004,1.311
			c0.476,0.174,0.903,0.021,1.295-0.5c0.176-0.234,0.327-0.493,0.453-0.759c0.57-1.206,1.092-2.436,1.699-3.623
			c0.629-1.231,1.359-2.41,2-3.635c0.285-0.544,0.506-1.134,0.666-1.727c0.188-0.699,0.021-0.955-0.628-1.262
			c-1.048-0.494-1.737-0.283-2.339,0.701c-0.494,0.807-1.017,1.597-1.498,2.412c-0.359,0.606-0.729,1.191-0.882,1.924
			c-0.142,0.678-0.594,1.285-0.819,1.953C60.357,19.744,60.076,20.824,59.763,21.894z"/>
		<path fill-rule="evenodd" clip-rule="evenodd" d="M70.978,21.358c0.262,0,0.468,0.004,0.674-0.001
			c0.65-0.016,1.061-0.44,0.818-1.035c-0.423-1.044-0.084-1.928,0.219-2.914c0.316-1.032,0.359-2.151,0.479-3.237
			c0.061-0.558-0.012-1.131,0.045-1.69c0.1-0.974-1.549-1.806-2.396-1.32c-0.215,0.124-0.387,0.458-0.434,0.722
			c-0.221,1.225-0.432,2.455-0.564,3.692c-0.117,1.083-0.14,2.176-0.167,3.266c-0.007,0.284,0.061,0.609,0.202,0.851
			C70.181,20.251,70.575,20.77,70.978,21.358z"/>
		<path fill-rule="evenodd" clip-rule="evenodd" d="M77.111,11.086c0.184,1.176,0.264,2.432,0.813,3.628
			c0.332,0.723,0.652,1.447,1.076,2.117c0.33,0.521,0.695,1.022,1.082,1.504c0.384,0.479,0.952,0.457,1.477,0.372
			c0.399-0.065,0.646-0.679,0.48-1.094c-0.099-0.245-0.258-0.467-0.403-0.689c-0.952-1.454-1.353-3.081-1.439-4.787
			c-0.04-0.792,0.011-1.593,0.085-2.383c0.037-0.396-0.087-0.64-0.41-0.79c-0.455-0.21-0.914-0.424-1.392-0.572
			c-0.592-0.184-0.985,0.062-1.1,0.681C77.263,9.714,77.205,10.365,77.111,11.086z"/>
		<path fill-rule="evenodd" clip-rule="evenodd" d="M156.92,25.933c-0.146,0.064-0.484,0.136-0.718,0.332
			c-0.495,0.417-0.939,0.895-1.398,1.354c-0.697,0.697-0.824,1.516-0.33,2.344c0.277,0.467,0.677,0.906,1.119,1.22
			c0.609,0.433,0.992,0.304,1.505-0.29c0.095-0.109,0.195-0.238,0.321-0.291c0.771-0.321,1.106-1.012,1.512-1.668
			c0.339-0.549,0.254-1.082,0.085-1.62C158.804,26.633,157.804,25.942,156.92,25.933z"/>
		<path fill-rule="evenodd" clip-rule="evenodd" d="M163.739,27.101c0.086,0.403,0.177,1.022,0.357,1.614
			c0.192,0.634,0.975,1.133,1.656,1.146c0.734,0.013,1.203-0.334,1.54-1.101c0.155-0.352,0.36-0.681,0.538-1.022
			c0.136-0.263,0.305-0.517,0.391-0.796c0.431-1.397-0.762-2.667-2.18-2.305c-0.512,0.131-1.016,0.336-1.487,0.576
			C163.885,25.553,163.77,26.207,163.739,27.101z"/>
		<path fill-rule="evenodd" clip-rule="evenodd" fill="none" d="M86.891,68.918c0.696,0.045,1.365,0.101,2.034,0.126
			c0.336,0.013,0.59-0.173,0.625-0.512c0.104-1.001,0.182-2.005,0.26-3.008c0.008-0.111-0.05-0.227-0.075-0.333
			c-0.41-0.267-0.816-0.124-1.222-0.062c-0.469,0.071-0.942,0.118-1.41,0.197c-0.693,0.118-0.773,0.256-0.619,0.964
			c0.105,0.49,0.217,0.98,0.301,1.475C86.837,68.081,86.845,68.404,86.891,68.918z"/>
	</g>
</g>
</svg>
