<?xml version="1.0" encoding="utf-8"?>
<!-- Generator: Adobe Illustrator 16.0.0, SVG Export Plug-In . SVG Version: 6.00 Build 0)  -->
<!DOCTYPE svg PUBLIC "-//W3C//DTD SVG 1.1//EN" "http://www.w3.org/Graphics/SVG/1.1/DTD/svg11.dtd">
<svg version="1.1" id="Ebene_1" xmlns="http://www.w3.org/2000/svg" xmlns:xlink="http://www.w3.org/1999/xlink" x="0px" y="0px"
	 width="180.288px" height="146.333px" viewBox="0 0 180.288 146.333" enable-background="new 0 0 180.288 146.333"
	 xml:space="preserve">
<g>
	<path fill="#F44642" d="M177.507,109.67c0.121,1.681,0.081,3.352-0.142,5.032c-0.262,1.996-0.523,4.023-0.483,6.03
		c0.03,1.69-0.333,3.288-0.464,4.937c-0.121,1.377-0.383,2.732-0.435,4.107c-0.079,2.007,0,4.024-0.039,6.041
		c-0.021,1.356-0.111,2.711-0.202,4.056c-0.021,0.325-0.232,0.651-0.223,0.966c0.052,1.46,0.152,2.911,0.223,4.371
		c0.041,0.651,0.081,1.303,0.101,1.954c0.021,0.788,0.041,1.576,0.041,2.364c-0.011,0.766-0.202,1.575-0.041,2.3
		c0.111,0.525,0.313,1.03,0.535,1.523H37.676c-0.121-0.925-0.272-1.849-0.363-2.773c-0.121-1.198-0.161-2.396-0.212-3.603
		c-0.1-2.249-0.252-4.519-0.231-6.767c0.021-2.752,0.212-5.505,0.322-8.257c0.03-0.83,0.062-1.66,0.071-2.49
		c0.01-1.839,0.03-3.677,0-5.516c-0.02-1.46-0.131-2.909-0.202-4.369c-0.04-0.81-0.091-1.619-0.131-2.428
		c-0.05-0.945-0.091-1.891-0.131-2.837c-0.03-0.914-0.051-1.849-0.111-2.763c-0.061-1.081-0.212-2.164-0.252-3.246
		c-0.041-1.104,0.011-2.217,0.011-3.319c0.02-2.869,0.029-5.736,0.06-8.615c0.021-1.796,0.071-3.593,0.111-5.379
		c0.041-1.586,0.101-3.162,0.11-4.748c0.021-1.975,0-3.95,0-5.926c0-0.851,0-1.701,0-2.542c-0.01-1.135-0.01-2.27-0.01-3.393
		c-0.01-0.379-0.04-0.757-0.07-1.125c-0.091-1.008,0.252-2.027-0.101-3.035c-0.071-0.211-0.071-0.474-0.021-0.704
		c0.384-1.828-0.021-3.646,0-5.474c0.011-0.883-0.101-1.775-0.142-2.658c-0.091-1.817-0.19-3.624-0.242-5.441
		c-0.02-1.04,0.052-2.091,0.081-3.131c0.03-0.809,0.102-1.606,0.091-2.406c-0.021-0.924-0.131-1.858-0.151-2.793
		c-0.03-1.272-0.201-2.502-0.766-3.677c-0.444-0.946-0.878-1.913-1.13-2.922c-0.413-1.617-1.543-2.51-2.783-3.257
		c-1.039-0.63-2.259-0.609-3.438-0.734c-0.424-0.043-0.827-0.295-1.251-0.316c-0.656-0.03-1.311,0.063-1.967,0.095
		c-0.282,0.01-0.585,0.063-0.847,0c-0.816-0.199-1.624-0.431-2.44-0.661c-0.656-0.189-1.311-0.367-1.957-0.578
		c-0.826-0.283-1.653-0.6-2.48-0.883c-0.282-0.094-0.604-0.104-0.866-0.231c-0.949-0.462-1.896-0.893-2.976-0.903
		c-0.354,0-0.706,0-1.039-0.094c-1.432-0.399-2.854-0.799-4.255-1.283c-0.807-0.283-1.563-0.713-2.33-1.112
		c-0.231-0.116-0.453-0.284-0.636-0.483c-0.493-0.546-0.978-1.103-1.441-1.67c-0.948-1.177-1.644-2.458-1.281-4.086
		c0.061-0.305,0.313-0.63,0.252-0.893c-0.039-0.189-0.039-0.368-0.01-0.536c0.091-0.557,0.475-1.02,0.565-1.565
		c0.06-0.441,0.292-0.893,0.533-1.271c0.414-0.62,0.979-1.135,1.332-1.775c0.353-0.662,0.856-1.092,1.401-1.523
		c0.727-0.557,1.412-1.167,2.148-1.691c1.169-0.83,2.349-1.649,3.58-2.374c0.987-0.599,2.036-1.083,3.085-1.566
		c0.969-0.441,1.977-0.809,2.956-1.218c0.604-0.263,1.209-0.536,1.814-0.83c0.202-0.095,0.353-0.294,0.555-0.368
		c0.928-0.357,1.876-0.662,2.804-1.029c0.424-0.158,0.786-0.494,1.209-0.63C25.374,7.252,26.26,7.01,27.148,6.8
		c0.757-0.178,1.523-0.294,2.29-0.441c1.674-0.347,3.337-0.746,5.021-1.02c1.301-0.21,2.632-0.273,3.943-0.388
		c1.693-0.147,3.389-0.41,5.072-0.389c1.846,0.01,3.61-0.41,5.415-0.61c1.392-0.168,2.764-0.577,4.165-0.798
		c1.019-0.158,2.067-0.168,3.106-0.252c0.756-0.063,1.503-0.168,2.259-0.221c1.1-0.063,2.208-0.074,3.318-0.126
		c1.008-0.052,2.026-0.116,3.045-0.179c1.2-0.073,2.409,0.168,3.59-0.21c0.132-0.042,0.292,0.032,0.443,0.053
		c0.283,0.042,0.555,0.136,0.838,0.115c0.917-0.052,1.835-0.168,2.752-0.2c1.029-0.042,2.068-0.021,3.097-0.042
		c0.978-0.021,1.945-0.084,2.925-0.084c0.544,0,1.089,0.105,1.623,0.105c1.019,0.021,2.047-0.042,3.056,0.01
		c1.441,0.074,2.874,0.231,4.316,0.326c0.776,0.053,1.562-0.021,2.329,0.074c0.514,0.063,1.039-0.179,1.543-0.179
		c0.242,0,0.483,0.063,0.726,0.231c0.01,0.011,0.041,0.011,0.062,0.011c1.239,0.062,2.48-0.032,3.73,0.189
		c0.938,0.168,1.916,0.074,2.874,0.126c0.828,0.042,1.645,0.105,2.472,0.179c0.675,0.063,1.351,0.126,2.026,0.21
		c0.393,0.042,0.787,0.126,1.17,0.168c0.585,0.063,1.17,0.105,1.744,0.158c1.02,0.084,2.027,0.168,3.046,0.263
		c0.847,0.073,1.694,0.126,2.531,0.252c0.948,0.137,1.886,0.347,2.833,0.525c1.755,0.326,3.51,0.641,5.265,0.966
		c1.17,0.221,2.339,0.462,3.509,0.662c1.059,0.189,2.129,0.305,3.188,0.494c1.108,0.2,2.219,0.357,3.298,0.672
		c1.744,0.515,3.459,1.166,5.203,1.712c1.129,0.357,2.299,0.609,3.438,0.966c0.908,0.284,1.815,0.588,2.673,0.999
		c0.907,0.43,1.755,0.998,2.632,1.502c1.06,0.599,2.088,1.282,3.187,1.796c1.473,0.683,2.794,1.618,4.124,2.553
		c1.434,1.009,2.714,2.249,4.286,3.058c0.736,0.378,1.412,0.872,2.118,1.334c0.293,0.2,0.595,0.409,0.848,0.662
		c0.433,0.452,0.837,0.936,1.27,1.387c1.059,1.104,2.129,2.196,3.178,3.299c0.302,0.326,0.564,0.693,0.856,1.03
		c0.454,0.546,0.999,1.029,1.352,1.639c0.564,0.998,1.371,1.786,1.946,2.794c0.867,1.492,1.906,2.878,2.491,4.549
		c0.131,0.346,0.373,0.642,0.524,0.977c0.271,0.652,0.544,1.304,0.757,1.976c0.16,0.473,0.211,0.977,0.321,1.461
		c0.091,0.419,0.212,0.829,0.313,1.249c0.141,0.579,0.222,1.167,0.413,1.713c0.201,0.557,0.555,1.04,0.767,1.597
		c0.403,1.041,0.746,2.102,1.119,3.152c0.212,0.609,0.373,1.26,0.675,1.816c0.797,1.409,1.08,2.932,1.211,4.518
		c0.121,1.356,0.232,2.721,0.373,4.066c0.051,0.43,0.283,0.851,0.273,1.271c0,0.872-0.133,1.733-0.162,2.605
		c-0.04,1.104-0.102,2.228-0.03,3.32c0.131,2.007,0.716,3.971,0.625,5.998c-0.04,0.956-0.202,1.922-0.091,2.857
		c0.242,2.175,0.626,4.339,0.947,6.514c0.021,0.189,0.052,0.389,0.031,0.588c-0.172,1.86-0.706,3.677-0.595,5.569
		c0.03,0.514,0.05,1.028,0.07,1.554c0.041,1.292,0.061,2.595,0.201,3.877c0.071,0.641,0.161,1.26,0.121,1.911
		c-0.05,0.8-0.02,1.618-0.06,2.427c-0.031,0.926-0.152,1.86-0.152,2.784c-0.01,1.051,0.051,2.091,0.111,3.142
		C177.245,105.667,177.366,107.674,177.507,109.67z"/>
	<path fill-rule="evenodd" clip-rule="evenodd" fill="#FFFFFF" d="M57.874,46.5l-7.815,1.125l-6.148,2.562
		c0,0-1.438,3.438-1.375,3.75s1.642,6.688,1.642,6.688l4.733,3.938l8.125-0.75l6.951,0.062l5.299-0.188l2.562-3.438l-0.375-5.938
		l-0.625-3.688l-6.861-3.875L57.874,46.5z"/>
	<g>
		<path fill-rule="evenodd" clip-rule="evenodd" d="M150.77,14.366c0.091,0,0.29,0.061,0.411-0.01
			c0.584-0.343,1.015,0.048,1.161,0.434c0.312,0.821,1.048,0.974,1.674,1.299c0.838,0.434,1.709,0.751,2.498,1.338
			c0.523,0.389,1.025,0.834,1.552,1.229c0.335,0.251,0.504,0.716,0.777,1.06c0.104,0.131,0.295,0.276,0.444,0.274
			c0.514-0.006,0.466-0.017,0.612,0.527c0.057,0.21,0.386,0.346,0.66,0.448c0.164,0.818,0.82,1.233,1.442,1.703
			c0.278,0.21,0.41,0.607,0.674,0.848c0.428,0.391,0.908,0.723,1.408,1.024c0.163,0.226,0.033,0.792,0.689,0.478
			c0.082-0.039,0.311,0.118,0.406,0.236c0.656,0.813,1.558,1.433,1.891,2.505c0.104,0.335,0.421,0.598,0.586,0.922
			c0.099,0.192,0.014,0.546,0.145,0.64c0.479,0.343,0.757,0.797,1.09,1.265c0.342,0.48,0.682,0.988,1.046,1.441
			c0.669,0.831,0.692,1.923,1.289,2.7c0.836,1.088,1.072,2.381,1.517,3.6c0.467,1.283,0.829,2.605,1.231,3.912
			c0.308,0.996,0.463,2.072,0.95,2.971c0.45,0.828,0.827,1.682,1.135,2.551c0.617,1.748,1.037,3.566,1.684,5.303
			c0.482,1.297,0.351,2.631,0.537,3.941c0.141,0.988,0.221,1.988,0.302,2.984c0.035,0.43,0.029,0.865,0.003,1.297
			c-0.075,1.238-0.271,2.48-0.231,3.713c0.046,1.381,0.33,2.75,0.45,4.129c0.08,0.916,0.039,1.84,0.083,2.76
			c0.073,1.525,0.145,3.053,0.268,4.574c0.076,0.938,0.312,1.865,0.355,2.803c0.036,0.797-0.075,1.607-0.17,2.406
			c-0.17,1.42-0.483,2.83-0.533,4.252c-0.04,1.148,0.222,2.305,0.348,3.459c0.019,0.168,0.07,0.354,0.024,0.506
			c-0.167,0.557,0.102,1.039,0.186,1.559c0.096,0.586,0.154,1.227,0.014,1.791c-0.211,0.852-0.131,1.674-0.025,2.506
			c0.036,0.287,0.27,0.555,0.279,0.836c0.024,0.713-0.026,1.43-0.052,2.279c-0.026-0.279-0.04-0.432-0.055-0.584
			c-0.046,0.002-0.092,0.004-0.138,0.006c0.021,0.455,0.032,0.912,0.063,1.367c0.105,1.506,0.216,3.01,0.329,4.514
			c0.069,0.916-0.09,1.945,0.28,2.719c0.453,0.947,0.093,1.773,0.074,2.633c-0.021,0.902-0.282,1.803-0.474,2.697
			c-0.057,0.266-0.299,0.496-0.34,0.76c-0.122,0.787-0.186,1.584-0.272,2.375c0.052,0.014,0.104,0.025,0.156,0.037
			c0.058-0.105,0.114-0.209,0.172-0.312c0.029,0.006,0.058,0.012,0.087,0.018c-0.049,0.674-0.098,1.346-0.156,2.152
			c-0.109-0.215-0.159-0.312-0.161-0.318c-0.075,0.783-0.15,1.629-0.242,2.475c-0.033,0.305-0.104,0.605-0.164,0.906
			c-0.15,0.75-0.352,1.492-0.438,2.25c-0.046,0.396,0.129,0.814,0.163,1.227c0.042,0.508,0.217,1.102,0.023,1.51
			c-0.408,0.863,0.006,1.693-0.106,2.535c-0.119,0.887-0.055,1.801-0.047,2.703c0.009,1.002,0.045,2.006,0.066,3.008
			c0.003,0.152,0.01,0.309-0.023,0.453c-0.102,0.434-0.092,0.836-0.022,1.297c0.116,0.766-0.042,1.57-0.068,2.359
			c-0.013,0.395,0.061,0.797,0.006,1.184c-0.141,0.99,0.176,1.963,0.073,2.953c-0.119,1.145,0.3,2.295-0.096,3.459
			c-0.15,0.443,0.156,1.037,0.018,1.49c-0.213,0.695-0.572,1.367-0.979,1.975c-0.269,0.4-0.835,0.264-1.046-0.201
			c-0.382-0.842-0.848-1.672-1.056-2.559c-0.161-0.689,0.033-1.457,0.039-2.189c0.006-0.75-0.017-1.5-0.041-2.248
			c-0.021-0.621-0.06-1.244-0.094-1.865c-0.077-1.387-0.174-2.773-0.223-4.16c-0.01-0.303,0.196-0.605,0.218-0.914
			c0.089-1.289,0.183-2.578,0.206-3.869c0.035-1.914-0.043-3.832,0.034-5.746c0.052-1.305,0.315-2.602,0.43-3.906
			c0.137-1.568,0.488-3.098,0.46-4.703c-0.034-1.91,0.218-3.838,0.481-5.738c0.223-1.602,0.262-3.188,0.141-4.793
			c-0.144-1.902-0.257-3.805-0.368-5.709c-0.058-0.996-0.121-1.992-0.114-2.99c0.005-0.883,0.118-1.768,0.157-2.652
			c0.035-0.77,0.009-1.543,0.056-2.311c0.037-0.619-0.05-1.211-0.118-1.82c-0.189-1.709-0.164-3.441-0.271-5.162
			c-0.114-1.809,0.417-3.537,0.59-5.309c0.018-0.184-0.006-0.375-0.034-0.561c-0.318-2.066-0.694-4.125-0.94-6.199
			c-0.105-0.889,0.059-1.809,0.099-2.713c0.086-1.936-0.497-3.799-0.623-5.709c-0.069-1.049-0.008-2.109,0.031-3.164
			c0.03-0.828,0.158-1.654,0.162-2.48c0.002-0.402-0.227-0.797-0.272-1.205c-0.144-1.289-0.256-2.582-0.37-3.873
			c-0.134-1.51-0.415-2.965-1.197-4.303c-0.308-0.527-0.46-1.146-0.675-1.727c-0.37-1.002-0.711-2.016-1.108-3.006
			c-0.209-0.521-0.561-0.988-0.758-1.514c-0.195-0.521-0.274-1.086-0.41-1.631c-0.1-0.398-0.219-0.791-0.313-1.189
			c-0.11-0.463-0.164-0.943-0.315-1.393c-0.217-0.639-0.486-1.26-0.759-1.879c-0.144-0.322-0.388-0.605-0.511-0.936
			c-0.589-1.581-1.613-2.901-2.472-4.326c-0.575-0.955-1.377-1.706-1.938-2.656c-0.343-0.581-0.888-1.042-1.339-1.56
			c-0.284-0.325-0.543-0.675-0.846-0.981c-1.044-1.054-2.105-2.09-3.152-3.14c-0.43-0.43-0.824-0.896-1.262-1.316
			c-0.252-0.242-0.546-0.444-0.842-0.632c-0.69-0.439-1.365-0.914-2.096-1.273c-1.561-0.769-2.826-1.952-4.25-2.91
			c-1.318-0.887-2.625-1.777-4.088-2.434c-1.09-0.49-2.112-1.131-3.163-1.709c-0.869-0.478-1.71-1.015-2.609-1.425
			c-0.851-0.389-1.751-0.682-2.648-0.952c-1.129-0.338-2.288-0.578-3.415-0.919c-1.727-0.523-3.425-1.143-5.16-1.632
			c-1.062-0.3-2.169-0.453-3.262-0.638c-1.05-0.177-2.109-0.294-3.159-0.467c-1.164-0.192-2.321-0.421-3.482-0.629
			c-1.741-0.311-3.482-0.615-5.224-0.925c-0.935-0.167-1.864-0.37-2.805-0.502c-0.833-0.118-1.677-0.163-2.517-0.236
			c-1.005-0.087-2.009-0.168-3.014-0.252c-0.577-0.048-1.155-0.089-1.73-0.149c-0.388-0.041-0.771-0.121-1.158-0.164
			c-0.672-0.074-1.345-0.141-2.019-0.195c-0.813-0.066-1.627-0.13-2.442-0.17c-0.952-0.046-1.924,0.036-2.855-0.123
			c-1.236-0.211-2.47-0.123-3.703-0.18c-0.019-0.001-0.043,0.006-0.056-0.003c-0.733-0.504-1.493,0.039-2.245-0.051
			c-0.764-0.092-1.546-0.025-2.317-0.074c-1.426-0.089-2.848-0.242-4.273-0.312c-1.008-0.049-2.02,0.011-3.029-0.004
			c-0.539-0.008-1.078-0.104-1.617-0.102c-0.966,0.003-1.932,0.06-2.898,0.078c-1.021,0.02-2.044-0.004-3.064,0.036
			c-0.914,0.037-1.824,0.149-2.738,0.198c-0.272,0.015-0.551-0.073-0.826-0.113c-0.146-0.021-0.31-0.094-0.438-0.054
			c-1.174,0.362-2.377,0.132-3.564,0.201c-1.007,0.059-2.014,0.122-3.021,0.168c-1.097,0.05-2.194,0.066-3.289,0.128
			c-0.747,0.042-1.491,0.144-2.238,0.204c-1.027,0.083-2.065,0.091-3.083,0.242c-1.384,0.205-2.743,0.603-4.131,0.756
			c-1.785,0.197-3.54,0.597-5.362,0.58c-1.677-0.015-3.357,0.235-5.035,0.376c-1.304,0.109-2.617,0.164-3.906,0.364
			c-1.672,0.26-3.324,0.645-4.986,0.969c-0.755,0.147-1.521,0.25-2.269,0.424c-0.882,0.204-1.761,0.432-2.621,0.708
			c-0.42,0.135-0.779,0.449-1.195,0.605c-0.918,0.347-1.857,0.636-2.78,0.971c-0.2,0.073-0.354,0.265-0.552,0.356
			c-0.595,0.274-1.195,0.538-1.803,0.785c-0.971,0.395-1.963,0.743-2.922,1.165c-1.04,0.458-2.085,0.921-3.069,1.485
			c-1.214,0.696-2.382,1.476-3.542,2.261c-0.735,0.499-1.416,1.08-2.129,1.613c-0.544,0.407-1.048,0.815-1.398,1.444
			c-0.343,0.616-0.907,1.105-1.312,1.694c-0.248,0.361-0.472,0.788-0.538,1.212c-0.107,0.688-0.727,1.217-0.543,2.001
			c0.059,0.249-0.188,0.558-0.256,0.849C2.74,26.591,3.43,27.807,4.373,28.93c0.458,0.546,0.938,1.075,1.429,1.592
			c0.176,0.186,0.395,0.351,0.625,0.463c0.762,0.373,1.513,0.79,2.312,1.055c1.388,0.463,2.805,0.838,4.217,1.221
			c0.328,0.09,0.688,0.088,1.033,0.092c1.065,0.013,2.01,0.414,2.949,0.858c0.263,0.124,0.58,0.126,0.86,0.219
			c0.823,0.271,1.636,0.573,2.46,0.837c0.642,0.205,1.294,0.379,1.943,0.555c0.803,0.219,1.605,0.441,2.416,0.627
			c0.265,0.061,0.557,0.016,0.836,0.004c0.65-0.031,1.304-0.121,1.952-0.094c0.419,0.02,0.825,0.266,1.247,0.307
			c1.163,0.111,2.371,0.098,3.402,0.693c1.238,0.717,2.355,1.566,2.761,3.102c0.253,0.961,0.683,1.885,1.126,2.781
			c0.554,1.115,0.727,2.285,0.757,3.504c0.021,0.887,0.135,1.771,0.15,2.658c0.013,0.76-0.061,1.521-0.087,2.283
			c-0.034,0.994-0.104,1.992-0.079,2.986c0.044,1.727,0.146,3.451,0.231,5.176c0.042,0.846,0.156,1.689,0.144,2.533
			c-0.023,1.736,0.377,3.473-0.004,5.209c-0.047,0.215-0.044,0.471,0.029,0.674c0.341,0.955,0.001,1.926,0.094,2.883
			c0.034,0.355,0.064,0.715,0.066,1.07c0.01,1.885,0.011,3.768,0.014,5.65c0.003,1.881,0.02,3.762,0.002,5.643
			c-0.015,1.506-0.073,3.012-0.108,4.518c-0.041,1.707-0.093,3.416-0.112,5.125c-0.031,2.732-0.039,5.467-0.058,8.201
			c-0.007,1.051-0.054,2.104-0.012,3.154c0.04,1.031,0.185,2.059,0.254,3.09c0.059,0.877,0.072,1.758,0.11,2.637
			c0.039,0.898,0.08,1.795,0.127,2.693c0.039,0.771,0.091,1.543,0.131,2.314c0.071,1.385,0.173,2.77,0.199,4.154
			c0.032,1.752,0.009,3.504-0.004,5.256c-0.006,0.789-0.035,1.58-0.069,2.367c-0.11,2.619-0.295,5.236-0.32,7.855
			c-0.021,2.148,0.134,4.301,0.228,6.449c0.05,1.143,0.098,2.287,0.215,3.422c0.122,1.178,0.349,2.342,0.49,3.518
			c0.088,0.729,0.135,1.467,0.146,2.201c0.023,1.525,0.048,3.053-0.001,4.576c-0.022,0.711-0.106,1.459-0.36,2.115
			c-0.286,0.736-0.739,1.43-1.224,2.061c-0.356,0.465-1.638,0.584-2.146,0.303c-0.441-0.244-0.334-0.695-0.262-1.055
			c0.151-0.746,0.456-1.467,0.557-2.217c0.121-0.9,0.17-1.826,0.118-2.734c-0.111-1.994-0.318-3.982-0.463-5.973
			c-0.119-1.654-0.209-3.311-0.305-4.967c-0.124-2.131-0.341-4.262-0.337-6.391c0.006-2.697,0.198-5.393,0.303-8.088
			c0.057-1.432,0.107-2.863,0.145-4.295c0.028-1.055,0.042-2.111,0.036-3.168c-0.001-0.354-0.104-0.705-0.119-1.061
			c-0.054-1.143-0.062-2.289-0.136-3.432c-0.123-1.918-0.302-3.834-0.416-5.752c-0.049-0.805,0.046-1.619,0.002-2.424
			c-0.053-0.975-0.236-1.941-0.268-2.914c-0.058-1.746-0.047-3.494-0.06-5.242c-0.011-1.312-0.035-2.625-0.016-3.938
			c0.024-1.637,0.072-3.275,0.144-4.914c0.026-0.613,0.168-1.223,0.216-1.838c0.021-0.25-0.106-0.51-0.099-0.764
			c0.042-1.398,0.241-2.811,0.114-4.193c-0.088-0.963,0.123-1.838,0.195-2.756c0.067-0.838-0.013-1.688-0.007-2.531
			c0.002-0.354,0.056-0.705,0.093-1.057c0.241-2.24,0.053-4.469-0.095-6.707c-0.135-2.047-0.028-4.109-0.064-6.164
			c-0.007-0.379-0.261-0.754-0.27-1.133c-0.057-2.395-0.066-4.789-0.112-7.184c-0.021-1.146-0.091-2.291-0.137-3.436
			c-0.008-0.188-0.019-0.377-0.012-0.564c0.042-1.09,0.16-2.18,0.115-3.264c-0.062-1.535-0.08-3.102-0.667-4.547
			c-0.449-1.105-1.02-2.168-1.604-3.211c-0.366-0.656-1.047-1.023-1.742-1.191c-1.428-0.342-2.874-0.633-4.327-0.838
			c-1.039-0.146-2.123-0.008-3.148-0.199c-1.364-0.256-2.691-0.709-4.035-1.078c-0.035-0.01-0.065-0.039-0.102-0.049
			c-1.174-0.355-2.337-0.758-3.527-1.049c-1.36-0.332-2.745-0.557-4.117-0.842c-0.219-0.047-0.42-0.17-0.635-0.24
			c-1.348-0.434-2.698-0.857-4.044-1.295c-0.458-0.149-0.958-0.256-1.343-0.521c-0.365-0.252-0.591-0.699-0.905-1.035
			c-0.305-0.328-0.645-0.623-1.096-1.054c0.026-0.727-0.889-1.096-1.298-1.792c-0.144-0.246-0.463-0.383-0.654-0.611
			c-0.137-0.163-0.267-0.391-0.273-0.594c-0.05-1.518-0.128-3.039-0.069-4.554c0.024-0.645,0.367-1.275,0.545-1.918
			c0.12-0.432,0.173-0.884,0.313-1.309c0.526-1.599,1.427-2.956,2.604-4.166c1.085-1.116,2.109-2.287,3.397-3.185
			c1.224-0.854,2.438-1.721,3.655-2.583c0.03-0.021,0.056-0.053,0.089-0.07c1.348-0.689,2.675-1.426,4.055-2.045
			c0.663-0.297,1.332-0.532,1.915-0.994c0.261-0.206,0.668-0.221,1.003-0.341c0.768-0.275,1.53-0.562,2.296-0.845
			c0.053-0.02,0.104-0.057,0.157-0.06c1.007-0.054,1.803-0.67,2.705-1.001c0.645-0.237,1.304-0.44,1.966-0.625
			c1.2-0.334,2.446-0.544,3.604-0.988c1.706-0.654,3.504-0.846,5.257-1.26c0.399-0.094,0.828-0.06,1.242-0.087
			c1.554-0.103,3.107-0.203,4.661-0.311c0.407-0.028,0.812-0.09,1.219-0.12c0.453-0.033,0.907-0.046,1.361-0.069
			c0.075-0.004,0.181,0.021,0.22-0.019c0.555-0.561,1.243-0.233,1.872-0.296c0.708-0.071,1.428-0.291,2.118-0.216
			c1.129,0.122,2.186-0.237,3.243-0.419c0.924-0.159,1.822-0.225,2.747-0.259c0.606-0.022,1.201-0.265,1.81-0.325
			c1.27-0.125,2.545-0.191,3.817-0.286c1.225-0.091,2.449-0.199,3.675-0.276c0.485-0.03,0.979,0.046,1.46-0.004
			c0.776-0.082,1.543-0.273,2.32-0.334c0.776-0.061,1.562-0.04,2.343-0.015c0.602,0.02,1.238-0.26,1.805,0.186
			c0.062,0.049,0.252,0.023,0.321-0.038c0.448-0.388,0.919-0.156,1.401-0.117c0.525,0.043,1.068,0.018,1.59-0.065
			c0.968-0.153,1.917-0.359,2.88,0.059c0.155,0.067,0.411-0.144,0.623-0.152c0.863-0.033,1.728-0.034,2.592-0.054
			c0.696-0.016,1.393-0.074,2.088-0.058c1.464,0.033,2.929,0.077,4.391,0.166c1.32,0.081,2.635,0.245,3.955,0.341
			c1.031,0.075,2.087,0.25,3.093,0.105c0.828-0.119,1.567,0.141,2.352,0.144c0.807,0.003,1.614,0.048,2.42,0.098
			c1.843,0.114,3.686,0.226,5.525,0.369c2.348,0.182,4.694,0.374,7.038,0.599c1.554,0.149,3.107,0.318,4.649,0.559
			c1.934,0.301,3.854,0.694,5.783,1.03c1.863,0.325,3.738,0.594,5.597,0.95c1.543,0.295,3.07,0.675,4.602,1.029
			c1.126,0.26,2.247,0.534,3.369,0.81c0.218,0.054,0.438,0.122,0.637,0.223c1.341,0.679,2.758,1.087,4.241,1.325
			c0.775,0.125,1.544,0.349,2.286,0.611c0.26,0.092,0.467,0.409,0.633,0.666c0.161,0.249,0.256,0.467,0.599,0.226
			c0.09-0.064,0.294-0.042,0.407,0.015c1.072,0.54,2.133,1.104,3.204,1.646c0.906,0.458,1.808,0.933,2.741,1.33
			c0.761,0.324,1.425,0.762,1.975,1.363C150.626,13.761,150.648,14.023,150.77,14.366z"/>
		<path fill-rule="evenodd" clip-rule="evenodd" d="M52.357,45.193c0.741-0.115,1.48-0.307,2.224-0.328
			c1.44-0.039,2.888-0.035,4.324,0.059c0.984,0.064,1.959,0.299,2.933,0.486c1.115,0.215,2.237,0.416,3.333,0.707
			c0.861,0.23,1.682,0.607,2.53,0.887c1.067,0.35,2.154,0.641,3.214,1.012c0.604,0.211,1.164,0.545,1.754,0.801
			c1.43,0.617,2.88,1.191,4.295,1.844c0.936,0.432,1.838,0.943,2.729,1.463c0.545,0.316,1.021,0.752,1.567,1.066
			c0.823,0.475,1.556,1.039,2.129,1.799c0.354,0.471,0.284,1.482-0.124,1.898c-0.405,0.416-2.047,0.633-2.577,0.336
			c-0.062-0.035-0.119-0.1-0.146-0.166c-0.214-0.492-0.624-0.732-1.072-1c-0.591-0.354-1.063-0.898-1.626-1.305
			c-0.338-0.246-0.75-0.387-1.13-0.572c-0.067-0.033-0.166-0.031-0.208-0.082c-0.675-0.809-1.762-0.771-2.594-1.264
			c-0.521-0.309-0.825-0.105-0.805,0.52c0.024,0.715,0.134,1.426,0.186,2.141s0.058,1.436,0.125,2.15
			c0.048,0.51,0.274,1.023,0.228,1.518c-0.158,1.668-0.523,3.311-1.455,4.729c-0.77,1.168-2.021,1.539-3.362,1.611
			c-0.796,0.045-1.593,0.088-2.39,0.08c-0.278-0.004-0.551-0.184-0.835-0.238c-1.197-0.234-2.385-0.037-3.571,0.115
			c-0.85,0.109-1.699,0.223-2.55,0.324c-0.086,0.01-0.198-0.02-0.267-0.072c-0.776-0.584-1.587-0.408-2.451-0.217
			c-0.875,0.197-1.785,0.246-2.683,0.334c-0.75,0.074-1.503,0.154-2.255,0.16c-1.292,0.008-2.609,0.098-3.868-0.121
			c-0.735-0.127-1.398-0.758-2.057-1.217c-0.507-0.354-1.031-0.732-1.414-1.209c-0.658-0.82-1.437-1.553-1.795-2.611
			c-0.221-0.65-0.736-1.195-1.01-1.836c-0.255-0.594-0.403-1.244-0.525-1.885c-0.145-0.754-0.151-1.537-0.334-2.279
			c-0.096-0.393-0.382-0.783-0.68-1.07c-0.643-0.621-0.685-1.104-0.141-1.807c0.548-0.709,1.415-1.184,1.617-2.152
			c0.01-0.049,0.062-0.096,0.105-0.127c1.103-0.779,2.191-1.58,3.32-2.318c0.364-0.238,0.841-0.299,1.256-0.465
			c0.312-0.123,0.646-0.238,0.905-0.441c0.909-0.711,2.03-0.74,3.076-0.996c0.675-0.164,1.372-0.236,2.059-0.35
			C52.347,45.134,52.352,45.164,52.357,45.193z M69.782,54.828c0.029-0.004,0.058-0.008,0.087-0.012
			c-0.132-0.914-0.204-1.842-0.411-2.74c-0.232-1.002-0.607-1.463-1.569-1.693c-0.686-0.164-1.363-0.365-2.046-0.543
			c-1.046-0.273-2.091-0.551-3.14-0.809c-1.021-0.252-2.045-0.498-3.075-0.707c-0.153-0.031-0.463,0.105-0.505,0.23
			c-0.238,0.713-0.442,1.439-0.609,2.174c-0.185,0.809-0.338,1.625-0.462,2.445c-0.101,0.66-0.192,1.33-0.176,1.994
			c0.008,0.307,0.269,0.615,0.44,0.908c0.121,0.205,0.364,0.367,0.417,0.58c0.34,1.379,0.685,2.758,0.945,4.152
			c0.207,1.113,0.801,1.57,1.947,1.42c0.794-0.104,1.6-0.16,2.401-0.16c1.477-0.002,2.954,0.059,4.432,0.078
			c0.758,0.01,1.245-0.311,1.381-1c0.261-1.328,0.304-2.68,0.222-4.029C70.015,56.351,69.878,55.591,69.782,54.828z M54.829,62.568
			c0.006,0.037,0.013,0.072,0.019,0.107c0.131,0,0.266,0.02,0.392-0.004c0.688-0.129,0.815-0.338,0.617-1.002
			c-0.258-0.859-0.568-1.705-0.769-2.578c-0.236-1.025-0.484-2.068-0.536-3.113c-0.06-1.225-0.061-2.473,0.327-3.674
			c0.155-0.48,0.281-0.971,0.398-1.463c0.158-0.662,0.323-1.326,0.431-1.998c0.062-0.391-0.154-0.584-0.578-0.518
			c-0.924,0.145-1.851,0.268-2.774,0.408c-1.526,0.229-2.901,0.91-4.312,1.475c-0.676,0.271-1.326,0.619-1.955,0.986
			c-0.311,0.184-0.662,0.441-0.797,0.75c-0.337,0.775-0.581,1.594-0.821,2.406c-0.146,0.494-0.323,1.018-0.29,1.514
			c0.032,0.484,0.292,0.963,0.492,1.426c0.59,1.359,1.204,2.717,2.231,3.812c0.48,0.514,1.037,0.971,1.617,1.371
			c0.333,0.232,0.779,0.303,1.178,0.438c0.111,0.037,0.231,0.062,0.348,0.066c0.52,0.012,1.04,0.004,1.56,0.021
			c0.286,0.008,0.582,0.111,0.854,0.064C53.254,62.927,54.04,62.738,54.829,62.568z"/>
		<path fill-rule="evenodd" clip-rule="evenodd" d="M103.692,100.054c-0.054,0.273-0.174,0.576-0.162,0.873
			c0.105,2.555,0.217,5.107,0.364,7.66c0.059,1.014,0.225,2.02,0.321,3.029c0.147,1.535,0.256,3.074,0.424,4.607
			c0.104,0.949,0.288,1.893,0.433,2.838c0.022,0.148,0.036,0.301,0.032,0.449c-0.028,1.305-0.018,2.613-0.108,3.914
			c-0.059,0.836-0.31,1.656-0.401,2.492c-0.232,2.098-0.882,4.086-1.582,6.055c-0.121,0.342-0.465,0.648-0.776,0.869
			c-1.001,0.711-1.606,1.143-2.973,0.354c-0.492-0.285-1.07-0.406-1.442-0.895c-0.279-0.367-0.619-0.689-0.877-1.07
			c-0.442-0.65-0.842-1.33-1.257-1.998c-0.208-0.336-0.421-0.666-0.613-1.01c-0.117-0.209-0.199-0.439-0.298-0.66
			c-0.195-0.441-0.407-0.875-0.579-1.324c-0.112-0.293-0.121-0.631-0.25-0.914c-0.785-1.723-0.932-3.604-1.377-5.408
			c-0.12-0.49-0.097-1.012-0.166-1.516c-0.138-0.996-0.329-1.984-0.431-2.984c-0.078-0.764-0.04-1.539-0.072-2.309
			c-0.031-0.73-0.062-1.463-0.136-2.191c-0.106-1.039-0.205-2.082-0.393-3.109c-0.158-0.865-0.423-1.711-0.67-2.559
			c-0.371-1.271-0.831-2.521-1.137-3.809c-0.305-1.277-0.526-2.584-0.673-3.891c-0.153-1.363-0.18-2.742-0.25-4.115
			c-0.02-0.373-0.015-0.75,0.014-1.123c0.01-0.137,0.091-0.297,0.19-0.393c0.655-0.627,1.67-0.729,2.498-0.332
			c0.758,0.361,0.926,1.123,1.047,1.766c0.235,1.248,0.228,2.541,0.366,3.809c0.15,1.369,0.266,2.75,0.556,4.092
			c0.363,1.68,0.95,3.311,1.325,4.99c0.36,1.611,0.651,3.248,0.828,4.889c0.146,1.35,0.023,2.725,0.119,4.08
			c0.112,1.598,0.266,3.199,0.527,4.777c0.192,1.158,0.559,2.291,0.901,3.42c0.366,1.205,0.76,2.406,1.213,3.58
			c0.247,0.639,0.643,1.221,0.97,1.83c0.179,0.332,0.354,0.666,0.594,1.119c0.158-0.467,0.3-0.809,0.39-1.164
			c0.325-1.291,0.664-2.582,0.937-3.885c0.171-0.82,0.316-1.664,0.327-2.498c0.023-1.746-0.013-3.494-0.095-5.236
			c-0.066-1.408-0.214-2.814-0.366-4.217c-0.104-0.949-0.352-1.887-0.405-2.836c-0.101-1.809-0.06-3.625-0.168-5.432
			c-0.11-1.838-0.323-3.67-0.504-5.504c-0.067-0.688-0.127-1.383-0.266-2.059c-0.285-1.383-0.587-2.764-0.951-4.129
			c-0.185-0.693-0.506-1.355-0.788-2.021c-0.291-0.686-0.623-1.354-0.906-2.041c-0.082-0.201-0.025-0.457-0.09-0.67
			c-0.089-0.293-0.226-0.576-0.355-0.855c-0.2-0.434-0.436-0.85-0.612-1.291c-0.18-0.451-0.311-0.92-0.455-1.385
			c-0.19-0.607-0.394-1.213-0.548-1.83c-0.073-0.295,0.113-0.418,0.425-0.447c1.076-0.094,2.203,0.512,2.668,1.479
			c0.936,1.945,1.931,3.865,2.781,5.846c0.623,1.449,1.07,2.977,1.567,4.479c0.228,0.689,0.426,1.396,0.567,2.109
			c0.187,0.939,0.291,1.895,0.457,2.84C103.451,99.472,103.584,99.742,103.692,100.054z"/>
		<path fill-rule="evenodd" clip-rule="evenodd" d="M57.635,130.697c0.235-0.537,0.6-1.059,0.679-1.619
			c0.171-1.215,0.224-2.447,0.275-3.674c0.068-1.633,0.096-3.268,0.13-4.902c0.034-1.627,0.053-3.252,0.081-4.879
			c0.003-0.16,0.007-0.328,0.05-0.48c0.267-0.947-0.177-1.84-0.21-2.768c-0.04-1.145-0.281-2.281-0.408-3.424
			c-0.186-1.664-0.379-3.328-0.505-4.998c-0.075-0.986,0.104-2.006-0.069-2.969c-0.214-1.182,0.305-2.182,0.491-3.262
			c0.019-0.107,0.052-0.23,0.121-0.307c0.834-0.922,2.998-0.693,3.481,0.406c0.305,0.693,0.308,1.441,0.027,2.188
			c-0.161,0.426-0.29,0.906-0.27,1.354c0.089,1.949,0.222,3.896,0.376,5.842c0.041,0.52,0.258,1.023,0.314,1.543
			c0.081,0.762,0.077,1.533,0.134,2.299c0.105,1.408,0.27,2.814,0.331,4.225c0.045,1.064-0.04,2.133-0.052,3.199
			c-0.006,0.635,0.029,1.271,0.025,1.906c-0.004,0.592,0.059,1.207-0.08,1.77c-0.132,0.527-0.188,1.014-0.092,1.547
			c0.114,0.631,0.294,1.242-0.008,1.922c-0.19,0.428-0.115,1.002-0.076,1.502c0.096,1.205-0.147,2.312-0.562,3.455
			c-0.635,1.756-1.881,2.846-3.416,3.717c-0.594,0.336-2.038,0.049-2.516-0.43c-0.287-0.287-0.639-0.516-0.979-0.746
			c-0.543-0.365-0.796-0.9-1.034-1.49c-0.354-0.881-0.817-1.717-1.227-2.576c-0.121-0.254-0.229-0.516-0.316-0.783
			c-0.185-0.566-0.351-1.141-0.525-1.711c-0.092-0.299-0.209-0.592-0.276-0.896c-0.134-0.6-0.212-1.215-0.363-1.811
			c-0.274-1.084-0.619-2.152-0.871-3.242c-0.269-1.156-0.454-2.332-0.692-3.494c-0.342-1.664-0.673-3.328-1.055-4.982
			c-0.523-2.275-1.111-4.541-1.135-6.896c-0.015-1.539,0.017-3.078,0.048-4.619c0.035-1.711,0.954-2.893,2.592-3.373
			c0.749-0.221,1.763,0.436,1.699,1.197c-0.085,1.016-0.4,2.016-0.449,3.031c-0.062,1.271,0.047,2.553,0.081,3.828
			c0.006,0.238-0.03,0.482,0.01,0.715c0.337,1.969,0.644,3.943,1.045,5.9c0.366,1.783,0.96,3.516,1.08,5.357
			c0.049,0.758,0.303,1.504,0.47,2.254c0.199,0.896,0.398,1.793,0.609,2.686c0.323,1.373,0.573,2.771,1.008,4.107
			c0.457,1.402,1.094,2.744,1.656,4.109c0.033,0.082,0.107,0.146,0.163,0.221C57.497,130.662,57.566,130.679,57.635,130.697z"/>
		<path fill-rule="evenodd" clip-rule="evenodd" d="M129.871,10.431c0.476-0.161,0.779,0.362,1.152,0.7
			c0.552,0.497,1.091,1.014,1.578,1.572c0.218,0.25,0.282,0.629,0.442,0.937c0.302,0.579,0.612,1.154,0.938,1.719
			c0.439,0.761,0.899,1.51,1.347,2.266c0.075,0.127,0.11,0.287,0.206,0.394c0.724,0.808,0.938,1.85,1.265,2.827
			c0.214,0.643-0.602,1.94-1.228,2.119c-0.11,0.032-0.354-0.022-0.355-0.042c-0.014-0.509-0.478-0.42-0.749-0.581
			c-0.56-0.33-0.794-0.889-0.997-1.458c-0.408-1.142-1.026-2.154-1.821-3.064c-0.098-0.113-0.181-0.243-0.25-0.375
			c-0.799-1.544-1.852-2.911-2.941-4.254c-0.198-0.245-0.318-0.554-0.473-0.833c-0.062-0.114-0.095-0.3-0.186-0.335
			c-0.394-0.151-0.383-0.404-0.256-0.729c0.139-0.358,0.246-0.705,0.749-0.709C128.761,10.58,129.229,10.497,129.871,10.431z"/>
		<path fill-rule="evenodd" clip-rule="evenodd" d="M121.458,21.483c-0.057-0.762-0.105-1.585-0.183-2.406
			c-0.143-1.509-0.3-3.016-0.455-4.523c-0.012-0.109-0.038-0.222-0.085-0.32c-0.382-0.802-0.243-1.639,0.466-2.102
			c0.319-0.208,0.774-0.216,1.171-0.3c1.054-0.223,1.42-0.014,1.616,1.075c0.163,0.902,0.228,1.823,0.309,2.738
			c0.069,0.788,0.147,1.579,0.134,2.368c-0.013,0.723-0.14,1.444-0.226,2.166c-0.018,0.147-0.123,0.292-0.113,0.433
			c0.053,0.789-0.615,0.948-1.096,1.255c-0.121,0.077-0.341,0.06-0.495,0.014C122.176,21.785,121.866,21.642,121.458,21.483z"/>
		<path fill-rule="evenodd" clip-rule="evenodd" d="M117.698,12.488c-0.123,0.452-0.29,1.141-0.498,1.817
			c-0.385,1.249-0.688,2.539-1.229,3.717c-0.346,0.752-1.056,1.338-1.613,1.989c-0.12,0.141-0.29,0.238-0.438,0.355
			c-0.485,0.388-1.477,0.462-1.922,0.08c-0.151-0.13-0.265-0.47-0.205-0.651c0.156-0.476,0.365-0.952,0.646-1.366
			c0.753-1.11,1.145-2.344,1.394-3.641c0.05-0.256,0.126-0.511,0.221-0.754c0.234-0.598,0.457-1.205,0.748-1.775
			c0.105-0.207,0.368-0.391,0.598-0.465c0.489-0.16,1-0.313,1.508-0.336C117.601,11.427,117.687,11.564,117.698,12.488z"/>
		<path fill-rule="evenodd" clip-rule="evenodd" d="M13.037,26.001c-0.346,0.14-0.672,0.185-0.872,0.368
			c-1.002,0.92-1.664,0.309-2.283-0.627c-0.256-0.387-0.377-0.862-0.615-1.264c-0.168-0.284-0.555-0.483-0.623-0.772
			c-0.129-0.549-0.224-1.163-0.104-1.698c0.141-0.627,0.736-0.998,1.345-1.133c0.604-0.134,1.187-0.078,1.688,0.475
			c0.623,0.687,0.786,1.541,1.093,2.349c0.026,0.07,0.03,0.165,0.08,0.208C13.471,24.541,13.174,25.304,13.037,26.001z"/>
		<path fill-rule="evenodd" clip-rule="evenodd" d="M17.635,23.131c0.004-0.038,0.009-0.075,0.013-0.113
			c0.062-0.727,0.062-0.727,0.578-1.062c0.474-0.309,2.056-0.144,2.37,0.341c0.605,0.935,0.908,2.005,1.064,3.103
			c0.05,0.354-0.943,1.281-1.361,1.382c-0.802,0.193-1.533,0.119-2.018-0.63c-0.172-0.266-0.231-0.613-0.309-0.931
			c-0.166-0.684-0.311-1.374-0.464-2.062C17.551,23.149,17.593,23.14,17.635,23.131z"/>
		<path fill-rule="evenodd" clip-rule="evenodd" fill="none" d="M69.782,54.828c0.097,0.764,0.233,1.523,0.279,2.289
			c0.082,1.35,0.039,2.701-0.222,4.029c-0.136,0.689-0.623,1.01-1.381,1c-1.478-0.02-2.955-0.08-4.432-0.078
			c-0.802,0-1.607,0.057-2.401,0.16c-1.146,0.15-1.74-0.307-1.947-1.42c-0.261-1.395-0.605-2.773-0.945-4.152
			c-0.053-0.213-0.296-0.375-0.417-0.58c-0.172-0.293-0.433-0.602-0.44-0.908c-0.017-0.664,0.075-1.334,0.176-1.994
			c0.124-0.82,0.277-1.637,0.462-2.445c0.167-0.734,0.371-1.461,0.609-2.174c0.042-0.125,0.352-0.262,0.505-0.23
			c1.03,0.209,2.054,0.455,3.075,0.707c1.049,0.258,2.094,0.535,3.14,0.809c0.683,0.178,1.36,0.379,2.046,0.543
			c0.962,0.23,1.337,0.691,1.569,1.693c0.207,0.898,0.279,1.826,0.411,2.74C69.839,54.82,69.811,54.824,69.782,54.828z"/>
		<path fill-rule="evenodd" clip-rule="evenodd" fill="none" d="M54.829,62.568c-0.789,0.17-1.574,0.359-2.368,0.496
			c-0.272,0.047-0.568-0.057-0.854-0.064c-0.52-0.018-1.04-0.01-1.56-0.021c-0.116-0.004-0.236-0.029-0.348-0.066
			c-0.398-0.135-0.845-0.205-1.178-0.438c-0.58-0.4-1.137-0.857-1.617-1.371c-1.027-1.096-1.642-2.453-2.231-3.812
			c-0.2-0.463-0.46-0.941-0.492-1.426c-0.033-0.496,0.144-1.02,0.29-1.514c0.24-0.812,0.484-1.631,0.821-2.406
			c0.135-0.309,0.486-0.566,0.797-0.75c0.629-0.367,1.279-0.715,1.955-0.986c1.41-0.564,2.785-1.246,4.312-1.475
			c0.924-0.141,1.851-0.264,2.774-0.408c0.424-0.066,0.641,0.127,0.578,0.518c-0.107,0.672-0.272,1.336-0.431,1.998
			c-0.117,0.492-0.243,0.982-0.398,1.463c-0.388,1.201-0.387,2.449-0.327,3.674c0.052,1.045,0.3,2.088,0.536,3.113
			c0.2,0.873,0.511,1.719,0.769,2.578c0.198,0.664,0.071,0.873-0.617,1.002c-0.126,0.023-0.261,0.004-0.392,0.004
			C54.841,62.64,54.834,62.605,54.829,62.568z"/>
	</g>
</g>
</svg>
