<?xml version="1.0" encoding="utf-8"?>
<!-- Generator: Adobe Illustrator 16.0.0, SVG Export Plug-In . SVG Version: 6.00 Build 0)  -->
<!DOCTYPE svg PUBLIC "-//W3C//DTD SVG 1.1//EN" "http://www.w3.org/Graphics/SVG/1.1/DTD/svg11.dtd">
<svg version="1.1" id="Ebene_1" xmlns="http://www.w3.org/2000/svg" xmlns:xlink="http://www.w3.org/1999/xlink" x="0px" y="0px"
	 width="217.28px" height="185.878px" viewBox="0 0 217.28 185.878" enable-background="new 0 0 217.28 185.878"
	 xml:space="preserve">
<g>
	<path fill="#D34237" d="M213.407,90.235c0.061,0.222,0.02,0.473,0,0.713c-0.119,1.363-0.24,2.729-0.699,4.04
		c-0.361,1.024-0.291,2.127-0.221,3.21c0.039,0.591,0.16,1.173,0.17,1.765c0,0.651,0.02,1.323-0.15,1.944
		c-0.449,1.654-0.51,3.31-0.27,4.974c0.17,1.273-0.08,2.485-0.34,3.709c-0.1,0.512-0.199,1.073-0.109,1.585
		c0.289,1.725,0.389,3.448-0.09,5.132c-0.352,1.254-0.211,2.507-0.15,3.74c0.049,1.153-0.08,2.267-0.271,3.38
		c-0.289,1.774-0.379,3.539-0.109,5.333c0.131,0.863,0.01,1.786-0.07,2.667c-0.07,0.822-0.17,1.665-0.379,2.468
		c-0.191,0.701-0.49,1.394-0.861,2.024c-0.68,1.144-0.92,2.365-1,3.65c-0.09,1.253-0.148,2.517-0.658,3.68
		c-0.391,0.893-0.172,1.784-0.092,2.657c0.211,2.115,0.102,4.22-0.129,6.325c-0.061,0.533-0.01,1.083,0.039,1.615
		c0.051,0.521-0.02,1.003-0.299,1.453c-0.391,0.611-0.561,1.234-0.35,1.967c0.1,0.36,0.08,0.781,0.039,1.163
		c-0.131,1.272-0.311,2.536-0.459,3.809c-0.051,0.411-0.051,0.832-0.111,1.243c-0.24,1.624-0.539,3.239-0.74,4.873
		c-0.16,1.274-0.219,2.557-0.32,3.83c0,0.121,0.012,0.24,0,0.36c-0.18,1.755-0.35,3.509-0.549,5.254
		c-0.15,1.365-0.311,2.728-0.51,4.081c-0.141,1.003-0.35,1.995-0.5,2.998H57.797c0.11-0.521,0.16-1.054,0.24-1.584
		c0.11-0.742,0.08-1.504,0.23-2.227c0.38-1.813,0.67-3.629,0.7-5.493c0.02-1.243,0.27-2.478,0.37-3.721
		c0.11-1.293,0.19-2.597,0.26-3.89c0.09-1.584,0.22-3.168,0.24-4.752c0.02-1.395,0.49-2.678,0.85-4.001
		c0.07-0.251,0.18-0.602,0.07-0.781c-0.35-0.543-0.05-1.015,0-1.525c0.08-0.823,0.06-1.665,0.07-2.497
		c0.02-1.103,0.02-2.195,0.06-3.298c0.06-1.704,0.17-3.399,0.22-5.104c0.01-0.401-0.17-0.803-0.22-1.204
		c-0.1-0.711-0.19-1.412-0.25-2.125c-0.07-0.883-0.1-1.773-0.16-2.657c-0.02-0.331-0.07-0.662-0.07-0.982
		c-0.03-2.154-0.02-4.301-0.08-6.457c-0.03-1.153-0.21-2.316-0.27-3.478c-0.06-1.244-0.07-2.497-0.1-3.74
		c-0.02-1.494-0.04-2.979-0.05-4.463c-0.03-1.585-0.02-3.157-0.08-4.741c-0.07-2.057-0.21-4.112-0.27-6.167
		c-0.11-3.219-0.05-6.427,0.32-9.637c0.13-1.112,0.02-2.256,0-3.378c-0.02-0.771-0.05-1.555-0.09-2.326
		c-0.04-0.742-0.11-1.484-0.16-2.225c0-0.092-0.02-0.183-0.02-0.272c0.06-2.716,0.13-5.434,0.19-8.141
		c0.04-1.876,0.27-3.77,0.09-5.624c-0.17-1.685-0.18-3.379-0.37-5.053c-0.29-2.667-0.51-5.344-0.74-8.011
		c-0.19-2.256-0.47-4.512-0.92-6.728c-0.09-0.441-0.24-0.873-0.35-1.303c-0.48-1.985-1.03-3.951-1.36-5.986
		c-0.23-1.404-0.69-2.777-1.16-4.131c-0.3-0.862-0.79-1.665-1.2-2.487c-0.51-1.042-1.02-2.075-1.55-3.108
		c-0.1-0.21-0.21-0.441-0.37-0.612c-1.07-1.062-2.12-2.156-3.26-3.138c-0.5-0.431-1.19-0.672-1.84-0.882
		c-1.19-0.381-2.4-0.692-3.61-0.982c-0.66-0.161-1.34-0.241-2.01-0.331c-1.89-0.25-3.79-0.461-5.67-0.752
		c-0.79-0.121-1.58-0.28-2.25-0.792c-0.18-0.13-0.44-0.181-0.67-0.22c-0.88-0.141-1.77-0.201-2.63-0.412
		c-0.8-0.19-1.57-0.521-2.35-0.792c-0.34-0.121-0.67-0.23-1.01-0.341c-0.25-0.09-0.54-0.11-0.76-0.261
		c-0.97-0.652-2.16-0.632-3.19-1.073c-1.04-0.451-2.15-0.321-3.21-0.602c-1.01-0.271-2.13-0.271-3.18-0.181
		c-1.77,0.161-3.48-0.15-5.17-0.461c-1.72-0.32-3.22-1.213-4.6-2.286c-0.18-0.141-0.37-0.341-0.44-0.552
		c-0.13-0.441-0.36-0.732-0.79-0.892c-0.1-0.04-0.19-0.15-0.25-0.25c-0.89-1.584-1.41-3.289-1.38-5.124c0-0.29,0.1-0.591,0.23-0.862
		c0.65-1.333,1.29-2.677,2.02-3.971c0.47-0.832,1.15-1.534,1.63-2.346c0.81-1.384,2.02-2.336,3.31-3.189
		c0.51-0.34,1.09-0.611,1.67-0.832c0.91-0.351,1.84-0.641,2.77-0.952c0.87-0.281,1.75-0.521,2.61-0.823
		c0.54-0.18,1.06-0.291,1.63-0.34c0.79-0.061,1.55-0.341,2.32-0.542c0.37-0.09,0.74-0.21,1.11-0.311
		c1.69-0.431,3.38-0.912,5.09-1.273c1.54-0.331,3.11-0.521,4.67-0.762c0.84-0.13,1.69-0.241,2.54-0.331
		c0.68-0.08,1.36-0.08,2.04-0.15c1.24-0.13,2.47-0.311,3.71-0.411c0.67-0.05,1.36,0.03,2.03,0.05c0.41,0.01,0.83,0.07,1.24,0.02
		c1.68-0.18,3.36-0.401,5.04-0.602c0.09-0.01,0.18-0.01,0.27-0.02c1.99-0.05,3.98-0.08,5.97-0.151c1.55-0.05,3.08-0.15,4.63-0.19
		c1.36-0.04,2.74-0.16,4.08,0c1.53,0.181,3.02-0.11,4.53-0.06c1.49,0.05,2.98-0.03,4.47,0.01c0.89,0.02,1.77,0.23,2.66,0.261
		c1.82,0.06,3.64,0.07,5.46,0.08c1.45,0.01,2.92,0.091,4.37-0.04c1.65-0.14,3.27-0.01,4.89,0.12c1.75,0.141,3.51,0.181,5.26,0.351
		c2.6,0.271,5.2,0.612,7.8,0.933c1.33,0.17,2.66,0.351,3.98,0.541c1.92,0.271,3.83,0.582,5.75,0.812c1.09,0.12,2.2,0.1,3.29,0.161
		c0.9,0.06,1.78,0.15,2.67,0.201c1.16,0.07,2.32,0.11,3.47,0.18c0.29,0.02,0.58,0.12,0.87,0.16c0.64,0.101,1.29,0.19,1.93,0.271
		c0.2,0.03,0.41,0.01,0.62,0.04c1.76,0.291,3.51,0.652,5.28,0.882c1.47,0.19,2.96,0.23,4.44,0.351c0.47,0.03,0.94,0.11,1.41,0.161
		c1.8,0.22,3.62,0.14,5.4,0.591c1,0.26,2.03,0.411,3.05,0.571c0.77,0.121,1.54,0.19,2.311,0.23c1.939,0.101,3.81,0.521,5.689,1.013
		c1.17,0.3,2.33,0.661,3.52,0.932c0.601,0.13,1.17,0.391,1.771,0.582c0.33,0.1,0.68,0.23,1.021,0.23
		c0.85,0.01,1.639,0.25,2.439,0.521c1.96,0.682,3.93,1.354,5.891,2.045c0.329,0.11,0.639,0.301,0.959,0.451
		c0.271,0.12,0.541,0.251,0.811,0.361c0.41,0.17,0.82,0.331,1.23,0.472c0.68,0.23,1.359,0.451,2.039,0.641
		c1.28,0.361,2.35,1.123,3.53,1.685c1.06,0.501,1.899,1.414,3.09,1.645c0.38,0.07,0.771,0.21,1.14,0.17
		c0.551-0.06,0.971,0.121,1.431,0.361c1.599,0.853,3.21,1.674,4.839,2.457c0.531,0.251,1.131,0.341,1.691,0.511
		c0.09,0.02,0.18,0.03,0.26,0.08c1.15,0.652,2.299,1.324,3.459,1.976c0.33,0.18,0.68,0.331,1.031,0.491
		c0.129,0.07,0.309,0.08,0.398,0.17c0.381,0.371,0.861,0.501,1.342,0.612c1.578,0.331,2.75,1.363,3.959,2.315
		c0.631,0.492,1.279,0.983,1.83,1.564c1.369,1.434,2.859,2.788,3.68,4.662c0.541,1.264,1.16,2.497,1.631,3.78
		c0.359,0.983,0.539,2.045,0.809,3.068c0.281,1.093,0.592,2.186,0.881,3.278c0.061,0.251,0.09,0.521,0.141,0.783
		c0.07,0.441,0.139,0.882,0.209,1.323c0.061,0.321,0.121,0.642,0.16,0.962c0.08,0.591,0.16,1.183,0.23,1.765
		c0.029,0.211,0.029,0.421,0.07,0.622c0.059,0.351,0.109,0.702,0.209,1.033c0.26,0.762,0.531,1.524,0.361,2.356
		c-0.041,0.19-0.061,0.451,0.029,0.601c0.49,0.792,0.379,1.645,0.369,2.507c0,0.391,0.182,0.792,0.371,1.153
		c0.48,0.912,0.93,1.834,0.959,2.897c0.01,0.21-0.039,0.441,0.041,0.612c0.549,1.223,0.639,2.537,0.799,3.83
		c0.061,0.401,0.012,0.822,0.041,1.233c0.109,1.454,0.24,2.898,0.34,4.342c0.02,0.291-0.02,0.591-0.109,0.862
		c-0.23,0.662-0.361,1.324-0.24,2.025c0.17,0.962,0.4,1.925,0.469,2.898c0.131,1.534,0.131,3.078,0.211,4.621
		c0.051,0.973,0.17,1.946,0.24,2.918c0.02,0.23-0.02,0.472-0.02,0.713C213.368,87.81,213.058,89.023,213.407,90.235z"/>
	<polygon fill-rule="evenodd" clip-rule="evenodd" fill="#FFFFFF" points="81.57,114.242 81.022,119.718 82.092,122.257 
		87.245,122.257 90.257,121.112 90.805,117.876 90.556,114.84 	"/>
	<g>
		<path fill-rule="evenodd" clip-rule="evenodd" d="M205.927,199.524c0.131-0.049,0.262-0.096,0.393-0.145
			c0.477-0.184,0.529-0.596,0.562-1.025c0.115-1.512,0.229-3.025,0.355-4.539c0.102-1.217,0.197-2.438,0.334-3.65
			c0.248-2.191,0.508-4.381,0.795-6.568c0.201-1.535,0.518-3.057,0.674-4.596c0.373-3.668,0.621-7.35,1.039-11.012
			c0.201-1.766,0.445-3.535,0.879-5.277c0.285-1.143,0.303-2.357,0.377-3.543c0.049-0.77-0.016-1.547-0.031-2.32
			c-0.004-0.148,0.012-0.311-0.039-0.443c-0.703-1.828-0.428-3.686-0.197-5.547c0.133-1.09,0.246-2.186,0.293-3.281
			c0.061-1.373,0.184-2.723,0.498-4.07c0.232-1.004,0.174-2.074,0.361-3.094c0.146-0.809,0.385-1.627,0.734-2.371
			c0.736-1.572,1.254-3.199,1.66-4.885c0.162-0.67,0.096-1.252,0.027-1.898c-0.156-1.479-0.289-2.969-0.279-4.455
			c0.006-0.871,0.299-1.742,0.465-2.613c0.023-0.117,0.076-0.232,0.078-0.348c0.01-1.072,0.031-2.146,0.014-3.219
			c-0.021-1.254,0.008-2.484,0.355-3.719c0.211-0.75,0.143-1.588,0.133-2.387c-0.014-0.98-0.102-1.959-0.146-2.938
			c-0.006-0.145,0.029-0.297,0.07-0.438c0.518-1.74,0.459-3.518,0.361-5.299c-0.061-1.072-0.102-2.133,0.316-3.166
			c0.455-1.123,0.244-2.295,0.15-3.453c-0.049-0.59-0.135-1.18-0.154-1.77c-0.029-0.986,0.076-1.936,0.492-2.873
			c0.635-1.424,0.609-2.955,0.424-4.482c-0.025-0.205-0.072-0.422-0.035-0.619c0.256-1.307,0.025-2.607-0.031-3.91
			c-0.047-1.1-0.143-2.199-0.15-3.301c-0.012-1.676-0.203-3.328-0.555-4.963c-0.223-1.033-0.238-2.056-0.033-3.106
			c0.238-1.227,0.357-2.47,0.088-3.727c-0.123-0.565-0.186-1.173-0.119-1.743c0.156-1.341-0.207-2.604-0.447-3.888
			c-0.18-0.966-0.369-1.931-0.568-2.894c-0.209-1.017-0.385-2.028-0.73-3.029c-0.381-1.105-0.414-2.331-0.613-3.501
			c-0.148-0.871-0.268-1.753-0.498-2.603c-0.18-0.664-0.264-1.322-0.346-2.001c-0.156-1.297-0.428-2.585-0.713-3.863
			c-0.279-1.246-0.635-2.474-0.957-3.71c-0.014-0.058-0.031-0.116-0.037-0.175c-0.16-1.863-0.852-3.59-1.43-5.338
			c-0.322-0.975-0.811-1.91-1.332-2.8c-0.844-1.439-1.904-2.727-3.021-3.969s-2.414-2.276-3.717-3.303
			c-0.865-0.681-1.742-1.346-2.643-1.979c-0.283-0.199-0.66-0.259-0.986-0.4c-1.062-0.462-2.148-0.879-3.174-1.412
			c-1.902-0.987-3.736-2.097-5.744-2.892c-1.291-0.51-2.486-1.26-3.709-1.93c-0.66-0.361-1.33-0.68-2.08-0.759
			c-1.381-0.146-2.543-0.846-3.688-1.517c-1.129-0.662-2.248-1.302-3.484-1.757c-2.535-0.934-5.029-1.986-7.574-2.889
			c-1.73-0.613-3.518-1.066-5.285-1.569c-1.346-0.383-2.697-0.751-4.055-1.091c-1.154-0.29-2.264-0.729-3.4-1.047
			c-1.414-0.396-2.877-0.642-4.346-0.818c-1.441-0.173-2.877-0.418-4.314-0.627c-0.295-0.043-0.596-0.053-0.889-0.099
			c-1.145-0.181-2.284-0.418-3.434-0.547c-1.889-0.21-3.785-0.342-5.676-0.531c-0.467-0.047-0.951-0.335-1.381-0.256
			c-0.795,0.147-1.539-0.087-2.299-0.142c-1.178-0.085-2.344-0.356-3.518-0.537c-0.35-0.054-0.709-0.051-1.061-0.1
			c-1.826-0.252-3.65-0.53-5.479-0.761c-0.791-0.1-1.594-0.104-2.391-0.159c-1.842-0.126-3.684-0.231-5.521-0.394
			c-0.947-0.084-1.885-0.281-2.828-0.415c-3.322-0.47-6.643-0.97-9.971-1.392c-2.982-0.378-5.973-0.71-8.967-0.98
			c-1.537-0.139-3.09-0.106-4.637-0.141c-1.129-0.026-2.258-0.053-3.389-0.046c-0.83,0.005-1.66,0.069-2.49,0.1
			c-1.49,0.055-2.967-0.134-4.449-0.247c-1.148-0.086-2.297-0.129-3.438-0.317c-0.293-0.048-0.617,0.15-0.928,0.151
			c-1.752,0.002-3.506-0.037-5.26-0.032c-1.307,0.004-2.615,0.065-3.922,0.078c-1.189,0.012-2.379-0.021-3.566-0.01
			c-1.338,0.012-2.678,0.055-4.016,0.076c-1.453,0.022-2.904,0.035-4.357,0.054c-0.299,0.004-0.598-0.002-0.893,0.033
			c-2.689,0.323-5.385,0.492-8.094,0.566c-2.883,0.08-5.762,0.34-8.637,0.576c-1.631,0.134-3.268,0.296-4.873,0.595
			c-1.633,0.304-3.23,0.798-4.846,1.196c-1.07,0.264-2.148,0.495-3.217,0.76c-1.295,0.32-2.586,0.663-3.879,0.991
			c-0.947,0.241-1.887,0.541-2.848,0.699c-1.582,0.26-2.984,1.015-4.469,1.532c-1.01,0.351-1.98,0.822-2.938,1.3
			C8.221,8.782,7.792,9.078,7.524,9.447c-1.254,1.728-2.811,3.223-3.861,5.107c-0.562,1.006-1.285,1.925-1.818,2.943
			c-0.492,0.938-0.822,1.961-1.238,2.94c-1.045,2.454-0.613,4.817,0.352,7.182c0.322,0.786,0.699,1.513,1.262,2.136
			c0.336,0.372,0.697,0.728,1.086,1.042c0.852,0.688,1.697,1.394,2.605,2.001c0.658,0.442,1.383,0.85,2.137,1.075
			c1.395,0.417,2.828,0.711,4.256,1.006c0.424,0.088,0.885-0.017,1.328,0.01c1.473,0.088,2.943,0.187,4.414,0.297
			c2.242,0.169,4.385,0.732,6.484,1.531c1.471,0.56,2.953,1.148,4.482,1.479c1.734,0.374,3.363,1.107,5.115,1.369
			c1.613,0.241,3.236,0.426,4.857,0.616c1.516,0.178,2.971,0.61,4.426,1.042c0.625,0.186,1.24,0.427,1.879,0.534
			c0.51,0.085,0.918,0.333,1.232,0.661c0.924,0.964,1.963,1.883,2.621,3.015c0.566,0.97,1.088,2.014,1.5,3.085
			c0.074,0.193,0.129,0.406,0.248,0.568c0.686,0.938,1.002,2.033,1.275,3.126c0.527,2.103,0.982,4.224,1.467,6.337
			c0.324,1.422,0.727,2.832,0.957,4.269c0.322,2.026,0.738,4.037,0.785,6.111c0.041,1.898,0.338,3.79,0.49,5.688
			c0.146,1.806,0.266,3.617,0.365,5.429c0.188,3.363-0.09,6.725-0.09,10.09c0.002,2.68,0.027,5.359,0.082,8.039
			c0.053,2.623-0.113,5.234-0.264,7.85c-0.098,1.68,0.064,3.375,0.107,5.064c0.041,1.695,0.076,3.393,0.113,5.09
			c0.016,0.803-0.016,1.609,0.051,2.408c0.146,1.805,0.154,3.607,0.062,5.416c-0.045,0.854,0.057,1.715,0.098,2.572
			c0.074,1.631,0.141,3.262,0.236,4.891c0.053,0.887,0.166,1.77,0.242,2.654c0.02,0.234,0.008,0.473,0.01,0.709
			c0.01,1.098,0.002,2.197,0.033,3.295c0.023,0.771,0.09,1.543,0.16,2.314c0.072,0.828,0.211,1.652,0.252,2.482
			c0.049,1.035,0.057,2.076,0.029,3.113c-0.033,1.25-0.137,2.5-0.18,3.75c-0.035,1.07,0.047,2.148-0.055,3.211
			c-0.213,2.25-0.504,4.494-0.783,6.738c-0.057,0.449-0.035,0.854,0.062,1.309c0.137,0.615,0.123,1.289,0.041,1.922
			c-0.254,1.945-0.66,3.873-0.566,5.854c0.135,2.904-0.295,5.768-0.648,8.637c-0.176,1.418-0.354,2.836-0.58,4.248
			c-0.23,1.438-0.514,2.865-0.785,4.295c-0.139,0.73,0.342,1.445,1.066,1.547c0.266,0.037,0.533,0.074,0.801,0.076
			c0.762,0.002,1.279-0.223,1.676-1.018c0.449-0.895,0.469-1.812,0.609-2.73c0.113-0.734,0.088-1.492,0.238-2.217
			c0.379-1.811,0.666-3.621,0.697-5.48c0.02-1.238,0.266-2.469,0.371-3.707c0.111-1.293,0.184-2.59,0.26-3.885
			c0.092-1.578,0.217-3.156,0.242-4.734c0.02-1.396,0.48-2.678,0.842-3.99c0.07-0.254,0.184-0.607,0.072-0.779
			c-0.354-0.539-0.049-1.012,0-1.521c0.078-0.826,0.057-1.66,0.072-2.49c0.021-1.098,0.018-2.195,0.059-3.291
			c0.062-1.697,0.17-3.391,0.217-5.088c0.012-0.4-0.164-0.803-0.221-1.207c-0.098-0.705-0.189-1.41-0.246-2.117
			c-0.072-0.883-0.104-1.768-0.156-2.652c-0.02-0.326-0.072-0.652-0.076-0.979c-0.027-2.145-0.016-4.289-0.076-6.434
			c-0.033-1.158-0.209-2.311-0.27-3.471c-0.064-1.244-0.076-2.49-0.098-3.736c-0.027-1.482-0.039-2.967-0.059-4.449
			c-0.021-1.576-0.016-3.152-0.07-4.727c-0.07-2.051-0.213-4.1-0.279-6.15c-0.102-3.211-0.043-6.414,0.326-9.613
			c0.129-1.107,0.018-2.244-0.004-3.367c-0.014-0.773-0.049-1.549-0.09-2.324c-0.041-0.74-0.104-1.48-0.154-2.221
			c-0.008-0.088-0.023-0.178-0.021-0.266c0.062-2.709,0.123-5.416,0.189-8.123c0.043-1.869,0.27-3.756,0.088-5.604
			c-0.168-1.682-0.176-3.369-0.365-5.048c-0.299-2.656-0.518-5.321-0.746-7.984c-0.191-2.254-0.471-4.497-0.918-6.715
			c-0.088-0.438-0.24-0.862-0.346-1.296c-0.484-1.982-1.033-3.945-1.363-5.969c-0.229-1.4-0.695-2.771-1.16-4.118
			c-0.299-0.864-0.787-1.662-1.197-2.487c-0.514-1.035-1.027-2.068-1.551-3.099c-0.107-0.212-0.213-0.442-0.377-0.605
			c-1.07-1.062-2.111-2.158-3.254-3.135c-0.5-0.427-1.195-0.671-1.84-0.877c-1.189-0.378-2.4-0.69-3.615-0.984
			c-0.658-0.159-1.338-0.236-2.012-0.326c-1.889-0.251-3.783-0.463-5.668-0.748c-0.785-0.119-1.578-0.287-2.25-0.791
			c-0.18-0.134-0.438-0.187-0.668-0.224c-0.877-0.141-1.77-0.201-2.631-0.405c-0.803-0.19-1.57-0.526-2.354-0.796
			c-0.332-0.115-0.668-0.228-1.002-0.339c-0.254-0.084-0.547-0.111-0.76-0.255c-0.973-0.657-2.168-0.632-3.191-1.071
			c-1.045-0.449-2.154-0.323-3.217-0.604c-1.008-0.266-2.127-0.272-3.178-0.179c-1.764,0.157-3.473-0.145-5.17-0.462
			c-1.721-0.321-3.217-1.209-4.596-2.275c-0.184-0.141-0.375-0.341-0.439-0.551c-0.133-0.437-0.363-0.732-0.793-0.889
			c-0.1-0.037-0.189-0.151-0.246-0.251c-0.896-1.584-1.418-3.276-1.385-5.11c0.004-0.288,0.1-0.595,0.229-0.856
			c0.656-1.332,1.291-2.677,2.023-3.967c0.467-0.823,1.148-1.523,1.629-2.34c0.811-1.38,2.02-2.322,3.309-3.177
			c0.516-0.341,1.092-0.608,1.67-0.831c0.912-0.35,1.846-0.642,2.775-0.945c0.867-0.282,1.744-0.529,2.607-0.823
			c0.535-0.183,1.061-0.291,1.633-0.336c0.783-0.062,1.547-0.346,2.318-0.542c0.371-0.095,0.738-0.213,1.109-0.309
			c1.693-0.433,3.377-0.916,5.084-1.275c1.541-0.324,3.111-0.518,4.67-0.756c0.846-0.129,1.693-0.247,2.543-0.338
			c0.678-0.072,1.363-0.076,2.041-0.145c1.238-0.126,2.475-0.309,3.715-0.406c0.67-0.052,1.352,0.026,2.027,0.044
			c0.412,0.012,0.832,0.067,1.238,0.022c1.682-0.185,3.361-0.4,5.041-0.604c0.088-0.011,0.178-0.012,0.268-0.015
			c1.992-0.05,3.984-0.088,5.977-0.152c1.541-0.049,3.08-0.148,4.623-0.19c1.361-0.038,2.742-0.162,4.086-0.002
			c1.525,0.182,3.016-0.105,4.525-0.056c1.488,0.049,2.982-0.035,4.473,0.006c0.889,0.024,1.771,0.229,2.662,0.259
			c1.814,0.062,3.633,0.07,5.451,0.083c1.459,0.01,2.928,0.09,4.375-0.038c1.646-0.146,3.266-0.012,4.895,0.118
			c1.75,0.138,3.508,0.174,5.254,0.352c2.604,0.265,5.201,0.609,7.799,0.931c1.33,0.165,2.658,0.347,3.986,0.534
			c1.914,0.269,3.824,0.584,5.744,0.809c1.09,0.127,2.197,0.104,3.295,0.167c0.893,0.051,1.781,0.142,2.672,0.195
			c1.154,0.068,2.311,0.108,3.465,0.179c0.293,0.018,0.578,0.117,0.871,0.161c0.641,0.098,1.285,0.189,1.928,0.273
			c0.205,0.027,0.416,0.004,0.619,0.038c1.76,0.293,3.512,0.646,5.279,0.875c1.471,0.19,2.961,0.231,4.441,0.35
			c0.475,0.038,0.943,0.11,1.416,0.167c1.795,0.216,3.619,0.135,5.393,0.591c1.002,0.257,2.033,0.41,3.057,0.566
			c0.764,0.116,1.537,0.193,2.309,0.232c1.939,0.098,3.809,0.52,5.688,1.008c1.17,0.304,2.332,0.663,3.516,0.926
			c0.604,0.134,1.178,0.396,1.771,0.58c0.336,0.104,0.682,0.237,1.023,0.238c0.854,0.001,1.645,0.243,2.436,0.515
			c1.965,0.676,3.932,1.35,5.893,2.038c0.334,0.117,0.643,0.302,0.963,0.451c0.27,0.124,0.537,0.25,0.811,0.361
			c0.406,0.166,0.814,0.335,1.23,0.475c0.676,0.227,1.355,0.446,2.041,0.64c1.273,0.359,2.35,1.116,3.523,1.672
			c1.062,0.503,1.904,1.411,3.098,1.644c0.379,0.074,0.77,0.209,1.141,0.167c0.547-0.062,0.967,0.124,1.43,0.368
			c1.596,0.845,3.207,1.665,4.836,2.442c0.525,0.251,1.125,0.345,1.691,0.511c0.086,0.025,0.182,0.035,0.256,0.078
			c1.156,0.656,2.305,1.321,3.461,1.972c0.332,0.186,0.682,0.337,1.027,0.497c0.135,0.062,0.312,0.071,0.408,0.166
			c0.377,0.369,0.854,0.502,1.34,0.606c1.576,0.334,2.746,1.359,3.955,2.31c0.631,0.496,1.279,0.985,1.832,1.562
			c1.371,1.433,2.859,2.781,3.676,4.657c0.545,1.255,1.164,2.483,1.635,3.765c0.359,0.985,0.535,2.038,0.805,3.057
			c0.287,1.092,0.592,2.179,0.879,3.271c0.068,0.257,0.098,0.524,0.143,0.788c0.074,0.438,0.145,0.875,0.217,1.313
			c0.053,0.322,0.113,0.642,0.158,0.965c0.082,0.586,0.156,1.173,0.23,1.76c0.027,0.206,0.027,0.415,0.062,0.619
			c0.062,0.344,0.109,0.696,0.219,1.025c0.254,0.765,0.521,1.519,0.355,2.349c-0.039,0.195-0.064,0.452,0.029,0.603
			c0.49,0.791,0.377,1.643,0.371,2.504c-0.002,0.382,0.184,0.791,0.367,1.143c0.48,0.916,0.93,1.834,0.967,2.895
			c0.008,0.205-0.043,0.438,0.035,0.612c0.547,1.215,0.637,2.523,0.805,3.814c0.053,0.406,0.008,0.824,0.039,1.234
			c0.107,1.444,0.24,2.888,0.338,4.333c0.02,0.283-0.021,0.589-0.115,0.856c-0.229,0.66-0.354,1.32-0.232,2.018
			c0.168,0.962,0.393,1.919,0.471,2.89c0.121,1.531,0.123,3.072,0.207,4.607c0.053,0.973,0.168,1.943,0.242,2.916
			c0.018,0.232-0.021,0.471-0.023,0.705c0,1.211-0.307,2.424,0.039,3.635c0.062,0.217,0.018,0.473-0.002,0.707
			c-0.113,1.365-0.24,2.717-0.701,4.033c-0.357,1.02-0.283,2.121-0.213,3.195c0.037,0.588,0.16,1.172,0.164,1.758
			c0.004,0.65,0.02,1.328-0.148,1.945c-0.453,1.645-0.504,3.295-0.271,4.963c0.176,1.264-0.074,2.473-0.334,3.693
			c-0.107,0.516-0.203,1.074-0.117,1.58c0.295,1.723,0.398,3.439-0.084,5.127c-0.355,1.246-0.217,2.492-0.154,3.73
			c0.057,1.145-0.08,2.258-0.264,3.369c-0.295,1.77-0.389,3.523-0.117,5.314c0.131,0.865,0.012,1.777-0.064,2.662
			c-0.072,0.824-0.168,1.658-0.383,2.455c-0.189,0.703-0.49,1.398-0.863,2.027c-0.674,1.133-0.912,2.357-1,3.639
			c-0.086,1.248-0.143,2.51-0.658,3.674c-0.391,0.881-0.172,1.771-0.086,2.641c0.207,2.117,0.102,4.215-0.133,6.318
			c-0.061,0.527-0.01,1.072,0.039,1.605c0.047,0.525-0.018,1.004-0.303,1.455c-0.381,0.602-0.555,1.229-0.346,1.957
			c0.104,0.361,0.084,0.775,0.043,1.156c-0.135,1.27-0.311,2.535-0.463,3.803c-0.049,0.412-0.047,0.832-0.107,1.242
			c-0.244,1.619-0.541,3.23-0.746,4.854c-0.16,1.27-0.213,2.551-0.312,3.828c-0.008,0.119,0.01,0.238-0.004,0.357
			c-0.18,1.746-0.352,3.494-0.547,5.24c-0.152,1.359-0.314,2.719-0.51,4.072c-0.16,1.115-0.418,2.217-0.559,3.332
			c-0.215,1.715-0.35,3.441-0.547,5.158c-0.279,2.426-0.6,4.846-0.867,7.271"/>
		<path fill-rule="evenodd" clip-rule="evenodd" d="M169.173,167.352c-0.193-0.291-0.365-0.465-0.438-0.676
			c-0.334-0.984-0.623-1.984-0.965-2.967c-0.439-1.264-0.943-2.508-1.359-3.779c-0.324-0.988-0.545-2.01-0.836-3.01
			c-0.1-0.338-0.273-0.654-0.418-0.979c-0.562-1.262-1.002-2.562-0.904-3.963c0.121-1.766-0.525-3.266-1.504-4.656
			c-1.318-1.875-2.475-3.828-3.279-5.99c-0.412-1.109-1.051-2.135-1.463-3.246c-0.74-2-1.383-4.037-2.076-6.057
			c-0.096-0.277-0.211-0.562-0.383-0.797c-0.553-0.754-1.055-0.781-1.758-0.137c-0.023,0.02-0.037,0.051-0.062,0.064
			c-1.143,0.664-1.174,0.932-0.676,2.551c0.51,1.65,0.896,3.342,1.48,4.963c0.604,1.674,1.377,3.285,2.082,4.922
			c0.211,0.492,0.477,0.967,0.65,1.471c0.367,1.064,1.072,1.895,1.719,2.787c0.887,1.227,1.562,2.559,1.648,4.15
			c0.098,1.758,0.41,3.486,1.23,5.088c0.424,0.826,0.564,1.736,0.75,2.645c0.189,0.918,0.615,1.795,0.992,2.666
			c0.367,0.844,0.826,1.648,0.84,2.607c0.002,0.199,0.096,0.408,0.188,0.594c0.521,1.062,1.061,2.115,1.582,3.178
			c0.246,0.506,0.449,1.031,0.695,1.537c0.549,1.129,1.582,1.545,2.717,1.779c0.152,0.033,0.35-0.049,0.496-0.129
			c0.205-0.115,0.365-0.318,0.576-0.416c1.08-0.502,1.412-1.465,1.541-2.523c0.197-1.625,0.365-3.254,0.512-4.885
			c0.102-1.125,0.109-2.258,0.223-3.379c0.082-0.797,0.289-1.578,0.41-2.371c0.342-2.236,0.68-4.473,1.002-6.713
			c0.27-1.885,0.625-3.781,0.324-5.684c-0.268-1.699-0.322-3.422-0.795-5.105c-0.625-2.232-1.012-4.531-1.59-6.779
			c-0.506-1.959-1.203-3.869-1.689-5.834c-0.406-1.637-1.33-3.049-1.803-4.654c-0.266-0.904-0.891-1.311-1.373-1.166
			c-0.822,0.246-1.324,1.141-1.373,1.957c-0.076,1.273,0.574,2.287,1.027,3.361c0.559,1.328,0.824,2.729,1.219,4.096
			c0.42,1.449,0.812,2.908,1.195,4.367c0.145,0.547,0.215,1.109,0.346,1.658c0.381,1.611,0.861,3.205,1.141,4.832
			c0.285,1.666,0.406,3.363,0.547,5.051c0.176,2.131-0.289,4.209-0.596,6.301c-0.299,2.031-0.566,4.068-0.846,6.104
			c-0.088,0.648-0.182,1.297-0.248,1.949c-0.164,1.619-0.311,3.24-0.473,4.859C169.392,167.07,169.312,167.137,169.173,167.352z"/>
		<path fill-rule="evenodd" clip-rule="evenodd" d="M89.213,173.436c-1.348-0.234-1.945-1.277-2.656-2.109
			c-0.998-1.164-1.938-2.396-2.754-3.691c-0.531-0.84-0.805-1.846-1.191-2.777c-0.744-1.797-1.025-3.695-1.355-5.598
			c-0.236-1.365-0.793-2.672-1.162-4.018c-0.281-1.027-0.453-2.08-0.438-3.156c0.021-1.623-0.229-3.211-0.738-4.744
			c-0.459-1.377-1.02-2.719-1.49-4.09c-0.262-0.76-0.422-1.551-0.648-2.32c-0.074-0.256-0.188-0.504-0.322-0.732
			c-0.428-0.723-1.828-0.895-2.309-0.225c-0.412,0.57-0.752,1.244-0.568,2c0.271,1.129,0.549,2.258,0.891,3.365
			c0.367,1.195,0.906,2.342,1.195,3.553c0.258,1.086,0.277,2.229,0.398,3.346c0.09,0.824,0.102,1.666,0.283,2.471
			c0.246,1.1,0.629,2.166,0.938,3.252c0.219,0.773,0.475,1.543,0.6,2.332c0.359,2.246,0.943,4.428,1.824,6.52
			c0.859,2.041,2.1,3.854,3.561,5.514c0.645,0.732,1.328,1.434,1.945,2.188c0.467,0.57,0.982,0.988,1.717,1.18
			c0.654,0.172,1.264,0.521,1.916,0.703c0.447,0.125,0.939,0.15,1.406,0.129c1.336-0.062,1.926-1.049,2.436-2.088
			c0.408-0.832,0.75-1.684,0.445-2.65c-0.068-0.219-0.031-0.477-0.016-0.713c0.119-1.648-0.305-3.256-0.369-4.891
			c-0.018-0.414-0.055-0.826-0.051-1.24c0.008-1.838,0.051-3.676,0.035-5.514c-0.012-1.398-0.152-2.795-0.129-4.191
			c0.021-1.154,0.168-2.309,0.314-3.457c0.191-1.508,0.414-3.012,0.666-4.51c0.188-1.113,0.432-2.219,0.67-3.324
			c0.105-0.492-0.43-1.252-1.014-1.316c-0.375-0.041-0.822-0.107-1.125,0.049c-0.545,0.283-1.018,0.713-1.492,1.113
			c-0.115,0.098-0.152,0.324-0.168,0.496c-0.08,0.914-0.145,1.83-0.213,2.746c-0.008,0.09,0.014,0.186-0.012,0.268
			c-0.379,1.225-0.594,2.488-0.688,3.754c-0.105,1.41-0.582,2.768-0.516,4.199c0.09,1.902,0.168,3.805,0.197,5.709
			c0.021,1.455-0.061,2.914-0.055,4.369c0.002,0.682,0.096,1.363,0.156,2.043c0.084,0.916,0.188,1.832,0.26,2.75
			c0.057,0.74,0.135,1.486,0.086,2.221C89.651,172.727,89.37,173.088,89.213,173.436z"/>
		<path fill-rule="evenodd" clip-rule="evenodd" d="M193.362,30.694c-0.561,0.024-1.076,0.047-1.723,0.076
			c-0.25,0.42-0.785,0.879-0.715,1.595c0.047,0.47,0.16,0.944,0.32,1.389c0.674,1.87,0.904,3.812,1.023,5.78
			c0.039,0.651,0.18,1.296,0.264,1.944c0.027,0.203,0.031,0.411,0.023,0.616c-0.006,0.208-0.09,0.424-0.053,0.62
			c0.367,1.906-0.072,3.793-0.109,5.689c-0.004,0.268-0.061,0.537-0.045,0.802c0.037,0.615,0.582,0.893,1.15,0.627
			c0.469-0.219,0.762-0.598,0.891-1.063c0.229-0.819,0.406-1.654,0.58-2.487c0.412-1.977,0.209-3.975,0.174-5.965
			c-0.014-0.859-0.098-1.718-0.135-2.578c-0.1-2.373-0.693-4.635-1.521-6.846C193.468,30.838,193.425,30.792,193.362,30.694z"/>
		<path fill-rule="evenodd" clip-rule="evenodd" d="M186.173,34.219c-0.104-0.671-0.199-1.589-0.391-2.487
			c-0.215-1.009-0.828-1.413-1.643-1.18c-0.873,0.249-1.387,1.173-1.154,2.008c0.191,0.686,0.334,1.386,0.496,2.08
			c0.014,0.058,0.023,0.121,0.014,0.177c-0.207,1.037-0.373,2.084-0.641,3.105c-0.178,0.686-0.48,1.343-0.764,1.998
			c-0.113,0.265-0.273,0.617-0.5,0.706c-0.533,0.208-0.639,0.758-1.021,1.074c-0.26,0.214-0.262,0.523-0.066,0.808
			c0.178,0.262,0.424,0.235,0.713,0.204c1.617-0.176,2.52-1.173,3.307-2.516c0.719-1.225,1.043-2.548,1.432-3.863
			C186.126,35.745,186.089,35.095,186.173,34.219z"/>
		<path fill-rule="evenodd" clip-rule="evenodd" d="M178.345,27.009c-1.045,0.778-1.748,1.666-2.041,2.96
			c-0.23,1.025-0.822,1.971-1.266,2.946c-0.393,0.867-0.812,1.705-1.482,2.42c-0.277,0.298-0.346,0.812-0.455,1.242
			c-0.08,0.313,0.258,0.724,0.619,0.716c0.342-0.007,0.734-0.06,1.006-0.241c0.438-0.292,0.848-0.665,1.178-1.077
			c1.137-1.423,2.133-2.941,2.814-4.642c0.418-1.042,0.824-2.089,1.182-3.152c0.268-0.798,0.109-0.973-0.727-1.031
			C178.909,27.131,178.647,27.062,178.345,27.009z"/>
		<path fill-rule="evenodd" clip-rule="evenodd" d="M14.793,14.966c-1.424,0.574-1.723,0.997-1.721,2.454
			c0,0.768-0.016,1.539,0.043,2.304c0.059,0.789,0.6,1.351,1.109,1.886c0.178,0.187,0.543,0.186,0.811,0.298
			c0.988,0.412,1.625,0.071,2.217-0.797c0.65-0.952,0.943-2.422,0.352-3.438c-0.52-0.891-1.062-1.795-2.115-2.209
			C15.225,15.361,15.014,15.127,14.793,14.966z"/>
		<path fill-rule="evenodd" clip-rule="evenodd" d="M28.459,20.715c-0.096-0.602-0.16-1.101-0.258-1.593
			c-0.082-0.423-0.096-0.916-0.332-1.236c-0.24-0.325-0.721-0.471-1.088-0.708c-0.586-0.38-1.803-0.052-2.309,0.601
			c-0.416,0.535-0.531,1.155-0.406,1.768c0.225,1.101,0.488,2.214,1.279,3.079c0.225,0.248,0.559,0.413,0.869,0.563
			c0.326,0.16,0.635,0.046,0.891-0.201c0.322-0.309,0.729-0.567,0.939-0.938C28.284,21.633,28.344,21.116,28.459,20.715z"/>
		<path fill-rule="evenodd" clip-rule="evenodd" fill="none" d="M82.551,115.994c0,1.352-0.021,2.596,0.008,3.84
			c0.014,0.545,0.629,0.977,1.238,0.846c0.771-0.166,1.523-0.426,2.285-0.641c0.137-0.039,0.279-0.076,0.42-0.08
			c0.768-0.014,1.537,0.006,2.303-0.033c0.602-0.029,0.682-0.143,0.75-0.758c0.08-0.703,0.205-1.406,0.219-2.109
			c0.014-0.695-0.23-0.941-0.881-0.957c-1.246-0.031-2.494-0.004-3.74-0.031c-0.502-0.01-1.002-0.123-1.504-0.143
			C83.276,115.912,82.901,115.971,82.551,115.994z"/>
		<path fill-rule="evenodd" clip-rule="evenodd" d="M75.69,114.629c-1.166-0.299-2.354-0.246-3.531-0.34
			c-0.234-0.02-0.516-0.047-0.701,0.059c-0.426,0.248-0.867,0.117-1.299,0.174c-0.781,0.105-1.203-0.393-1.48-0.92
			c-0.271-0.52-0.119-1.182,0.33-1.566c0.713-0.613,1.465-1.203,2.48-1.293c1.416-0.125,2.785,0.188,4.168,0.387
			c0.436,0.062,0.867,0.158,1.299,0.252c0.605,0.133,1.209,0.277,1.814,0.412c0.23,0.051,0.463,0.09,0.697,0.129
			c0.52,0.088,1.039,0.215,1.562,0.248c0.621,0.039,1.215,0.049,1.828,0.279c0.742,0.275,1.559,0.43,2.352,0.469
			c1.355,0.068,2.715-0.02,4.072,0.004c1.545,0.027,3.088,0.092,4.631,0.164c1.99,0.094,3.982,0.176,5.967,0.334
			c0.885,0.07,1.762,0.279,2.625,0.496c0.748,0.188,0.951,0.604,0.881,1.514c-0.041,0.512-0.371,0.785-1.072,0.848
			c-0.326,0.029-0.656,0.027-0.982,0.008c-1.012-0.064-2.021-0.217-3.029-0.203c-1.574,0.021-3.148,0.143-4.723,0.234
			c-0.697,0.041-0.748,0.092-0.814,0.781c-0.09,0.943-0.078,1.9-0.457,2.801c-0.066,0.158-0.049,0.352-0.07,0.529
			c-0.127,0.986-0.82,1.615-1.469,2.256c-0.221,0.219-0.559,0.41-0.859,0.439c-0.795,0.074-1.6,0.047-2.4,0.072
			c-0.471,0.016-0.953,0.002-1.41,0.102c-1.012,0.217-2.006,0.521-3.02,0.734c-0.289,0.062-0.621-0.043-0.924-0.113
			c-0.652-0.15-1.346-0.246-1.641-1c-0.023-0.061-0.148-0.096-0.234-0.115c-0.576-0.143-0.678-0.518-0.672-1.076
			c0.012-1.039,0.031-2.104-0.172-3.113c-0.213-1.059-0.051-2.104-0.211-3.225C78.049,115.141,76.858,114.928,75.69,114.629z
			 M82.559,119.834c0.014,0.545,0.629,0.977,1.238,0.846c0.771-0.166,1.523-0.426,2.285-0.641c0.137-0.039,0.279-0.076,0.42-0.08
			c0.768-0.014,1.537,0.006,2.303-0.033c0.602-0.029,0.682-0.143,0.75-0.758c0.08-0.703,0.205-1.406,0.219-2.109
			c0.014-0.695-0.23-0.941-0.881-0.957c-1.246-0.031-2.494-0.004-3.74-0.031c-0.502-0.01-1.002-0.123-1.504-0.143
			c-0.373-0.016-0.748,0.043-1.098,0.066C82.551,117.346,82.53,118.59,82.559,119.834z"/>
	</g>
</g>
</svg>
