<?xml version="1.0" encoding="utf-8"?>
<!-- Generator: Adobe Illustrator 16.0.0, SVG Export Plug-In . SVG Version: 6.00 Build 0)  -->
<!DOCTYPE svg PUBLIC "-//W3C//DTD SVG 1.1//EN" "http://www.w3.org/Graphics/SVG/1.1/DTD/svg11.dtd">
<svg version="1.1" id="Ebene_1" xmlns="http://www.w3.org/2000/svg" xmlns:xlink="http://www.w3.org/1999/xlink" x="0px" y="0px"
	 width="335.256px" height="131.122px" viewBox="0 0 335.256 131.122" enable-background="new 0 0 335.256 131.122"
	 xml:space="preserve">
<g>
	<path fill="#FFFFFF" d="M63.947-180h20.81c15.876,0,24.994,6.65,24.994,19.951c0,6.759-3.325,12.337-9.547,16.091
		c8.152,5.149,11.37,9.439,11.37,19.094c0,15.34-10.298,22.312-25.959,22.312H63.947V-180z M78.75-149.322h5.148
		c6.651,0,11.049-3.862,11.049-9.118c0-5.686-3.325-9.332-10.298-9.332H78.75V-149.322z M78.75-114.781h6.222
		c7.724,0,11.8-4.506,11.8-11.264c0-7.401-5.149-11.049-12.873-11.049H78.75V-114.781z"/>
	<path fill="#FFFFFF" d="M121.439-102.552V-180h40.547v13.086h-25.744v17.808h19.63v13.086h-19.63v20.382h26.817v13.087H121.439z"/>
	<path fill="#FFFFFF" d="M217.764-180v13.086h-17.271v64.362h-14.804v-64.362h-17.271V-180H217.764z"/>
	<path fill="#FFFFFF" d="M273.539-180v13.086h-17.271v64.362h-14.803v-64.362h-17.271V-180H273.539z"/>
</g>
<g>
	<path fill="#FFFFFF" d="M7.776-49.119l-2.88-7.057H3.312v7.057H0v-17.33h4.801c3.984,0,5.88,1.921,5.88,5.186
		c0,2.16-0.768,3.72-2.616,4.416l3.265,7.729H7.776z M3.312-58.912h1.704c1.464,0,2.353-0.72,2.353-2.4c0-1.68-0.889-2.4-2.353-2.4
		H3.312V-58.912z"/>
	<path fill="#FFFFFF" d="M12.648-49.119l4.296-17.33h4.248l4.177,17.33h-3.168l-0.841-3.648h-4.584l-0.936,3.648H12.648z
		 M17.377-55.695h3.288l-1.608-7.009h-0.048L17.377-55.695z"/>
	<path fill="#FFFFFF" d="M31.152-66.449v12.121c0,1.656,0.721,2.521,2.328,2.521c1.608,0,2.353-0.865,2.353-2.521v-12.121h3.312
		v12.146c0,3.816-2.257,5.425-5.665,5.425s-5.641-1.608-5.641-5.425v-12.146H31.152z"/>
	<path fill="#FFFFFF" d="M42.983-49.119v-17.33h4.633l3,11.377h0.048l3.001-11.377h4.632v17.33h-2.832v-13.633h-0.048l-3.528,13.633
		h-2.496l-3.528-13.633h-0.048v13.633H42.983z"/>
	<path fill="#FFFFFF" d="M69.096-49.119v-17.33h8.641v2.929h-5.328v3.984h4.176v2.929h-4.176v7.488H69.096z"/>
	<path fill="#FFFFFF" d="M83.735-66.449v12.121c0,1.656,0.721,2.521,2.328,2.521c1.608,0,2.353-0.865,2.353-2.521v-12.121h3.312
		v12.146c0,3.816-2.257,5.425-5.665,5.425s-5.641-1.608-5.641-5.425v-12.146H83.735z M85.248-70.361v2.736h-2.881v-2.736H85.248z
		 M89.809-70.361v2.736h-2.881v-2.736H89.809z"/>
	<path fill="#FFFFFF" d="M103.151-49.119l-2.88-7.057h-1.584v7.057h-3.312v-17.33h4.8c3.984,0,5.881,1.921,5.881,5.186
		c0,2.16-0.768,3.72-2.616,4.416l3.265,7.729H103.151z M98.688-58.912h1.704c1.464,0,2.352-0.72,2.352-2.4
		c0-1.68-0.888-2.4-2.352-2.4h-1.704V-58.912z"/>
	<path fill="#FFFFFF" d="M116.352-66.449h4.608c3.792,0,5.904,1.633,6.049,6.001v5.329c-0.145,4.367-2.257,6-6.049,6h-4.608V-66.449
		z M119.664-52.046h1.151c1.824,0,2.881-0.865,2.881-3.457v-4.561c0-2.447-0.816-3.456-2.881-3.456h-1.151V-52.046z"/>
	<path fill="#FFFFFF" d="M130.175-49.119v-17.33h9.072v2.929h-5.76v3.984h4.392v2.929h-4.392v4.561h6v2.928H130.175z"/>
	<path fill="#FFFFFF" d="M149.976-61.624c-0.552-1.632-1.271-2.329-2.424-2.329c-1.177,0-1.824,0.721-1.824,1.896
		c0,2.617,7.393,2.809,7.393,8.232c0,2.977-2.04,4.945-5.521,4.945c-2.688,0-4.776-1.465-5.665-4.873l3.265-0.695
		c0.384,2.088,1.584,2.832,2.568,2.832c1.152,0,2.04-0.768,2.04-2.064c0-3.264-7.393-3.312-7.393-8.16
		c0-2.977,1.776-4.849,5.209-4.849c2.952,0,4.752,1.752,5.328,4.2L149.976-61.624z"/>
	<path fill="#FFFFFF" d="M156.671-49.119v-17.33h3.312v17.33H156.671z"/>
	<path fill="#FFFFFF" d="M171.912-50.558c-0.889,1.008-1.848,1.68-3.096,1.68c-3.217,0-5.474-1.536-5.474-5.809v-6.193
		c0-4.271,2.257-5.808,5.474-5.808c3.383,0,5.207,1.944,5.328,5.88h-3.312c0-2.232-0.816-2.951-2.016-2.951
		c-1.32,0-2.16,0.527-2.16,2.447v7.057c0,1.92,0.84,2.449,2.16,2.449c1.248,0,2.016-0.912,2.016-2.4v-1.057h-2.328V-58h5.641v8.881
		h-1.729L171.912-50.558z"/>
	<path fill="#FFFFFF" d="M177.646-49.119v-17.33h3.625l4.609,10.273h0.047v-10.273h3.025v17.33h-3.17l-5.064-11.186h-0.047v11.186
		H177.646z"/>
	<path fill="#FFFFFF" d="M192.6-49.119v-17.33h3.312v7.153h0.047l4.297-7.153h3.625l-4.465,6.985l4.969,10.345h-3.721l-3.457-7.272
		l-1.295,1.968v5.305H192.6z"/>
	<path fill="#FFFFFF" d="M206.135-60.88c0-4.271,2.256-5.808,5.473-5.808s5.473,1.536,5.473,5.808v6.193
		c0,4.272-2.256,5.809-5.473,5.809s-5.473-1.536-5.473-5.809V-60.88z M209.447-54.255c0,1.92,0.84,2.449,2.16,2.449
		s2.16-0.529,2.16-2.449v-7.057c0-1.92-0.84-2.447-2.16-2.447s-2.16,0.527-2.16,2.447V-54.255z"/>
	<path fill="#FFFFFF" d="M220.439-49.119v-17.33h4.633l3,11.377h0.047l3.002-11.377h4.631v17.33h-2.832v-13.633h-0.047
		l-3.529,13.633h-2.496l-3.527-13.633h-0.049v13.633H220.439z"/>
	<path fill="#FFFFFF" d="M239.592-49.119v-17.33h4.777c4.08,0,6.072,1.921,6.072,5.186c0,3.264-1.992,5.184-6.072,5.184h-1.465
		v6.961H239.592z M242.904-58.816h1.775c1.633,0,2.449-0.815,2.449-2.447c0-1.633-0.816-2.449-2.449-2.449h-1.775V-58.816z"/>
	<path fill="#FFFFFF" d="M251.16-49.119l4.295-17.33h4.248l4.178,17.33h-3.168l-0.842-3.648h-4.584l-0.936,3.648H251.16z
		 M255.887-55.695h3.289l-1.607-7.009h-0.049L255.887-55.695z"/>
	<path fill="#FFFFFF" d="M273.936-49.119l-2.879-7.057h-1.584v7.057h-3.312v-17.33h4.799c3.984,0,5.881,1.921,5.881,5.186
		c0,2.16-0.768,3.72-2.615,4.416l3.264,7.729H273.936z M269.473-58.912h1.703c1.465,0,2.352-0.72,2.352-2.4
		c0-1.68-0.887-2.4-2.352-2.4h-1.703V-58.912z"/>
	<path fill="#FFFFFF" d="M278.809-49.119l4.295-17.33h4.248l4.178,17.33h-3.168l-0.842-3.648h-4.584L282-49.119H278.809z
		 M283.535-55.695h3.289l-1.607-7.009h-0.049L283.535-55.695z"/>
	<path fill="#FFFFFF" d="M302.521-66.449v2.929h-3.865v14.401h-3.312V-63.52h-3.863v-2.929H302.521z"/>
	<path fill="#FFFFFF" d="M305.16-49.119v-17.33h3.312v17.33H305.16z"/>
	<path fill="#FFFFFF" d="M310.992-66.449h3.264l3.049,12.386h0.047l3.025-12.386h3.24l-4.418,17.33h-3.768L310.992-66.449z"/>
	<path fill="#FFFFFF" d="M325.943-49.119v-17.33h9.072v2.929h-5.76v3.984h4.393v2.929h-4.393v4.561h6v2.928H325.943z"/>
</g>
<path fill="#00D3C9" d="M146.097,94.407h-8.11l0.083-1.843h-0.328c-1.843,1.515-3.604,2.252-5.898,2.252
	c-3.399,0-5.898-1.843-5.898-6.595V77.818l-2.171-0.245c-0.081-0.613-0.123-1.435-0.123-2.089c0-0.695,0.042-1.474,0.123-2.089
	c2.375-0.409,5.53-0.574,7.946-0.574l-0.205,5.04v9.501c0,1.68,0.656,2.457,2.702,2.457c1.229,0,2.664-0.367,3.769-1.022V77.696
	l-2.621-0.409c-0.042-0.656-0.082-1.393-0.082-2.089c0-0.697,0.041-1.475,0.082-2.171h8.354l-0.162,4.834v11.877l2.539,0.409
	c0.041,0.655,0.081,1.393,0.081,2.089S146.138,93.711,146.097,94.407"/>
<path fill="#00D3C9" d="M172.26,94.407h-9.83c-0.082-0.696-0.123-1.475-0.123-2.171s0.041-1.434,0.123-2.089l1.803-0.409v-9.707
	c0-1.599-0.655-2.416-2.705-2.416c-1.351,0-2.661,0.369-3.848,1.063v11.06l1.883,0.409c0.083,0.655,0.122,1.393,0.122,2.089
	s-0.04,1.475-0.122,2.171h-9.954c-0.08-0.696-0.122-1.475-0.122-2.171s0.042-1.434,0.122-2.089l2.5-0.409v-11.92l-2.58-0.245
	c-0.083-0.613-0.124-1.394-0.124-2.089s0.041-1.474,0.124-2.089c2.334-0.409,5.528-0.574,8.109-0.574l-0.122,2.336h0.326
	c2.09-2.006,3.892-2.539,5.979-2.539c3.317,0,5.981,1.761,5.981,6.594v10.526l2.457,0.409c0.041,0.655,0.083,1.434,0.083,2.089
	C172.343,92.933,172.301,93.711,172.26,94.407"/>
<path fill="#00D3C9" d="M187.846,78.025c-0.736-0.37-1.967-0.615-2.95-0.615c-2.786,0-4.137,1.557-4.137,6.677
	c0,4.75,1.271,5.938,3.685,5.938c1.189,0,2.419-0.245,3.402-0.86V78.025z M195.952,94.407h-8.106l0.08-1.802h-0.328
	c-1.596,1.72-3.193,2.211-5.078,2.211c-4.709,0-7.659-3.235-7.659-10.729c0-7.783,3.768-11.469,9.462-11.469
	c1.229,0,2.496,0.203,3.523,0.533v-4.221l-2.582-0.245c-0.082-0.614-0.121-1.434-0.121-2.088c0-0.697,0.039-1.476,0.121-2.089
	c2.334-0.41,5.736-0.575,8.356-0.575l-0.206,5.039v20.766l2.538,0.409c0.043,0.655,0.084,1.393,0.084,2.089
	S195.995,93.711,195.952,94.407"/>
<path fill="#FFFFFF" d="M7.208,94.816c-2.662,0-5.241-0.491-7.208-1.557v-5.078c0.696-0.082,1.638-0.123,2.334-0.123
	c0.737,0,1.679,0.041,2.416,0.123l0.368,1.844c0.656,0.203,1.434,0.327,2.294,0.327c1.843,0,2.499-0.572,2.499-1.926
	c0-3.031-9.871-1.926-9.871-8.766c0-4.625,3.973-7.043,8.848-7.043c2.17,0,4.258,0.288,6.02,0.779v5.445
	c-0.696,0.082-1.598,0.125-2.294,0.125c-0.697,0-1.72-0.043-2.416-0.124l-0.368-1.761C9.462,77,8.889,76.918,8.15,76.918
	c-1.638,0-2.334,0.655-2.334,1.884c0,2.621,9.872,1.763,9.872,9.053C15.687,92.523,11.837,94.816,7.208,94.816"/>
<path fill="#FFFFFF" d="M25.29,81.669h6.266c0.041-0.326,0.041-0.779,0.041-1.104c0-2.705-1.024-3.891-3.031-3.891
	C26.6,76.674,25.331,78.025,25.29,81.669 M37.003,85.354H25.247v0.164c0,3.072,1.271,4.178,4.588,4.178
	c1.802,0,3.769-0.449,5.816-1.474c0.533,1.556,0.983,3.48,1.23,4.996c-2.377,1.146-5.162,1.598-7.128,1.598
	c-6.758,0-10.526-3.646-10.526-10.895c0-7.74,4.097-11.304,9.378-11.304c5.898,0,8.561,3.481,8.561,9.134
	C37.167,82.694,37.126,84.25,37.003,85.354"/>
<path fill="#FFFFFF" d="M63.614,94.407h-9.79c-0.081-0.696-0.122-1.475-0.122-2.171s0.041-1.434,0.122-2.089l1.762-0.409v-9.707
	c0-1.434-0.493-2.416-2.663-2.416c-1.351,0-2.704,0.369-3.892,1.063v11.06l1.884,0.409c0.082,0.655,0.123,1.393,0.123,2.089
	s-0.041,1.475-0.123,2.171h-9.994c-0.041-0.696-0.082-1.475-0.082-2.171s0.041-1.434,0.082-2.089l2.539-0.409V68.931l-2.621-0.245
	c-0.041-0.614-0.082-1.434-0.082-2.088c0-0.697,0.041-1.476,0.082-2.089c2.375-0.41,5.775-0.575,8.396-0.575l-0.205,5.039v6.062
	h0.287c1.843-1.68,3.44-2.416,5.858-2.416c3.645,0,5.939,2.089,5.939,6.594v10.526l2.499,0.409c0.041,0.655,0.081,1.393,0.081,2.089
	S63.655,93.711,63.614,94.407"/>
<path fill="#FFFFFF" d="M72.332,81.669h6.267c0.042-0.326,0.042-0.779,0.042-1.104c0-2.705-1.025-3.891-3.031-3.891
	C73.644,76.674,72.375,78.025,72.332,81.669 M84.047,85.354H72.292v0.164c0,3.072,1.27,4.178,4.588,4.178
	c1.801,0,3.768-0.449,5.815-1.474c0.533,1.556,0.984,3.48,1.229,4.996c-2.375,1.146-5.162,1.598-7.128,1.598
	c-6.757,0-10.524-3.646-10.524-10.895c0-7.74,4.095-11.304,9.378-11.304c5.898,0,8.56,3.481,8.56,9.134
	C84.211,82.694,84.17,84.25,84.047,85.354"/>
<path fill="#FFFFFF" d="M110.954,94.407h-9.83c-0.082-0.696-0.125-1.475-0.125-2.171s0.043-1.434,0.125-2.089l1.801-0.409v-9.707
	c0-1.599-0.653-2.416-2.703-2.416c-1.353,0-2.663,0.369-3.85,1.063v11.06l1.884,0.409c0.081,0.655,0.123,1.393,0.123,2.089
	s-0.042,1.475-0.123,2.171h-9.954c-0.081-0.696-0.122-1.475-0.122-2.171s0.041-1.434,0.122-2.089l2.499-0.409v-11.92l-2.58-0.245
	c-0.083-0.613-0.123-1.394-0.123-2.089s0.041-1.474,0.123-2.089c2.335-0.409,5.53-0.574,8.109-0.574l-0.122,2.336h0.327
	c2.089-2.006,3.892-2.539,5.98-2.539c3.318,0,5.979,1.761,5.979,6.594v10.526l2.459,0.409c0.041,0.655,0.081,1.434,0.081,2.089
	C111.034,92.933,110.994,93.711,110.954,94.407"/>
<path fill="#FFFFFF" d="M214.302,81.669h6.265c0.042-0.326,0.042-0.779,0.042-1.104c0-2.705-1.025-3.891-3.031-3.891
	C215.61,76.674,214.343,78.025,214.302,81.669 M226.014,85.354H214.26v0.164c0,3.072,1.271,4.178,4.588,4.178
	c1.802,0,3.767-0.449,5.815-1.474c0.532,1.556,0.983,3.48,1.229,4.996c-2.376,1.146-5.161,1.598-7.128,1.598
	c-6.758,0-10.524-3.646-10.524-10.895c0-7.74,4.096-11.304,9.376-11.304c5.9,0,8.562,3.481,8.562,9.134
	C226.179,82.694,226.136,84.25,226.014,85.354"/>
<path fill="#FFFFFF" d="M244.738,78.68c-0.697-0.164-1.516-0.286-2.297-0.286c-1.351,0-2.579,0.245-3.889,1.146v10.199l2.662,0.408
	c0.043,0.655,0.082,1.395,0.082,2.088c0,0.697-0.039,1.476-0.082,2.172h-10.731c-0.082-0.696-0.122-1.475-0.122-2.172
	c0-0.693,0.04-1.433,0.122-2.088l2.499-0.408V77.82l-2.581-0.247c-0.083-0.615-0.122-1.434-0.122-2.089
	c0-0.697,0.039-1.474,0.122-2.089c2.335-0.408,5.572-0.574,8.151-0.574l-0.163,2.909h0.326c1.967-2.743,3.523-3.114,4.793-3.114
	c0.493,0,1.186,0.084,1.681,0.249C245.189,74.542,244.981,76.877,244.738,78.68"/>
<path fill="#FFFFFF" d="M271.364,94.407h-9.83c-0.08-0.696-0.121-1.475-0.121-2.171s0.041-1.434,0.121-2.089l1.802-0.409v-9.707
	c0-1.599-0.653-2.416-2.702-2.416c-1.349,0-2.662,0.369-3.85,1.063v11.06l1.885,0.409c0.082,0.655,0.121,1.393,0.121,2.089
	s-0.039,1.475-0.121,2.171h-9.952c-0.085-0.696-0.126-1.475-0.126-2.171s0.041-1.434,0.126-2.089l2.497-0.409v-11.92l-2.582-0.245
	c-0.08-0.613-0.121-1.394-0.121-2.089s0.041-1.474,0.121-2.089c2.336-0.409,5.532-0.574,8.113-0.574l-0.126,2.336h0.328
	c2.091-2.006,3.893-2.539,5.98-2.539c3.315,0,5.979,1.761,5.979,6.594v10.526l2.457,0.409c0.044,0.655,0.083,1.434,0.083,2.089
	C271.447,92.933,271.408,93.711,271.364,94.407"/>
<path fill="#FFFFFF" d="M283.149,94.816c-5.036,0-7.248-2.17-7.248-7.331v-9.706h-2.419v-4.75h2.419v-4.303
	c1.474-0.367,3.645-0.777,5.568-0.899v5.202h5.407c0,1.596-0.123,3.192-0.288,4.75h-5.119v9.706c0,1.884,0.698,2.253,2.295,2.253
	c0.9,0,2.416-0.411,3.356-0.901c0.369,1.475,0.657,3.398,0.779,4.956C286.63,94.449,284.5,94.816,283.149,94.816"/>
<path fill="#FFFFFF" d="M296.356,81.669h6.266c0.039-0.326,0.039-0.779,0.039-1.104c0-2.705-1.022-3.891-3.031-3.891
	C297.665,76.674,296.396,78.025,296.356,81.669 M308.069,85.354h-11.754v0.164c0,3.072,1.27,4.178,4.587,4.178
	c1.802,0,3.767-0.449,5.814-1.474c0.533,1.556,0.983,3.48,1.23,4.996c-2.375,1.146-5.16,1.598-7.127,1.598
	c-6.759,0-10.525-3.646-10.525-10.895c0-7.74,4.095-11.304,9.377-11.304c5.9,0,8.562,3.481,8.562,9.134
	C308.233,82.694,308.19,84.25,308.069,85.354"/>
<path fill="#FFFFFF" d="M334.963,94.407h-9.831c-0.08-0.696-0.123-1.475-0.123-2.171s0.043-1.434,0.123-2.089l1.803-0.409v-9.707
	c0-1.599-0.656-2.416-2.705-2.416c-1.351,0-2.66,0.369-3.848,1.063v11.06l1.883,0.409c0.082,0.655,0.123,1.393,0.123,2.089
	s-0.041,1.475-0.123,2.171h-9.952c-0.08-0.696-0.123-1.475-0.123-2.171s0.043-1.434,0.123-2.089l2.497-0.409v-11.92l-2.577-0.245
	c-0.085-0.613-0.126-1.394-0.126-2.089s0.041-1.474,0.126-2.089c2.332-0.409,5.527-0.574,8.108-0.574l-0.124,2.336h0.326
	c2.093-2.006,3.893-2.539,5.981-2.539c3.319,0,5.979,1.761,5.979,6.594v10.526l2.46,0.409c0.041,0.655,0.08,1.434,0.08,2.089
	C335.043,92.933,335.004,93.711,334.963,94.407"/>
<g>
	<path fill="#00D3C9" d="M13.84,120.012l-0.729,0.174c-0.452,2.292-1.007,4.532-1.754,7.085h-2.31l-1.545-5.331
		c-0.087-0.312-0.174-0.746-0.208-1.129H7.172c-0.052,0.383-0.139,0.816-0.226,1.129l-1.528,5.331H3.091
		c-0.729-2.448-1.268-4.671-1.702-7.032l-0.799-0.104c-0.017-0.261-0.035-0.573-0.035-0.868s0.018-0.625,0.035-0.903
		c0.92-0.139,2.014-0.226,2.778-0.226l0.92,5.07c0.069,0.365,0.139,0.799,0.174,1.233h0.122c0.052-0.435,0.121-0.868,0.226-1.233
		l1.406-5.001h2.275l1.389,5.001c0.104,0.365,0.191,0.799,0.243,1.233h0.122c0.035-0.435,0.087-0.868,0.156-1.233l0.643-3.021
		l-0.747-0.174c-0.035-0.277-0.052-0.59-0.052-0.885c0-0.296,0.017-0.626,0.052-0.921h3.542c0.018,0.295,0.035,0.625,0.035,0.921
		C13.875,119.422,13.857,119.734,13.84,120.012z"/>
	<path fill="#00D3C9" d="M22.69,123.433h-4.983v0.069c0,1.303,0.538,1.771,1.945,1.771c0.764,0,1.597-0.19,2.465-0.625
		c0.226,0.66,0.417,1.476,0.521,2.118c-1.007,0.486-2.188,0.678-3.021,0.678c-2.865,0-4.463-1.546-4.463-4.619
		c0-3.282,1.736-4.793,3.977-4.793c2.5,0,3.629,1.477,3.629,3.873C22.76,122.305,22.743,122.964,22.69,123.433z M17.724,121.87
		h2.657c0.018-0.139,0.018-0.33,0.018-0.469c0-1.146-0.434-1.649-1.285-1.649C18.28,119.752,17.742,120.324,17.724,121.87z"/>
	<path fill="#00D3C9" d="M30.483,120.603c-0.295-0.069-0.642-0.121-0.972-0.121c-0.573,0-1.094,0.104-1.65,0.485v4.324l1.129,0.174
		c0.018,0.277,0.035,0.59,0.035,0.886c0,0.295-0.017,0.625-0.035,0.92h-4.549c-0.035-0.295-0.052-0.625-0.052-0.92
		c0-0.296,0.018-0.608,0.052-0.886l1.059-0.174v-5.053l-1.094-0.104c-0.035-0.261-0.052-0.607-0.052-0.886
		c0-0.295,0.017-0.625,0.052-0.886c0.99-0.174,2.361-0.243,3.455-0.243l-0.069,1.233h0.139c0.833-1.164,1.493-1.32,2.032-1.32
		c0.208,0,0.503,0.035,0.712,0.104C30.675,118.849,30.588,119.839,30.483,120.603z"/>
	<path fill="#00D3C9" d="M40.604,126.003c0,0.92-0.434,1.424-1.354,1.424c-0.868,0-1.354-0.243-2.032-1.424l-1.094-1.945
		l-0.955,1.06v0.174l0.573,0.174c0.035,0.277,0.052,0.59,0.052,0.886c0,0.295-0.018,0.625-0.052,0.92h-3.977
		c-0.035-0.295-0.052-0.625-0.052-0.92c0-0.296,0.017-0.608,0.052-0.886l1.06-0.174v-8.821l-1.094-0.104
		c-0.035-0.26-0.052-0.607-0.052-0.885c0-0.296,0.018-0.626,0.052-0.886c1.007-0.174,2.396-0.243,3.525-0.243l-0.086,2.136v6.355
		h0.139c0.399-0.729,0.747-1.233,1.32-1.893l0.66-0.747l-0.799-0.174c-0.017-0.277-0.035-0.607-0.035-0.902
		c0-0.296,0.018-0.626,0.035-0.921H40.5c0.035,0.295,0.052,0.625,0.052,0.921c0,0.295-0.018,0.625-0.052,0.902l-0.938,0.174
		l-1.806,2.015c0.504,0.851,0.99,1.701,1.494,2.535c0.26,0.434,0.451,0.573,0.955,0.573h0.399V126.003z"/>
	<path fill="#00D3C9" d="M44.977,127.444c-1.129,0-2.223-0.209-3.056-0.66v-2.153c0.295-0.034,0.694-0.052,0.99-0.052
		c0.312,0,0.712,0.018,1.024,0.052l0.156,0.781c0.278,0.087,0.608,0.14,0.973,0.14c0.781,0,1.059-0.243,1.059-0.816
		c0-1.285-4.185-0.816-4.185-3.716c0-1.963,1.685-2.987,3.751-2.987c0.92,0,1.806,0.122,2.553,0.33v2.31
		c-0.295,0.035-0.677,0.052-0.973,0.052c-0.295,0-0.729-0.017-1.024-0.052l-0.156-0.746c-0.156-0.035-0.399-0.07-0.712-0.07
		c-0.695,0-0.99,0.278-0.99,0.799c0,1.111,4.185,0.747,4.185,3.838C48.571,126.472,46.938,127.444,44.977,127.444z"/>
	<path fill="#00D3C9" d="M54.055,127.444c-2.136,0-3.073-0.921-3.073-3.108v-4.115h-1.025v-2.015h1.025v-1.823
		c0.625-0.156,1.545-0.33,2.361-0.382v2.205h2.292c0,0.678-0.052,1.354-0.122,2.015h-2.17v4.115c0,0.799,0.295,0.955,0.973,0.955
		c0.382,0,1.024-0.174,1.424-0.382c0.156,0.625,0.278,1.441,0.33,2.101C55.531,127.288,54.628,127.444,54.055,127.444z"/>
	<path fill="#00D3C9" d="M65.461,126.003c0,0.955-0.417,1.441-1.476,1.441c-0.747,0-1.372-0.174-1.737-0.938h-0.104
		c-0.764,0.659-1.545,0.938-2.431,0.938c-1.632,0-2.691-0.816-2.691-2.64c0-1.979,1.129-2.64,3.317-2.709l1.476-0.052v-1.58
		c-0.382-0.191-1.007-0.296-1.58-0.296c-0.694,0-1.493,0.122-2.101,0.399c-0.174-0.572-0.33-1.511-0.33-2.152
		c0.851-0.261,1.754-0.383,2.57-0.383c1.302,0,2.813,0.296,3.733,1.008v5.816c0,0.33,0.122,0.47,0.434,0.47h0.92V126.003z
		 M61.814,123.468l-1.319,0.069c-0.816,0.035-1.094,0.312-1.094,1.129c0,0.764,0.278,1.059,0.938,1.059
		c0.503,0,1.094-0.173,1.476-0.434V123.468z"/>
	<path fill="#00D3C9" d="M70.423,127.444c-2.136,0-3.073-0.921-3.073-3.108v-4.115h-1.025v-2.015h1.025v-1.823
		c0.625-0.156,1.545-0.33,2.361-0.382v2.205h2.292c0,0.678-0.052,1.354-0.122,2.015h-2.17v4.115c0,0.799,0.295,0.955,0.973,0.955
		c0.382,0,1.024-0.174,1.424-0.382c0.156,0.625,0.278,1.441,0.33,2.101C71.899,127.288,70.997,127.444,70.423,127.444z"/>
	<path fill="#00D3C9" d="M77.558,127.444c-2.136,0-3.073-0.921-3.073-3.108v-4.115h-1.025v-2.015h1.025v-1.823
		c0.625-0.156,1.545-0.33,2.361-0.382v2.205h2.292c0,0.678-0.052,1.354-0.122,2.015h-2.17v4.115c0,0.799,0.295,0.955,0.973,0.955
		c0.382,0,1.024-0.174,1.424-0.382c0.156,0.625,0.278,1.441,0.33,2.101C79.034,127.288,78.131,127.444,77.558,127.444z"/>
	<path fill="#00D3C9" d="M90.438,116.505c-0.261-0.053-0.851-0.087-1.06-0.087c-0.556,0-0.764,0.277-0.764,0.92v0.868h1.945
		c0,0.694-0.052,1.39-0.139,2.015h-1.806v5.07l1.111,0.174c0.035,0.277,0.052,0.607,0.052,0.886c0,0.295-0.017,0.625-0.052,0.92
		h-4.532c-0.035-0.295-0.052-0.625-0.052-0.92c0-0.278,0.017-0.608,0.052-0.886l1.059-0.174v-5.07h-1.059v-2.015h1.059v-0.694
		c0-1.979,1.407-3.16,3.091-3.16c0.33,0,0.955,0.052,1.233,0.104C90.576,115.028,90.542,115.81,90.438,116.505z"/>
	<path fill="#00D3C9" d="M101.27,127.271h-3.438l0.035-0.781h-0.139c-0.782,0.643-1.528,0.955-2.5,0.955
		c-1.441,0-2.5-0.781-2.5-2.796v-4.41l-0.92-0.104c-0.035-0.261-0.052-0.607-0.052-0.886c0-0.295,0.018-0.625,0.052-0.886
		c1.007-0.174,2.344-0.243,3.369-0.243l-0.087,2.136v4.029c0,0.712,0.278,1.042,1.146,1.042c0.521,0,1.129-0.157,1.598-0.435v-4.706
		l-1.111-0.174c-0.018-0.277-0.035-0.59-0.035-0.885c0-0.296,0.017-0.626,0.035-0.921h3.542l-0.07,2.049v5.036l1.077,0.174
		c0.018,0.277,0.035,0.59,0.035,0.886C101.305,126.646,101.288,126.976,101.27,127.271z M94.567,117.286
		c-0.833,0-1.233-0.556-1.233-1.233c0-0.677,0.399-1.268,1.25-1.268c0.833,0,1.233,0.573,1.233,1.268
		C95.818,116.748,95.401,117.286,94.567,117.286z M98.006,117.286c-0.833,0-1.233-0.556-1.233-1.233c0-0.677,0.382-1.268,1.25-1.268
		c0.833,0,1.233,0.573,1.233,1.268C99.256,116.748,98.839,117.286,98.006,117.286z"/>
	<path fill="#00D3C9" d="M108.802,120.603c-0.295-0.069-0.642-0.121-0.972-0.121c-0.573,0-1.094,0.104-1.65,0.485v4.324l1.129,0.174
		c0.018,0.277,0.035,0.59,0.035,0.886c0,0.295-0.017,0.625-0.035,0.92h-4.549c-0.035-0.295-0.052-0.625-0.052-0.92
		c0-0.296,0.017-0.608,0.052-0.886l1.059-0.174v-5.053l-1.094-0.104c-0.035-0.261-0.052-0.607-0.052-0.886
		c0-0.295,0.017-0.625,0.052-0.886c0.99-0.174,2.362-0.243,3.456-0.243l-0.069,1.233h0.139c0.833-1.164,1.493-1.32,2.031-1.32
		c0.208,0,0.504,0.035,0.712,0.104C108.994,118.849,108.907,119.839,108.802,120.603z"/>
	<path fill="#00D3C9" d="M123.176,126.003c0,0.92-0.434,1.424-1.354,1.424c-0.868,0-1.354-0.243-2.032-1.424l-1.094-1.945
		l-0.955,1.06v0.174l0.573,0.174c0.035,0.277,0.052,0.59,0.052,0.886c0,0.295-0.018,0.625-0.052,0.92h-3.977
		c-0.035-0.295-0.052-0.625-0.052-0.92c0-0.296,0.017-0.608,0.052-0.886l1.06-0.174v-8.821l-1.094-0.104
		c-0.035-0.26-0.052-0.607-0.052-0.885c0-0.296,0.018-0.626,0.052-0.886c1.007-0.174,2.396-0.243,3.525-0.243l-0.086,2.136v6.355
		h0.139c0.399-0.729,0.747-1.233,1.32-1.893l0.66-0.747l-0.799-0.174c-0.017-0.277-0.035-0.607-0.035-0.902
		c0-0.296,0.018-0.626,0.035-0.921h4.011c0.035,0.295,0.052,0.625,0.052,0.921c0,0.295-0.018,0.625-0.052,0.902l-0.938,0.174
		l-1.806,2.015c0.504,0.851,0.99,1.701,1.494,2.535c0.26,0.434,0.451,0.573,0.955,0.573h0.399V126.003z"/>
	<path fill="#00D3C9" d="M128.52,127.444c-2.431,0-4.15-1.372-4.15-4.706c0-3.039,1.754-4.706,4.167-4.706
		c2.379,0,4.133,1.303,4.133,4.706C132.67,125.847,130.864,127.444,128.52,127.444z M128.537,120.064
		c-1.059,0-1.667,0.538-1.667,2.674c0,2.118,0.556,2.674,1.649,2.674c1.06,0,1.667-0.538,1.667-2.674
		C130.187,120.62,129.631,120.064,128.537,120.064z"/>
	<path fill="#00D3C9" d="M143.954,127.271h-4.167c-0.035-0.295-0.052-0.625-0.052-0.92c0-0.296,0.018-0.608,0.052-0.886l0.764-0.174
		v-4.115c0-0.678-0.278-1.024-1.146-1.024c-0.573,0-1.128,0.156-1.632,0.451v4.688l0.799,0.174c0.035,0.277,0.052,0.59,0.052,0.886
		c0,0.295-0.018,0.625-0.052,0.92h-4.219c-0.035-0.295-0.052-0.625-0.052-0.92c0-0.296,0.018-0.608,0.052-0.886l1.059-0.174v-5.053
		l-1.094-0.104c-0.035-0.261-0.052-0.591-0.052-0.886s0.017-0.625,0.052-0.886c0.99-0.174,2.344-0.243,3.438-0.243l-0.052,0.99
		h0.139c0.885-0.851,1.649-1.077,2.535-1.077c1.406,0,2.535,0.747,2.535,2.796v4.463l1.042,0.174
		c0.017,0.277,0.035,0.607,0.035,0.886C143.988,126.646,143.971,126.976,143.954,127.271z"/>
	<path fill="#00D3C9" d="M152.44,127.271h-7.206l-0.104-1.928l4.428-5.122h-2.084l-0.173,0.851c-0.295,0.035-0.66,0.052-0.955,0.052
		c-0.295,0-0.66-0.017-0.955-0.052v-2.865h6.79l0.104,1.928l-4.428,5.122h2.5l0.157-0.851c0.312-0.034,0.677-0.052,0.972-0.052
		c0.312,0,0.66,0.018,0.955,0.052V127.271z"/>
	<path fill="#00D3C9" d="M161.415,123.433h-4.983v0.069c0,1.303,0.538,1.771,1.945,1.771c0.764,0,1.597-0.19,2.466-0.625
		c0.226,0.66,0.417,1.476,0.521,2.118c-1.007,0.486-2.188,0.678-3.021,0.678c-2.865,0-4.462-1.546-4.462-4.619
		c0-3.282,1.736-4.793,3.977-4.793c2.5,0,3.629,1.477,3.629,3.873C161.484,122.305,161.467,122.964,161.415,123.433z
		 M156.448,121.87h2.657c0.018-0.139,0.018-0.33,0.018-0.469c0-1.146-0.434-1.649-1.285-1.649
		C157.004,119.752,156.466,120.324,156.448,121.87z"/>
	<path fill="#00D3C9" d="M167.628,127.444c-0.365,0-0.799-0.069-1.268-0.209v1.633l1.111,0.174c0.034,0.277,0.052,0.59,0.052,0.886
		c0,0.295-0.018,0.625-0.052,0.92h-4.55c-0.018-0.295-0.035-0.625-0.035-0.92c0-0.278,0.017-0.608,0.035-0.886l1.077-0.174v-8.63
		l-1.111-0.104c-0.018-0.261-0.035-0.607-0.035-0.886c0-0.295,0.017-0.625,0.035-0.886c1.007-0.174,2.362-0.243,3.456-0.243
		l-0.053,0.903h0.156c0.713-0.747,1.39-0.99,2.223-0.99c1.807,0,3.195,1.146,3.195,4.498
		C171.864,125.812,170.18,127.444,167.628,127.444z M167.854,120.082c-0.538,0-1.06,0.173-1.493,0.503v4.584
		c0.347,0.209,0.781,0.261,1.197,0.261c1.251,0,1.824-0.677,1.824-2.899C169.382,120.62,168.825,120.082,167.854,120.082z"/>
	<path fill="#00D3C9" d="M177.295,127.444c-2.136,0-3.073-0.921-3.073-3.108v-4.115h-1.024v-2.015h1.024v-1.823
		c0.625-0.156,1.545-0.33,2.361-0.382v2.205h2.292c0,0.678-0.052,1.354-0.121,2.015h-2.171v4.115c0,0.799,0.295,0.955,0.973,0.955
		c0.382,0,1.024-0.174,1.424-0.382c0.156,0.625,0.277,1.441,0.33,2.101C178.771,127.288,177.868,127.444,177.295,127.444z"/>
	<path fill="#00D3C9" d="M185.177,127.271h-4.498c-0.034-0.295-0.052-0.625-0.052-0.92c0-0.296,0.018-0.608,0.052-0.886l1.06-0.174
		v-5.053l-1.094-0.104c-0.035-0.261-0.053-0.607-0.053-0.886c0-0.295,0.018-0.625,0.053-0.886c0.989-0.174,2.413-0.243,3.524-0.243
		l-0.069,2.136v5.036l1.077,0.174c0.017,0.277,0.034,0.59,0.034,0.886C185.211,126.646,185.193,126.976,185.177,127.271z
		 M182.885,117.112c-0.886,0-1.32-0.607-1.32-1.303c0-0.677,0.435-1.337,1.337-1.337c0.903,0,1.32,0.66,1.32,1.337
		C184.222,116.521,183.787,117.112,182.885,117.112z"/>
	<path fill="#00D3C9" d="M190.487,127.444c-2.431,0-4.15-1.372-4.15-4.706c0-3.039,1.754-4.706,4.168-4.706
		c2.379,0,4.133,1.303,4.133,4.706C194.638,125.847,192.832,127.444,190.487,127.444z M190.505,120.064
		c-1.06,0-1.667,0.538-1.667,2.674c0,2.118,0.556,2.674,1.649,2.674c1.06,0,1.667-0.538,1.667-2.674
		C192.154,120.62,191.599,120.064,190.505,120.064z"/>
	<path fill="#00D3C9" d="M205.92,127.271h-4.167c-0.035-0.295-0.053-0.625-0.053-0.92c0-0.296,0.018-0.608,0.053-0.886l0.764-0.174
		v-4.115c0-0.678-0.277-1.024-1.146-1.024c-0.573,0-1.129,0.156-1.633,0.451v4.688l0.799,0.174c0.035,0.277,0.052,0.59,0.052,0.886
		c0,0.295-0.017,0.625-0.052,0.92h-4.22c-0.034-0.295-0.052-0.625-0.052-0.92c0-0.296,0.018-0.608,0.052-0.886l1.06-0.174v-5.053
		l-1.094-0.104c-0.035-0.261-0.053-0.591-0.053-0.886s0.018-0.625,0.053-0.886c0.989-0.174,2.344-0.243,3.438-0.243l-0.052,0.99
		h0.139c0.886-0.851,1.65-1.077,2.535-1.077c1.407,0,2.535,0.747,2.535,2.796v4.463l1.042,0.174
		c0.018,0.277,0.035,0.607,0.035,0.886C205.955,126.646,205.938,126.976,205.92,127.271z"/>
	<path fill="#00D3C9" d="M220.831,127.271h-3.438l0.035-0.781h-0.139c-0.781,0.643-1.528,0.955-2.501,0.955
		c-1.441,0-2.5-0.781-2.5-2.796v-4.41l-0.921-0.104c-0.034-0.261-0.052-0.607-0.052-0.886c0-0.295,0.018-0.625,0.052-0.886
		c1.008-0.174,2.345-0.243,3.369-0.243l-0.087,2.136v4.029c0,0.712,0.278,1.042,1.146,1.042c0.521,0,1.128-0.157,1.597-0.435v-4.706
		l-1.111-0.174c-0.017-0.277-0.034-0.59-0.034-0.885c0-0.296,0.018-0.626,0.034-0.921h3.543l-0.069,2.049v5.036l1.076,0.174
		c0.018,0.277,0.035,0.59,0.035,0.886C220.866,126.646,220.849,126.976,220.831,127.271z"/>
	<path fill="#00D3C9" d="M231.922,127.271h-4.167c-0.035-0.295-0.053-0.625-0.053-0.92c0-0.296,0.018-0.608,0.053-0.886l0.764-0.174
		v-4.115c0-0.678-0.277-1.024-1.146-1.024c-0.573,0-1.129,0.156-1.633,0.451v4.688l0.799,0.174c0.035,0.277,0.052,0.59,0.052,0.886
		c0,0.295-0.017,0.625-0.052,0.92h-4.22c-0.034-0.295-0.052-0.625-0.052-0.92c0-0.296,0.018-0.608,0.052-0.886l1.06-0.174v-5.053
		l-1.094-0.104c-0.035-0.261-0.053-0.591-0.053-0.886s0.018-0.625,0.053-0.886c0.989-0.174,2.344-0.243,3.438-0.243l-0.052,0.99
		h0.139c0.886-0.851,1.65-1.077,2.535-1.077c1.407,0,2.535,0.747,2.535,2.796v4.463l1.042,0.174
		c0.018,0.277,0.035,0.607,0.035,0.886C231.957,126.646,231.939,126.976,231.922,127.271z"/>
	<path fill="#00D3C9" d="M241.973,127.271h-3.438l0.035-0.764h-0.14c-0.677,0.729-1.354,0.938-2.152,0.938
		c-1.997,0-3.248-1.372-3.248-4.55c0-3.299,1.598-4.862,4.012-4.862c0.521,0,1.06,0.087,1.493,0.227v-1.789l-1.094-0.104
		c-0.035-0.26-0.052-0.607-0.052-0.885c0-0.296,0.017-0.626,0.052-0.886c0.989-0.174,2.431-0.243,3.542-0.243l-0.087,2.136v8.804
		l1.077,0.174c0.018,0.277,0.034,0.59,0.034,0.886C242.007,126.646,241.99,126.976,241.973,127.271z M238.534,120.324
		c-0.312-0.156-0.833-0.26-1.25-0.26c-1.181,0-1.754,0.659-1.754,2.83c0,2.015,0.538,2.518,1.562,2.518
		c0.504,0,1.024-0.104,1.441-0.364V120.324z"/>
	<path fill="#00D3C9" d="M251.326,131.021c-2.831,0-3.855-0.955-3.855-2.432c0-0.59,0.278-1.198,0.921-1.684
		c-0.209-0.348-0.486-0.886-0.625-1.303c0.104-0.538,0.503-1.303,0.955-2.084c-0.608-0.469-0.99-1.198-0.99-2.292
		c0-1.893,1.198-3.195,3.334-3.195c0.521,0,1.094,0.069,1.511,0.174h2.865c0,0.556-0.035,1.181-0.139,1.702l-1.008,0.069v0.121
		c0.209,0.296,0.33,0.765,0.33,1.233c0,1.997-1.302,3.004-3.212,3.004c-0.417,0-0.886-0.069-1.181-0.156
		c-0.191,0.312-0.296,0.59-0.296,0.799c0,0.295,0.122,0.364,0.417,0.364h2.379c1.685,0,2.761,0.521,2.761,2.466
		C255.493,129.754,254.156,131.021,251.326,131.021z M252.628,127.392h-2.795c-0.104,0.174-0.191,0.452-0.191,0.678
		c0,0.851,0.417,1.06,1.754,1.06c1.268,0,1.893-0.243,1.893-1.129C253.288,127.479,253.097,127.392,252.628,127.392z
		 M251.204,119.77c-0.815,0-1.198,0.382-1.198,1.406s0.365,1.424,1.198,1.424c0.834,0,1.233-0.399,1.233-1.441
		C252.438,120.082,252.021,119.77,251.204,119.77z"/>
	<path fill="#00D3C9" d="M264.19,123.433h-4.984v0.069c0,1.303,0.539,1.771,1.945,1.771c0.764,0,1.598-0.19,2.466-0.625
		c0.226,0.66,0.417,1.476,0.521,2.118c-1.007,0.486-2.188,0.678-3.021,0.678c-2.865,0-4.463-1.546-4.463-4.619
		c0-3.282,1.737-4.793,3.977-4.793c2.501,0,3.63,1.477,3.63,3.873C264.26,122.305,264.242,122.964,264.19,123.433z M259.224,121.87
		h2.657c0.017-0.139,0.017-0.33,0.017-0.469c0-1.146-0.434-1.649-1.284-1.649C259.779,119.752,259.241,120.324,259.224,121.87z"/>
	<path fill="#00D3C9" d="M268.787,127.444c-1.128,0-2.223-0.209-3.056-0.66v-2.153c0.295-0.034,0.694-0.052,0.989-0.052
		c0.313,0,0.712,0.018,1.025,0.052l0.156,0.781c0.277,0.087,0.607,0.14,0.972,0.14c0.781,0,1.06-0.243,1.06-0.816
		c0-1.285-4.185-0.816-4.185-3.716c0-1.963,1.684-2.987,3.75-2.987c0.921,0,1.807,0.122,2.553,0.33v2.31
		c-0.295,0.035-0.677,0.052-0.972,0.052c-0.296,0-0.729-0.017-1.025-0.052l-0.156-0.746c-0.156-0.035-0.399-0.07-0.712-0.07
		c-0.694,0-0.989,0.278-0.989,0.799c0,1.111,4.185,0.747,4.185,3.838C272.382,126.472,270.75,127.444,268.787,127.444z"/>
	<path fill="#00D3C9" d="M277.866,127.444c-2.136,0-3.073-0.921-3.073-3.108v-4.115h-1.024v-2.015h1.024v-1.823
		c0.625-0.156,1.545-0.33,2.361-0.382v2.205h2.292c0,0.678-0.052,1.354-0.121,2.015h-2.171v4.115c0,0.799,0.295,0.955,0.973,0.955
		c0.382,0,1.024-0.174,1.424-0.382c0.156,0.625,0.277,1.441,0.33,2.101C279.342,127.288,278.439,127.444,277.866,127.444z"/>
	<path fill="#00D3C9" d="M289.271,126.003c0,0.955-0.417,1.441-1.476,1.441c-0.747,0-1.372-0.174-1.736-0.938h-0.104
		c-0.764,0.659-1.546,0.938-2.431,0.938c-1.633,0-2.691-0.816-2.691-2.64c0-1.979,1.128-2.64,3.316-2.709l1.476-0.052v-1.58
		c-0.382-0.191-1.007-0.296-1.58-0.296c-0.694,0-1.493,0.122-2.101,0.399c-0.174-0.572-0.33-1.511-0.33-2.152
		c0.851-0.261,1.754-0.383,2.569-0.383c1.303,0,2.813,0.296,3.733,1.008v5.816c0,0.33,0.122,0.47,0.435,0.47h0.92V126.003z
		 M285.625,123.468l-1.319,0.069c-0.816,0.035-1.094,0.312-1.094,1.129c0,0.764,0.277,1.059,0.938,1.059
		c0.503,0,1.094-0.173,1.476-0.434V123.468z"/>
	<path fill="#00D3C9" d="M294.738,127.271h-4.48c-0.034-0.295-0.052-0.625-0.052-0.92c0-0.296,0.018-0.608,0.052-0.886l1.06-0.174
		v-8.821l-1.094-0.104c-0.035-0.26-0.053-0.607-0.053-0.885c0-0.296,0.018-0.626,0.053-0.886c1.007-0.174,2.431-0.243,3.542-0.243
		l-0.087,2.136v8.804l1.06,0.174c0.034,0.277,0.052,0.59,0.052,0.886C294.79,126.646,294.772,126.976,294.738,127.271z"/>
	<path fill="#00D3C9" d="M299.997,127.444c-2.136,0-3.073-0.921-3.073-3.108v-4.115h-1.024v-2.015h1.024v-1.823
		c0.625-0.156,1.545-0.33,2.361-0.382v2.205h2.292c0,0.678-0.052,1.354-0.121,2.015h-2.171v4.115c0,0.799,0.295,0.955,0.973,0.955
		c0.382,0,1.024-0.174,1.424-0.382c0.156,0.625,0.277,1.441,0.33,2.101C301.473,127.288,300.57,127.444,299.997,127.444z"/>
	<path fill="#00D3C9" d="M312.601,127.271h-3.438l0.035-0.781h-0.139c-0.781,0.643-1.528,0.955-2.501,0.955
		c-1.441,0-2.5-0.781-2.5-2.796v-4.41l-0.921-0.104c-0.034-0.261-0.052-0.607-0.052-0.886c0-0.295,0.018-0.625,0.052-0.886
		c1.008-0.174,2.345-0.243,3.369-0.243l-0.087,2.136v4.029c0,0.712,0.278,1.042,1.146,1.042c0.521,0,1.128-0.157,1.597-0.435v-4.706
		l-1.111-0.174c-0.017-0.277-0.034-0.59-0.034-0.885c0-0.296,0.018-0.626,0.034-0.921h3.543l-0.069,2.049v5.036l1.076,0.174
		c0.018,0.277,0.035,0.59,0.035,0.886C312.636,126.646,312.618,126.976,312.601,127.271z"/>
	<path fill="#00D3C9" d="M323.692,127.271h-4.167c-0.035-0.295-0.052-0.625-0.052-0.92c0-0.296,0.017-0.608,0.052-0.886l0.764-0.174
		v-4.115c0-0.678-0.277-1.024-1.146-1.024c-0.573,0-1.129,0.156-1.633,0.451v4.688l0.799,0.174c0.035,0.277,0.053,0.59,0.053,0.886
		c0,0.295-0.018,0.625-0.053,0.92h-4.22c-0.034-0.295-0.052-0.625-0.052-0.92c0-0.296,0.018-0.608,0.052-0.886l1.06-0.174v-5.053
		l-1.094-0.104c-0.035-0.261-0.053-0.591-0.053-0.886s0.018-0.625,0.053-0.886c0.989-0.174,2.344-0.243,3.438-0.243l-0.052,0.99
		h0.139c0.886-0.851,1.65-1.077,2.535-1.077c1.407,0,2.535,0.747,2.535,2.796v4.463l1.042,0.174
		c0.018,0.277,0.035,0.607,0.035,0.886C323.728,126.646,323.71,126.976,323.692,127.271z"/>
	<path fill="#00D3C9" d="M328.742,131.021c-2.831,0-3.855-0.955-3.855-2.432c0-0.59,0.278-1.198,0.921-1.684
		c-0.209-0.348-0.486-0.886-0.625-1.303c0.104-0.538,0.503-1.303,0.955-2.084c-0.608-0.469-0.99-1.198-0.99-2.292
		c0-1.893,1.198-3.195,3.334-3.195c0.521,0,1.094,0.069,1.511,0.174h2.865c0,0.556-0.035,1.181-0.139,1.702l-1.008,0.069v0.121
		c0.209,0.296,0.33,0.765,0.33,1.233c0,1.997-1.302,3.004-3.212,3.004c-0.417,0-0.886-0.069-1.181-0.156
		c-0.191,0.312-0.296,0.59-0.296,0.799c0,0.295,0.122,0.364,0.417,0.364h2.379c1.685,0,2.761,0.521,2.761,2.466
		C332.909,129.754,331.572,131.021,328.742,131.021z M330.044,127.392h-2.795c-0.104,0.174-0.191,0.452-0.191,0.678
		c0,0.851,0.417,1.06,1.754,1.06c1.268,0,1.893-0.243,1.893-1.129C330.704,127.479,330.513,127.392,330.044,127.392z M328.62,119.77
		c-0.815,0-1.198,0.382-1.198,1.406s0.365,1.424,1.198,1.424c0.834,0,1.233-0.399,1.233-1.441
		C329.854,120.082,329.437,119.77,328.62,119.77z"/>
</g>
</svg>
