<?xml version="1.0" encoding="utf-8"?>
<!-- Generator: Adobe Illustrator 16.0.0, SVG Export Plug-In . SVG Version: 6.00 Build 0)  -->
<!DOCTYPE svg PUBLIC "-//W3C//DTD SVG 1.1//EN" "http://www.w3.org/Graphics/SVG/1.1/DTD/svg11.dtd">
<svg version="1.1" id="Ebene_1" xmlns="http://www.w3.org/2000/svg" xmlns:xlink="http://www.w3.org/1999/xlink" x="0px" y="0px"
	 width="169px" height="169px" viewBox="0 0 169 169" enable-background="new 0 0 169 169" xml:space="preserve">
<path fill="#FFFFFF" d="M125.408,95c-4.335,0-8.669-0.053-13.003-0.127c-0.605-0.01-1.561-0.44-1.746-0.898
	c-1.871-4.619-3.615-9.31-5.563-14.408c3.622-3.556,7.636-7.506,11.562-11.361c-5.026-5.035-9.964-9.984-15.12-15.148
	c-3.918,3.941-7.918,7.962-11.887,11.953c-1.699-0.886-3.253-1.771-4.868-2.521c-1.679-0.779-3.409-1.454-5.133-2.131
	c-1.503-0.591-3.639-0.706-4.38-1.792c-0.777-1.139-0.247-3.168-0.252-4.816C75.006,49.851,75.015,46,75.015,42
	C67.831,42,60,42,53,42c0,1,0,1.576,0,2.318c0,4.335,0.357,8.67,0.413,13.004c0.016,1.227-0.167,1.759-1.407,2.143
	c-2.811,0.873-5.47,1.943-8.191,3.073c-1.685,0.699-3.213,1.657-5.122,2.646c-3.997-4.012-7.934-7.989-11.648-11.719
	c-4.909,4.92-9.838,9.871-15.002,15.046c3.825,3.79,7.828,7.784,11.587,11.511C21.56,85.004,19.552,90,17.427,95
	C12.083,95,6,95,0,95c0,7,0,13.877,0,21.057c6,0,10.642,0.057,15.652-0.035c1.438-0.026,2.141,0.484,2.623,1.803
	c1.362,3.726,2.943,7.424,4.65,11.003c0.699,1.466,0.871,2.267-0.398,3.462c-3.63,3.421-7.073,7.014-10.393,10.327
	c5.112,5.108,10.07,10.05,15.122,15.099c3.487-3.52,7.14-7.168,10.741-10.858c0.713-0.73,1.24-0.907,2.276-0.44
	c3.993,1.796,8.037,3.494,12.122,5.068c1.136,0.437,1.028,0.98,1.014,2.078C53.36,157.346,53,161.13,53,164.914
	c0,1.352,0,2.086,0,4.086c8,0,14,0,22,0c0-6,0-11.404,0-16.627c5-2.148,9.997-4.17,15.343-6.403
	c3.674,3.749,7.603,7.755,11.306,11.533c4.984-4.962,9.936-9.889,15.117-15.047c-3.896-3.815-7.915-7.751-11.579-11.339
	c1.865-4.859,3.587-9.471,5.45-14.022c0.21-0.515,1.217-1.005,1.865-1.021c3.92-0.09,7.843-0.074,11.765-0.074
	c1.2,0,1.733,0,2.733,0c0-7,0-14,0-21C126,95,126.155,95,125.408,95z M64.149,131.907c-14.602-0.031-26.322-11.939-26.276-26.695
	c0.046-14.525,11.882-26.206,26.538-26.189c14.706,0.018,26.371,11.772,26.347,26.555C90.732,120.237,78.908,131.939,64.149,131.907
	z"/>
<path fill="#FFFFFF" d="M169,37c0-4,0-7,0-11c-3,0-4.883,0-7.449,0c-1.079-2-2.078-4.904-3.295-7.811
	c1.854-1.76,3.876-3.65,5.629-5.316c-2.456-2.459-4.863-4.854-7.586-7.579c-1.76,1.899-4.347,3.958-6.085,5.835
	C147.608,10.039,145,9.068,142,7.986C142,5.379,142,3,142,0c-3,0-7,0-10,0c0,3,0,5.439,0,8.002c-3,1.105-4.632,2.105-7.412,3.275
	c-1.764-1.922-3.432-3.943-4.986-5.637c-2.568,2.564-4.928,5.012-7.604,7.682c1.84,1.662,3.922,3.399,5.779,5.077
	c-1.149,2.741-2.103,5.601-3.182,7.601c-2.643,0-6.596,0-8.596,0c0,4,0,7,0,11c3,0,6.133,0,8.656,0c1.061,2,2.041,4.803,3.211,7.588
	c-1.887,1.654-4,3.48-5.801,5.059c2.729,2.754,5.159,5.195,7.984,8.049c1.701-1.896,3.161-3.98,4.856-5.869
	c2.613,1.102,4.093,2.074,7.093,3.15c0,2.619,0,5.023,0,8.023c4,0,7,0,11,0c0-3,0-5.514,0-8.061c2-1.096,5.171-2.072,7.873-3.205
	c1.687,1.867,3.637,3.904,5.471,5.934c2.729-2.732,5.204-5.154,7.831-7.783c-1.973-1.791-4.022-3.56-5.872-5.239
	c1.199-2.854,2.229-5.646,3.291-7.646C164.263,37,166,37,169,37z M138.035,44.699c-7.304-0.037-13.174-5.986-13.138-13.311
	c0.036-7.299,5.985-13.166,13.318-13.135c7.284,0.029,13.168,5.992,13.132,13.307C151.312,38.857,145.356,44.736,138.035,44.699z"/>
</svg>
